  0
SECTION
  2
HEADER
  9
$ANGBASE
  50
0.0
  9
$ANGDIR
  70
1
  9
$MEASUREMENT
  70
0
  0
ENDSEC
  0
SECTION
  2
TABLES
  0
TABLE
  2
LTYPE
  70
4
  0
LTYPE
  5
40F
  2
CONTINUOUS
  70
0
  3
Solid line
  72
65
  73
0
  40
0.0
  0
LTYPE
  5
410
  2
DASHDOT
 70
0
  3
Dash Dot ____ _ ____ _
 72
65
 73
4
 40
2.0
 49
1.25
 49
-0.25
 49
0.25
 49
-0.25
  0
LTYPE
  5
411
  2
DASHED
 70
0
  3
Dashed __ __ __ __ __
 72
65
 73
2
 40
0.75
 49
0.5
 49
-0.25
  0
LTYPE
  5
43B
  2
DOTTED
 70
0
  3
Dotted .  .  .  .
 72
65
 73
2
 40
0.2
 49
0.0
 49
-0.2
  0
ENDTAB
  0
TABLE
  2
STYLE
  70
4
  0
STYLE
  2
KICAD
  70
0
  40
0
  41
1
  42
1
  50
0
  71
0
  3
isocp.shx
  0
STYLE
  2
KICADB
  70
0
  40
0
  41
1
  42
1
  50
0
  71
0
  3
isocp.shx
  0
STYLE
  2
KICADI
  70
0
  40
0
  41
1
  42
1
  50
15
  71
0
  3
isocp.shx
  0
STYLE
  2
KICADBI
  70
0
  40
0
  41
1
  42
1
  50
15
  71
0
  3
isocp.shx
  0
ENDTAB
  0
TABLE
  2
LAYER
  70
1
  0
LAYER
  2
BLACK
  70
0
  62
7
  6
CONTINUOUS
  0
ENDTAB
  0
ENDSEC
  0
SECTION
  2
ENTITIES
0
LINE
8
BLACK
6
CONTINUOUS
10
3.79262
20
-7.18014
11
3.79233
21
-7.17944
0
LINE
8
BLACK
6
CONTINUOUS
10
3.79233
20
-7.17944
11
3.79233
21
-4.42354
0
LINE
8
BLACK
6
CONTINUOUS
10
3.79233
20
-4.42354
11
3.79262
21
-4.42284
0
LINE
8
BLACK
6
CONTINUOUS
10
3.79262
20
-4.42284
11
3.79331
21
-4.42255
0
LINE
8
BLACK
6
CONTINUOUS
10
3.79331
20
-4.42255
11
13.5427
21
-4.42255
0
LINE
8
BLACK
6
CONTINUOUS
10
13.5427
20
-4.42255
11
13.5434
21
-4.42284
0
LINE
8
BLACK
6
CONTINUOUS
10
13.5434
20
-4.42284
11
13.5437
21
-4.42354
0
LINE
8
BLACK
6
CONTINUOUS
10
13.5437
20
-4.42354
11
13.5437
21
-7.17944
0
LINE
8
BLACK
6
CONTINUOUS
10
13.5437
20
-7.17944
11
13.5434
21
-7.18014
0
LINE
8
BLACK
6
CONTINUOUS
10
13.5434
20
-7.18014
11
13.5427
21
-7.18043
0
LINE
8
BLACK
6
CONTINUOUS
10
13.5427
20
-7.18043
11
3.79331
21
-7.18043
0
LINE
8
BLACK
6
CONTINUOUS
10
3.79331
20
-7.18043
11
3.79262
21
-7.18014
0
LINE
8
BLACK
6
CONTINUOUS
10
3.7943
20
-4.42452
11
3.7943
21
-7.17846
0
LINE
8
BLACK
6
CONTINUOUS
10
3.7943
20
-7.17846
11
13.5417
21
-7.17846
0
LINE
8
BLACK
6
CONTINUOUS
10
13.5417
20
-7.17846
11
13.5417
21
-4.42452
0
LINE
8
BLACK
6
CONTINUOUS
10
13.5417
20
-4.42452
11
3.7943
21
-4.42452
0
LINE
8
BLACK
6
CONTINUOUS
10
10.3445
20
-7.07718
11
10.3442
21
-7.07649
0
LINE
8
BLACK
6
CONTINUOUS
10
10.3442
20
-7.07649
11
10.3442
21
-6.32649
0
LINE
8
BLACK
6
CONTINUOUS
10
10.3442
20
-6.32649
11
10.3445
21
-6.32579
0
LINE
8
BLACK
6
CONTINUOUS
10
10.3445
20
-6.32579
11
10.3452
21
-6.3255
0
LINE
8
BLACK
6
CONTINUOUS
10
10.3452
20
-6.3255
11
11.0952
21
-6.3255
0
LINE
8
BLACK
6
CONTINUOUS
10
11.0952
20
-6.3255
11
11.0959
21
-6.32579
0
LINE
8
BLACK
6
CONTINUOUS
10
11.0959
20
-6.32579
11
11.0961
21
-6.32649
0
LINE
8
BLACK
6
CONTINUOUS
10
11.0961
20
-6.32649
11
11.0961
21
-7.07649
0
LINE
8
BLACK
6
CONTINUOUS
10
11.0961
20
-7.07649
11
11.0959
21
-7.07718
0
LINE
8
BLACK
6
CONTINUOUS
10
11.0959
20
-7.07718
11
11.0952
21
-7.07747
0
LINE
8
BLACK
6
CONTINUOUS
10
11.0952
20
-7.07747
11
10.3452
21
-7.07747
0
LINE
8
BLACK
6
CONTINUOUS
10
10.3452
20
-7.07747
11
10.3445
21
-7.07718
0
LINE
8
BLACK
6
CONTINUOUS
10
10.3461
20
-6.32747
11
10.3461
21
-7.0755
0
LINE
8
BLACK
6
CONTINUOUS
10
10.3461
20
-7.0755
11
11.0942
21
-7.0755
0
LINE
8
BLACK
6
CONTINUOUS
10
11.0942
20
-7.0755
11
11.0942
21
-6.32747
0
LINE
8
BLACK
6
CONTINUOUS
10
11.0942
20
-6.32747
11
10.3461
21
-6.32747
0
LINE
8
BLACK
6
CONTINUOUS
10
7.36809
20
-6.66838
11
7.3678
21
-6.66768
0
LINE
8
BLACK
6
CONTINUOUS
10
7.3678
20
-6.66768
11
7.3678
21
-5.36768
0
LINE
8
BLACK
6
CONTINUOUS
10
7.3678
20
-5.36768
11
7.36809
21
-5.36698
0
LINE
8
BLACK
6
CONTINUOUS
10
7.36809
20
-5.36698
11
7.36879
21
-5.36669
0
LINE
8
BLACK
6
CONTINUOUS
10
7.36879
20
-5.36669
11
9.96721
21
-5.36669
0
LINE
8
BLACK
6
CONTINUOUS
10
9.96721
20
-5.36669
11
9.96791
21
-5.36698
0
LINE
8
BLACK
6
CONTINUOUS
10
9.96791
20
-5.36698
11
9.9682
21
-5.36768
0
LINE
8
BLACK
6
CONTINUOUS
10
9.9682
20
-5.36768
11
9.9682
21
-6.66768
0
LINE
8
BLACK
6
CONTINUOUS
10
9.9682
20
-6.66768
11
9.96791
21
-6.66838
0
LINE
8
BLACK
6
CONTINUOUS
10
9.96791
20
-6.66838
11
9.96721
21
-6.66866
0
LINE
8
BLACK
6
CONTINUOUS
10
9.96721
20
-6.66866
11
7.36879
21
-6.66866
0
LINE
8
BLACK
6
CONTINUOUS
10
7.36879
20
-6.66866
11
7.36809
21
-6.66838
0
LINE
8
BLACK
6
CONTINUOUS
10
7.36977
20
-5.36866
11
7.36977
21
-6.66669
0
LINE
8
BLACK
6
CONTINUOUS
10
7.36977
20
-6.66669
11
9.96623
21
-6.66669
0
LINE
8
BLACK
6
CONTINUOUS
10
9.96623
20
-6.66669
11
9.96623
21
-5.36866
0
LINE
8
BLACK
6
CONTINUOUS
10
9.96623
20
-5.36866
11
7.36977
21
-5.36866
0
LINE
8
BLACK
6
CONTINUOUS
10
10.9728
20
-6.17718
11
10.9725
21
-6.17649
0
LINE
8
BLACK
6
CONTINUOUS
10
10.9725
20
-6.17649
11
10.9725
21
-5.42649
0
LINE
8
BLACK
6
CONTINUOUS
10
10.9725
20
-5.42649
11
10.9728
21
-5.42579
0
LINE
8
BLACK
6
CONTINUOUS
10
10.9728
20
-5.42579
11
10.9735
21
-5.4255
0
LINE
8
BLACK
6
CONTINUOUS
10
10.9735
20
-5.4255
11
11.7235
21
-5.4255
0
LINE
8
BLACK
6
CONTINUOUS
10
11.7235
20
-5.4255
11
11.7242
21
-5.42579
0
LINE
8
BLACK
6
CONTINUOUS
10
11.7242
20
-5.42579
11
11.7245
21
-5.42649
0
LINE
8
BLACK
6
CONTINUOUS
10
11.7245
20
-5.42649
11
11.7245
21
-6.17649
0
LINE
8
BLACK
6
CONTINUOUS
10
11.7245
20
-6.17649
11
11.7242
21
-6.17718
0
LINE
8
BLACK
6
CONTINUOUS
10
11.7242
20
-6.17718
11
11.7235
21
-6.17747
0
LINE
8
BLACK
6
CONTINUOUS
10
11.7235
20
-6.17747
11
10.9735
21
-6.17747
0
LINE
8
BLACK
6
CONTINUOUS
10
10.9735
20
-6.17747
11
10.9728
21
-6.17718
0
LINE
8
BLACK
6
CONTINUOUS
10
10.9745
20
-5.42747
11
10.9745
21
-6.1755
0
LINE
8
BLACK
6
CONTINUOUS
10
10.9745
20
-6.1755
11
11.7225
21
-6.1755
0
LINE
8
BLACK
6
CONTINUOUS
10
11.7225
20
-6.1755
11
11.7225
21
-5.42747
0
LINE
8
BLACK
6
CONTINUOUS
10
11.7225
20
-5.42747
11
10.9745
21
-5.42747
0
LINE
8
BLACK
6
CONTINUOUS
10
11.6012
20
-5.27718
11
11.6009
21
-5.27649
0
LINE
8
BLACK
6
CONTINUOUS
10
11.6009
20
-5.27649
11
11.6009
21
-4.52649
0
LINE
8
BLACK
6
CONTINUOUS
10
11.6009
20
-4.52649
11
11.6012
21
-4.52579
0
LINE
8
BLACK
6
CONTINUOUS
10
11.6012
20
-4.52579
11
11.6019
21
-4.5255
0
LINE
8
BLACK
6
CONTINUOUS
10
11.6019
20
-4.5255
11
12.3519
21
-4.5255
0
LINE
8
BLACK
6
CONTINUOUS
10
12.3519
20
-4.5255
11
12.3526
21
-4.52579
0
LINE
8
BLACK
6
CONTINUOUS
10
12.3526
20
-4.52579
11
12.3528
21
-4.52649
0
LINE
8
BLACK
6
CONTINUOUS
10
12.3528
20
-4.52649
11
12.3528
21
-5.27649
0
LINE
8
BLACK
6
CONTINUOUS
10
12.3528
20
-5.27649
11
12.3526
21
-5.27718
0
LINE
8
BLACK
6
CONTINUOUS
10
12.3526
20
-5.27718
11
12.3519
21
-5.27747
0
LINE
8
BLACK
6
CONTINUOUS
10
12.3519
20
-5.27747
11
11.6019
21
-5.27747
0
LINE
8
BLACK
6
CONTINUOUS
10
11.6019
20
-5.27747
11
11.6012
21
-5.27718
0
LINE
8
BLACK
6
CONTINUOUS
10
11.6028
20
-4.52747
11
11.6028
21
-5.2755
0
LINE
8
BLACK
6
CONTINUOUS
10
11.6028
20
-5.2755
11
12.3509
21
-5.2755
0
LINE
8
BLACK
6
CONTINUOUS
10
12.3509
20
-5.2755
11
12.3509
21
-4.52747
0
LINE
8
BLACK
6
CONTINUOUS
10
12.3509
20
-4.52747
11
11.6028
21
-4.52747
0
LINE
8
BLACK
6
CONTINUOUS
10
7.07217
20
-7.02279
11
7.07583
21
-7.01394
0
LINE
8
BLACK
6
CONTINUOUS
10
7.07583
20
-7.01394
11
7.08084
21
-7.00578
0
LINE
8
BLACK
6
CONTINUOUS
10
7.08084
20
-7.00578
11
7.08705
21
-6.9985
0
LINE
8
BLACK
6
CONTINUOUS
10
7.08705
20
-6.9985
11
7.09434
21
-6.99228
0
LINE
8
BLACK
6
CONTINUOUS
10
7.09434
20
-6.99228
11
7.1025
21
-6.98727
0
LINE
8
BLACK
6
CONTINUOUS
10
7.1025
20
-6.98727
11
7.11135
21
-6.98361
0
LINE
8
BLACK
6
CONTINUOUS
10
7.11135
20
-6.98361
11
7.12066
21
-6.98137
0
LINE
8
BLACK
6
CONTINUOUS
10
7.12066
20
-6.98137
11
7.1302
21
-6.98062
0
LINE
8
BLACK
6
CONTINUOUS
10
7.1302
20
-6.98062
11
7.13975
21
-6.98137
0
LINE
8
BLACK
6
CONTINUOUS
10
7.13975
20
-6.98137
11
7.14906
21
-6.98361
0
LINE
8
BLACK
6
CONTINUOUS
10
7.14906
20
-6.98361
11
7.15791
21
-6.98727
0
LINE
8
BLACK
6
CONTINUOUS
10
7.15791
20
-6.98727
11
7.16607
21
-6.99228
0
LINE
8
BLACK
6
CONTINUOUS
10
7.16607
20
-6.99228
11
7.17335
21
-6.9985
0
LINE
8
BLACK
6
CONTINUOUS
10
7.17335
20
-6.9985
11
7.17957
21
-7.00578
0
LINE
8
BLACK
6
CONTINUOUS
10
7.17957
20
-7.00578
11
7.18458
21
-7.01394
0
LINE
8
BLACK
6
CONTINUOUS
10
7.18458
20
-7.01394
11
7.18824
21
-7.02279
0
LINE
8
BLACK
6
CONTINUOUS
10
7.18824
20
-7.02279
11
7.19048
21
-7.0321
0
LINE
8
BLACK
6
CONTINUOUS
10
7.19048
20
-7.0321
11
7.19123
21
-7.04165
0
LINE
8
BLACK
6
CONTINUOUS
10
7.19123
20
-7.04165
11
7.19048
21
-7.05119
0
LINE
8
BLACK
6
CONTINUOUS
10
7.19048
20
-7.05119
11
7.18824
21
-7.0605
0
LINE
8
BLACK
6
CONTINUOUS
10
7.18824
20
-7.0605
11
7.18458
21
-7.06935
0
LINE
8
BLACK
6
CONTINUOUS
10
7.18458
20
-7.06935
11
7.17957
21
-7.07751
0
LINE
8
BLACK
6
CONTINUOUS
10
7.17957
20
-7.07751
11
7.17335
21
-7.0848
0
LINE
8
BLACK
6
CONTINUOUS
10
7.17335
20
-7.0848
11
7.16607
21
-7.09101
0
LINE
8
BLACK
6
CONTINUOUS
10
7.16607
20
-7.09101
11
7.15791
21
-7.09602
0
LINE
8
BLACK
6
CONTINUOUS
10
7.15791
20
-7.09602
11
7.14906
21
-7.09968
0
LINE
8
BLACK
6
CONTINUOUS
10
7.14906
20
-7.09968
11
7.13975
21
-7.10192
0
LINE
8
BLACK
6
CONTINUOUS
10
7.13975
20
-7.10192
11
7.1302
21
-7.10267
0
LINE
8
BLACK
6
CONTINUOUS
10
7.1302
20
-7.10267
11
7.12066
21
-7.10192
0
LINE
8
BLACK
6
CONTINUOUS
10
7.12066
20
-7.10192
11
7.11135
21
-7.09968
0
LINE
8
BLACK
6
CONTINUOUS
10
7.11135
20
-7.09968
11
7.1025
21
-7.09602
0
LINE
8
BLACK
6
CONTINUOUS
10
7.1025
20
-7.09602
11
7.09434
21
-7.09101
0
LINE
8
BLACK
6
CONTINUOUS
10
7.09434
20
-7.09101
11
7.08705
21
-7.0848
0
LINE
8
BLACK
6
CONTINUOUS
10
7.08705
20
-7.0848
11
7.08084
21
-7.07751
0
LINE
8
BLACK
6
CONTINUOUS
10
7.08084
20
-7.07751
11
7.07583
21
-7.06935
0
LINE
8
BLACK
6
CONTINUOUS
10
7.07583
20
-7.06935
11
7.07217
21
-7.0605
0
LINE
8
BLACK
6
CONTINUOUS
10
7.07217
20
-7.0605
11
7.06993
21
-7.05119
0
LINE
8
BLACK
6
CONTINUOUS
10
7.06993
20
-7.05119
11
7.06918
21
-7.04165
0
LINE
8
BLACK
6
CONTINUOUS
10
7.06918
20
-7.04165
11
7.06929
21
-7.04025
0
LINE
8
BLACK
6
CONTINUOUS
10
7.06929
20
-7.04025
11
7.06993
21
-7.0321
0
LINE
8
BLACK
6
CONTINUOUS
10
7.06993
20
-7.0321
11
7.07217
21
-7.02279
0
LINE
8
BLACK
6
CONTINUOUS
10
7.07554
20
-7.05878
11
7.07908
21
-7.06747
0
LINE
8
BLACK
6
CONTINUOUS
10
7.07908
20
-7.06747
11
7.08398
21
-7.07548
0
LINE
8
BLACK
6
CONTINUOUS
10
7.08398
20
-7.07548
11
7.09013
21
-7.08257
0
LINE
8
BLACK
6
CONTINUOUS
10
7.09013
20
-7.08257
11
7.09735
21
-7.08857
0
LINE
8
BLACK
6
CONTINUOUS
10
7.09735
20
-7.08857
11
7.10545
21
-7.0933
0
LINE
8
BLACK
6
CONTINUOUS
10
7.10545
20
-7.0933
11
7.11422
21
-7.09665
0
LINE
8
BLACK
6
CONTINUOUS
10
7.11422
20
-7.09665
11
7.12342
21
-7.09852
0
LINE
8
BLACK
6
CONTINUOUS
10
7.12342
20
-7.09852
11
7.1328
21
-7.09887
0
LINE
8
BLACK
6
CONTINUOUS
10
7.1328
20
-7.09887
11
7.14211
21
-7.09768
0
LINE
8
BLACK
6
CONTINUOUS
10
7.14211
20
-7.09768
11
7.15111
21
-7.09498
0
LINE
8
BLACK
6
CONTINUOUS
10
7.15111
20
-7.09498
11
7.15954
21
-7.09085
0
LINE
8
BLACK
6
CONTINUOUS
10
7.15954
20
-7.09085
11
7.16718
21
-7.0854
0
LINE
8
BLACK
6
CONTINUOUS
10
7.16718
20
-7.0854
11
7.17383
21
-7.07877
0
LINE
8
BLACK
6
CONTINUOUS
10
7.17383
20
-7.07877
11
7.17931
21
-7.07115
0
LINE
8
BLACK
6
CONTINUOUS
10
7.17931
20
-7.07115
11
7.18346
21
-7.06273
0
LINE
8
BLACK
6
CONTINUOUS
10
7.18346
20
-7.06273
11
7.18619
21
-7.05375
0
LINE
8
BLACK
6
CONTINUOUS
10
7.18619
20
-7.05375
11
7.18742
21
-7.04444
0
LINE
8
BLACK
6
CONTINUOUS
10
7.18742
20
-7.04444
11
7.18749
21
-7.04165
0
LINE
8
BLACK
6
CONTINUOUS
10
7.18749
20
-7.04165
11
7.18672
21
-7.03229
0
LINE
8
BLACK
6
CONTINUOUS
10
7.18672
20
-7.03229
11
7.18443
21
-7.02319
0
LINE
8
BLACK
6
CONTINUOUS
10
7.18443
20
-7.02319
11
7.18069
21
-7.01458
0
LINE
8
BLACK
6
CONTINUOUS
10
7.18069
20
-7.01458
11
7.17559
21
-7.0067
0
LINE
8
BLACK
6
CONTINUOUS
10
7.17559
20
-7.0067
11
7.16927
21
-6.99975
0
LINE
8
BLACK
6
CONTINUOUS
10
7.16927
20
-6.99975
11
7.1619
21
-6.99393
0
LINE
8
BLACK
6
CONTINUOUS
10
7.1619
20
-6.99393
11
7.15369
21
-6.9894
0
LINE
8
BLACK
6
CONTINUOUS
10
7.15369
20
-6.9894
11
7.14484
21
-6.98626
0
LINE
8
BLACK
6
CONTINUOUS
10
7.14484
20
-6.98626
11
7.1356
21
-6.98462
0
LINE
8
BLACK
6
CONTINUOUS
10
7.1356
20
-6.98462
11
7.12621
21
-6.9845
0
LINE
8
BLACK
6
CONTINUOUS
10
7.12621
20
-6.9845
11
7.11693
21
-6.98592
0
LINE
8
BLACK
6
CONTINUOUS
10
7.11693
20
-6.98592
11
7.10801
21
-6.98884
0
LINE
8
BLACK
6
CONTINUOUS
10
7.10801
20
-6.98884
11
7.09968
21
-6.99317
0
LINE
8
BLACK
6
CONTINUOUS
10
7.09968
20
-6.99317
11
7.09217
21
-6.99881
0
LINE
8
BLACK
6
CONTINUOUS
10
7.09217
20
-6.99881
11
7.08569
21
-7.0056
0
LINE
8
BLACK
6
CONTINUOUS
10
7.08569
20
-7.0056
11
7.0804
21
-7.01335
0
LINE
8
BLACK
6
CONTINUOUS
10
7.0804
20
-7.01335
11
7.07645
21
-7.02187
0
LINE
8
BLACK
6
CONTINUOUS
10
7.07645
20
-7.02187
11
7.07394
21
-7.03091
0
LINE
8
BLACK
6
CONTINUOUS
10
7.07394
20
-7.03091
11
7.07294
21
-7.04025
0
LINE
8
BLACK
6
CONTINUOUS
10
7.07294
20
-7.04025
11
7.07348
21
-7.04962
0
LINE
8
BLACK
6
CONTINUOUS
10
7.07348
20
-7.04962
11
7.07554
21
-7.05878
0
LINE
8
BLACK
6
CONTINUOUS
10
13.3472
20
-7.02279
11
13.3508
21
-7.01394
0
LINE
8
BLACK
6
CONTINUOUS
10
13.3508
20
-7.01394
11
13.3558
21
-7.00578
0
LINE
8
BLACK
6
CONTINUOUS
10
13.3558
20
-7.00578
11
13.3621
21
-6.9985
0
LINE
8
BLACK
6
CONTINUOUS
10
13.3621
20
-6.9985
11
13.3693
21
-6.99228
0
LINE
8
BLACK
6
CONTINUOUS
10
13.3693
20
-6.99228
11
13.3775
21
-6.98727
0
LINE
8
BLACK
6
CONTINUOUS
10
13.3775
20
-6.98727
11
13.3863
21
-6.98361
0
LINE
8
BLACK
6
CONTINUOUS
10
13.3863
20
-6.98361
11
13.3957
21
-6.98137
0
LINE
8
BLACK
6
CONTINUOUS
10
13.3957
20
-6.98137
11
13.4052
21
-6.98062
0
LINE
8
BLACK
6
CONTINUOUS
10
13.4052
20
-6.98062
11
13.4148
21
-6.98137
0
LINE
8
BLACK
6
CONTINUOUS
10
13.4148
20
-6.98137
11
13.4241
21
-6.98361
0
LINE
8
BLACK
6
CONTINUOUS
10
13.4241
20
-6.98361
11
13.4329
21
-6.98727
0
LINE
8
BLACK
6
CONTINUOUS
10
13.4329
20
-6.98727
11
13.4411
21
-6.99228
0
LINE
8
BLACK
6
CONTINUOUS
10
13.4411
20
-6.99228
11
13.4484
21
-6.9985
0
LINE
8
BLACK
6
CONTINUOUS
10
13.4484
20
-6.9985
11
13.4546
21
-7.00578
0
LINE
8
BLACK
6
CONTINUOUS
10
13.4546
20
-7.00578
11
13.4596
21
-7.01394
0
LINE
8
BLACK
6
CONTINUOUS
10
13.4596
20
-7.01394
11
13.4632
21
-7.02279
0
LINE
8
BLACK
6
CONTINUOUS
10
13.4632
20
-7.02279
11
13.4655
21
-7.0321
0
LINE
8
BLACK
6
CONTINUOUS
10
13.4655
20
-7.0321
11
13.4662
21
-7.04165
0
LINE
8
BLACK
6
CONTINUOUS
10
13.4662
20
-7.04165
11
13.4655
21
-7.05119
0
LINE
8
BLACK
6
CONTINUOUS
10
13.4655
20
-7.05119
11
13.4632
21
-7.0605
0
LINE
8
BLACK
6
CONTINUOUS
10
13.4632
20
-7.0605
11
13.4596
21
-7.06935
0
LINE
8
BLACK
6
CONTINUOUS
10
13.4596
20
-7.06935
11
13.4546
21
-7.07751
0
LINE
8
BLACK
6
CONTINUOUS
10
13.4546
20
-7.07751
11
13.4484
21
-7.0848
0
LINE
8
BLACK
6
CONTINUOUS
10
13.4484
20
-7.0848
11
13.4411
21
-7.09101
0
LINE
8
BLACK
6
CONTINUOUS
10
13.4411
20
-7.09101
11
13.4329
21
-7.09602
0
LINE
8
BLACK
6
CONTINUOUS
10
13.4329
20
-7.09602
11
13.4241
21
-7.09968
0
LINE
8
BLACK
6
CONTINUOUS
10
13.4241
20
-7.09968
11
13.4148
21
-7.10192
0
LINE
8
BLACK
6
CONTINUOUS
10
13.4148
20
-7.10192
11
13.4052
21
-7.10267
0
LINE
8
BLACK
6
CONTINUOUS
10
13.4052
20
-7.10267
11
13.3957
21
-7.10192
0
LINE
8
BLACK
6
CONTINUOUS
10
13.3957
20
-7.10192
11
13.3863
21
-7.09968
0
LINE
8
BLACK
6
CONTINUOUS
10
13.3863
20
-7.09968
11
13.3775
21
-7.09602
0
LINE
8
BLACK
6
CONTINUOUS
10
13.3775
20
-7.09602
11
13.3693
21
-7.09101
0
LINE
8
BLACK
6
CONTINUOUS
10
13.3693
20
-7.09101
11
13.3621
21
-7.0848
0
LINE
8
BLACK
6
CONTINUOUS
10
13.3621
20
-7.0848
11
13.3558
21
-7.07751
0
LINE
8
BLACK
6
CONTINUOUS
10
13.3558
20
-7.07751
11
13.3508
21
-7.06935
0
LINE
8
BLACK
6
CONTINUOUS
10
13.3508
20
-7.06935
11
13.3472
21
-7.0605
0
LINE
8
BLACK
6
CONTINUOUS
10
13.3472
20
-7.0605
11
13.3449
21
-7.05119
0
LINE
8
BLACK
6
CONTINUOUS
10
13.3449
20
-7.05119
11
13.3442
21
-7.04165
0
LINE
8
BLACK
6
CONTINUOUS
10
13.3442
20
-7.04165
11
13.3443
21
-7.04025
0
LINE
8
BLACK
6
CONTINUOUS
10
13.3443
20
-7.04025
11
13.3449
21
-7.0321
0
LINE
8
BLACK
6
CONTINUOUS
10
13.3449
20
-7.0321
11
13.3472
21
-7.02279
0
LINE
8
BLACK
6
CONTINUOUS
10
13.3505
20
-7.05878
11
13.3541
21
-7.06747
0
LINE
8
BLACK
6
CONTINUOUS
10
13.3541
20
-7.06747
11
13.359
21
-7.07548
0
LINE
8
BLACK
6
CONTINUOUS
10
13.359
20
-7.07548
11
13.3651
21
-7.08257
0
LINE
8
BLACK
6
CONTINUOUS
10
13.3651
20
-7.08257
11
13.3723
21
-7.08857
0
LINE
8
BLACK
6
CONTINUOUS
10
13.3723
20
-7.08857
11
13.3805
21
-7.0933
0
LINE
8
BLACK
6
CONTINUOUS
10
13.3805
20
-7.0933
11
13.3892
21
-7.09665
0
LINE
8
BLACK
6
CONTINUOUS
10
13.3892
20
-7.09665
11
13.3984
21
-7.09852
0
LINE
8
BLACK
6
CONTINUOUS
10
13.3984
20
-7.09852
11
13.4078
21
-7.09887
0
LINE
8
BLACK
6
CONTINUOUS
10
13.4078
20
-7.09887
11
13.4171
21
-7.09768
0
LINE
8
BLACK
6
CONTINUOUS
10
13.4171
20
-7.09768
11
13.4261
21
-7.09498
0
LINE
8
BLACK
6
CONTINUOUS
10
13.4261
20
-7.09498
11
13.4345
21
-7.09085
0
LINE
8
BLACK
6
CONTINUOUS
10
13.4345
20
-7.09085
11
13.4422
21
-7.0854
0
LINE
8
BLACK
6
CONTINUOUS
10
13.4422
20
-7.0854
11
13.4488
21
-7.07877
0
LINE
8
BLACK
6
CONTINUOUS
10
13.4488
20
-7.07877
11
13.4543
21
-7.07115
0
LINE
8
BLACK
6
CONTINUOUS
10
13.4543
20
-7.07115
11
13.4585
21
-7.06273
0
LINE
8
BLACK
6
CONTINUOUS
10
13.4585
20
-7.06273
11
13.4612
21
-7.05375
0
LINE
8
BLACK
6
CONTINUOUS
10
13.4612
20
-7.05375
11
13.4624
21
-7.04444
0
LINE
8
BLACK
6
CONTINUOUS
10
13.4624
20
-7.04444
11
13.4625
21
-7.04165
0
LINE
8
BLACK
6
CONTINUOUS
10
13.4625
20
-7.04165
11
13.4617
21
-7.03229
0
LINE
8
BLACK
6
CONTINUOUS
10
13.4617
20
-7.03229
11
13.4594
21
-7.02319
0
LINE
8
BLACK
6
CONTINUOUS
10
13.4594
20
-7.02319
11
13.4557
21
-7.01458
0
LINE
8
BLACK
6
CONTINUOUS
10
13.4557
20
-7.01458
11
13.4506
21
-7.0067
0
LINE
8
BLACK
6
CONTINUOUS
10
13.4506
20
-7.0067
11
13.4443
21
-6.99975
0
LINE
8
BLACK
6
CONTINUOUS
10
13.4443
20
-6.99975
11
13.4369
21
-6.99393
0
LINE
8
BLACK
6
CONTINUOUS
10
13.4369
20
-6.99393
11
13.4287
21
-6.9894
0
LINE
8
BLACK
6
CONTINUOUS
10
13.4287
20
-6.9894
11
13.4198
21
-6.98626
0
LINE
8
BLACK
6
CONTINUOUS
10
13.4198
20
-6.98626
11
13.4106
21
-6.98462
0
LINE
8
BLACK
6
CONTINUOUS
10
13.4106
20
-6.98462
11
13.4012
21
-6.9845
0
LINE
8
BLACK
6
CONTINUOUS
10
13.4012
20
-6.9845
11
13.3919
21
-6.98592
0
LINE
8
BLACK
6
CONTINUOUS
10
13.3919
20
-6.98592
11
13.383
21
-6.98884
0
LINE
8
BLACK
6
CONTINUOUS
10
13.383
20
-6.98884
11
13.3747
21
-6.99317
0
LINE
8
BLACK
6
CONTINUOUS
10
13.3747
20
-6.99317
11
13.3672
21
-6.99881
0
LINE
8
BLACK
6
CONTINUOUS
10
13.3672
20
-6.99881
11
13.3607
21
-7.0056
0
LINE
8
BLACK
6
CONTINUOUS
10
13.3607
20
-7.0056
11
13.3554
21
-7.01335
0
LINE
8
BLACK
6
CONTINUOUS
10
13.3554
20
-7.01335
11
13.3514
21
-7.02187
0
LINE
8
BLACK
6
CONTINUOUS
10
13.3514
20
-7.02187
11
13.3489
21
-7.03091
0
LINE
8
BLACK
6
CONTINUOUS
10
13.3489
20
-7.03091
11
13.3479
21
-7.04025
0
LINE
8
BLACK
6
CONTINUOUS
10
13.3479
20
-7.04025
11
13.3485
21
-7.04962
0
LINE
8
BLACK
6
CONTINUOUS
10
13.3485
20
-7.04962
11
13.3505
21
-7.05878
0
LINE
8
BLACK
6
CONTINUOUS
10
10.1472
20
-7.02279
11
10.1508
21
-7.01394
0
LINE
8
BLACK
6
CONTINUOUS
10
10.1508
20
-7.01394
11
10.1558
21
-7.00578
0
LINE
8
BLACK
6
CONTINUOUS
10
10.1558
20
-7.00578
11
10.1621
21
-6.9985
0
LINE
8
BLACK
6
CONTINUOUS
10
10.1621
20
-6.9985
11
10.1693
21
-6.99228
0
LINE
8
BLACK
6
CONTINUOUS
10
10.1693
20
-6.99228
11
10.1775
21
-6.98727
0
LINE
8
BLACK
6
CONTINUOUS
10
10.1775
20
-6.98727
11
10.1863
21
-6.98361
0
LINE
8
BLACK
6
CONTINUOUS
10
10.1863
20
-6.98361
11
10.1957
21
-6.98137
0
LINE
8
BLACK
6
CONTINUOUS
10
10.1957
20
-6.98137
11
10.2052
21
-6.98062
0
LINE
8
BLACK
6
CONTINUOUS
10
10.2052
20
-6.98062
11
10.2148
21
-6.98137
0
LINE
8
BLACK
6
CONTINUOUS
10
10.2148
20
-6.98137
11
10.2241
21
-6.98361
0
LINE
8
BLACK
6
CONTINUOUS
10
10.2241
20
-6.98361
11
10.2329
21
-6.98727
0
LINE
8
BLACK
6
CONTINUOUS
10
10.2329
20
-6.98727
11
10.2411
21
-6.99228
0
LINE
8
BLACK
6
CONTINUOUS
10
10.2411
20
-6.99228
11
10.2484
21
-6.9985
0
LINE
8
BLACK
6
CONTINUOUS
10
10.2484
20
-6.9985
11
10.2546
21
-7.00578
0
LINE
8
BLACK
6
CONTINUOUS
10
10.2546
20
-7.00578
11
10.2596
21
-7.01394
0
LINE
8
BLACK
6
CONTINUOUS
10
10.2596
20
-7.01394
11
10.2632
21
-7.02279
0
LINE
8
BLACK
6
CONTINUOUS
10
10.2632
20
-7.02279
11
10.2655
21
-7.0321
0
LINE
8
BLACK
6
CONTINUOUS
10
10.2655
20
-7.0321
11
10.2662
21
-7.04165
0
LINE
8
BLACK
6
CONTINUOUS
10
10.2662
20
-7.04165
11
10.2655
21
-7.05119
0
LINE
8
BLACK
6
CONTINUOUS
10
10.2655
20
-7.05119
11
10.2632
21
-7.0605
0
LINE
8
BLACK
6
CONTINUOUS
10
10.2632
20
-7.0605
11
10.2596
21
-7.06935
0
LINE
8
BLACK
6
CONTINUOUS
10
10.2596
20
-7.06935
11
10.2546
21
-7.07751
0
LINE
8
BLACK
6
CONTINUOUS
10
10.2546
20
-7.07751
11
10.2484
21
-7.0848
0
LINE
8
BLACK
6
CONTINUOUS
10
10.2484
20
-7.0848
11
10.2411
21
-7.09101
0
LINE
8
BLACK
6
CONTINUOUS
10
10.2411
20
-7.09101
11
10.2329
21
-7.09602
0
LINE
8
BLACK
6
CONTINUOUS
10
10.2329
20
-7.09602
11
10.2241
21
-7.09968
0
LINE
8
BLACK
6
CONTINUOUS
10
10.2241
20
-7.09968
11
10.2148
21
-7.10192
0
LINE
8
BLACK
6
CONTINUOUS
10
10.2148
20
-7.10192
11
10.2052
21
-7.10267
0
LINE
8
BLACK
6
CONTINUOUS
10
10.2052
20
-7.10267
11
10.1957
21
-7.10192
0
LINE
8
BLACK
6
CONTINUOUS
10
10.1957
20
-7.10192
11
10.1863
21
-7.09968
0
LINE
8
BLACK
6
CONTINUOUS
10
10.1863
20
-7.09968
11
10.1775
21
-7.09602
0
LINE
8
BLACK
6
CONTINUOUS
10
10.1775
20
-7.09602
11
10.1693
21
-7.09101
0
LINE
8
BLACK
6
CONTINUOUS
10
10.1693
20
-7.09101
11
10.1621
21
-7.0848
0
LINE
8
BLACK
6
CONTINUOUS
10
10.1621
20
-7.0848
11
10.1558
21
-7.07751
0
LINE
8
BLACK
6
CONTINUOUS
10
10.1558
20
-7.07751
11
10.1508
21
-7.06935
0
LINE
8
BLACK
6
CONTINUOUS
10
10.1508
20
-7.06935
11
10.1472
21
-7.0605
0
LINE
8
BLACK
6
CONTINUOUS
10
10.1472
20
-7.0605
11
10.1449
21
-7.05119
0
LINE
8
BLACK
6
CONTINUOUS
10
10.1449
20
-7.05119
11
10.1442
21
-7.04165
0
LINE
8
BLACK
6
CONTINUOUS
10
10.1442
20
-7.04165
11
10.1443
21
-7.04025
0
LINE
8
BLACK
6
CONTINUOUS
10
10.1443
20
-7.04025
11
10.1449
21
-7.0321
0
LINE
8
BLACK
6
CONTINUOUS
10
10.1449
20
-7.0321
11
10.1472
21
-7.02279
0
LINE
8
BLACK
6
CONTINUOUS
10
10.1505
20
-7.05878
11
10.1541
21
-7.06747
0
LINE
8
BLACK
6
CONTINUOUS
10
10.1541
20
-7.06747
11
10.159
21
-7.07548
0
LINE
8
BLACK
6
CONTINUOUS
10
10.159
20
-7.07548
11
10.1651
21
-7.08257
0
LINE
8
BLACK
6
CONTINUOUS
10
10.1651
20
-7.08257
11
10.1723
21
-7.08857
0
LINE
8
BLACK
6
CONTINUOUS
10
10.1723
20
-7.08857
11
10.1805
21
-7.0933
0
LINE
8
BLACK
6
CONTINUOUS
10
10.1805
20
-7.0933
11
10.1892
21
-7.09665
0
LINE
8
BLACK
6
CONTINUOUS
10
10.1892
20
-7.09665
11
10.1984
21
-7.09852
0
LINE
8
BLACK
6
CONTINUOUS
10
10.1984
20
-7.09852
11
10.2078
21
-7.09887
0
LINE
8
BLACK
6
CONTINUOUS
10
10.2078
20
-7.09887
11
10.2171
21
-7.09768
0
LINE
8
BLACK
6
CONTINUOUS
10
10.2171
20
-7.09768
11
10.2261
21
-7.09498
0
LINE
8
BLACK
6
CONTINUOUS
10
10.2261
20
-7.09498
11
10.2345
21
-7.09085
0
LINE
8
BLACK
6
CONTINUOUS
10
10.2345
20
-7.09085
11
10.2422
21
-7.0854
0
LINE
8
BLACK
6
CONTINUOUS
10
10.2422
20
-7.0854
11
10.2488
21
-7.07877
0
LINE
8
BLACK
6
CONTINUOUS
10
10.2488
20
-7.07877
11
10.2543
21
-7.07115
0
LINE
8
BLACK
6
CONTINUOUS
10
10.2543
20
-7.07115
11
10.2585
21
-7.06273
0
LINE
8
BLACK
6
CONTINUOUS
10
10.2585
20
-7.06273
11
10.2612
21
-7.05375
0
LINE
8
BLACK
6
CONTINUOUS
10
10.2612
20
-7.05375
11
10.2624
21
-7.04444
0
LINE
8
BLACK
6
CONTINUOUS
10
10.2624
20
-7.04444
11
10.2625
21
-7.04165
0
LINE
8
BLACK
6
CONTINUOUS
10
10.2625
20
-7.04165
11
10.2617
21
-7.03229
0
LINE
8
BLACK
6
CONTINUOUS
10
10.2617
20
-7.03229
11
10.2594
21
-7.02319
0
LINE
8
BLACK
6
CONTINUOUS
10
10.2594
20
-7.02319
11
10.2557
21
-7.01458
0
LINE
8
BLACK
6
CONTINUOUS
10
10.2557
20
-7.01458
11
10.2506
21
-7.0067
0
LINE
8
BLACK
6
CONTINUOUS
10
10.2506
20
-7.0067
11
10.2443
21
-6.99975
0
LINE
8
BLACK
6
CONTINUOUS
10
10.2443
20
-6.99975
11
10.2369
21
-6.99393
0
LINE
8
BLACK
6
CONTINUOUS
10
10.2369
20
-6.99393
11
10.2287
21
-6.9894
0
LINE
8
BLACK
6
CONTINUOUS
10
10.2287
20
-6.9894
11
10.2198
21
-6.98626
0
LINE
8
BLACK
6
CONTINUOUS
10
10.2198
20
-6.98626
11
10.2106
21
-6.98462
0
LINE
8
BLACK
6
CONTINUOUS
10
10.2106
20
-6.98462
11
10.2012
21
-6.9845
0
LINE
8
BLACK
6
CONTINUOUS
10
10.2012
20
-6.9845
11
10.1919
21
-6.98592
0
LINE
8
BLACK
6
CONTINUOUS
10
10.1919
20
-6.98592
11
10.183
21
-6.98884
0
LINE
8
BLACK
6
CONTINUOUS
10
10.183
20
-6.98884
11
10.1747
21
-6.99317
0
LINE
8
BLACK
6
CONTINUOUS
10
10.1747
20
-6.99317
11
10.1672
21
-6.99881
0
LINE
8
BLACK
6
CONTINUOUS
10
10.1672
20
-6.99881
11
10.1607
21
-7.0056
0
LINE
8
BLACK
6
CONTINUOUS
10
10.1607
20
-7.0056
11
10.1554
21
-7.01335
0
LINE
8
BLACK
6
CONTINUOUS
10
10.1554
20
-7.01335
11
10.1514
21
-7.02187
0
LINE
8
BLACK
6
CONTINUOUS
10
10.1514
20
-7.02187
11
10.1489
21
-7.03091
0
LINE
8
BLACK
6
CONTINUOUS
10
10.1489
20
-7.03091
11
10.1479
21
-7.04025
0
LINE
8
BLACK
6
CONTINUOUS
10
10.1479
20
-7.04025
11
10.1485
21
-7.04962
0
LINE
8
BLACK
6
CONTINUOUS
10
10.1485
20
-7.04962
11
10.1505
21
-7.05878
0
LINE
8
BLACK
6
CONTINUOUS
10
3.87248
20
-7.02239
11
3.87615
21
-7.01355
0
LINE
8
BLACK
6
CONTINUOUS
10
3.87615
20
-7.01355
11
3.88115
21
-7.00538
0
LINE
8
BLACK
6
CONTINUOUS
10
3.88115
20
-7.00538
11
3.88737
21
-6.9981
0
LINE
8
BLACK
6
CONTINUOUS
10
3.88737
20
-6.9981
11
3.89465
21
-6.99188
0
LINE
8
BLACK
6
CONTINUOUS
10
3.89465
20
-6.99188
11
3.90282
21
-6.98688
0
LINE
8
BLACK
6
CONTINUOUS
10
3.90282
20
-6.98688
11
3.91166
21
-6.98322
0
LINE
8
BLACK
6
CONTINUOUS
10
3.91166
20
-6.98322
11
3.92097
21
-6.98098
0
LINE
8
BLACK
6
CONTINUOUS
10
3.92097
20
-6.98098
11
3.93052
21
-6.98023
0
LINE
8
BLACK
6
CONTINUOUS
10
3.93052
20
-6.98023
11
3.94007
21
-6.98098
0
LINE
8
BLACK
6
CONTINUOUS
10
3.94007
20
-6.98098
11
3.94938
21
-6.98322
0
LINE
8
BLACK
6
CONTINUOUS
10
3.94938
20
-6.98322
11
3.95822
21
-6.98688
0
LINE
8
BLACK
6
CONTINUOUS
10
3.95822
20
-6.98688
11
3.96639
21
-6.99188
0
LINE
8
BLACK
6
CONTINUOUS
10
3.96639
20
-6.99188
11
3.97367
21
-6.9981
0
LINE
8
BLACK
6
CONTINUOUS
10
3.97367
20
-6.9981
11
3.97989
21
-7.00538
0
LINE
8
BLACK
6
CONTINUOUS
10
3.97989
20
-7.00538
11
3.98489
21
-7.01355
0
LINE
8
BLACK
6
CONTINUOUS
10
3.98489
20
-7.01355
11
3.98856
21
-7.02239
0
LINE
8
BLACK
6
CONTINUOUS
10
3.98856
20
-7.02239
11
3.99079
21
-7.03171
0
LINE
8
BLACK
6
CONTINUOUS
10
3.99079
20
-7.03171
11
3.99154
21
-7.04125
0
LINE
8
BLACK
6
CONTINUOUS
10
3.99154
20
-7.04125
11
3.99079
21
-7.0508
0
LINE
8
BLACK
6
CONTINUOUS
10
3.99079
20
-7.0508
11
3.98856
21
-7.06011
0
LINE
8
BLACK
6
CONTINUOUS
10
3.98856
20
-7.06011
11
3.98489
21
-7.06896
0
LINE
8
BLACK
6
CONTINUOUS
10
3.98489
20
-7.06896
11
3.97989
21
-7.07712
0
LINE
8
BLACK
6
CONTINUOUS
10
3.97989
20
-7.07712
11
3.97367
21
-7.0844
0
LINE
8
BLACK
6
CONTINUOUS
10
3.97367
20
-7.0844
11
3.96639
21
-7.09062
0
LINE
8
BLACK
6
CONTINUOUS
10
3.96639
20
-7.09062
11
3.95822
21
-7.09562
0
LINE
8
BLACK
6
CONTINUOUS
10
3.95822
20
-7.09562
11
3.94938
21
-7.09929
0
LINE
8
BLACK
6
CONTINUOUS
10
3.94938
20
-7.09929
11
3.94007
21
-7.10152
0
LINE
8
BLACK
6
CONTINUOUS
10
3.94007
20
-7.10152
11
3.93052
21
-7.10228
0
LINE
8
BLACK
6
CONTINUOUS
10
3.93052
20
-7.10228
11
3.92097
21
-7.10152
0
LINE
8
BLACK
6
CONTINUOUS
10
3.92097
20
-7.10152
11
3.91166
21
-7.09929
0
LINE
8
BLACK
6
CONTINUOUS
10
3.91166
20
-7.09929
11
3.90282
21
-7.09562
0
LINE
8
BLACK
6
CONTINUOUS
10
3.90282
20
-7.09562
11
3.89465
21
-7.09062
0
LINE
8
BLACK
6
CONTINUOUS
10
3.89465
20
-7.09062
11
3.88737
21
-7.0844
0
LINE
8
BLACK
6
CONTINUOUS
10
3.88737
20
-7.0844
11
3.88115
21
-7.07712
0
LINE
8
BLACK
6
CONTINUOUS
10
3.88115
20
-7.07712
11
3.87615
21
-7.06896
0
LINE
8
BLACK
6
CONTINUOUS
10
3.87615
20
-7.06896
11
3.87248
21
-7.06011
0
LINE
8
BLACK
6
CONTINUOUS
10
3.87248
20
-7.06011
11
3.87025
21
-7.0508
0
LINE
8
BLACK
6
CONTINUOUS
10
3.87025
20
-7.0508
11
3.8695
21
-7.04125
0
LINE
8
BLACK
6
CONTINUOUS
10
3.8695
20
-7.04125
11
3.86961
21
-7.03985
0
LINE
8
BLACK
6
CONTINUOUS
10
3.86961
20
-7.03985
11
3.87025
21
-7.03171
0
LINE
8
BLACK
6
CONTINUOUS
10
3.87025
20
-7.03171
11
3.87248
21
-7.02239
0
LINE
8
BLACK
6
CONTINUOUS
10
3.87586
20
-7.05838
11
3.87939
21
-7.06708
0
LINE
8
BLACK
6
CONTINUOUS
10
3.87939
20
-7.06708
11
3.8843
21
-7.07508
0
LINE
8
BLACK
6
CONTINUOUS
10
3.8843
20
-7.07508
11
3.89044
21
-7.08218
0
LINE
8
BLACK
6
CONTINUOUS
10
3.89044
20
-7.08218
11
3.89766
21
-7.08817
0
LINE
8
BLACK
6
CONTINUOUS
10
3.89766
20
-7.08817
11
3.90577
21
-7.09291
0
LINE
8
BLACK
6
CONTINUOUS
10
3.90577
20
-7.09291
11
3.91454
21
-7.09626
0
LINE
8
BLACK
6
CONTINUOUS
10
3.91454
20
-7.09626
11
3.92374
21
-7.09813
0
LINE
8
BLACK
6
CONTINUOUS
10
3.92374
20
-7.09813
11
3.93312
21
-7.09848
0
LINE
8
BLACK
6
CONTINUOUS
10
3.93312
20
-7.09848
11
3.94243
21
-7.09728
0
LINE
8
BLACK
6
CONTINUOUS
10
3.94243
20
-7.09728
11
3.95142
21
-7.09458
0
LINE
8
BLACK
6
CONTINUOUS
10
3.95142
20
-7.09458
11
3.95985
21
-7.09046
0
LINE
8
BLACK
6
CONTINUOUS
10
3.95985
20
-7.09046
11
3.96749
21
-7.085
0
LINE
8
BLACK
6
CONTINUOUS
10
3.96749
20
-7.085
11
3.97414
21
-7.07838
0
LINE
8
BLACK
6
CONTINUOUS
10
3.97414
20
-7.07838
11
3.97962
21
-7.07075
0
LINE
8
BLACK
6
CONTINUOUS
10
3.97962
20
-7.07075
11
3.98378
21
-7.06234
0
LINE
8
BLACK
6
CONTINUOUS
10
3.98378
20
-7.06234
11
3.98651
21
-7.05336
0
LINE
8
BLACK
6
CONTINUOUS
10
3.98651
20
-7.05336
11
3.98773
21
-7.04405
0
LINE
8
BLACK
6
CONTINUOUS
10
3.98773
20
-7.04405
11
3.9878
21
-7.04125
0
LINE
8
BLACK
6
CONTINUOUS
10
3.9878
20
-7.04125
11
3.98703
21
-7.0319
0
LINE
8
BLACK
6
CONTINUOUS
10
3.98703
20
-7.0319
11
3.98475
21
-7.02279
0
LINE
8
BLACK
6
CONTINUOUS
10
3.98475
20
-7.02279
11
3.981
21
-7.01418
0
LINE
8
BLACK
6
CONTINUOUS
10
3.981
20
-7.01418
11
3.9759
21
-7.0063
0
LINE
8
BLACK
6
CONTINUOUS
10
3.9759
20
-7.0063
11
3.96959
21
-6.99936
0
LINE
8
BLACK
6
CONTINUOUS
10
3.96959
20
-6.99936
11
3.96222
21
-6.99354
0
LINE
8
BLACK
6
CONTINUOUS
10
3.96222
20
-6.99354
11
3.954
21
-6.989
0
LINE
8
BLACK
6
CONTINUOUS
10
3.954
20
-6.989
11
3.94515
21
-6.98587
0
LINE
8
BLACK
6
CONTINUOUS
10
3.94515
20
-6.98587
11
3.93591
21
-6.98422
0
LINE
8
BLACK
6
CONTINUOUS
10
3.93591
20
-6.98422
11
3.92652
21
-6.98411
0
LINE
8
BLACK
6
CONTINUOUS
10
3.92652
20
-6.98411
11
3.91724
21
-6.98553
0
LINE
8
BLACK
6
CONTINUOUS
10
3.91724
20
-6.98553
11
3.90832
21
-6.98845
0
LINE
8
BLACK
6
CONTINUOUS
10
3.90832
20
-6.98845
11
3.9
21
-6.99278
0
LINE
8
BLACK
6
CONTINUOUS
10
3.9
20
-6.99278
11
3.89249
21
-6.99842
0
LINE
8
BLACK
6
CONTINUOUS
10
3.89249
20
-6.99842
11
3.886
21
-7.0052
0
LINE
8
BLACK
6
CONTINUOUS
10
3.886
20
-7.0052
11
3.88071
21
-7.01296
0
LINE
8
BLACK
6
CONTINUOUS
10
3.88071
20
-7.01296
11
3.87676
21
-7.02147
0
LINE
8
BLACK
6
CONTINUOUS
10
3.87676
20
-7.02147
11
3.87425
21
-7.03052
0
LINE
8
BLACK
6
CONTINUOUS
10
3.87425
20
-7.03052
11
3.87325
21
-7.03985
0
LINE
8
BLACK
6
CONTINUOUS
10
3.87325
20
-7.03985
11
3.87379
21
-7.04922
0
LINE
8
BLACK
6
CONTINUOUS
10
3.87379
20
-7.04922
11
3.87586
21
-7.05838
0
LINE
8
BLACK
6
CONTINUOUS
10
11.6128
20
-6.67263
11
11.6165
21
-6.6586
0
LINE
8
BLACK
6
CONTINUOUS
10
11.6165
20
-6.6586
11
11.6217
21
-6.64504
0
LINE
8
BLACK
6
CONTINUOUS
10
11.6217
20
-6.64504
11
11.6283
21
-6.6321
0
LINE
8
BLACK
6
CONTINUOUS
10
11.6283
20
-6.6321
11
11.6362
21
-6.61992
0
LINE
8
BLACK
6
CONTINUOUS
10
11.6362
20
-6.61992
11
11.6454
21
-6.60863
0
LINE
8
BLACK
6
CONTINUOUS
10
11.6454
20
-6.60863
11
11.6557
21
-6.59835
0
LINE
8
BLACK
6
CONTINUOUS
10
11.6557
20
-6.59835
11
11.6669
21
-6.58921
0
LINE
8
BLACK
6
CONTINUOUS
10
11.6669
20
-6.58921
11
11.6791
21
-6.5813
0
LINE
8
BLACK
6
CONTINUOUS
10
11.6791
20
-6.5813
11
11.6921
21
-6.57471
0
LINE
8
BLACK
6
CONTINUOUS
10
11.6921
20
-6.57471
11
11.7056
21
-6.5695
0
LINE
8
BLACK
6
CONTINUOUS
10
11.7056
20
-6.5695
11
11.7197
21
-6.56574
0
LINE
8
BLACK
6
CONTINUOUS
10
11.7197
20
-6.56574
11
11.734
21
-6.56347
0
LINE
8
BLACK
6
CONTINUOUS
10
11.734
20
-6.56347
11
11.7485
21
-6.56271
0
LINE
8
BLACK
6
CONTINUOUS
10
11.7485
20
-6.56271
11
11.763
21
-6.56347
0
LINE
8
BLACK
6
CONTINUOUS
10
11.763
20
-6.56347
11
11.7774
21
-6.56574
0
LINE
8
BLACK
6
CONTINUOUS
10
11.7774
20
-6.56574
11
11.7914
21
-6.5695
0
LINE
8
BLACK
6
CONTINUOUS
10
11.7914
20
-6.5695
11
11.805
21
-6.57471
0
LINE
8
BLACK
6
CONTINUOUS
10
11.805
20
-6.57471
11
11.8179
21
-6.5813
0
LINE
8
BLACK
6
CONTINUOUS
10
11.8179
20
-6.5813
11
11.8301
21
-6.58921
0
LINE
8
BLACK
6
CONTINUOUS
10
11.8301
20
-6.58921
11
11.8414
21
-6.59835
0
LINE
8
BLACK
6
CONTINUOUS
10
11.8414
20
-6.59835
11
11.8516
21
-6.60863
0
LINE
8
BLACK
6
CONTINUOUS
10
11.8516
20
-6.60863
11
11.8608
21
-6.61992
0
LINE
8
BLACK
6
CONTINUOUS
10
11.8608
20
-6.61992
11
11.8687
21
-6.6321
0
LINE
8
BLACK
6
CONTINUOUS
10
11.8687
20
-6.6321
11
11.8753
21
-6.64504
0
LINE
8
BLACK
6
CONTINUOUS
10
11.8753
20
-6.64504
11
11.8805
21
-6.6586
0
LINE
8
BLACK
6
CONTINUOUS
10
11.8805
20
-6.6586
11
11.8843
21
-6.67263
0
LINE
8
BLACK
6
CONTINUOUS
10
11.8843
20
-6.67263
11
11.8865
21
-6.68698
0
LINE
8
BLACK
6
CONTINUOUS
10
11.8865
20
-6.68698
11
11.8873
21
-6.70149
0
LINE
8
BLACK
6
CONTINUOUS
10
11.8873
20
-6.70149
11
11.8865
21
-6.71599
0
LINE
8
BLACK
6
CONTINUOUS
10
11.8865
20
-6.71599
11
11.8843
21
-6.73034
0
LINE
8
BLACK
6
CONTINUOUS
10
11.8843
20
-6.73034
11
11.8805
21
-6.74437
0
LINE
8
BLACK
6
CONTINUOUS
10
11.8805
20
-6.74437
11
11.8753
21
-6.75793
0
LINE
8
BLACK
6
CONTINUOUS
10
11.8753
20
-6.75793
11
11.8687
21
-6.77088
0
LINE
8
BLACK
6
CONTINUOUS
10
11.8687
20
-6.77088
11
11.8608
21
-6.78306
0
LINE
8
BLACK
6
CONTINUOUS
10
11.8608
20
-6.78306
11
11.8516
21
-6.79435
0
LINE
8
BLACK
6
CONTINUOUS
10
11.8516
20
-6.79435
11
11.8414
21
-6.80462
0
LINE
8
BLACK
6
CONTINUOUS
10
11.8414
20
-6.80462
11
11.8301
21
-6.81376
0
LINE
8
BLACK
6
CONTINUOUS
10
11.8301
20
-6.81376
11
11.8179
21
-6.82167
0
LINE
8
BLACK
6
CONTINUOUS
10
11.8179
20
-6.82167
11
11.805
21
-6.82827
0
LINE
8
BLACK
6
CONTINUOUS
10
11.805
20
-6.82827
11
11.7914
21
-6.83348
0
LINE
8
BLACK
6
CONTINUOUS
10
11.7914
20
-6.83348
11
11.7774
21
-6.83724
0
LINE
8
BLACK
6
CONTINUOUS
10
11.7774
20
-6.83724
11
11.763
21
-6.83951
0
LINE
8
BLACK
6
CONTINUOUS
10
11.763
20
-6.83951
11
11.7485
21
-6.84027
0
LINE
8
BLACK
6
CONTINUOUS
10
11.7485
20
-6.84027
11
11.734
21
-6.83951
0
LINE
8
BLACK
6
CONTINUOUS
10
11.734
20
-6.83951
11
11.7197
21
-6.83724
0
LINE
8
BLACK
6
CONTINUOUS
10
11.7197
20
-6.83724
11
11.7056
21
-6.83348
0
LINE
8
BLACK
6
CONTINUOUS
10
11.7056
20
-6.83348
11
11.6921
21
-6.82827
0
LINE
8
BLACK
6
CONTINUOUS
10
11.6921
20
-6.82827
11
11.6791
21
-6.82167
0
LINE
8
BLACK
6
CONTINUOUS
10
11.6791
20
-6.82167
11
11.6669
21
-6.81376
0
LINE
8
BLACK
6
CONTINUOUS
10
11.6669
20
-6.81376
11
11.6557
21
-6.80462
0
LINE
8
BLACK
6
CONTINUOUS
10
11.6557
20
-6.80462
11
11.6454
21
-6.79435
0
LINE
8
BLACK
6
CONTINUOUS
10
11.6454
20
-6.79435
11
11.6362
21
-6.78306
0
LINE
8
BLACK
6
CONTINUOUS
10
11.6362
20
-6.78306
11
11.6283
21
-6.77088
0
LINE
8
BLACK
6
CONTINUOUS
10
11.6283
20
-6.77088
11
11.6217
21
-6.75793
0
LINE
8
BLACK
6
CONTINUOUS
10
11.6217
20
-6.75793
11
11.6165
21
-6.74437
0
LINE
8
BLACK
6
CONTINUOUS
10
11.6165
20
-6.74437
11
11.6128
21
-6.73034
0
LINE
8
BLACK
6
CONTINUOUS
10
11.6128
20
-6.73034
11
11.6105
21
-6.71599
0
LINE
8
BLACK
6
CONTINUOUS
10
11.6105
20
-6.71599
11
11.6097
21
-6.70149
0
LINE
8
BLACK
6
CONTINUOUS
10
11.6097
20
-6.70149
11
11.6105
21
-6.68698
0
LINE
8
BLACK
6
CONTINUOUS
10
11.6105
20
-6.68698
11
11.6128
21
-6.67263
0
LINE
8
BLACK
6
CONTINUOUS
10
11.6145
20
-6.72997
11
11.6182
21
-6.74382
0
LINE
8
BLACK
6
CONTINUOUS
10
11.6182
20
-6.74382
11
11.6234
21
-6.75721
0
LINE
8
BLACK
6
CONTINUOUS
10
11.6234
20
-6.75721
11
11.6299
21
-6.76999
0
LINE
8
BLACK
6
CONTINUOUS
10
11.6299
20
-6.76999
11
11.6377
21
-6.78201
0
LINE
8
BLACK
6
CONTINUOUS
10
11.6377
20
-6.78201
11
11.6467
21
-6.79316
0
LINE
8
BLACK
6
CONTINUOUS
10
11.6467
20
-6.79316
11
11.6568
21
-6.8033
0
LINE
8
BLACK
6
CONTINUOUS
10
11.6568
20
-6.8033
11
11.668
21
-6.81232
0
LINE
8
BLACK
6
CONTINUOUS
10
11.668
20
-6.81232
11
11.68
21
-6.82013
0
LINE
8
BLACK
6
CONTINUOUS
10
11.68
20
-6.82013
11
11.6928
21
-6.82664
0
LINE
8
BLACK
6
CONTINUOUS
10
11.6928
20
-6.82664
11
11.7062
21
-6.83178
0
LINE
8
BLACK
6
CONTINUOUS
10
11.7062
20
-6.83178
11
11.72
21
-6.83549
0
LINE
8
BLACK
6
CONTINUOUS
10
11.72
20
-6.83549
11
11.7342
21
-6.83774
0
LINE
8
BLACK
6
CONTINUOUS
10
11.7342
20
-6.83774
11
11.7485
21
-6.83849
0
LINE
8
BLACK
6
CONTINUOUS
10
11.7485
20
-6.83849
11
11.7628
21
-6.83774
0
LINE
8
BLACK
6
CONTINUOUS
10
11.7628
20
-6.83774
11
11.777
21
-6.83549
0
LINE
8
BLACK
6
CONTINUOUS
10
11.777
20
-6.83549
11
11.7908
21
-6.83178
0
LINE
8
BLACK
6
CONTINUOUS
10
11.7908
20
-6.83178
11
11.8042
21
-6.82664
0
LINE
8
BLACK
6
CONTINUOUS
10
11.8042
20
-6.82664
11
11.817
21
-6.82013
0
LINE
8
BLACK
6
CONTINUOUS
10
11.817
20
-6.82013
11
11.829
21
-6.81232
0
LINE
8
BLACK
6
CONTINUOUS
10
11.829
20
-6.81232
11
11.8402
21
-6.8033
0
LINE
8
BLACK
6
CONTINUOUS
10
11.8402
20
-6.8033
11
11.8503
21
-6.79316
0
LINE
8
BLACK
6
CONTINUOUS
10
11.8503
20
-6.79316
11
11.8593
21
-6.78201
0
LINE
8
BLACK
6
CONTINUOUS
10
11.8593
20
-6.78201
11
11.8672
21
-6.76999
0
LINE
8
BLACK
6
CONTINUOUS
10
11.8672
20
-6.76999
11
11.8737
21
-6.75721
0
LINE
8
BLACK
6
CONTINUOUS
10
11.8737
20
-6.75721
11
11.8788
21
-6.74382
0
LINE
8
BLACK
6
CONTINUOUS
10
11.8788
20
-6.74382
11
11.8825
21
-6.72997
0
LINE
8
BLACK
6
CONTINUOUS
10
11.8825
20
-6.72997
11
11.8848
21
-6.71581
0
LINE
8
BLACK
6
CONTINUOUS
10
11.8848
20
-6.71581
11
11.8855
21
-6.70149
0
LINE
8
BLACK
6
CONTINUOUS
10
11.8855
20
-6.70149
11
11.8848
21
-6.68717
0
LINE
8
BLACK
6
CONTINUOUS
10
11.8848
20
-6.68717
11
11.8825
21
-6.673
0
LINE
8
BLACK
6
CONTINUOUS
10
11.8825
20
-6.673
11
11.8788
21
-6.65915
0
LINE
8
BLACK
6
CONTINUOUS
10
11.8788
20
-6.65915
11
11.8737
21
-6.64577
0
LINE
8
BLACK
6
CONTINUOUS
10
11.8737
20
-6.64577
11
11.8672
21
-6.63299
0
LINE
8
BLACK
6
CONTINUOUS
10
11.8672
20
-6.63299
11
11.8593
21
-6.62096
0
LINE
8
BLACK
6
CONTINUOUS
10
11.8593
20
-6.62096
11
11.8503
21
-6.60982
0
LINE
8
BLACK
6
CONTINUOUS
10
11.8503
20
-6.60982
11
11.8402
21
-6.59968
0
LINE
8
BLACK
6
CONTINUOUS
10
11.8402
20
-6.59968
11
11.829
21
-6.59065
0
LINE
8
BLACK
6
CONTINUOUS
10
11.829
20
-6.59065
11
11.817
21
-6.58284
0
LINE
8
BLACK
6
CONTINUOUS
10
11.817
20
-6.58284
11
11.8042
21
-6.57633
0
LINE
8
BLACK
6
CONTINUOUS
10
11.8042
20
-6.57633
11
11.7908
21
-6.57119
0
LINE
8
BLACK
6
CONTINUOUS
10
11.7908
20
-6.57119
11
11.777
21
-6.56748
0
LINE
8
BLACK
6
CONTINUOUS
10
11.777
20
-6.56748
11
11.7628
21
-6.56524
0
LINE
8
BLACK
6
CONTINUOUS
10
11.7628
20
-6.56524
11
11.7485
21
-6.56449
0
LINE
8
BLACK
6
CONTINUOUS
10
11.7485
20
-6.56449
11
11.7342
21
-6.56524
0
LINE
8
BLACK
6
CONTINUOUS
10
11.7342
20
-6.56524
11
11.72
21
-6.56748
0
LINE
8
BLACK
6
CONTINUOUS
10
11.72
20
-6.56748
11
11.7062
21
-6.57119
0
LINE
8
BLACK
6
CONTINUOUS
10
11.7062
20
-6.57119
11
11.6928
21
-6.57633
0
LINE
8
BLACK
6
CONTINUOUS
10
11.6928
20
-6.57633
11
11.68
21
-6.58284
0
LINE
8
BLACK
6
CONTINUOUS
10
11.68
20
-6.58284
11
11.668
21
-6.59065
0
LINE
8
BLACK
6
CONTINUOUS
10
11.668
20
-6.59065
11
11.6568
21
-6.59968
0
LINE
8
BLACK
6
CONTINUOUS
10
11.6568
20
-6.59968
11
11.6467
21
-6.60982
0
LINE
8
BLACK
6
CONTINUOUS
10
11.6467
20
-6.60982
11
11.6377
21
-6.62096
0
LINE
8
BLACK
6
CONTINUOUS
10
11.6377
20
-6.62096
11
11.6299
21
-6.63299
0
LINE
8
BLACK
6
CONTINUOUS
10
11.6299
20
-6.63299
11
11.6234
21
-6.64577
0
LINE
8
BLACK
6
CONTINUOUS
10
11.6234
20
-6.64577
11
11.6182
21
-6.65915
0
LINE
8
BLACK
6
CONTINUOUS
10
11.6182
20
-6.65915
11
11.6145
21
-6.673
0
LINE
8
BLACK
6
CONTINUOUS
10
11.6145
20
-6.673
11
11.6123
21
-6.68717
0
LINE
8
BLACK
6
CONTINUOUS
10
11.6123
20
-6.68717
11
11.6115
21
-6.70149
0
LINE
8
BLACK
6
CONTINUOUS
10
11.6115
20
-6.70149
11
11.6123
21
-6.71581
0
LINE
8
BLACK
6
CONTINUOUS
10
11.6123
20
-6.71581
11
11.6145
21
-6.72997
0
LINE
8
BLACK
6
CONTINUOUS
10
4.21343
20
-6.67277
11
4.21731
21
-6.65989
0
LINE
8
BLACK
6
CONTINUOUS
10
4.21731
20
-6.65989
11
4.22261
21
-6.64753
0
LINE
8
BLACK
6
CONTINUOUS
10
4.22261
20
-6.64753
11
4.22925
21
-6.63583
0
LINE
8
BLACK
6
CONTINUOUS
10
4.22925
20
-6.63583
11
4.23716
21
-6.62495
0
LINE
8
BLACK
6
CONTINUOUS
10
4.23716
20
-6.62495
11
4.24623
21
-6.61502
0
LINE
8
BLACK
6
CONTINUOUS
10
4.24623
20
-6.61502
11
4.25635
21
-6.60616
0
LINE
8
BLACK
6
CONTINUOUS
10
4.25635
20
-6.60616
11
4.26739
21
-6.59848
0
LINE
8
BLACK
6
CONTINUOUS
10
4.26739
20
-6.59848
11
4.27923
21
-6.59209
0
LINE
8
BLACK
6
CONTINUOUS
10
4.27923
20
-6.59209
11
4.2917
21
-6.58705
0
LINE
8
BLACK
6
CONTINUOUS
10
4.2917
20
-6.58705
11
4.30465
21
-6.58343
0
LINE
8
BLACK
6
CONTINUOUS
10
4.30465
20
-6.58343
11
4.31793
21
-6.58128
0
LINE
8
BLACK
6
CONTINUOUS
10
4.31793
20
-6.58128
11
4.33136
21
-6.58062
0
LINE
8
BLACK
6
CONTINUOUS
10
4.33136
20
-6.58062
11
4.34478
21
-6.58147
0
LINE
8
BLACK
6
CONTINUOUS
10
4.34478
20
-6.58147
11
4.35803
21
-6.58381
0
LINE
8
BLACK
6
CONTINUOUS
10
4.35803
20
-6.58381
11
4.37093
21
-6.5876
0
LINE
8
BLACK
6
CONTINUOUS
10
4.37093
20
-6.5876
11
4.38333
21
-6.59281
0
LINE
8
BLACK
6
CONTINUOUS
10
4.38333
20
-6.59281
11
4.39507
21
-6.59938
0
LINE
8
BLACK
6
CONTINUOUS
10
4.39507
20
-6.59938
11
4.40601
21
-6.60721
0
LINE
8
BLACK
6
CONTINUOUS
10
4.40601
20
-6.60721
11
4.416
21
-6.61621
0
LINE
8
BLACK
6
CONTINUOUS
10
4.416
20
-6.61621
11
4.42493
21
-6.62626
0
LINE
8
BLACK
6
CONTINUOUS
10
4.42493
20
-6.62626
11
4.43269
21
-6.63725
0
LINE
8
BLACK
6
CONTINUOUS
10
4.43269
20
-6.63725
11
4.43917
21
-6.64904
0
LINE
8
BLACK
6
CONTINUOUS
10
4.43917
20
-6.64904
11
4.44429
21
-6.66148
0
LINE
8
BLACK
6
CONTINUOUS
10
4.44429
20
-6.66148
11
4.448
21
-6.6744
0
LINE
8
BLACK
6
CONTINUOUS
10
4.448
20
-6.6744
11
4.45024
21
-6.68767
0
LINE
8
BLACK
6
CONTINUOUS
10
4.45024
20
-6.68767
11
4.45099
21
-6.70109
0
LINE
8
BLACK
6
CONTINUOUS
10
4.45099
20
-6.70109
11
4.45095
21
-6.70446
0
LINE
8
BLACK
6
CONTINUOUS
10
4.45095
20
-6.70446
11
4.44982
21
-6.71786
0
LINE
8
BLACK
6
CONTINUOUS
10
4.44982
20
-6.71786
11
4.44721
21
-6.73105
0
LINE
8
BLACK
6
CONTINUOUS
10
4.44721
20
-6.73105
11
4.44314
21
-6.74388
0
LINE
8
BLACK
6
CONTINUOUS
10
4.44314
20
-6.74388
11
4.43767
21
-6.75616
0
LINE
8
BLACK
6
CONTINUOUS
10
4.43767
20
-6.75616
11
4.43086
21
-6.76776
0
LINE
8
BLACK
6
CONTINUOUS
10
4.43086
20
-6.76776
11
4.42281
21
-6.77853
0
LINE
8
BLACK
6
CONTINUOUS
10
4.42281
20
-6.77853
11
4.4136
21
-6.78834
0
LINE
8
BLACK
6
CONTINUOUS
10
4.4136
20
-6.78834
11
4.40336
21
-6.79705
0
LINE
8
BLACK
6
CONTINUOUS
10
4.40336
20
-6.79705
11
4.39221
21
-6.80458
0
LINE
8
BLACK
6
CONTINUOUS
10
4.39221
20
-6.80458
11
4.38029
21
-6.81081
0
LINE
8
BLACK
6
CONTINUOUS
10
4.38029
20
-6.81081
11
4.36775
21
-6.81567
0
LINE
8
BLACK
6
CONTINUOUS
10
4.36775
20
-6.81567
11
4.35474
21
-6.81911
0
LINE
8
BLACK
6
CONTINUOUS
10
4.35474
20
-6.81911
11
4.34144
21
-6.82107
0
LINE
8
BLACK
6
CONTINUOUS
10
4.34144
20
-6.82107
11
4.328
21
-6.82154
0
LINE
8
BLACK
6
CONTINUOUS
10
4.328
20
-6.82154
11
4.31459
21
-6.82051
0
LINE
8
BLACK
6
CONTINUOUS
10
4.31459
20
-6.82051
11
4.30137
21
-6.81799
0
LINE
8
BLACK
6
CONTINUOUS
10
4.30137
20
-6.81799
11
4.28853
21
-6.81401
0
LINE
8
BLACK
6
CONTINUOUS
10
4.28853
20
-6.81401
11
4.2762
21
-6.80863
0
LINE
8
BLACK
6
CONTINUOUS
10
4.2762
20
-6.80863
11
4.26455
21
-6.8019
0
LINE
8
BLACK
6
CONTINUOUS
10
4.26455
20
-6.8019
11
4.25373
21
-6.79392
0
LINE
8
BLACK
6
CONTINUOUS
10
4.25373
20
-6.79392
11
4.24386
21
-6.78478
0
LINE
8
BLACK
6
CONTINUOUS
10
4.24386
20
-6.78478
11
4.23507
21
-6.7746
0
LINE
8
BLACK
6
CONTINUOUS
10
4.23507
20
-6.7746
11
4.22747
21
-6.7635
0
LINE
8
BLACK
6
CONTINUOUS
10
4.22747
20
-6.7635
11
4.22116
21
-6.75163
0
LINE
8
BLACK
6
CONTINUOUS
10
4.22116
20
-6.75163
11
4.21621
21
-6.73912
0
LINE
8
BLACK
6
CONTINUOUS
10
4.21621
20
-6.73912
11
4.21268
21
-6.72614
0
LINE
8
BLACK
6
CONTINUOUS
10
4.21268
20
-6.72614
11
4.21062
21
-6.71285
0
LINE
8
BLACK
6
CONTINUOUS
10
4.21062
20
-6.71285
11
4.21006
21
-6.69941
0
LINE
8
BLACK
6
CONTINUOUS
10
4.21006
20
-6.69941
11
4.2102
21
-6.69745
0
LINE
8
BLACK
6
CONTINUOUS
10
4.2102
20
-6.69745
11
4.211
21
-6.686
0
LINE
8
BLACK
6
CONTINUOUS
10
4.211
20
-6.686
11
4.21343
21
-6.67277
0
LINE
8
BLACK
6
CONTINUOUS
10
4.21686
20
-6.72401
11
4.22025
21
-6.73692
0
LINE
8
BLACK
6
CONTINUOUS
10
4.22025
20
-6.73692
11
4.2251
21
-6.74936
0
LINE
8
BLACK
6
CONTINUOUS
10
4.2251
20
-6.74936
11
4.23135
21
-6.76116
0
LINE
8
BLACK
6
CONTINUOUS
10
4.23135
20
-6.76116
11
4.23891
21
-6.77216
0
LINE
8
BLACK
6
CONTINUOUS
10
4.23891
20
-6.77216
11
4.24768
21
-6.78222
0
LINE
8
BLACK
6
CONTINUOUS
10
4.24768
20
-6.78222
11
4.25755
21
-6.7912
0
LINE
8
BLACK
6
CONTINUOUS
10
4.25755
20
-6.7912
11
4.26839
21
-6.79899
0
LINE
8
BLACK
6
CONTINUOUS
10
4.26839
20
-6.79899
11
4.28006
21
-6.80548
0
LINE
8
BLACK
6
CONTINUOUS
10
4.28006
20
-6.80548
11
4.29239
21
-6.81059
0
LINE
8
BLACK
6
CONTINUOUS
10
4.29239
20
-6.81059
11
4.30523
21
-6.81425
0
LINE
8
BLACK
6
CONTINUOUS
10
4.30523
20
-6.81425
11
4.3184
21
-6.8164
0
LINE
8
BLACK
6
CONTINUOUS
10
4.3184
20
-6.8164
11
4.33173
21
-6.81703
0
LINE
8
BLACK
6
CONTINUOUS
10
4.33173
20
-6.81703
11
4.34505
21
-6.81612
0
LINE
8
BLACK
6
CONTINUOUS
10
4.34505
20
-6.81612
11
4.35818
21
-6.81369
0
LINE
8
BLACK
6
CONTINUOUS
10
4.35818
20
-6.81369
11
4.37093
21
-6.80977
0
LINE
8
BLACK
6
CONTINUOUS
10
4.37093
20
-6.80977
11
4.38316
21
-6.8044
0
LINE
8
BLACK
6
CONTINUOUS
10
4.38316
20
-6.8044
11
4.39468
21
-6.79767
0
LINE
8
BLACK
6
CONTINUOUS
10
4.39468
20
-6.79767
11
4.40536
21
-6.78965
0
LINE
8
BLACK
6
CONTINUOUS
10
4.40536
20
-6.78965
11
4.41504
21
-6.78046
0
LINE
8
BLACK
6
CONTINUOUS
10
4.41504
20
-6.78046
11
4.4236
21
-6.77022
0
LINE
8
BLACK
6
CONTINUOUS
10
4.4236
20
-6.77022
11
4.43093
21
-6.75907
0
LINE
8
BLACK
6
CONTINUOUS
10
4.43093
20
-6.75907
11
4.43693
21
-6.74714
0
LINE
8
BLACK
6
CONTINUOUS
10
4.43693
20
-6.74714
11
4.44152
21
-6.73461
0
LINE
8
BLACK
6
CONTINUOUS
10
4.44152
20
-6.73461
11
4.44463
21
-6.72163
0
LINE
8
BLACK
6
CONTINUOUS
10
4.44463
20
-6.72163
11
4.44624
21
-6.70837
0
LINE
8
BLACK
6
CONTINUOUS
10
4.44624
20
-6.70837
11
4.44646
21
-6.70109
0
LINE
8
BLACK
6
CONTINUOUS
10
4.44646
20
-6.70109
11
4.4457
21
-6.68777
0
LINE
8
BLACK
6
CONTINUOUS
10
4.4457
20
-6.68777
11
4.4434
21
-6.67462
0
LINE
8
BLACK
6
CONTINUOUS
10
4.4434
20
-6.67462
11
4.43961
21
-6.66182
0
LINE
8
BLACK
6
CONTINUOUS
10
4.43961
20
-6.66182
11
4.43437
21
-6.64954
0
LINE
8
BLACK
6
CONTINUOUS
10
4.43437
20
-6.64954
11
4.42776
21
-6.63795
0
LINE
8
BLACK
6
CONTINUOUS
10
4.42776
20
-6.63795
11
4.41986
21
-6.62719
0
LINE
8
BLACK
6
CONTINUOUS
10
4.41986
20
-6.62719
11
4.41077
21
-6.61741
0
LINE
8
BLACK
6
CONTINUOUS
10
4.41077
20
-6.61741
11
4.40062
21
-6.60874
0
LINE
8
BLACK
6
CONTINUOUS
10
4.40062
20
-6.60874
11
4.38954
21
-6.6013
0
LINE
8
BLACK
6
CONTINUOUS
10
4.38954
20
-6.6013
11
4.37768
21
-6.59517
0
LINE
8
BLACK
6
CONTINUOUS
10
4.37768
20
-6.59517
11
4.36519
21
-6.59046
0
LINE
8
BLACK
6
CONTINUOUS
10
4.36519
20
-6.59046
11
4.35225
21
-6.5872
0
LINE
8
BLACK
6
CONTINUOUS
10
4.35225
20
-6.5872
11
4.33901
21
-6.58546
0
LINE
8
BLACK
6
CONTINUOUS
10
4.33901
20
-6.58546
11
4.32566
21
-6.58525
0
LINE
8
BLACK
6
CONTINUOUS
10
4.32566
20
-6.58525
11
4.31238
21
-6.58658
0
LINE
8
BLACK
6
CONTINUOUS
10
4.31238
20
-6.58658
11
4.29934
21
-6.58942
0
LINE
8
BLACK
6
CONTINUOUS
10
4.29934
20
-6.58942
11
4.28671
21
-6.59375
0
LINE
8
BLACK
6
CONTINUOUS
10
4.28671
20
-6.59375
11
4.27466
21
-6.59949
0
LINE
8
BLACK
6
CONTINUOUS
10
4.27466
20
-6.59949
11
4.26336
21
-6.60659
0
LINE
8
BLACK
6
CONTINUOUS
10
4.26336
20
-6.60659
11
4.25294
21
-6.61493
0
LINE
8
BLACK
6
CONTINUOUS
10
4.25294
20
-6.61493
11
4.24355
21
-6.62442
0
LINE
8
BLACK
6
CONTINUOUS
10
4.24355
20
-6.62442
11
4.23531
21
-6.63492
0
LINE
8
BLACK
6
CONTINUOUS
10
4.23531
20
-6.63492
11
4.22834
21
-6.6463
0
LINE
8
BLACK
6
CONTINUOUS
10
4.22834
20
-6.6463
11
4.22272
21
-6.65841
0
LINE
8
BLACK
6
CONTINUOUS
10
4.22272
20
-6.65841
11
4.21853
21
-6.67109
0
LINE
8
BLACK
6
CONTINUOUS
10
4.21853
20
-6.67109
11
4.21582
21
-6.68416
0
LINE
8
BLACK
6
CONTINUOUS
10
4.21582
20
-6.68416
11
4.21463
21
-6.69745
0
LINE
8
BLACK
6
CONTINUOUS
10
4.21463
20
-6.69745
11
4.21498
21
-6.7108
0
LINE
8
BLACK
6
CONTINUOUS
10
4.21498
20
-6.7108
11
4.21686
21
-6.72401
0
LINE
8
BLACK
6
CONTINUOUS
10
5.01343
20
-6.67277
11
5.01731
21
-6.65989
0
LINE
8
BLACK
6
CONTINUOUS
10
5.01731
20
-6.65989
11
5.02261
21
-6.64753
0
LINE
8
BLACK
6
CONTINUOUS
10
5.02261
20
-6.64753
11
5.02925
21
-6.63583
0
LINE
8
BLACK
6
CONTINUOUS
10
5.02925
20
-6.63583
11
5.03716
21
-6.62495
0
LINE
8
BLACK
6
CONTINUOUS
10
5.03716
20
-6.62495
11
5.04623
21
-6.61502
0
LINE
8
BLACK
6
CONTINUOUS
10
5.04623
20
-6.61502
11
5.05635
21
-6.60616
0
LINE
8
BLACK
6
CONTINUOUS
10
5.05635
20
-6.60616
11
5.06739
21
-6.59848
0
LINE
8
BLACK
6
CONTINUOUS
10
5.06739
20
-6.59848
11
5.07923
21
-6.59209
0
LINE
8
BLACK
6
CONTINUOUS
10
5.07923
20
-6.59209
11
5.0917
21
-6.58705
0
LINE
8
BLACK
6
CONTINUOUS
10
5.0917
20
-6.58705
11
5.10465
21
-6.58343
0
LINE
8
BLACK
6
CONTINUOUS
10
5.10465
20
-6.58343
11
5.11793
21
-6.58128
0
LINE
8
BLACK
6
CONTINUOUS
10
5.11793
20
-6.58128
11
5.13136
21
-6.58062
0
LINE
8
BLACK
6
CONTINUOUS
10
5.13136
20
-6.58062
11
5.14478
21
-6.58147
0
LINE
8
BLACK
6
CONTINUOUS
10
5.14478
20
-6.58147
11
5.15803
21
-6.58381
0
LINE
8
BLACK
6
CONTINUOUS
10
5.15803
20
-6.58381
11
5.17093
21
-6.5876
0
LINE
8
BLACK
6
CONTINUOUS
10
5.17093
20
-6.5876
11
5.18333
21
-6.59281
0
LINE
8
BLACK
6
CONTINUOUS
10
5.18333
20
-6.59281
11
5.19507
21
-6.59938
0
LINE
8
BLACK
6
CONTINUOUS
10
5.19507
20
-6.59938
11
5.20601
21
-6.60721
0
LINE
8
BLACK
6
CONTINUOUS
10
5.20601
20
-6.60721
11
5.216
21
-6.61621
0
LINE
8
BLACK
6
CONTINUOUS
10
5.216
20
-6.61621
11
5.22493
21
-6.62626
0
LINE
8
BLACK
6
CONTINUOUS
10
5.22493
20
-6.62626
11
5.23269
21
-6.63725
0
LINE
8
BLACK
6
CONTINUOUS
10
5.23269
20
-6.63725
11
5.23917
21
-6.64904
0
LINE
8
BLACK
6
CONTINUOUS
10
5.23917
20
-6.64904
11
5.24429
21
-6.66148
0
LINE
8
BLACK
6
CONTINUOUS
10
5.24429
20
-6.66148
11
5.248
21
-6.6744
0
LINE
8
BLACK
6
CONTINUOUS
10
5.248
20
-6.6744
11
5.25024
21
-6.68767
0
LINE
8
BLACK
6
CONTINUOUS
10
5.25024
20
-6.68767
11
5.25099
21
-6.70109
0
LINE
8
BLACK
6
CONTINUOUS
10
5.25099
20
-6.70109
11
5.25095
21
-6.70446
0
LINE
8
BLACK
6
CONTINUOUS
10
5.25095
20
-6.70446
11
5.24982
21
-6.71786
0
LINE
8
BLACK
6
CONTINUOUS
10
5.24982
20
-6.71786
11
5.24721
21
-6.73105
0
LINE
8
BLACK
6
CONTINUOUS
10
5.24721
20
-6.73105
11
5.24314
21
-6.74388
0
LINE
8
BLACK
6
CONTINUOUS
10
5.24314
20
-6.74388
11
5.23767
21
-6.75616
0
LINE
8
BLACK
6
CONTINUOUS
10
5.23767
20
-6.75616
11
5.23086
21
-6.76776
0
LINE
8
BLACK
6
CONTINUOUS
10
5.23086
20
-6.76776
11
5.22281
21
-6.77853
0
LINE
8
BLACK
6
CONTINUOUS
10
5.22281
20
-6.77853
11
5.2136
21
-6.78834
0
LINE
8
BLACK
6
CONTINUOUS
10
5.2136
20
-6.78834
11
5.20336
21
-6.79705
0
LINE
8
BLACK
6
CONTINUOUS
10
5.20336
20
-6.79705
11
5.19221
21
-6.80458
0
LINE
8
BLACK
6
CONTINUOUS
10
5.19221
20
-6.80458
11
5.18029
21
-6.81081
0
LINE
8
BLACK
6
CONTINUOUS
10
5.18029
20
-6.81081
11
5.16775
21
-6.81567
0
LINE
8
BLACK
6
CONTINUOUS
10
5.16775
20
-6.81567
11
5.15474
21
-6.81911
0
LINE
8
BLACK
6
CONTINUOUS
10
5.15474
20
-6.81911
11
5.14144
21
-6.82107
0
LINE
8
BLACK
6
CONTINUOUS
10
5.14144
20
-6.82107
11
5.128
21
-6.82154
0
LINE
8
BLACK
6
CONTINUOUS
10
5.128
20
-6.82154
11
5.11459
21
-6.82051
0
LINE
8
BLACK
6
CONTINUOUS
10
5.11459
20
-6.82051
11
5.10137
21
-6.81799
0
LINE
8
BLACK
6
CONTINUOUS
10
5.10137
20
-6.81799
11
5.08853
21
-6.81401
0
LINE
8
BLACK
6
CONTINUOUS
10
5.08853
20
-6.81401
11
5.0762
21
-6.80863
0
LINE
8
BLACK
6
CONTINUOUS
10
5.0762
20
-6.80863
11
5.06455
21
-6.8019
0
LINE
8
BLACK
6
CONTINUOUS
10
5.06455
20
-6.8019
11
5.05373
21
-6.79392
0
LINE
8
BLACK
6
CONTINUOUS
10
5.05373
20
-6.79392
11
5.04386
21
-6.78478
0
LINE
8
BLACK
6
CONTINUOUS
10
5.04386
20
-6.78478
11
5.03507
21
-6.7746
0
LINE
8
BLACK
6
CONTINUOUS
10
5.03507
20
-6.7746
11
5.02747
21
-6.7635
0
LINE
8
BLACK
6
CONTINUOUS
10
5.02747
20
-6.7635
11
5.02116
21
-6.75163
0
LINE
8
BLACK
6
CONTINUOUS
10
5.02116
20
-6.75163
11
5.01621
21
-6.73912
0
LINE
8
BLACK
6
CONTINUOUS
10
5.01621
20
-6.73912
11
5.01268
21
-6.72614
0
LINE
8
BLACK
6
CONTINUOUS
10
5.01268
20
-6.72614
11
5.01062
21
-6.71285
0
LINE
8
BLACK
6
CONTINUOUS
10
5.01062
20
-6.71285
11
5.01006
21
-6.69941
0
LINE
8
BLACK
6
CONTINUOUS
10
5.01006
20
-6.69941
11
5.0102
21
-6.69745
0
LINE
8
BLACK
6
CONTINUOUS
10
5.0102
20
-6.69745
11
5.011
21
-6.686
0
LINE
8
BLACK
6
CONTINUOUS
10
5.011
20
-6.686
11
5.01343
21
-6.67277
0
LINE
8
BLACK
6
CONTINUOUS
10
5.01686
20
-6.72401
11
5.02025
21
-6.73692
0
LINE
8
BLACK
6
CONTINUOUS
10
5.02025
20
-6.73692
11
5.0251
21
-6.74936
0
LINE
8
BLACK
6
CONTINUOUS
10
5.0251
20
-6.74936
11
5.03135
21
-6.76116
0
LINE
8
BLACK
6
CONTINUOUS
10
5.03135
20
-6.76116
11
5.03891
21
-6.77216
0
LINE
8
BLACK
6
CONTINUOUS
10
5.03891
20
-6.77216
11
5.04768
21
-6.78222
0
LINE
8
BLACK
6
CONTINUOUS
10
5.04768
20
-6.78222
11
5.05755
21
-6.7912
0
LINE
8
BLACK
6
CONTINUOUS
10
5.05755
20
-6.7912
11
5.06839
21
-6.79899
0
LINE
8
BLACK
6
CONTINUOUS
10
5.06839
20
-6.79899
11
5.08006
21
-6.80548
0
LINE
8
BLACK
6
CONTINUOUS
10
5.08006
20
-6.80548
11
5.09239
21
-6.81059
0
LINE
8
BLACK
6
CONTINUOUS
10
5.09239
20
-6.81059
11
5.10523
21
-6.81425
0
LINE
8
BLACK
6
CONTINUOUS
10
5.10523
20
-6.81425
11
5.1184
21
-6.8164
0
LINE
8
BLACK
6
CONTINUOUS
10
5.1184
20
-6.8164
11
5.13173
21
-6.81703
0
LINE
8
BLACK
6
CONTINUOUS
10
5.13173
20
-6.81703
11
5.14505
21
-6.81612
0
LINE
8
BLACK
6
CONTINUOUS
10
5.14505
20
-6.81612
11
5.15818
21
-6.81369
0
LINE
8
BLACK
6
CONTINUOUS
10
5.15818
20
-6.81369
11
5.17093
21
-6.80977
0
LINE
8
BLACK
6
CONTINUOUS
10
5.17093
20
-6.80977
11
5.18316
21
-6.8044
0
LINE
8
BLACK
6
CONTINUOUS
10
5.18316
20
-6.8044
11
5.19468
21
-6.79767
0
LINE
8
BLACK
6
CONTINUOUS
10
5.19468
20
-6.79767
11
5.20536
21
-6.78965
0
LINE
8
BLACK
6
CONTINUOUS
10
5.20536
20
-6.78965
11
5.21504
21
-6.78046
0
LINE
8
BLACK
6
CONTINUOUS
10
5.21504
20
-6.78046
11
5.2236
21
-6.77022
0
LINE
8
BLACK
6
CONTINUOUS
10
5.2236
20
-6.77022
11
5.23093
21
-6.75907
0
LINE
8
BLACK
6
CONTINUOUS
10
5.23093
20
-6.75907
11
5.23693
21
-6.74714
0
LINE
8
BLACK
6
CONTINUOUS
10
5.23693
20
-6.74714
11
5.24152
21
-6.73461
0
LINE
8
BLACK
6
CONTINUOUS
10
5.24152
20
-6.73461
11
5.24463
21
-6.72163
0
LINE
8
BLACK
6
CONTINUOUS
10
5.24463
20
-6.72163
11
5.24624
21
-6.70837
0
LINE
8
BLACK
6
CONTINUOUS
10
5.24624
20
-6.70837
11
5.24646
21
-6.70109
0
LINE
8
BLACK
6
CONTINUOUS
10
5.24646
20
-6.70109
11
5.2457
21
-6.68777
0
LINE
8
BLACK
6
CONTINUOUS
10
5.2457
20
-6.68777
11
5.2434
21
-6.67462
0
LINE
8
BLACK
6
CONTINUOUS
10
5.2434
20
-6.67462
11
5.23961
21
-6.66182
0
LINE
8
BLACK
6
CONTINUOUS
10
5.23961
20
-6.66182
11
5.23437
21
-6.64954
0
LINE
8
BLACK
6
CONTINUOUS
10
5.23437
20
-6.64954
11
5.22776
21
-6.63795
0
LINE
8
BLACK
6
CONTINUOUS
10
5.22776
20
-6.63795
11
5.21986
21
-6.62719
0
LINE
8
BLACK
6
CONTINUOUS
10
5.21986
20
-6.62719
11
5.21077
21
-6.61741
0
LINE
8
BLACK
6
CONTINUOUS
10
5.21077
20
-6.61741
11
5.20062
21
-6.60874
0
LINE
8
BLACK
6
CONTINUOUS
10
5.20062
20
-6.60874
11
5.18954
21
-6.6013
0
LINE
8
BLACK
6
CONTINUOUS
10
5.18954
20
-6.6013
11
5.17768
21
-6.59517
0
LINE
8
BLACK
6
CONTINUOUS
10
5.17768
20
-6.59517
11
5.16519
21
-6.59046
0
LINE
8
BLACK
6
CONTINUOUS
10
5.16519
20
-6.59046
11
5.15225
21
-6.5872
0
LINE
8
BLACK
6
CONTINUOUS
10
5.15225
20
-6.5872
11
5.13901
21
-6.58546
0
LINE
8
BLACK
6
CONTINUOUS
10
5.13901
20
-6.58546
11
5.12566
21
-6.58525
0
LINE
8
BLACK
6
CONTINUOUS
10
5.12566
20
-6.58525
11
5.11238
21
-6.58658
0
LINE
8
BLACK
6
CONTINUOUS
10
5.11238
20
-6.58658
11
5.09934
21
-6.58942
0
LINE
8
BLACK
6
CONTINUOUS
10
5.09934
20
-6.58942
11
5.08671
21
-6.59375
0
LINE
8
BLACK
6
CONTINUOUS
10
5.08671
20
-6.59375
11
5.07466
21
-6.59949
0
LINE
8
BLACK
6
CONTINUOUS
10
5.07466
20
-6.59949
11
5.06336
21
-6.60659
0
LINE
8
BLACK
6
CONTINUOUS
10
5.06336
20
-6.60659
11
5.05294
21
-6.61493
0
LINE
8
BLACK
6
CONTINUOUS
10
5.05294
20
-6.61493
11
5.04355
21
-6.62442
0
LINE
8
BLACK
6
CONTINUOUS
10
5.04355
20
-6.62442
11
5.03531
21
-6.63492
0
LINE
8
BLACK
6
CONTINUOUS
10
5.03531
20
-6.63492
11
5.02834
21
-6.6463
0
LINE
8
BLACK
6
CONTINUOUS
10
5.02834
20
-6.6463
11
5.02272
21
-6.65841
0
LINE
8
BLACK
6
CONTINUOUS
10
5.02272
20
-6.65841
11
5.01853
21
-6.67109
0
LINE
8
BLACK
6
CONTINUOUS
10
5.01853
20
-6.67109
11
5.01582
21
-6.68416
0
LINE
8
BLACK
6
CONTINUOUS
10
5.01582
20
-6.68416
11
5.01463
21
-6.69745
0
LINE
8
BLACK
6
CONTINUOUS
10
5.01463
20
-6.69745
11
5.01498
21
-6.7108
0
LINE
8
BLACK
6
CONTINUOUS
10
5.01498
20
-6.7108
11
5.01686
21
-6.72401
0
LINE
8
BLACK
6
CONTINUOUS
10
6.61343
20
-6.67277
11
6.61731
21
-6.65989
0
LINE
8
BLACK
6
CONTINUOUS
10
6.61731
20
-6.65989
11
6.62261
21
-6.64753
0
LINE
8
BLACK
6
CONTINUOUS
10
6.62261
20
-6.64753
11
6.62925
21
-6.63583
0
LINE
8
BLACK
6
CONTINUOUS
10
6.62925
20
-6.63583
11
6.63716
21
-6.62495
0
LINE
8
BLACK
6
CONTINUOUS
10
6.63716
20
-6.62495
11
6.64623
21
-6.61502
0
LINE
8
BLACK
6
CONTINUOUS
10
6.64623
20
-6.61502
11
6.65635
21
-6.60616
0
LINE
8
BLACK
6
CONTINUOUS
10
6.65635
20
-6.60616
11
6.66739
21
-6.59848
0
LINE
8
BLACK
6
CONTINUOUS
10
6.66739
20
-6.59848
11
6.67922
21
-6.59209
0
LINE
8
BLACK
6
CONTINUOUS
10
6.67922
20
-6.59209
11
6.6917
21
-6.58705
0
LINE
8
BLACK
6
CONTINUOUS
10
6.6917
20
-6.58705
11
6.70465
21
-6.58343
0
LINE
8
BLACK
6
CONTINUOUS
10
6.70465
20
-6.58343
11
6.71793
21
-6.58128
0
LINE
8
BLACK
6
CONTINUOUS
10
6.71793
20
-6.58128
11
6.73136
21
-6.58062
0
LINE
8
BLACK
6
CONTINUOUS
10
6.73136
20
-6.58062
11
6.74478
21
-6.58147
0
LINE
8
BLACK
6
CONTINUOUS
10
6.74478
20
-6.58147
11
6.75803
21
-6.58381
0
LINE
8
BLACK
6
CONTINUOUS
10
6.75803
20
-6.58381
11
6.77093
21
-6.5876
0
LINE
8
BLACK
6
CONTINUOUS
10
6.77093
20
-6.5876
11
6.78333
21
-6.59281
0
LINE
8
BLACK
6
CONTINUOUS
10
6.78333
20
-6.59281
11
6.79507
21
-6.59938
0
LINE
8
BLACK
6
CONTINUOUS
10
6.79507
20
-6.59938
11
6.80601
21
-6.60721
0
LINE
8
BLACK
6
CONTINUOUS
10
6.80601
20
-6.60721
11
6.816
21
-6.61621
0
LINE
8
BLACK
6
CONTINUOUS
10
6.816
20
-6.61621
11
6.82493
21
-6.62626
0
LINE
8
BLACK
6
CONTINUOUS
10
6.82493
20
-6.62626
11
6.83269
21
-6.63725
0
LINE
8
BLACK
6
CONTINUOUS
10
6.83269
20
-6.63725
11
6.83917
21
-6.64904
0
LINE
8
BLACK
6
CONTINUOUS
10
6.83917
20
-6.64904
11
6.84429
21
-6.66148
0
LINE
8
BLACK
6
CONTINUOUS
10
6.84429
20
-6.66148
11
6.848
21
-6.6744
0
LINE
8
BLACK
6
CONTINUOUS
10
6.848
20
-6.6744
11
6.85024
21
-6.68767
0
LINE
8
BLACK
6
CONTINUOUS
10
6.85024
20
-6.68767
11
6.85099
21
-6.70109
0
LINE
8
BLACK
6
CONTINUOUS
10
6.85099
20
-6.70109
11
6.85095
21
-6.70446
0
LINE
8
BLACK
6
CONTINUOUS
10
6.85095
20
-6.70446
11
6.84982
21
-6.71786
0
LINE
8
BLACK
6
CONTINUOUS
10
6.84982
20
-6.71786
11
6.84721
21
-6.73105
0
LINE
8
BLACK
6
CONTINUOUS
10
6.84721
20
-6.73105
11
6.84314
21
-6.74388
0
LINE
8
BLACK
6
CONTINUOUS
10
6.84314
20
-6.74388
11
6.83767
21
-6.75616
0
LINE
8
BLACK
6
CONTINUOUS
10
6.83767
20
-6.75616
11
6.83086
21
-6.76776
0
LINE
8
BLACK
6
CONTINUOUS
10
6.83086
20
-6.76776
11
6.82281
21
-6.77853
0
LINE
8
BLACK
6
CONTINUOUS
10
6.82281
20
-6.77853
11
6.8136
21
-6.78834
0
LINE
8
BLACK
6
CONTINUOUS
10
6.8136
20
-6.78834
11
6.80336
21
-6.79705
0
LINE
8
BLACK
6
CONTINUOUS
10
6.80336
20
-6.79705
11
6.79221
21
-6.80458
0
LINE
8
BLACK
6
CONTINUOUS
10
6.79221
20
-6.80458
11
6.78029
21
-6.81081
0
LINE
8
BLACK
6
CONTINUOUS
10
6.78029
20
-6.81081
11
6.76775
21
-6.81567
0
LINE
8
BLACK
6
CONTINUOUS
10
6.76775
20
-6.81567
11
6.75474
21
-6.81911
0
LINE
8
BLACK
6
CONTINUOUS
10
6.75474
20
-6.81911
11
6.74144
21
-6.82107
0
LINE
8
BLACK
6
CONTINUOUS
10
6.74144
20
-6.82107
11
6.728
21
-6.82154
0
LINE
8
BLACK
6
CONTINUOUS
10
6.728
20
-6.82154
11
6.71459
21
-6.82051
0
LINE
8
BLACK
6
CONTINUOUS
10
6.71459
20
-6.82051
11
6.70137
21
-6.81799
0
LINE
8
BLACK
6
CONTINUOUS
10
6.70137
20
-6.81799
11
6.68853
21
-6.81401
0
LINE
8
BLACK
6
CONTINUOUS
10
6.68853
20
-6.81401
11
6.6762
21
-6.80863
0
LINE
8
BLACK
6
CONTINUOUS
10
6.6762
20
-6.80863
11
6.66455
21
-6.8019
0
LINE
8
BLACK
6
CONTINUOUS
10
6.66455
20
-6.8019
11
6.65373
21
-6.79392
0
LINE
8
BLACK
6
CONTINUOUS
10
6.65373
20
-6.79392
11
6.64386
21
-6.78478
0
LINE
8
BLACK
6
CONTINUOUS
10
6.64386
20
-6.78478
11
6.63507
21
-6.7746
0
LINE
8
BLACK
6
CONTINUOUS
10
6.63507
20
-6.7746
11
6.62747
21
-6.7635
0
LINE
8
BLACK
6
CONTINUOUS
10
6.62747
20
-6.7635
11
6.62116
21
-6.75163
0
LINE
8
BLACK
6
CONTINUOUS
10
6.62116
20
-6.75163
11
6.61621
21
-6.73912
0
LINE
8
BLACK
6
CONTINUOUS
10
6.61621
20
-6.73912
11
6.61268
21
-6.72614
0
LINE
8
BLACK
6
CONTINUOUS
10
6.61268
20
-6.72614
11
6.61062
21
-6.71285
0
LINE
8
BLACK
6
CONTINUOUS
10
6.61062
20
-6.71285
11
6.61006
21
-6.69941
0
LINE
8
BLACK
6
CONTINUOUS
10
6.61006
20
-6.69941
11
6.6102
21
-6.69745
0
LINE
8
BLACK
6
CONTINUOUS
10
6.6102
20
-6.69745
11
6.611
21
-6.686
0
LINE
8
BLACK
6
CONTINUOUS
10
6.611
20
-6.686
11
6.61343
21
-6.67277
0
LINE
8
BLACK
6
CONTINUOUS
10
6.61686
20
-6.72401
11
6.62025
21
-6.73692
0
LINE
8
BLACK
6
CONTINUOUS
10
6.62025
20
-6.73692
11
6.6251
21
-6.74936
0
LINE
8
BLACK
6
CONTINUOUS
10
6.6251
20
-6.74936
11
6.63135
21
-6.76116
0
LINE
8
BLACK
6
CONTINUOUS
10
6.63135
20
-6.76116
11
6.63891
21
-6.77216
0
LINE
8
BLACK
6
CONTINUOUS
10
6.63891
20
-6.77216
11
6.64768
21
-6.78222
0
LINE
8
BLACK
6
CONTINUOUS
10
6.64768
20
-6.78222
11
6.65755
21
-6.7912
0
LINE
8
BLACK
6
CONTINUOUS
10
6.65755
20
-6.7912
11
6.66839
21
-6.79899
0
LINE
8
BLACK
6
CONTINUOUS
10
6.66839
20
-6.79899
11
6.68006
21
-6.80548
0
LINE
8
BLACK
6
CONTINUOUS
10
6.68006
20
-6.80548
11
6.69239
21
-6.81059
0
LINE
8
BLACK
6
CONTINUOUS
10
6.69239
20
-6.81059
11
6.70523
21
-6.81425
0
LINE
8
BLACK
6
CONTINUOUS
10
6.70523
20
-6.81425
11
6.7184
21
-6.8164
0
LINE
8
BLACK
6
CONTINUOUS
10
6.7184
20
-6.8164
11
6.73173
21
-6.81703
0
LINE
8
BLACK
6
CONTINUOUS
10
6.73173
20
-6.81703
11
6.74505
21
-6.81612
0
LINE
8
BLACK
6
CONTINUOUS
10
6.74505
20
-6.81612
11
6.75818
21
-6.81369
0
LINE
8
BLACK
6
CONTINUOUS
10
6.75818
20
-6.81369
11
6.77093
21
-6.80977
0
LINE
8
BLACK
6
CONTINUOUS
10
6.77093
20
-6.80977
11
6.78316
21
-6.8044
0
LINE
8
BLACK
6
CONTINUOUS
10
6.78316
20
-6.8044
11
6.79468
21
-6.79767
0
LINE
8
BLACK
6
CONTINUOUS
10
6.79468
20
-6.79767
11
6.80536
21
-6.78965
0
LINE
8
BLACK
6
CONTINUOUS
10
6.80536
20
-6.78965
11
6.81504
21
-6.78046
0
LINE
8
BLACK
6
CONTINUOUS
10
6.81504
20
-6.78046
11
6.8236
21
-6.77022
0
LINE
8
BLACK
6
CONTINUOUS
10
6.8236
20
-6.77022
11
6.83093
21
-6.75907
0
LINE
8
BLACK
6
CONTINUOUS
10
6.83093
20
-6.75907
11
6.83693
21
-6.74714
0
LINE
8
BLACK
6
CONTINUOUS
10
6.83693
20
-6.74714
11
6.84152
21
-6.73461
0
LINE
8
BLACK
6
CONTINUOUS
10
6.84152
20
-6.73461
11
6.84463
21
-6.72163
0
LINE
8
BLACK
6
CONTINUOUS
10
6.84463
20
-6.72163
11
6.84624
21
-6.70837
0
LINE
8
BLACK
6
CONTINUOUS
10
6.84624
20
-6.70837
11
6.84646
21
-6.70109
0
LINE
8
BLACK
6
CONTINUOUS
10
6.84646
20
-6.70109
11
6.8457
21
-6.68777
0
LINE
8
BLACK
6
CONTINUOUS
10
6.8457
20
-6.68777
11
6.8434
21
-6.67462
0
LINE
8
BLACK
6
CONTINUOUS
10
6.8434
20
-6.67462
11
6.83961
21
-6.66182
0
LINE
8
BLACK
6
CONTINUOUS
10
6.83961
20
-6.66182
11
6.83437
21
-6.64954
0
LINE
8
BLACK
6
CONTINUOUS
10
6.83437
20
-6.64954
11
6.82776
21
-6.63795
0
LINE
8
BLACK
6
CONTINUOUS
10
6.82776
20
-6.63795
11
6.81986
21
-6.62719
0
LINE
8
BLACK
6
CONTINUOUS
10
6.81986
20
-6.62719
11
6.81077
21
-6.61741
0
LINE
8
BLACK
6
CONTINUOUS
10
6.81077
20
-6.61741
11
6.80062
21
-6.60874
0
LINE
8
BLACK
6
CONTINUOUS
10
6.80062
20
-6.60874
11
6.78954
21
-6.6013
0
LINE
8
BLACK
6
CONTINUOUS
10
6.78954
20
-6.6013
11
6.77768
21
-6.59517
0
LINE
8
BLACK
6
CONTINUOUS
10
6.77768
20
-6.59517
11
6.76519
21
-6.59046
0
LINE
8
BLACK
6
CONTINUOUS
10
6.76519
20
-6.59046
11
6.75225
21
-6.5872
0
LINE
8
BLACK
6
CONTINUOUS
10
6.75225
20
-6.5872
11
6.73901
21
-6.58546
0
LINE
8
BLACK
6
CONTINUOUS
10
6.73901
20
-6.58546
11
6.72566
21
-6.58525
0
LINE
8
BLACK
6
CONTINUOUS
10
6.72566
20
-6.58525
11
6.71238
21
-6.58658
0
LINE
8
BLACK
6
CONTINUOUS
10
6.71238
20
-6.58658
11
6.69934
21
-6.58942
0
LINE
8
BLACK
6
CONTINUOUS
10
6.69934
20
-6.58942
11
6.68671
21
-6.59375
0
LINE
8
BLACK
6
CONTINUOUS
10
6.68671
20
-6.59375
11
6.67466
21
-6.59949
0
LINE
8
BLACK
6
CONTINUOUS
10
6.67466
20
-6.59949
11
6.66336
21
-6.60659
0
LINE
8
BLACK
6
CONTINUOUS
10
6.66336
20
-6.60659
11
6.65294
21
-6.61493
0
LINE
8
BLACK
6
CONTINUOUS
10
6.65294
20
-6.61493
11
6.64355
21
-6.62442
0
LINE
8
BLACK
6
CONTINUOUS
10
6.64355
20
-6.62442
11
6.63531
21
-6.63492
0
LINE
8
BLACK
6
CONTINUOUS
10
6.63531
20
-6.63492
11
6.62834
21
-6.6463
0
LINE
8
BLACK
6
CONTINUOUS
10
6.62834
20
-6.6463
11
6.62272
21
-6.65841
0
LINE
8
BLACK
6
CONTINUOUS
10
6.62272
20
-6.65841
11
6.61853
21
-6.67109
0
LINE
8
BLACK
6
CONTINUOUS
10
6.61853
20
-6.67109
11
6.61582
21
-6.68416
0
LINE
8
BLACK
6
CONTINUOUS
10
6.61582
20
-6.68416
11
6.61463
21
-6.69745
0
LINE
8
BLACK
6
CONTINUOUS
10
6.61463
20
-6.69745
11
6.61498
21
-6.7108
0
LINE
8
BLACK
6
CONTINUOUS
10
6.61498
20
-6.7108
11
6.61686
21
-6.72401
0
LINE
8
BLACK
6
CONTINUOUS
10
5.81343
20
-6.67277
11
5.81731
21
-6.65989
0
LINE
8
BLACK
6
CONTINUOUS
10
5.81731
20
-6.65989
11
5.82261
21
-6.64753
0
LINE
8
BLACK
6
CONTINUOUS
10
5.82261
20
-6.64753
11
5.82925
21
-6.63583
0
LINE
8
BLACK
6
CONTINUOUS
10
5.82925
20
-6.63583
11
5.83716
21
-6.62495
0
LINE
8
BLACK
6
CONTINUOUS
10
5.83716
20
-6.62495
11
5.84623
21
-6.61502
0
LINE
8
BLACK
6
CONTINUOUS
10
5.84623
20
-6.61502
11
5.85635
21
-6.60616
0
LINE
8
BLACK
6
CONTINUOUS
10
5.85635
20
-6.60616
11
5.86739
21
-6.59848
0
LINE
8
BLACK
6
CONTINUOUS
10
5.86739
20
-6.59848
11
5.87922
21
-6.59209
0
LINE
8
BLACK
6
CONTINUOUS
10
5.87922
20
-6.59209
11
5.8917
21
-6.58705
0
LINE
8
BLACK
6
CONTINUOUS
10
5.8917
20
-6.58705
11
5.90465
21
-6.58343
0
LINE
8
BLACK
6
CONTINUOUS
10
5.90465
20
-6.58343
11
5.91793
21
-6.58128
0
LINE
8
BLACK
6
CONTINUOUS
10
5.91793
20
-6.58128
11
5.93136
21
-6.58062
0
LINE
8
BLACK
6
CONTINUOUS
10
5.93136
20
-6.58062
11
5.94478
21
-6.58147
0
LINE
8
BLACK
6
CONTINUOUS
10
5.94478
20
-6.58147
11
5.95803
21
-6.58381
0
LINE
8
BLACK
6
CONTINUOUS
10
5.95803
20
-6.58381
11
5.97093
21
-6.5876
0
LINE
8
BLACK
6
CONTINUOUS
10
5.97093
20
-6.5876
11
5.98333
21
-6.59281
0
LINE
8
BLACK
6
CONTINUOUS
10
5.98333
20
-6.59281
11
5.99507
21
-6.59938
0
LINE
8
BLACK
6
CONTINUOUS
10
5.99507
20
-6.59938
11
6.00601
21
-6.60721
0
LINE
8
BLACK
6
CONTINUOUS
10
6.00601
20
-6.60721
11
6.016
21
-6.61621
0
LINE
8
BLACK
6
CONTINUOUS
10
6.016
20
-6.61621
11
6.02493
21
-6.62626
0
LINE
8
BLACK
6
CONTINUOUS
10
6.02493
20
-6.62626
11
6.03269
21
-6.63725
0
LINE
8
BLACK
6
CONTINUOUS
10
6.03269
20
-6.63725
11
6.03917
21
-6.64904
0
LINE
8
BLACK
6
CONTINUOUS
10
6.03917
20
-6.64904
11
6.04429
21
-6.66148
0
LINE
8
BLACK
6
CONTINUOUS
10
6.04429
20
-6.66148
11
6.048
21
-6.6744
0
LINE
8
BLACK
6
CONTINUOUS
10
6.048
20
-6.6744
11
6.05024
21
-6.68767
0
LINE
8
BLACK
6
CONTINUOUS
10
6.05024
20
-6.68767
11
6.05099
21
-6.70109
0
LINE
8
BLACK
6
CONTINUOUS
10
6.05099
20
-6.70109
11
6.05095
21
-6.70446
0
LINE
8
BLACK
6
CONTINUOUS
10
6.05095
20
-6.70446
11
6.04982
21
-6.71786
0
LINE
8
BLACK
6
CONTINUOUS
10
6.04982
20
-6.71786
11
6.04721
21
-6.73105
0
LINE
8
BLACK
6
CONTINUOUS
10
6.04721
20
-6.73105
11
6.04314
21
-6.74388
0
LINE
8
BLACK
6
CONTINUOUS
10
6.04314
20
-6.74388
11
6.03767
21
-6.75616
0
LINE
8
BLACK
6
CONTINUOUS
10
6.03767
20
-6.75616
11
6.03086
21
-6.76776
0
LINE
8
BLACK
6
CONTINUOUS
10
6.03086
20
-6.76776
11
6.02281
21
-6.77853
0
LINE
8
BLACK
6
CONTINUOUS
10
6.02281
20
-6.77853
11
6.0136
21
-6.78834
0
LINE
8
BLACK
6
CONTINUOUS
10
6.0136
20
-6.78834
11
6.00336
21
-6.79705
0
LINE
8
BLACK
6
CONTINUOUS
10
6.00336
20
-6.79705
11
5.99221
21
-6.80458
0
LINE
8
BLACK
6
CONTINUOUS
10
5.99221
20
-6.80458
11
5.98029
21
-6.81081
0
LINE
8
BLACK
6
CONTINUOUS
10
5.98029
20
-6.81081
11
5.96775
21
-6.81567
0
LINE
8
BLACK
6
CONTINUOUS
10
5.96775
20
-6.81567
11
5.95474
21
-6.81911
0
LINE
8
BLACK
6
CONTINUOUS
10
5.95474
20
-6.81911
11
5.94144
21
-6.82107
0
LINE
8
BLACK
6
CONTINUOUS
10
5.94144
20
-6.82107
11
5.928
21
-6.82154
0
LINE
8
BLACK
6
CONTINUOUS
10
5.928
20
-6.82154
11
5.91459
21
-6.82051
0
LINE
8
BLACK
6
CONTINUOUS
10
5.91459
20
-6.82051
11
5.90137
21
-6.81799
0
LINE
8
BLACK
6
CONTINUOUS
10
5.90137
20
-6.81799
11
5.88853
21
-6.81401
0
LINE
8
BLACK
6
CONTINUOUS
10
5.88853
20
-6.81401
11
5.8762
21
-6.80863
0
LINE
8
BLACK
6
CONTINUOUS
10
5.8762
20
-6.80863
11
5.86455
21
-6.8019
0
LINE
8
BLACK
6
CONTINUOUS
10
5.86455
20
-6.8019
11
5.85373
21
-6.79392
0
LINE
8
BLACK
6
CONTINUOUS
10
5.85373
20
-6.79392
11
5.84386
21
-6.78478
0
LINE
8
BLACK
6
CONTINUOUS
10
5.84386
20
-6.78478
11
5.83507
21
-6.7746
0
LINE
8
BLACK
6
CONTINUOUS
10
5.83507
20
-6.7746
11
5.82747
21
-6.7635
0
LINE
8
BLACK
6
CONTINUOUS
10
5.82747
20
-6.7635
11
5.82116
21
-6.75163
0
LINE
8
BLACK
6
CONTINUOUS
10
5.82116
20
-6.75163
11
5.81621
21
-6.73912
0
LINE
8
BLACK
6
CONTINUOUS
10
5.81621
20
-6.73912
11
5.81268
21
-6.72614
0
LINE
8
BLACK
6
CONTINUOUS
10
5.81268
20
-6.72614
11
5.81062
21
-6.71285
0
LINE
8
BLACK
6
CONTINUOUS
10
5.81062
20
-6.71285
11
5.81006
21
-6.69941
0
LINE
8
BLACK
6
CONTINUOUS
10
5.81006
20
-6.69941
11
5.8102
21
-6.69745
0
LINE
8
BLACK
6
CONTINUOUS
10
5.8102
20
-6.69745
11
5.811
21
-6.686
0
LINE
8
BLACK
6
CONTINUOUS
10
5.811
20
-6.686
11
5.81343
21
-6.67277
0
LINE
8
BLACK
6
CONTINUOUS
10
5.81686
20
-6.72401
11
5.82025
21
-6.73692
0
LINE
8
BLACK
6
CONTINUOUS
10
5.82025
20
-6.73692
11
5.8251
21
-6.74936
0
LINE
8
BLACK
6
CONTINUOUS
10
5.8251
20
-6.74936
11
5.83135
21
-6.76116
0
LINE
8
BLACK
6
CONTINUOUS
10
5.83135
20
-6.76116
11
5.83891
21
-6.77216
0
LINE
8
BLACK
6
CONTINUOUS
10
5.83891
20
-6.77216
11
5.84768
21
-6.78222
0
LINE
8
BLACK
6
CONTINUOUS
10
5.84768
20
-6.78222
11
5.85755
21
-6.7912
0
LINE
8
BLACK
6
CONTINUOUS
10
5.85755
20
-6.7912
11
5.86839
21
-6.79899
0
LINE
8
BLACK
6
CONTINUOUS
10
5.86839
20
-6.79899
11
5.88006
21
-6.80548
0
LINE
8
BLACK
6
CONTINUOUS
10
5.88006
20
-6.80548
11
5.89239
21
-6.81059
0
LINE
8
BLACK
6
CONTINUOUS
10
5.89239
20
-6.81059
11
5.90523
21
-6.81425
0
LINE
8
BLACK
6
CONTINUOUS
10
5.90523
20
-6.81425
11
5.9184
21
-6.8164
0
LINE
8
BLACK
6
CONTINUOUS
10
5.9184
20
-6.8164
11
5.93173
21
-6.81703
0
LINE
8
BLACK
6
CONTINUOUS
10
5.93173
20
-6.81703
11
5.94505
21
-6.81612
0
LINE
8
BLACK
6
CONTINUOUS
10
5.94505
20
-6.81612
11
5.95818
21
-6.81369
0
LINE
8
BLACK
6
CONTINUOUS
10
5.95818
20
-6.81369
11
5.97093
21
-6.80977
0
LINE
8
BLACK
6
CONTINUOUS
10
5.97093
20
-6.80977
11
5.98316
21
-6.8044
0
LINE
8
BLACK
6
CONTINUOUS
10
5.98316
20
-6.8044
11
5.99468
21
-6.79767
0
LINE
8
BLACK
6
CONTINUOUS
10
5.99468
20
-6.79767
11
6.00536
21
-6.78965
0
LINE
8
BLACK
6
CONTINUOUS
10
6.00536
20
-6.78965
11
6.01504
21
-6.78046
0
LINE
8
BLACK
6
CONTINUOUS
10
6.01504
20
-6.78046
11
6.0236
21
-6.77022
0
LINE
8
BLACK
6
CONTINUOUS
10
6.0236
20
-6.77022
11
6.03093
21
-6.75907
0
LINE
8
BLACK
6
CONTINUOUS
10
6.03093
20
-6.75907
11
6.03693
21
-6.74714
0
LINE
8
BLACK
6
CONTINUOUS
10
6.03693
20
-6.74714
11
6.04152
21
-6.73461
0
LINE
8
BLACK
6
CONTINUOUS
10
6.04152
20
-6.73461
11
6.04463
21
-6.72163
0
LINE
8
BLACK
6
CONTINUOUS
10
6.04463
20
-6.72163
11
6.04624
21
-6.70837
0
LINE
8
BLACK
6
CONTINUOUS
10
6.04624
20
-6.70837
11
6.04646
21
-6.70109
0
LINE
8
BLACK
6
CONTINUOUS
10
6.04646
20
-6.70109
11
6.0457
21
-6.68777
0
LINE
8
BLACK
6
CONTINUOUS
10
6.0457
20
-6.68777
11
6.0434
21
-6.67462
0
LINE
8
BLACK
6
CONTINUOUS
10
6.0434
20
-6.67462
11
6.03961
21
-6.66182
0
LINE
8
BLACK
6
CONTINUOUS
10
6.03961
20
-6.66182
11
6.03437
21
-6.64954
0
LINE
8
BLACK
6
CONTINUOUS
10
6.03437
20
-6.64954
11
6.02776
21
-6.63795
0
LINE
8
BLACK
6
CONTINUOUS
10
6.02776
20
-6.63795
11
6.01986
21
-6.62719
0
LINE
8
BLACK
6
CONTINUOUS
10
6.01986
20
-6.62719
11
6.01077
21
-6.61741
0
LINE
8
BLACK
6
CONTINUOUS
10
6.01077
20
-6.61741
11
6.00062
21
-6.60874
0
LINE
8
BLACK
6
CONTINUOUS
10
6.00062
20
-6.60874
11
5.98954
21
-6.6013
0
LINE
8
BLACK
6
CONTINUOUS
10
5.98954
20
-6.6013
11
5.97768
21
-6.59517
0
LINE
8
BLACK
6
CONTINUOUS
10
5.97768
20
-6.59517
11
5.96519
21
-6.59046
0
LINE
8
BLACK
6
CONTINUOUS
10
5.96519
20
-6.59046
11
5.95225
21
-6.5872
0
LINE
8
BLACK
6
CONTINUOUS
10
5.95225
20
-6.5872
11
5.93901
21
-6.58546
0
LINE
8
BLACK
6
CONTINUOUS
10
5.93901
20
-6.58546
11
5.92566
21
-6.58525
0
LINE
8
BLACK
6
CONTINUOUS
10
5.92566
20
-6.58525
11
5.91238
21
-6.58658
0
LINE
8
BLACK
6
CONTINUOUS
10
5.91238
20
-6.58658
11
5.89934
21
-6.58942
0
LINE
8
BLACK
6
CONTINUOUS
10
5.89934
20
-6.58942
11
5.88671
21
-6.59375
0
LINE
8
BLACK
6
CONTINUOUS
10
5.88671
20
-6.59375
11
5.87466
21
-6.59949
0
LINE
8
BLACK
6
CONTINUOUS
10
5.87466
20
-6.59949
11
5.86336
21
-6.60659
0
LINE
8
BLACK
6
CONTINUOUS
10
5.86336
20
-6.60659
11
5.85294
21
-6.61493
0
LINE
8
BLACK
6
CONTINUOUS
10
5.85294
20
-6.61493
11
5.84355
21
-6.62442
0
LINE
8
BLACK
6
CONTINUOUS
10
5.84355
20
-6.62442
11
5.83531
21
-6.63492
0
LINE
8
BLACK
6
CONTINUOUS
10
5.83531
20
-6.63492
11
5.82834
21
-6.6463
0
LINE
8
BLACK
6
CONTINUOUS
10
5.82834
20
-6.6463
11
5.82272
21
-6.65841
0
LINE
8
BLACK
6
CONTINUOUS
10
5.82272
20
-6.65841
11
5.81853
21
-6.67109
0
LINE
8
BLACK
6
CONTINUOUS
10
5.81853
20
-6.67109
11
5.81582
21
-6.68416
0
LINE
8
BLACK
6
CONTINUOUS
10
5.81582
20
-6.68416
11
5.81463
21
-6.69745
0
LINE
8
BLACK
6
CONTINUOUS
10
5.81463
20
-6.69745
11
5.81498
21
-6.7108
0
LINE
8
BLACK
6
CONTINUOUS
10
5.81498
20
-6.7108
11
5.81686
21
-6.72401
0
LINE
8
BLACK
6
CONTINUOUS
10
12.2411
20
-5.77263
11
12.2449
21
-5.7586
0
LINE
8
BLACK
6
CONTINUOUS
10
12.2449
20
-5.7586
11
12.2501
21
-5.74504
0
LINE
8
BLACK
6
CONTINUOUS
10
12.2501
20
-5.74504
11
12.2567
21
-5.7321
0
LINE
8
BLACK
6
CONTINUOUS
10
12.2567
20
-5.7321
11
12.2646
21
-5.71992
0
LINE
8
BLACK
6
CONTINUOUS
10
12.2646
20
-5.71992
11
12.2737
21
-5.70863
0
LINE
8
BLACK
6
CONTINUOUS
10
12.2737
20
-5.70863
11
12.284
21
-5.69835
0
LINE
8
BLACK
6
CONTINUOUS
10
12.284
20
-5.69835
11
12.2953
21
-5.68921
0
LINE
8
BLACK
6
CONTINUOUS
10
12.2953
20
-5.68921
11
12.3075
21
-5.6813
0
LINE
8
BLACK
6
CONTINUOUS
10
12.3075
20
-5.6813
11
12.3204
21
-5.67471
0
LINE
8
BLACK
6
CONTINUOUS
10
12.3204
20
-5.67471
11
12.334
21
-5.6695
0
LINE
8
BLACK
6
CONTINUOUS
10
12.334
20
-5.6695
11
12.348
21
-5.66574
0
LINE
8
BLACK
6
CONTINUOUS
10
12.348
20
-5.66574
11
12.3624
21
-5.66347
0
LINE
8
BLACK
6
CONTINUOUS
10
12.3624
20
-5.66347
11
12.3769
21
-5.66271
0
LINE
8
BLACK
6
CONTINUOUS
10
12.3769
20
-5.66271
11
12.3914
21
-5.66347
0
LINE
8
BLACK
6
CONTINUOUS
10
12.3914
20
-5.66347
11
12.4057
21
-5.66574
0
LINE
8
BLACK
6
CONTINUOUS
10
12.4057
20
-5.66574
11
12.4197
21
-5.6695
0
LINE
8
BLACK
6
CONTINUOUS
10
12.4197
20
-5.6695
11
12.4333
21
-5.67471
0
LINE
8
BLACK
6
CONTINUOUS
10
12.4333
20
-5.67471
11
12.4462
21
-5.6813
0
LINE
8
BLACK
6
CONTINUOUS
10
12.4462
20
-5.6813
11
12.4584
21
-5.68921
0
LINE
8
BLACK
6
CONTINUOUS
10
12.4584
20
-5.68921
11
12.4697
21
-5.69835
0
LINE
8
BLACK
6
CONTINUOUS
10
12.4697
20
-5.69835
11
12.48
21
-5.70863
0
LINE
8
BLACK
6
CONTINUOUS
10
12.48
20
-5.70863
11
12.4891
21
-5.71992
0
LINE
8
BLACK
6
CONTINUOUS
10
12.4891
20
-5.71992
11
12.497
21
-5.7321
0
LINE
8
BLACK
6
CONTINUOUS
10
12.497
20
-5.7321
11
12.5036
21
-5.74504
0
LINE
8
BLACK
6
CONTINUOUS
10
12.5036
20
-5.74504
11
12.5088
21
-5.7586
0
LINE
8
BLACK
6
CONTINUOUS
10
12.5088
20
-5.7586
11
12.5126
21
-5.77263
0
LINE
8
BLACK
6
CONTINUOUS
10
12.5126
20
-5.77263
11
12.5149
21
-5.78698
0
LINE
8
BLACK
6
CONTINUOUS
10
12.5149
20
-5.78698
11
12.5156
21
-5.80149
0
LINE
8
BLACK
6
CONTINUOUS
10
12.5156
20
-5.80149
11
12.5149
21
-5.81599
0
LINE
8
BLACK
6
CONTINUOUS
10
12.5149
20
-5.81599
11
12.5126
21
-5.83034
0
LINE
8
BLACK
6
CONTINUOUS
10
12.5126
20
-5.83034
11
12.5088
21
-5.84437
0
LINE
8
BLACK
6
CONTINUOUS
10
12.5088
20
-5.84437
11
12.5036
21
-5.85793
0
LINE
8
BLACK
6
CONTINUOUS
10
12.5036
20
-5.85793
11
12.497
21
-5.87088
0
LINE
8
BLACK
6
CONTINUOUS
10
12.497
20
-5.87088
11
12.4891
21
-5.88306
0
LINE
8
BLACK
6
CONTINUOUS
10
12.4891
20
-5.88306
11
12.48
21
-5.89435
0
LINE
8
BLACK
6
CONTINUOUS
10
12.48
20
-5.89435
11
12.4697
21
-5.90462
0
LINE
8
BLACK
6
CONTINUOUS
10
12.4697
20
-5.90462
11
12.4584
21
-5.91376
0
LINE
8
BLACK
6
CONTINUOUS
10
12.4584
20
-5.91376
11
12.4462
21
-5.92167
0
LINE
8
BLACK
6
CONTINUOUS
10
12.4462
20
-5.92167
11
12.4333
21
-5.92827
0
LINE
8
BLACK
6
CONTINUOUS
10
12.4333
20
-5.92827
11
12.4197
21
-5.93348
0
LINE
8
BLACK
6
CONTINUOUS
10
12.4197
20
-5.93348
11
12.4057
21
-5.93724
0
LINE
8
BLACK
6
CONTINUOUS
10
12.4057
20
-5.93724
11
12.3914
21
-5.93951
0
LINE
8
BLACK
6
CONTINUOUS
10
12.3914
20
-5.93951
11
12.3769
21
-5.94027
0
LINE
8
BLACK
6
CONTINUOUS
10
12.3769
20
-5.94027
11
12.3624
21
-5.93951
0
LINE
8
BLACK
6
CONTINUOUS
10
12.3624
20
-5.93951
11
12.348
21
-5.93724
0
LINE
8
BLACK
6
CONTINUOUS
10
12.348
20
-5.93724
11
12.334
21
-5.93348
0
LINE
8
BLACK
6
CONTINUOUS
10
12.334
20
-5.93348
11
12.3204
21
-5.92827
0
LINE
8
BLACK
6
CONTINUOUS
10
12.3204
20
-5.92827
11
12.3075
21
-5.92167
0
LINE
8
BLACK
6
CONTINUOUS
10
12.3075
20
-5.92167
11
12.2953
21
-5.91376
0
LINE
8
BLACK
6
CONTINUOUS
10
12.2953
20
-5.91376
11
12.284
21
-5.90462
0
LINE
8
BLACK
6
CONTINUOUS
10
12.284
20
-5.90462
11
12.2737
21
-5.89435
0
LINE
8
BLACK
6
CONTINUOUS
10
12.2737
20
-5.89435
11
12.2646
21
-5.88306
0
LINE
8
BLACK
6
CONTINUOUS
10
12.2646
20
-5.88306
11
12.2567
21
-5.87088
0
LINE
8
BLACK
6
CONTINUOUS
10
12.2567
20
-5.87088
11
12.2501
21
-5.85793
0
LINE
8
BLACK
6
CONTINUOUS
10
12.2501
20
-5.85793
11
12.2449
21
-5.84437
0
LINE
8
BLACK
6
CONTINUOUS
10
12.2449
20
-5.84437
11
12.2411
21
-5.83034
0
LINE
8
BLACK
6
CONTINUOUS
10
12.2411
20
-5.83034
11
12.2388
21
-5.81599
0
LINE
8
BLACK
6
CONTINUOUS
10
12.2388
20
-5.81599
11
12.2381
21
-5.80149
0
LINE
8
BLACK
6
CONTINUOUS
10
12.2381
20
-5.80149
11
12.2388
21
-5.78698
0
LINE
8
BLACK
6
CONTINUOUS
10
12.2388
20
-5.78698
11
12.2411
21
-5.77263
0
LINE
8
BLACK
6
CONTINUOUS
10
12.2429
20
-5.82997
11
12.2466
21
-5.84382
0
LINE
8
BLACK
6
CONTINUOUS
10
12.2466
20
-5.84382
11
12.2517
21
-5.85721
0
LINE
8
BLACK
6
CONTINUOUS
10
12.2517
20
-5.85721
11
12.2582
21
-5.86999
0
LINE
8
BLACK
6
CONTINUOUS
10
12.2582
20
-5.86999
11
12.266
21
-5.88201
0
LINE
8
BLACK
6
CONTINUOUS
10
12.266
20
-5.88201
11
12.275
21
-5.89316
0
LINE
8
BLACK
6
CONTINUOUS
10
12.275
20
-5.89316
11
12.2852
21
-5.9033
0
LINE
8
BLACK
6
CONTINUOUS
10
12.2852
20
-5.9033
11
12.2963
21
-5.91232
0
LINE
8
BLACK
6
CONTINUOUS
10
12.2963
20
-5.91232
11
12.3084
21
-5.92013
0
LINE
8
BLACK
6
CONTINUOUS
10
12.3084
20
-5.92013
11
12.3211
21
-5.92664
0
LINE
8
BLACK
6
CONTINUOUS
10
12.3211
20
-5.92664
11
12.3345
21
-5.93178
0
LINE
8
BLACK
6
CONTINUOUS
10
12.3345
20
-5.93178
11
12.3484
21
-5.93549
0
LINE
8
BLACK
6
CONTINUOUS
10
12.3484
20
-5.93549
11
12.3625
21
-5.93774
0
LINE
8
BLACK
6
CONTINUOUS
10
12.3625
20
-5.93774
11
12.3769
21
-5.93849
0
LINE
8
BLACK
6
CONTINUOUS
10
12.3769
20
-5.93849
11
12.3912
21
-5.93774
0
LINE
8
BLACK
6
CONTINUOUS
10
12.3912
20
-5.93774
11
12.4053
21
-5.93549
0
LINE
8
BLACK
6
CONTINUOUS
10
12.4053
20
-5.93549
11
12.4192
21
-5.93178
0
LINE
8
BLACK
6
CONTINUOUS
10
12.4192
20
-5.93178
11
12.4326
21
-5.92664
0
LINE
8
BLACK
6
CONTINUOUS
10
12.4326
20
-5.92664
11
12.4454
21
-5.92013
0
LINE
8
BLACK
6
CONTINUOUS
10
12.4454
20
-5.92013
11
12.4574
21
-5.91232
0
LINE
8
BLACK
6
CONTINUOUS
10
12.4574
20
-5.91232
11
12.4685
21
-5.9033
0
LINE
8
BLACK
6
CONTINUOUS
10
12.4685
20
-5.9033
11
12.4787
21
-5.89316
0
LINE
8
BLACK
6
CONTINUOUS
10
12.4787
20
-5.89316
11
12.4877
21
-5.88201
0
LINE
8
BLACK
6
CONTINUOUS
10
12.4877
20
-5.88201
11
12.4955
21
-5.86999
0
LINE
8
BLACK
6
CONTINUOUS
10
12.4955
20
-5.86999
11
12.502
21
-5.85721
0
LINE
8
BLACK
6
CONTINUOUS
10
12.502
20
-5.85721
11
12.5072
21
-5.84382
0
LINE
8
BLACK
6
CONTINUOUS
10
12.5072
20
-5.84382
11
12.5109
21
-5.82997
0
LINE
8
BLACK
6
CONTINUOUS
10
12.5109
20
-5.82997
11
12.5131
21
-5.81581
0
LINE
8
BLACK
6
CONTINUOUS
10
12.5131
20
-5.81581
11
12.5139
21
-5.80149
0
LINE
8
BLACK
6
CONTINUOUS
10
12.5139
20
-5.80149
11
12.5131
21
-5.78717
0
LINE
8
BLACK
6
CONTINUOUS
10
12.5131
20
-5.78717
11
12.5109
21
-5.773
0
LINE
8
BLACK
6
CONTINUOUS
10
12.5109
20
-5.773
11
12.5072
21
-5.75915
0
LINE
8
BLACK
6
CONTINUOUS
10
12.5072
20
-5.75915
11
12.502
21
-5.74577
0
LINE
8
BLACK
6
CONTINUOUS
10
12.502
20
-5.74577
11
12.4955
21
-5.73299
0
LINE
8
BLACK
6
CONTINUOUS
10
12.4955
20
-5.73299
11
12.4877
21
-5.72096
0
LINE
8
BLACK
6
CONTINUOUS
10
12.4877
20
-5.72096
11
12.4787
21
-5.70982
0
LINE
8
BLACK
6
CONTINUOUS
10
12.4787
20
-5.70982
11
12.4685
21
-5.69968
0
LINE
8
BLACK
6
CONTINUOUS
10
12.4685
20
-5.69968
11
12.4574
21
-5.69065
0
LINE
8
BLACK
6
CONTINUOUS
10
12.4574
20
-5.69065
11
12.4454
21
-5.68284
0
LINE
8
BLACK
6
CONTINUOUS
10
12.4454
20
-5.68284
11
12.4326
21
-5.67633
0
LINE
8
BLACK
6
CONTINUOUS
10
12.4326
20
-5.67633
11
12.4192
21
-5.67119
0
LINE
8
BLACK
6
CONTINUOUS
10
12.4192
20
-5.67119
11
12.4053
21
-5.66748
0
LINE
8
BLACK
6
CONTINUOUS
10
12.4053
20
-5.66748
11
12.3912
21
-5.66524
0
LINE
8
BLACK
6
CONTINUOUS
10
12.3912
20
-5.66524
11
12.3769
21
-5.66449
0
LINE
8
BLACK
6
CONTINUOUS
10
12.3769
20
-5.66449
11
12.3625
21
-5.66524
0
LINE
8
BLACK
6
CONTINUOUS
10
12.3625
20
-5.66524
11
12.3484
21
-5.66748
0
LINE
8
BLACK
6
CONTINUOUS
10
12.3484
20
-5.66748
11
12.3345
21
-5.67119
0
LINE
8
BLACK
6
CONTINUOUS
10
12.3345
20
-5.67119
11
12.3211
21
-5.67633
0
LINE
8
BLACK
6
CONTINUOUS
10
12.3211
20
-5.67633
11
12.3084
21
-5.68284
0
LINE
8
BLACK
6
CONTINUOUS
10
12.3084
20
-5.68284
11
12.2963
21
-5.69065
0
LINE
8
BLACK
6
CONTINUOUS
10
12.2963
20
-5.69065
11
12.2852
21
-5.69968
0
LINE
8
BLACK
6
CONTINUOUS
10
12.2852
20
-5.69968
11
12.275
21
-5.70982
0
LINE
8
BLACK
6
CONTINUOUS
10
12.275
20
-5.70982
11
12.266
21
-5.72096
0
LINE
8
BLACK
6
CONTINUOUS
10
12.266
20
-5.72096
11
12.2582
21
-5.73299
0
LINE
8
BLACK
6
CONTINUOUS
10
12.2582
20
-5.73299
11
12.2517
21
-5.74577
0
LINE
8
BLACK
6
CONTINUOUS
10
12.2517
20
-5.74577
11
12.2466
21
-5.75915
0
LINE
8
BLACK
6
CONTINUOUS
10
12.2466
20
-5.75915
11
12.2429
21
-5.773
0
LINE
8
BLACK
6
CONTINUOUS
10
12.2429
20
-5.773
11
12.2406
21
-5.78717
0
LINE
8
BLACK
6
CONTINUOUS
10
12.2406
20
-5.78717
11
12.2399
21
-5.80149
0
LINE
8
BLACK
6
CONTINUOUS
10
12.2399
20
-5.80149
11
12.2406
21
-5.81581
0
LINE
8
BLACK
6
CONTINUOUS
10
12.2406
20
-5.81581
11
12.2429
21
-5.82997
0
LINE
8
BLACK
6
CONTINUOUS
10
4.21343
20
-5.77277
11
4.21731
21
-5.75989
0
LINE
8
BLACK
6
CONTINUOUS
10
4.21731
20
-5.75989
11
4.22261
21
-5.74753
0
LINE
8
BLACK
6
CONTINUOUS
10
4.22261
20
-5.74753
11
4.22925
21
-5.73583
0
LINE
8
BLACK
6
CONTINUOUS
10
4.22925
20
-5.73583
11
4.23716
21
-5.72495
0
LINE
8
BLACK
6
CONTINUOUS
10
4.23716
20
-5.72495
11
4.24623
21
-5.71502
0
LINE
8
BLACK
6
CONTINUOUS
10
4.24623
20
-5.71502
11
4.25635
21
-5.70616
0
LINE
8
BLACK
6
CONTINUOUS
10
4.25635
20
-5.70616
11
4.26739
21
-5.69848
0
LINE
8
BLACK
6
CONTINUOUS
10
4.26739
20
-5.69848
11
4.27923
21
-5.69209
0
LINE
8
BLACK
6
CONTINUOUS
10
4.27923
20
-5.69209
11
4.2917
21
-5.68705
0
LINE
8
BLACK
6
CONTINUOUS
10
4.2917
20
-5.68705
11
4.30465
21
-5.68343
0
LINE
8
BLACK
6
CONTINUOUS
10
4.30465
20
-5.68343
11
4.31793
21
-5.68128
0
LINE
8
BLACK
6
CONTINUOUS
10
4.31793
20
-5.68128
11
4.33136
21
-5.68063
0
LINE
8
BLACK
6
CONTINUOUS
10
4.33136
20
-5.68063
11
4.34478
21
-5.68147
0
LINE
8
BLACK
6
CONTINUOUS
10
4.34478
20
-5.68147
11
4.35803
21
-5.68381
0
LINE
8
BLACK
6
CONTINUOUS
10
4.35803
20
-5.68381
11
4.37093
21
-5.6876
0
LINE
8
BLACK
6
CONTINUOUS
10
4.37093
20
-5.6876
11
4.38333
21
-5.69281
0
LINE
8
BLACK
6
CONTINUOUS
10
4.38333
20
-5.69281
11
4.39507
21
-5.69938
0
LINE
8
BLACK
6
CONTINUOUS
10
4.39507
20
-5.69938
11
4.40601
21
-5.70721
0
LINE
8
BLACK
6
CONTINUOUS
10
4.40601
20
-5.70721
11
4.416
21
-5.71621
0
LINE
8
BLACK
6
CONTINUOUS
10
4.416
20
-5.71621
11
4.42493
21
-5.72626
0
LINE
8
BLACK
6
CONTINUOUS
10
4.42493
20
-5.72626
11
4.43269
21
-5.73725
0
LINE
8
BLACK
6
CONTINUOUS
10
4.43269
20
-5.73725
11
4.43917
21
-5.74904
0
LINE
8
BLACK
6
CONTINUOUS
10
4.43917
20
-5.74904
11
4.44429
21
-5.76148
0
LINE
8
BLACK
6
CONTINUOUS
10
4.44429
20
-5.76148
11
4.448
21
-5.7744
0
LINE
8
BLACK
6
CONTINUOUS
10
4.448
20
-5.7744
11
4.45024
21
-5.78767
0
LINE
8
BLACK
6
CONTINUOUS
10
4.45024
20
-5.78767
11
4.45099
21
-5.80109
0
LINE
8
BLACK
6
CONTINUOUS
10
4.45099
20
-5.80109
11
4.45095
21
-5.80446
0
LINE
8
BLACK
6
CONTINUOUS
10
4.45095
20
-5.80446
11
4.44982
21
-5.81786
0
LINE
8
BLACK
6
CONTINUOUS
10
4.44982
20
-5.81786
11
4.44721
21
-5.83105
0
LINE
8
BLACK
6
CONTINUOUS
10
4.44721
20
-5.83105
11
4.44314
21
-5.84388
0
LINE
8
BLACK
6
CONTINUOUS
10
4.44314
20
-5.84388
11
4.43767
21
-5.85616
0
LINE
8
BLACK
6
CONTINUOUS
10
4.43767
20
-5.85616
11
4.43086
21
-5.86776
0
LINE
8
BLACK
6
CONTINUOUS
10
4.43086
20
-5.86776
11
4.42281
21
-5.87853
0
LINE
8
BLACK
6
CONTINUOUS
10
4.42281
20
-5.87853
11
4.4136
21
-5.88834
0
LINE
8
BLACK
6
CONTINUOUS
10
4.4136
20
-5.88834
11
4.40336
21
-5.89705
0
LINE
8
BLACK
6
CONTINUOUS
10
4.40336
20
-5.89705
11
4.39221
21
-5.90458
0
LINE
8
BLACK
6
CONTINUOUS
10
4.39221
20
-5.90458
11
4.38029
21
-5.91081
0
LINE
8
BLACK
6
CONTINUOUS
10
4.38029
20
-5.91081
11
4.36775
21
-5.91567
0
LINE
8
BLACK
6
CONTINUOUS
10
4.36775
20
-5.91567
11
4.35474
21
-5.91911
0
LINE
8
BLACK
6
CONTINUOUS
10
4.35474
20
-5.91911
11
4.34144
21
-5.92107
0
LINE
8
BLACK
6
CONTINUOUS
10
4.34144
20
-5.92107
11
4.328
21
-5.92154
0
LINE
8
BLACK
6
CONTINUOUS
10
4.328
20
-5.92154
11
4.31459
21
-5.92051
0
LINE
8
BLACK
6
CONTINUOUS
10
4.31459
20
-5.92051
11
4.30137
21
-5.91799
0
LINE
8
BLACK
6
CONTINUOUS
10
4.30137
20
-5.91799
11
4.28853
21
-5.91401
0
LINE
8
BLACK
6
CONTINUOUS
10
4.28853
20
-5.91401
11
4.2762
21
-5.90863
0
LINE
8
BLACK
6
CONTINUOUS
10
4.2762
20
-5.90863
11
4.26455
21
-5.9019
0
LINE
8
BLACK
6
CONTINUOUS
10
4.26455
20
-5.9019
11
4.25373
21
-5.89392
0
LINE
8
BLACK
6
CONTINUOUS
10
4.25373
20
-5.89392
11
4.24386
21
-5.88478
0
LINE
8
BLACK
6
CONTINUOUS
10
4.24386
20
-5.88478
11
4.23507
21
-5.8746
0
LINE
8
BLACK
6
CONTINUOUS
10
4.23507
20
-5.8746
11
4.22747
21
-5.8635
0
LINE
8
BLACK
6
CONTINUOUS
10
4.22747
20
-5.8635
11
4.22116
21
-5.85163
0
LINE
8
BLACK
6
CONTINUOUS
10
4.22116
20
-5.85163
11
4.21621
21
-5.83912
0
LINE
8
BLACK
6
CONTINUOUS
10
4.21621
20
-5.83912
11
4.21268
21
-5.82614
0
LINE
8
BLACK
6
CONTINUOUS
10
4.21268
20
-5.82614
11
4.21062
21
-5.81285
0
LINE
8
BLACK
6
CONTINUOUS
10
4.21062
20
-5.81285
11
4.21006
21
-5.79941
0
LINE
8
BLACK
6
CONTINUOUS
10
4.21006
20
-5.79941
11
4.2102
21
-5.79745
0
LINE
8
BLACK
6
CONTINUOUS
10
4.2102
20
-5.79745
11
4.211
21
-5.786
0
LINE
8
BLACK
6
CONTINUOUS
10
4.211
20
-5.786
11
4.21343
21
-5.77277
0
LINE
8
BLACK
6
CONTINUOUS
10
4.21686
20
-5.82401
11
4.22025
21
-5.83692
0
LINE
8
BLACK
6
CONTINUOUS
10
4.22025
20
-5.83692
11
4.2251
21
-5.84936
0
LINE
8
BLACK
6
CONTINUOUS
10
4.2251
20
-5.84936
11
4.23135
21
-5.86116
0
LINE
8
BLACK
6
CONTINUOUS
10
4.23135
20
-5.86116
11
4.23891
21
-5.87216
0
LINE
8
BLACK
6
CONTINUOUS
10
4.23891
20
-5.87216
11
4.24768
21
-5.88222
0
LINE
8
BLACK
6
CONTINUOUS
10
4.24768
20
-5.88222
11
4.25755
21
-5.8912
0
LINE
8
BLACK
6
CONTINUOUS
10
4.25755
20
-5.8912
11
4.26839
21
-5.89899
0
LINE
8
BLACK
6
CONTINUOUS
10
4.26839
20
-5.89899
11
4.28006
21
-5.90548
0
LINE
8
BLACK
6
CONTINUOUS
10
4.28006
20
-5.90548
11
4.29239
21
-5.91059
0
LINE
8
BLACK
6
CONTINUOUS
10
4.29239
20
-5.91059
11
4.30523
21
-5.91425
0
LINE
8
BLACK
6
CONTINUOUS
10
4.30523
20
-5.91425
11
4.3184
21
-5.9164
0
LINE
8
BLACK
6
CONTINUOUS
10
4.3184
20
-5.9164
11
4.33173
21
-5.91703
0
LINE
8
BLACK
6
CONTINUOUS
10
4.33173
20
-5.91703
11
4.34505
21
-5.91612
0
LINE
8
BLACK
6
CONTINUOUS
10
4.34505
20
-5.91612
11
4.35818
21
-5.91369
0
LINE
8
BLACK
6
CONTINUOUS
10
4.35818
20
-5.91369
11
4.37093
21
-5.90977
0
LINE
8
BLACK
6
CONTINUOUS
10
4.37093
20
-5.90977
11
4.38316
21
-5.9044
0
LINE
8
BLACK
6
CONTINUOUS
10
4.38316
20
-5.9044
11
4.39468
21
-5.89767
0
LINE
8
BLACK
6
CONTINUOUS
10
4.39468
20
-5.89767
11
4.40536
21
-5.88965
0
LINE
8
BLACK
6
CONTINUOUS
10
4.40536
20
-5.88965
11
4.41504
21
-5.88046
0
LINE
8
BLACK
6
CONTINUOUS
10
4.41504
20
-5.88046
11
4.4236
21
-5.87022
0
LINE
8
BLACK
6
CONTINUOUS
10
4.4236
20
-5.87022
11
4.43093
21
-5.85907
0
LINE
8
BLACK
6
CONTINUOUS
10
4.43093
20
-5.85907
11
4.43693
21
-5.84714
0
LINE
8
BLACK
6
CONTINUOUS
10
4.43693
20
-5.84714
11
4.44152
21
-5.83461
0
LINE
8
BLACK
6
CONTINUOUS
10
4.44152
20
-5.83461
11
4.44463
21
-5.82163
0
LINE
8
BLACK
6
CONTINUOUS
10
4.44463
20
-5.82163
11
4.44624
21
-5.80837
0
LINE
8
BLACK
6
CONTINUOUS
10
4.44624
20
-5.80837
11
4.44646
21
-5.80109
0
LINE
8
BLACK
6
CONTINUOUS
10
4.44646
20
-5.80109
11
4.4457
21
-5.78777
0
LINE
8
BLACK
6
CONTINUOUS
10
4.4457
20
-5.78777
11
4.4434
21
-5.77462
0
LINE
8
BLACK
6
CONTINUOUS
10
4.4434
20
-5.77462
11
4.43961
21
-5.76182
0
LINE
8
BLACK
6
CONTINUOUS
10
4.43961
20
-5.76182
11
4.43437
21
-5.74954
0
LINE
8
BLACK
6
CONTINUOUS
10
4.43437
20
-5.74954
11
4.42776
21
-5.73795
0
LINE
8
BLACK
6
CONTINUOUS
10
4.42776
20
-5.73795
11
4.41986
21
-5.72719
0
LINE
8
BLACK
6
CONTINUOUS
10
4.41986
20
-5.72719
11
4.41077
21
-5.71741
0
LINE
8
BLACK
6
CONTINUOUS
10
4.41077
20
-5.71741
11
4.40062
21
-5.70874
0
LINE
8
BLACK
6
CONTINUOUS
10
4.40062
20
-5.70874
11
4.38954
21
-5.7013
0
LINE
8
BLACK
6
CONTINUOUS
10
4.38954
20
-5.7013
11
4.37768
21
-5.69517
0
LINE
8
BLACK
6
CONTINUOUS
10
4.37768
20
-5.69517
11
4.36519
21
-5.69046
0
LINE
8
BLACK
6
CONTINUOUS
10
4.36519
20
-5.69046
11
4.35225
21
-5.6872
0
LINE
8
BLACK
6
CONTINUOUS
10
4.35225
20
-5.6872
11
4.33901
21
-5.68546
0
LINE
8
BLACK
6
CONTINUOUS
10
4.33901
20
-5.68546
11
4.32566
21
-5.68525
0
LINE
8
BLACK
6
CONTINUOUS
10
4.32566
20
-5.68525
11
4.31238
21
-5.68658
0
LINE
8
BLACK
6
CONTINUOUS
10
4.31238
20
-5.68658
11
4.29934
21
-5.68942
0
LINE
8
BLACK
6
CONTINUOUS
10
4.29934
20
-5.68942
11
4.28671
21
-5.69375
0
LINE
8
BLACK
6
CONTINUOUS
10
4.28671
20
-5.69375
11
4.27466
21
-5.69949
0
LINE
8
BLACK
6
CONTINUOUS
10
4.27466
20
-5.69949
11
4.26336
21
-5.70659
0
LINE
8
BLACK
6
CONTINUOUS
10
4.26336
20
-5.70659
11
4.25294
21
-5.71493
0
LINE
8
BLACK
6
CONTINUOUS
10
4.25294
20
-5.71493
11
4.24355
21
-5.72442
0
LINE
8
BLACK
6
CONTINUOUS
10
4.24355
20
-5.72442
11
4.23531
21
-5.73492
0
LINE
8
BLACK
6
CONTINUOUS
10
4.23531
20
-5.73492
11
4.22834
21
-5.7463
0
LINE
8
BLACK
6
CONTINUOUS
10
4.22834
20
-5.7463
11
4.22272
21
-5.75841
0
LINE
8
BLACK
6
CONTINUOUS
10
4.22272
20
-5.75841
11
4.21853
21
-5.77109
0
LINE
8
BLACK
6
CONTINUOUS
10
4.21853
20
-5.77109
11
4.21582
21
-5.78416
0
LINE
8
BLACK
6
CONTINUOUS
10
4.21582
20
-5.78416
11
4.21463
21
-5.79745
0
LINE
8
BLACK
6
CONTINUOUS
10
4.21463
20
-5.79745
11
4.21498
21
-5.8108
0
LINE
8
BLACK
6
CONTINUOUS
10
4.21498
20
-5.8108
11
4.21686
21
-5.82401
0
LINE
8
BLACK
6
CONTINUOUS
10
5.01343
20
-5.77277
11
5.01731
21
-5.75989
0
LINE
8
BLACK
6
CONTINUOUS
10
5.01731
20
-5.75989
11
5.02261
21
-5.74753
0
LINE
8
BLACK
6
CONTINUOUS
10
5.02261
20
-5.74753
11
5.02925
21
-5.73583
0
LINE
8
BLACK
6
CONTINUOUS
10
5.02925
20
-5.73583
11
5.03716
21
-5.72495
0
LINE
8
BLACK
6
CONTINUOUS
10
5.03716
20
-5.72495
11
5.04623
21
-5.71502
0
LINE
8
BLACK
6
CONTINUOUS
10
5.04623
20
-5.71502
11
5.05635
21
-5.70616
0
LINE
8
BLACK
6
CONTINUOUS
10
5.05635
20
-5.70616
11
5.06739
21
-5.69848
0
LINE
8
BLACK
6
CONTINUOUS
10
5.06739
20
-5.69848
11
5.07923
21
-5.69209
0
LINE
8
BLACK
6
CONTINUOUS
10
5.07923
20
-5.69209
11
5.0917
21
-5.68705
0
LINE
8
BLACK
6
CONTINUOUS
10
5.0917
20
-5.68705
11
5.10465
21
-5.68343
0
LINE
8
BLACK
6
CONTINUOUS
10
5.10465
20
-5.68343
11
5.11793
21
-5.68128
0
LINE
8
BLACK
6
CONTINUOUS
10
5.11793
20
-5.68128
11
5.13136
21
-5.68063
0
LINE
8
BLACK
6
CONTINUOUS
10
5.13136
20
-5.68063
11
5.14478
21
-5.68147
0
LINE
8
BLACK
6
CONTINUOUS
10
5.14478
20
-5.68147
11
5.15803
21
-5.68381
0
LINE
8
BLACK
6
CONTINUOUS
10
5.15803
20
-5.68381
11
5.17093
21
-5.6876
0
LINE
8
BLACK
6
CONTINUOUS
10
5.17093
20
-5.6876
11
5.18333
21
-5.69281
0
LINE
8
BLACK
6
CONTINUOUS
10
5.18333
20
-5.69281
11
5.19507
21
-5.69938
0
LINE
8
BLACK
6
CONTINUOUS
10
5.19507
20
-5.69938
11
5.20601
21
-5.70721
0
LINE
8
BLACK
6
CONTINUOUS
10
5.20601
20
-5.70721
11
5.216
21
-5.71621
0
LINE
8
BLACK
6
CONTINUOUS
10
5.216
20
-5.71621
11
5.22493
21
-5.72626
0
LINE
8
BLACK
6
CONTINUOUS
10
5.22493
20
-5.72626
11
5.23269
21
-5.73725
0
LINE
8
BLACK
6
CONTINUOUS
10
5.23269
20
-5.73725
11
5.23917
21
-5.74904
0
LINE
8
BLACK
6
CONTINUOUS
10
5.23917
20
-5.74904
11
5.24429
21
-5.76148
0
LINE
8
BLACK
6
CONTINUOUS
10
5.24429
20
-5.76148
11
5.248
21
-5.7744
0
LINE
8
BLACK
6
CONTINUOUS
10
5.248
20
-5.7744
11
5.25024
21
-5.78767
0
LINE
8
BLACK
6
CONTINUOUS
10
5.25024
20
-5.78767
11
5.25099
21
-5.80109
0
LINE
8
BLACK
6
CONTINUOUS
10
5.25099
20
-5.80109
11
5.25095
21
-5.80446
0
LINE
8
BLACK
6
CONTINUOUS
10
5.25095
20
-5.80446
11
5.24982
21
-5.81786
0
LINE
8
BLACK
6
CONTINUOUS
10
5.24982
20
-5.81786
11
5.24721
21
-5.83105
0
LINE
8
BLACK
6
CONTINUOUS
10
5.24721
20
-5.83105
11
5.24314
21
-5.84388
0
LINE
8
BLACK
6
CONTINUOUS
10
5.24314
20
-5.84388
11
5.23767
21
-5.85616
0
LINE
8
BLACK
6
CONTINUOUS
10
5.23767
20
-5.85616
11
5.23086
21
-5.86776
0
LINE
8
BLACK
6
CONTINUOUS
10
5.23086
20
-5.86776
11
5.22281
21
-5.87853
0
LINE
8
BLACK
6
CONTINUOUS
10
5.22281
20
-5.87853
11
5.2136
21
-5.88834
0
LINE
8
BLACK
6
CONTINUOUS
10
5.2136
20
-5.88834
11
5.20336
21
-5.89705
0
LINE
8
BLACK
6
CONTINUOUS
10
5.20336
20
-5.89705
11
5.19221
21
-5.90458
0
LINE
8
BLACK
6
CONTINUOUS
10
5.19221
20
-5.90458
11
5.18029
21
-5.91081
0
LINE
8
BLACK
6
CONTINUOUS
10
5.18029
20
-5.91081
11
5.16775
21
-5.91567
0
LINE
8
BLACK
6
CONTINUOUS
10
5.16775
20
-5.91567
11
5.15474
21
-5.91911
0
LINE
8
BLACK
6
CONTINUOUS
10
5.15474
20
-5.91911
11
5.14144
21
-5.92107
0
LINE
8
BLACK
6
CONTINUOUS
10
5.14144
20
-5.92107
11
5.128
21
-5.92154
0
LINE
8
BLACK
6
CONTINUOUS
10
5.128
20
-5.92154
11
5.11459
21
-5.92051
0
LINE
8
BLACK
6
CONTINUOUS
10
5.11459
20
-5.92051
11
5.10137
21
-5.91799
0
LINE
8
BLACK
6
CONTINUOUS
10
5.10137
20
-5.91799
11
5.08853
21
-5.91401
0
LINE
8
BLACK
6
CONTINUOUS
10
5.08853
20
-5.91401
11
5.0762
21
-5.90863
0
LINE
8
BLACK
6
CONTINUOUS
10
5.0762
20
-5.90863
11
5.06455
21
-5.9019
0
LINE
8
BLACK
6
CONTINUOUS
10
5.06455
20
-5.9019
11
5.05373
21
-5.89392
0
LINE
8
BLACK
6
CONTINUOUS
10
5.05373
20
-5.89392
11
5.04386
21
-5.88478
0
LINE
8
BLACK
6
CONTINUOUS
10
5.04386
20
-5.88478
11
5.03507
21
-5.8746
0
LINE
8
BLACK
6
CONTINUOUS
10
5.03507
20
-5.8746
11
5.02747
21
-5.8635
0
LINE
8
BLACK
6
CONTINUOUS
10
5.02747
20
-5.8635
11
5.02116
21
-5.85163
0
LINE
8
BLACK
6
CONTINUOUS
10
5.02116
20
-5.85163
11
5.01621
21
-5.83912
0
LINE
8
BLACK
6
CONTINUOUS
10
5.01621
20
-5.83912
11
5.01268
21
-5.82614
0
LINE
8
BLACK
6
CONTINUOUS
10
5.01268
20
-5.82614
11
5.01062
21
-5.81285
0
LINE
8
BLACK
6
CONTINUOUS
10
5.01062
20
-5.81285
11
5.01006
21
-5.79941
0
LINE
8
BLACK
6
CONTINUOUS
10
5.01006
20
-5.79941
11
5.0102
21
-5.79745
0
LINE
8
BLACK
6
CONTINUOUS
10
5.0102
20
-5.79745
11
5.011
21
-5.786
0
LINE
8
BLACK
6
CONTINUOUS
10
5.011
20
-5.786
11
5.01343
21
-5.77277
0
LINE
8
BLACK
6
CONTINUOUS
10
5.01686
20
-5.82401
11
5.02025
21
-5.83692
0
LINE
8
BLACK
6
CONTINUOUS
10
5.02025
20
-5.83692
11
5.0251
21
-5.84936
0
LINE
8
BLACK
6
CONTINUOUS
10
5.0251
20
-5.84936
11
5.03135
21
-5.86116
0
LINE
8
BLACK
6
CONTINUOUS
10
5.03135
20
-5.86116
11
5.03891
21
-5.87216
0
LINE
8
BLACK
6
CONTINUOUS
10
5.03891
20
-5.87216
11
5.04768
21
-5.88222
0
LINE
8
BLACK
6
CONTINUOUS
10
5.04768
20
-5.88222
11
5.05755
21
-5.8912
0
LINE
8
BLACK
6
CONTINUOUS
10
5.05755
20
-5.8912
11
5.06839
21
-5.89899
0
LINE
8
BLACK
6
CONTINUOUS
10
5.06839
20
-5.89899
11
5.08006
21
-5.90548
0
LINE
8
BLACK
6
CONTINUOUS
10
5.08006
20
-5.90548
11
5.09239
21
-5.91059
0
LINE
8
BLACK
6
CONTINUOUS
10
5.09239
20
-5.91059
11
5.10523
21
-5.91425
0
LINE
8
BLACK
6
CONTINUOUS
10
5.10523
20
-5.91425
11
5.1184
21
-5.9164
0
LINE
8
BLACK
6
CONTINUOUS
10
5.1184
20
-5.9164
11
5.13173
21
-5.91703
0
LINE
8
BLACK
6
CONTINUOUS
10
5.13173
20
-5.91703
11
5.14505
21
-5.91612
0
LINE
8
BLACK
6
CONTINUOUS
10
5.14505
20
-5.91612
11
5.15818
21
-5.91369
0
LINE
8
BLACK
6
CONTINUOUS
10
5.15818
20
-5.91369
11
5.17093
21
-5.90977
0
LINE
8
BLACK
6
CONTINUOUS
10
5.17093
20
-5.90977
11
5.18316
21
-5.9044
0
LINE
8
BLACK
6
CONTINUOUS
10
5.18316
20
-5.9044
11
5.19468
21
-5.89767
0
LINE
8
BLACK
6
CONTINUOUS
10
5.19468
20
-5.89767
11
5.20536
21
-5.88965
0
LINE
8
BLACK
6
CONTINUOUS
10
5.20536
20
-5.88965
11
5.21504
21
-5.88046
0
LINE
8
BLACK
6
CONTINUOUS
10
5.21504
20
-5.88046
11
5.2236
21
-5.87022
0
LINE
8
BLACK
6
CONTINUOUS
10
5.2236
20
-5.87022
11
5.23093
21
-5.85907
0
LINE
8
BLACK
6
CONTINUOUS
10
5.23093
20
-5.85907
11
5.23693
21
-5.84714
0
LINE
8
BLACK
6
CONTINUOUS
10
5.23693
20
-5.84714
11
5.24152
21
-5.83461
0
LINE
8
BLACK
6
CONTINUOUS
10
5.24152
20
-5.83461
11
5.24463
21
-5.82163
0
LINE
8
BLACK
6
CONTINUOUS
10
5.24463
20
-5.82163
11
5.24624
21
-5.80837
0
LINE
8
BLACK
6
CONTINUOUS
10
5.24624
20
-5.80837
11
5.24646
21
-5.80109
0
LINE
8
BLACK
6
CONTINUOUS
10
5.24646
20
-5.80109
11
5.2457
21
-5.78777
0
LINE
8
BLACK
6
CONTINUOUS
10
5.2457
20
-5.78777
11
5.2434
21
-5.77462
0
LINE
8
BLACK
6
CONTINUOUS
10
5.2434
20
-5.77462
11
5.23961
21
-5.76182
0
LINE
8
BLACK
6
CONTINUOUS
10
5.23961
20
-5.76182
11
5.23437
21
-5.74954
0
LINE
8
BLACK
6
CONTINUOUS
10
5.23437
20
-5.74954
11
5.22776
21
-5.73795
0
LINE
8
BLACK
6
CONTINUOUS
10
5.22776
20
-5.73795
11
5.21986
21
-5.72719
0
LINE
8
BLACK
6
CONTINUOUS
10
5.21986
20
-5.72719
11
5.21077
21
-5.71741
0
LINE
8
BLACK
6
CONTINUOUS
10
5.21077
20
-5.71741
11
5.20062
21
-5.70874
0
LINE
8
BLACK
6
CONTINUOUS
10
5.20062
20
-5.70874
11
5.18954
21
-5.7013
0
LINE
8
BLACK
6
CONTINUOUS
10
5.18954
20
-5.7013
11
5.17768
21
-5.69517
0
LINE
8
BLACK
6
CONTINUOUS
10
5.17768
20
-5.69517
11
5.16519
21
-5.69046
0
LINE
8
BLACK
6
CONTINUOUS
10
5.16519
20
-5.69046
11
5.15225
21
-5.6872
0
LINE
8
BLACK
6
CONTINUOUS
10
5.15225
20
-5.6872
11
5.13901
21
-5.68546
0
LINE
8
BLACK
6
CONTINUOUS
10
5.13901
20
-5.68546
11
5.12566
21
-5.68525
0
LINE
8
BLACK
6
CONTINUOUS
10
5.12566
20
-5.68525
11
5.11238
21
-5.68658
0
LINE
8
BLACK
6
CONTINUOUS
10
5.11238
20
-5.68658
11
5.09934
21
-5.68942
0
LINE
8
BLACK
6
CONTINUOUS
10
5.09934
20
-5.68942
11
5.08671
21
-5.69375
0
LINE
8
BLACK
6
CONTINUOUS
10
5.08671
20
-5.69375
11
5.07466
21
-5.69949
0
LINE
8
BLACK
6
CONTINUOUS
10
5.07466
20
-5.69949
11
5.06336
21
-5.70659
0
LINE
8
BLACK
6
CONTINUOUS
10
5.06336
20
-5.70659
11
5.05294
21
-5.71493
0
LINE
8
BLACK
6
CONTINUOUS
10
5.05294
20
-5.71493
11
5.04355
21
-5.72442
0
LINE
8
BLACK
6
CONTINUOUS
10
5.04355
20
-5.72442
11
5.03531
21
-5.73492
0
LINE
8
BLACK
6
CONTINUOUS
10
5.03531
20
-5.73492
11
5.02834
21
-5.7463
0
LINE
8
BLACK
6
CONTINUOUS
10
5.02834
20
-5.7463
11
5.02272
21
-5.75841
0
LINE
8
BLACK
6
CONTINUOUS
10
5.02272
20
-5.75841
11
5.01853
21
-5.77109
0
LINE
8
BLACK
6
CONTINUOUS
10
5.01853
20
-5.77109
11
5.01582
21
-5.78416
0
LINE
8
BLACK
6
CONTINUOUS
10
5.01582
20
-5.78416
11
5.01463
21
-5.79745
0
LINE
8
BLACK
6
CONTINUOUS
10
5.01463
20
-5.79745
11
5.01498
21
-5.8108
0
LINE
8
BLACK
6
CONTINUOUS
10
5.01498
20
-5.8108
11
5.01686
21
-5.82401
0
LINE
8
BLACK
6
CONTINUOUS
10
5.81343
20
-5.77277
11
5.81731
21
-5.75989
0
LINE
8
BLACK
6
CONTINUOUS
10
5.81731
20
-5.75989
11
5.82261
21
-5.74753
0
LINE
8
BLACK
6
CONTINUOUS
10
5.82261
20
-5.74753
11
5.82925
21
-5.73583
0
LINE
8
BLACK
6
CONTINUOUS
10
5.82925
20
-5.73583
11
5.83716
21
-5.72495
0
LINE
8
BLACK
6
CONTINUOUS
10
5.83716
20
-5.72495
11
5.84623
21
-5.71502
0
LINE
8
BLACK
6
CONTINUOUS
10
5.84623
20
-5.71502
11
5.85635
21
-5.70616
0
LINE
8
BLACK
6
CONTINUOUS
10
5.85635
20
-5.70616
11
5.86739
21
-5.69848
0
LINE
8
BLACK
6
CONTINUOUS
10
5.86739
20
-5.69848
11
5.87922
21
-5.69209
0
LINE
8
BLACK
6
CONTINUOUS
10
5.87922
20
-5.69209
11
5.8917
21
-5.68705
0
LINE
8
BLACK
6
CONTINUOUS
10
5.8917
20
-5.68705
11
5.90465
21
-5.68343
0
LINE
8
BLACK
6
CONTINUOUS
10
5.90465
20
-5.68343
11
5.91793
21
-5.68128
0
LINE
8
BLACK
6
CONTINUOUS
10
5.91793
20
-5.68128
11
5.93136
21
-5.68063
0
LINE
8
BLACK
6
CONTINUOUS
10
5.93136
20
-5.68063
11
5.94478
21
-5.68147
0
LINE
8
BLACK
6
CONTINUOUS
10
5.94478
20
-5.68147
11
5.95803
21
-5.68381
0
LINE
8
BLACK
6
CONTINUOUS
10
5.95803
20
-5.68381
11
5.97093
21
-5.6876
0
LINE
8
BLACK
6
CONTINUOUS
10
5.97093
20
-5.6876
11
5.98333
21
-5.69281
0
LINE
8
BLACK
6
CONTINUOUS
10
5.98333
20
-5.69281
11
5.99507
21
-5.69938
0
LINE
8
BLACK
6
CONTINUOUS
10
5.99507
20
-5.69938
11
6.00601
21
-5.70721
0
LINE
8
BLACK
6
CONTINUOUS
10
6.00601
20
-5.70721
11
6.016
21
-5.71621
0
LINE
8
BLACK
6
CONTINUOUS
10
6.016
20
-5.71621
11
6.02493
21
-5.72626
0
LINE
8
BLACK
6
CONTINUOUS
10
6.02493
20
-5.72626
11
6.03269
21
-5.73725
0
LINE
8
BLACK
6
CONTINUOUS
10
6.03269
20
-5.73725
11
6.03917
21
-5.74904
0
LINE
8
BLACK
6
CONTINUOUS
10
6.03917
20
-5.74904
11
6.04429
21
-5.76148
0
LINE
8
BLACK
6
CONTINUOUS
10
6.04429
20
-5.76148
11
6.048
21
-5.7744
0
LINE
8
BLACK
6
CONTINUOUS
10
6.048
20
-5.7744
11
6.05024
21
-5.78767
0
LINE
8
BLACK
6
CONTINUOUS
10
6.05024
20
-5.78767
11
6.05099
21
-5.80109
0
LINE
8
BLACK
6
CONTINUOUS
10
6.05099
20
-5.80109
11
6.05095
21
-5.80446
0
LINE
8
BLACK
6
CONTINUOUS
10
6.05095
20
-5.80446
11
6.04982
21
-5.81786
0
LINE
8
BLACK
6
CONTINUOUS
10
6.04982
20
-5.81786
11
6.04721
21
-5.83105
0
LINE
8
BLACK
6
CONTINUOUS
10
6.04721
20
-5.83105
11
6.04314
21
-5.84388
0
LINE
8
BLACK
6
CONTINUOUS
10
6.04314
20
-5.84388
11
6.03767
21
-5.85616
0
LINE
8
BLACK
6
CONTINUOUS
10
6.03767
20
-5.85616
11
6.03086
21
-5.86776
0
LINE
8
BLACK
6
CONTINUOUS
10
6.03086
20
-5.86776
11
6.02281
21
-5.87853
0
LINE
8
BLACK
6
CONTINUOUS
10
6.02281
20
-5.87853
11
6.0136
21
-5.88834
0
LINE
8
BLACK
6
CONTINUOUS
10
6.0136
20
-5.88834
11
6.00336
21
-5.89705
0
LINE
8
BLACK
6
CONTINUOUS
10
6.00336
20
-5.89705
11
5.99221
21
-5.90458
0
LINE
8
BLACK
6
CONTINUOUS
10
5.99221
20
-5.90458
11
5.98029
21
-5.91081
0
LINE
8
BLACK
6
CONTINUOUS
10
5.98029
20
-5.91081
11
5.96775
21
-5.91567
0
LINE
8
BLACK
6
CONTINUOUS
10
5.96775
20
-5.91567
11
5.95474
21
-5.91911
0
LINE
8
BLACK
6
CONTINUOUS
10
5.95474
20
-5.91911
11
5.94144
21
-5.92107
0
LINE
8
BLACK
6
CONTINUOUS
10
5.94144
20
-5.92107
11
5.928
21
-5.92154
0
LINE
8
BLACK
6
CONTINUOUS
10
5.928
20
-5.92154
11
5.91459
21
-5.92051
0
LINE
8
BLACK
6
CONTINUOUS
10
5.91459
20
-5.92051
11
5.90137
21
-5.91799
0
LINE
8
BLACK
6
CONTINUOUS
10
5.90137
20
-5.91799
11
5.88853
21
-5.91401
0
LINE
8
BLACK
6
CONTINUOUS
10
5.88853
20
-5.91401
11
5.8762
21
-5.90863
0
LINE
8
BLACK
6
CONTINUOUS
10
5.8762
20
-5.90863
11
5.86455
21
-5.9019
0
LINE
8
BLACK
6
CONTINUOUS
10
5.86455
20
-5.9019
11
5.85373
21
-5.89392
0
LINE
8
BLACK
6
CONTINUOUS
10
5.85373
20
-5.89392
11
5.84386
21
-5.88478
0
LINE
8
BLACK
6
CONTINUOUS
10
5.84386
20
-5.88478
11
5.83507
21
-5.8746
0
LINE
8
BLACK
6
CONTINUOUS
10
5.83507
20
-5.8746
11
5.82747
21
-5.8635
0
LINE
8
BLACK
6
CONTINUOUS
10
5.82747
20
-5.8635
11
5.82116
21
-5.85163
0
LINE
8
BLACK
6
CONTINUOUS
10
5.82116
20
-5.85163
11
5.81621
21
-5.83912
0
LINE
8
BLACK
6
CONTINUOUS
10
5.81621
20
-5.83912
11
5.81268
21
-5.82614
0
LINE
8
BLACK
6
CONTINUOUS
10
5.81268
20
-5.82614
11
5.81062
21
-5.81285
0
LINE
8
BLACK
6
CONTINUOUS
10
5.81062
20
-5.81285
11
5.81006
21
-5.79941
0
LINE
8
BLACK
6
CONTINUOUS
10
5.81006
20
-5.79941
11
5.8102
21
-5.79745
0
LINE
8
BLACK
6
CONTINUOUS
10
5.8102
20
-5.79745
11
5.811
21
-5.786
0
LINE
8
BLACK
6
CONTINUOUS
10
5.811
20
-5.786
11
5.81343
21
-5.77277
0
LINE
8
BLACK
6
CONTINUOUS
10
5.81686
20
-5.82401
11
5.82025
21
-5.83692
0
LINE
8
BLACK
6
CONTINUOUS
10
5.82025
20
-5.83692
11
5.8251
21
-5.84936
0
LINE
8
BLACK
6
CONTINUOUS
10
5.8251
20
-5.84936
11
5.83135
21
-5.86116
0
LINE
8
BLACK
6
CONTINUOUS
10
5.83135
20
-5.86116
11
5.83891
21
-5.87216
0
LINE
8
BLACK
6
CONTINUOUS
10
5.83891
20
-5.87216
11
5.84768
21
-5.88222
0
LINE
8
BLACK
6
CONTINUOUS
10
5.84768
20
-5.88222
11
5.85755
21
-5.8912
0
LINE
8
BLACK
6
CONTINUOUS
10
5.85755
20
-5.8912
11
5.86839
21
-5.89899
0
LINE
8
BLACK
6
CONTINUOUS
10
5.86839
20
-5.89899
11
5.88006
21
-5.90548
0
LINE
8
BLACK
6
CONTINUOUS
10
5.88006
20
-5.90548
11
5.89239
21
-5.91059
0
LINE
8
BLACK
6
CONTINUOUS
10
5.89239
20
-5.91059
11
5.90523
21
-5.91425
0
LINE
8
BLACK
6
CONTINUOUS
10
5.90523
20
-5.91425
11
5.9184
21
-5.9164
0
LINE
8
BLACK
6
CONTINUOUS
10
5.9184
20
-5.9164
11
5.93173
21
-5.91703
0
LINE
8
BLACK
6
CONTINUOUS
10
5.93173
20
-5.91703
11
5.94505
21
-5.91612
0
LINE
8
BLACK
6
CONTINUOUS
10
5.94505
20
-5.91612
11
5.95818
21
-5.91369
0
LINE
8
BLACK
6
CONTINUOUS
10
5.95818
20
-5.91369
11
5.97093
21
-5.90977
0
LINE
8
BLACK
6
CONTINUOUS
10
5.97093
20
-5.90977
11
5.98316
21
-5.9044
0
LINE
8
BLACK
6
CONTINUOUS
10
5.98316
20
-5.9044
11
5.99468
21
-5.89767
0
LINE
8
BLACK
6
CONTINUOUS
10
5.99468
20
-5.89767
11
6.00536
21
-5.88965
0
LINE
8
BLACK
6
CONTINUOUS
10
6.00536
20
-5.88965
11
6.01504
21
-5.88046
0
LINE
8
BLACK
6
CONTINUOUS
10
6.01504
20
-5.88046
11
6.0236
21
-5.87022
0
LINE
8
BLACK
6
CONTINUOUS
10
6.0236
20
-5.87022
11
6.03093
21
-5.85907
0
LINE
8
BLACK
6
CONTINUOUS
10
6.03093
20
-5.85907
11
6.03693
21
-5.84714
0
LINE
8
BLACK
6
CONTINUOUS
10
6.03693
20
-5.84714
11
6.04152
21
-5.83461
0
LINE
8
BLACK
6
CONTINUOUS
10
6.04152
20
-5.83461
11
6.04463
21
-5.82163
0
LINE
8
BLACK
6
CONTINUOUS
10
6.04463
20
-5.82163
11
6.04624
21
-5.80837
0
LINE
8
BLACK
6
CONTINUOUS
10
6.04624
20
-5.80837
11
6.04646
21
-5.80109
0
LINE
8
BLACK
6
CONTINUOUS
10
6.04646
20
-5.80109
11
6.0457
21
-5.78777
0
LINE
8
BLACK
6
CONTINUOUS
10
6.0457
20
-5.78777
11
6.0434
21
-5.77462
0
LINE
8
BLACK
6
CONTINUOUS
10
6.0434
20
-5.77462
11
6.03961
21
-5.76182
0
LINE
8
BLACK
6
CONTINUOUS
10
6.03961
20
-5.76182
11
6.03437
21
-5.74954
0
LINE
8
BLACK
6
CONTINUOUS
10
6.03437
20
-5.74954
11
6.02776
21
-5.73795
0
LINE
8
BLACK
6
CONTINUOUS
10
6.02776
20
-5.73795
11
6.01986
21
-5.72719
0
LINE
8
BLACK
6
CONTINUOUS
10
6.01986
20
-5.72719
11
6.01077
21
-5.71741
0
LINE
8
BLACK
6
CONTINUOUS
10
6.01077
20
-5.71741
11
6.00062
21
-5.70874
0
LINE
8
BLACK
6
CONTINUOUS
10
6.00062
20
-5.70874
11
5.98954
21
-5.7013
0
LINE
8
BLACK
6
CONTINUOUS
10
5.98954
20
-5.7013
11
5.97768
21
-5.69517
0
LINE
8
BLACK
6
CONTINUOUS
10
5.97768
20
-5.69517
11
5.96519
21
-5.69046
0
LINE
8
BLACK
6
CONTINUOUS
10
5.96519
20
-5.69046
11
5.95225
21
-5.6872
0
LINE
8
BLACK
6
CONTINUOUS
10
5.95225
20
-5.6872
11
5.93901
21
-5.68546
0
LINE
8
BLACK
6
CONTINUOUS
10
5.93901
20
-5.68546
11
5.92566
21
-5.68525
0
LINE
8
BLACK
6
CONTINUOUS
10
5.92566
20
-5.68525
11
5.91238
21
-5.68658
0
LINE
8
BLACK
6
CONTINUOUS
10
5.91238
20
-5.68658
11
5.89934
21
-5.68942
0
LINE
8
BLACK
6
CONTINUOUS
10
5.89934
20
-5.68942
11
5.88671
21
-5.69375
0
LINE
8
BLACK
6
CONTINUOUS
10
5.88671
20
-5.69375
11
5.87466
21
-5.69949
0
LINE
8
BLACK
6
CONTINUOUS
10
5.87466
20
-5.69949
11
5.86336
21
-5.70659
0
LINE
8
BLACK
6
CONTINUOUS
10
5.86336
20
-5.70659
11
5.85294
21
-5.71493
0
LINE
8
BLACK
6
CONTINUOUS
10
5.85294
20
-5.71493
11
5.84355
21
-5.72442
0
LINE
8
BLACK
6
CONTINUOUS
10
5.84355
20
-5.72442
11
5.83531
21
-5.73492
0
LINE
8
BLACK
6
CONTINUOUS
10
5.83531
20
-5.73492
11
5.82834
21
-5.7463
0
LINE
8
BLACK
6
CONTINUOUS
10
5.82834
20
-5.7463
11
5.82272
21
-5.75841
0
LINE
8
BLACK
6
CONTINUOUS
10
5.82272
20
-5.75841
11
5.81853
21
-5.77109
0
LINE
8
BLACK
6
CONTINUOUS
10
5.81853
20
-5.77109
11
5.81582
21
-5.78416
0
LINE
8
BLACK
6
CONTINUOUS
10
5.81582
20
-5.78416
11
5.81463
21
-5.79745
0
LINE
8
BLACK
6
CONTINUOUS
10
5.81463
20
-5.79745
11
5.81498
21
-5.8108
0
LINE
8
BLACK
6
CONTINUOUS
10
5.81498
20
-5.8108
11
5.81686
21
-5.82401
0
LINE
8
BLACK
6
CONTINUOUS
10
6.61343
20
-5.77277
11
6.61731
21
-5.75989
0
LINE
8
BLACK
6
CONTINUOUS
10
6.61731
20
-5.75989
11
6.62261
21
-5.74753
0
LINE
8
BLACK
6
CONTINUOUS
10
6.62261
20
-5.74753
11
6.62925
21
-5.73583
0
LINE
8
BLACK
6
CONTINUOUS
10
6.62925
20
-5.73583
11
6.63716
21
-5.72495
0
LINE
8
BLACK
6
CONTINUOUS
10
6.63716
20
-5.72495
11
6.64623
21
-5.71502
0
LINE
8
BLACK
6
CONTINUOUS
10
6.64623
20
-5.71502
11
6.65635
21
-5.70616
0
LINE
8
BLACK
6
CONTINUOUS
10
6.65635
20
-5.70616
11
6.66739
21
-5.69848
0
LINE
8
BLACK
6
CONTINUOUS
10
6.66739
20
-5.69848
11
6.67922
21
-5.69209
0
LINE
8
BLACK
6
CONTINUOUS
10
6.67922
20
-5.69209
11
6.6917
21
-5.68705
0
LINE
8
BLACK
6
CONTINUOUS
10
6.6917
20
-5.68705
11
6.70465
21
-5.68343
0
LINE
8
BLACK
6
CONTINUOUS
10
6.70465
20
-5.68343
11
6.71793
21
-5.68128
0
LINE
8
BLACK
6
CONTINUOUS
10
6.71793
20
-5.68128
11
6.73136
21
-5.68063
0
LINE
8
BLACK
6
CONTINUOUS
10
6.73136
20
-5.68063
11
6.74478
21
-5.68147
0
LINE
8
BLACK
6
CONTINUOUS
10
6.74478
20
-5.68147
11
6.75803
21
-5.68381
0
LINE
8
BLACK
6
CONTINUOUS
10
6.75803
20
-5.68381
11
6.77093
21
-5.6876
0
LINE
8
BLACK
6
CONTINUOUS
10
6.77093
20
-5.6876
11
6.78333
21
-5.69281
0
LINE
8
BLACK
6
CONTINUOUS
10
6.78333
20
-5.69281
11
6.79507
21
-5.69938
0
LINE
8
BLACK
6
CONTINUOUS
10
6.79507
20
-5.69938
11
6.80601
21
-5.70721
0
LINE
8
BLACK
6
CONTINUOUS
10
6.80601
20
-5.70721
11
6.816
21
-5.71621
0
LINE
8
BLACK
6
CONTINUOUS
10
6.816
20
-5.71621
11
6.82493
21
-5.72626
0
LINE
8
BLACK
6
CONTINUOUS
10
6.82493
20
-5.72626
11
6.83269
21
-5.73725
0
LINE
8
BLACK
6
CONTINUOUS
10
6.83269
20
-5.73725
11
6.83917
21
-5.74904
0
LINE
8
BLACK
6
CONTINUOUS
10
6.83917
20
-5.74904
11
6.84429
21
-5.76148
0
LINE
8
BLACK
6
CONTINUOUS
10
6.84429
20
-5.76148
11
6.848
21
-5.7744
0
LINE
8
BLACK
6
CONTINUOUS
10
6.848
20
-5.7744
11
6.85024
21
-5.78767
0
LINE
8
BLACK
6
CONTINUOUS
10
6.85024
20
-5.78767
11
6.85099
21
-5.80109
0
LINE
8
BLACK
6
CONTINUOUS
10
6.85099
20
-5.80109
11
6.85095
21
-5.80446
0
LINE
8
BLACK
6
CONTINUOUS
10
6.85095
20
-5.80446
11
6.84982
21
-5.81786
0
LINE
8
BLACK
6
CONTINUOUS
10
6.84982
20
-5.81786
11
6.84721
21
-5.83105
0
LINE
8
BLACK
6
CONTINUOUS
10
6.84721
20
-5.83105
11
6.84314
21
-5.84388
0
LINE
8
BLACK
6
CONTINUOUS
10
6.84314
20
-5.84388
11
6.83767
21
-5.85616
0
LINE
8
BLACK
6
CONTINUOUS
10
6.83767
20
-5.85616
11
6.83086
21
-5.86776
0
LINE
8
BLACK
6
CONTINUOUS
10
6.83086
20
-5.86776
11
6.82281
21
-5.87853
0
LINE
8
BLACK
6
CONTINUOUS
10
6.82281
20
-5.87853
11
6.8136
21
-5.88834
0
LINE
8
BLACK
6
CONTINUOUS
10
6.8136
20
-5.88834
11
6.80336
21
-5.89705
0
LINE
8
BLACK
6
CONTINUOUS
10
6.80336
20
-5.89705
11
6.79221
21
-5.90458
0
LINE
8
BLACK
6
CONTINUOUS
10
6.79221
20
-5.90458
11
6.78029
21
-5.91081
0
LINE
8
BLACK
6
CONTINUOUS
10
6.78029
20
-5.91081
11
6.76775
21
-5.91567
0
LINE
8
BLACK
6
CONTINUOUS
10
6.76775
20
-5.91567
11
6.75474
21
-5.91911
0
LINE
8
BLACK
6
CONTINUOUS
10
6.75474
20
-5.91911
11
6.74144
21
-5.92107
0
LINE
8
BLACK
6
CONTINUOUS
10
6.74144
20
-5.92107
11
6.728
21
-5.92154
0
LINE
8
BLACK
6
CONTINUOUS
10
6.728
20
-5.92154
11
6.71459
21
-5.92051
0
LINE
8
BLACK
6
CONTINUOUS
10
6.71459
20
-5.92051
11
6.70137
21
-5.91799
0
LINE
8
BLACK
6
CONTINUOUS
10
6.70137
20
-5.91799
11
6.68853
21
-5.91401
0
LINE
8
BLACK
6
CONTINUOUS
10
6.68853
20
-5.91401
11
6.6762
21
-5.90863
0
LINE
8
BLACK
6
CONTINUOUS
10
6.6762
20
-5.90863
11
6.66455
21
-5.9019
0
LINE
8
BLACK
6
CONTINUOUS
10
6.66455
20
-5.9019
11
6.65373
21
-5.89392
0
LINE
8
BLACK
6
CONTINUOUS
10
6.65373
20
-5.89392
11
6.64386
21
-5.88478
0
LINE
8
BLACK
6
CONTINUOUS
10
6.64386
20
-5.88478
11
6.63507
21
-5.8746
0
LINE
8
BLACK
6
CONTINUOUS
10
6.63507
20
-5.8746
11
6.62747
21
-5.8635
0
LINE
8
BLACK
6
CONTINUOUS
10
6.62747
20
-5.8635
11
6.62116
21
-5.85163
0
LINE
8
BLACK
6
CONTINUOUS
10
6.62116
20
-5.85163
11
6.61621
21
-5.83912
0
LINE
8
BLACK
6
CONTINUOUS
10
6.61621
20
-5.83912
11
6.61268
21
-5.82614
0
LINE
8
BLACK
6
CONTINUOUS
10
6.61268
20
-5.82614
11
6.61062
21
-5.81285
0
LINE
8
BLACK
6
CONTINUOUS
10
6.61062
20
-5.81285
11
6.61006
21
-5.79941
0
LINE
8
BLACK
6
CONTINUOUS
10
6.61006
20
-5.79941
11
6.6102
21
-5.79745
0
LINE
8
BLACK
6
CONTINUOUS
10
6.6102
20
-5.79745
11
6.611
21
-5.786
0
LINE
8
BLACK
6
CONTINUOUS
10
6.611
20
-5.786
11
6.61343
21
-5.77277
0
LINE
8
BLACK
6
CONTINUOUS
10
6.61686
20
-5.82401
11
6.62025
21
-5.83692
0
LINE
8
BLACK
6
CONTINUOUS
10
6.62025
20
-5.83692
11
6.6251
21
-5.84936
0
LINE
8
BLACK
6
CONTINUOUS
10
6.6251
20
-5.84936
11
6.63135
21
-5.86116
0
LINE
8
BLACK
6
CONTINUOUS
10
6.63135
20
-5.86116
11
6.63891
21
-5.87216
0
LINE
8
BLACK
6
CONTINUOUS
10
6.63891
20
-5.87216
11
6.64768
21
-5.88222
0
LINE
8
BLACK
6
CONTINUOUS
10
6.64768
20
-5.88222
11
6.65755
21
-5.8912
0
LINE
8
BLACK
6
CONTINUOUS
10
6.65755
20
-5.8912
11
6.66839
21
-5.89899
0
LINE
8
BLACK
6
CONTINUOUS
10
6.66839
20
-5.89899
11
6.68006
21
-5.90548
0
LINE
8
BLACK
6
CONTINUOUS
10
6.68006
20
-5.90548
11
6.69239
21
-5.91059
0
LINE
8
BLACK
6
CONTINUOUS
10
6.69239
20
-5.91059
11
6.70523
21
-5.91425
0
LINE
8
BLACK
6
CONTINUOUS
10
6.70523
20
-5.91425
11
6.7184
21
-5.9164
0
LINE
8
BLACK
6
CONTINUOUS
10
6.7184
20
-5.9164
11
6.73173
21
-5.91703
0
LINE
8
BLACK
6
CONTINUOUS
10
6.73173
20
-5.91703
11
6.74505
21
-5.91612
0
LINE
8
BLACK
6
CONTINUOUS
10
6.74505
20
-5.91612
11
6.75818
21
-5.91369
0
LINE
8
BLACK
6
CONTINUOUS
10
6.75818
20
-5.91369
11
6.77093
21
-5.90977
0
LINE
8
BLACK
6
CONTINUOUS
10
6.77093
20
-5.90977
11
6.78316
21
-5.9044
0
LINE
8
BLACK
6
CONTINUOUS
10
6.78316
20
-5.9044
11
6.79468
21
-5.89767
0
LINE
8
BLACK
6
CONTINUOUS
10
6.79468
20
-5.89767
11
6.80536
21
-5.88965
0
LINE
8
BLACK
6
CONTINUOUS
10
6.80536
20
-5.88965
11
6.81504
21
-5.88046
0
LINE
8
BLACK
6
CONTINUOUS
10
6.81504
20
-5.88046
11
6.8236
21
-5.87022
0
LINE
8
BLACK
6
CONTINUOUS
10
6.8236
20
-5.87022
11
6.83093
21
-5.85907
0
LINE
8
BLACK
6
CONTINUOUS
10
6.83093
20
-5.85907
11
6.83693
21
-5.84714
0
LINE
8
BLACK
6
CONTINUOUS
10
6.83693
20
-5.84714
11
6.84152
21
-5.83461
0
LINE
8
BLACK
6
CONTINUOUS
10
6.84152
20
-5.83461
11
6.84463
21
-5.82163
0
LINE
8
BLACK
6
CONTINUOUS
10
6.84463
20
-5.82163
11
6.84624
21
-5.80837
0
LINE
8
BLACK
6
CONTINUOUS
10
6.84624
20
-5.80837
11
6.84646
21
-5.80109
0
LINE
8
BLACK
6
CONTINUOUS
10
6.84646
20
-5.80109
11
6.8457
21
-5.78777
0
LINE
8
BLACK
6
CONTINUOUS
10
6.8457
20
-5.78777
11
6.8434
21
-5.77462
0
LINE
8
BLACK
6
CONTINUOUS
10
6.8434
20
-5.77462
11
6.83961
21
-5.76182
0
LINE
8
BLACK
6
CONTINUOUS
10
6.83961
20
-5.76182
11
6.83437
21
-5.74954
0
LINE
8
BLACK
6
CONTINUOUS
10
6.83437
20
-5.74954
11
6.82776
21
-5.73795
0
LINE
8
BLACK
6
CONTINUOUS
10
6.82776
20
-5.73795
11
6.81986
21
-5.72719
0
LINE
8
BLACK
6
CONTINUOUS
10
6.81986
20
-5.72719
11
6.81077
21
-5.71741
0
LINE
8
BLACK
6
CONTINUOUS
10
6.81077
20
-5.71741
11
6.80062
21
-5.70874
0
LINE
8
BLACK
6
CONTINUOUS
10
6.80062
20
-5.70874
11
6.78954
21
-5.7013
0
LINE
8
BLACK
6
CONTINUOUS
10
6.78954
20
-5.7013
11
6.77768
21
-5.69517
0
LINE
8
BLACK
6
CONTINUOUS
10
6.77768
20
-5.69517
11
6.76519
21
-5.69046
0
LINE
8
BLACK
6
CONTINUOUS
10
6.76519
20
-5.69046
11
6.75225
21
-5.6872
0
LINE
8
BLACK
6
CONTINUOUS
10
6.75225
20
-5.6872
11
6.73901
21
-5.68546
0
LINE
8
BLACK
6
CONTINUOUS
10
6.73901
20
-5.68546
11
6.72566
21
-5.68525
0
LINE
8
BLACK
6
CONTINUOUS
10
6.72566
20
-5.68525
11
6.71238
21
-5.68658
0
LINE
8
BLACK
6
CONTINUOUS
10
6.71238
20
-5.68658
11
6.69934
21
-5.68942
0
LINE
8
BLACK
6
CONTINUOUS
10
6.69934
20
-5.68942
11
6.68671
21
-5.69375
0
LINE
8
BLACK
6
CONTINUOUS
10
6.68671
20
-5.69375
11
6.67466
21
-5.69949
0
LINE
8
BLACK
6
CONTINUOUS
10
6.67466
20
-5.69949
11
6.66336
21
-5.70659
0
LINE
8
BLACK
6
CONTINUOUS
10
6.66336
20
-5.70659
11
6.65294
21
-5.71493
0
LINE
8
BLACK
6
CONTINUOUS
10
6.65294
20
-5.71493
11
6.64355
21
-5.72442
0
LINE
8
BLACK
6
CONTINUOUS
10
6.64355
20
-5.72442
11
6.63531
21
-5.73492
0
LINE
8
BLACK
6
CONTINUOUS
10
6.63531
20
-5.73492
11
6.62834
21
-5.7463
0
LINE
8
BLACK
6
CONTINUOUS
10
6.62834
20
-5.7463
11
6.62272
21
-5.75841
0
LINE
8
BLACK
6
CONTINUOUS
10
6.62272
20
-5.75841
11
6.61853
21
-5.77109
0
LINE
8
BLACK
6
CONTINUOUS
10
6.61853
20
-5.77109
11
6.61582
21
-5.78416
0
LINE
8
BLACK
6
CONTINUOUS
10
6.61582
20
-5.78416
11
6.61463
21
-5.79745
0
LINE
8
BLACK
6
CONTINUOUS
10
6.61463
20
-5.79745
11
6.61498
21
-5.8108
0
LINE
8
BLACK
6
CONTINUOUS
10
6.61498
20
-5.8108
11
6.61686
21
-5.82401
0
LINE
8
BLACK
6
CONTINUOUS
10
12.8695
20
-4.87263
11
12.8732
21
-4.8586
0
LINE
8
BLACK
6
CONTINUOUS
10
12.8732
20
-4.8586
11
12.8784
21
-4.84504
0
LINE
8
BLACK
6
CONTINUOUS
10
12.8784
20
-4.84504
11
12.885
21
-4.8321
0
LINE
8
BLACK
6
CONTINUOUS
10
12.885
20
-4.8321
11
12.8929
21
-4.81992
0
LINE
8
BLACK
6
CONTINUOUS
10
12.8929
20
-4.81992
11
12.9021
21
-4.80863
0
LINE
8
BLACK
6
CONTINUOUS
10
12.9021
20
-4.80863
11
12.9123
21
-4.79835
0
LINE
8
BLACK
6
CONTINUOUS
10
12.9123
20
-4.79835
11
12.9236
21
-4.78921
0
LINE
8
BLACK
6
CONTINUOUS
10
12.9236
20
-4.78921
11
12.9358
21
-4.7813
0
LINE
8
BLACK
6
CONTINUOUS
10
12.9358
20
-4.7813
11
12.9488
21
-4.77471
0
LINE
8
BLACK
6
CONTINUOUS
10
12.9488
20
-4.77471
11
12.9623
21
-4.7695
0
LINE
8
BLACK
6
CONTINUOUS
10
12.9623
20
-4.7695
11
12.9764
21
-4.76574
0
LINE
8
BLACK
6
CONTINUOUS
10
12.9764
20
-4.76574
11
12.9907
21
-4.76347
0
LINE
8
BLACK
6
CONTINUOUS
10
12.9907
20
-4.76347
11
13.0052
21
-4.76271
0
LINE
8
BLACK
6
CONTINUOUS
10
13.0052
20
-4.76271
11
13.0197
21
-4.76347
0
LINE
8
BLACK
6
CONTINUOUS
10
13.0197
20
-4.76347
11
13.0341
21
-4.76574
0
LINE
8
BLACK
6
CONTINUOUS
10
13.0341
20
-4.76574
11
13.0481
21
-4.7695
0
LINE
8
BLACK
6
CONTINUOUS
10
13.0481
20
-4.7695
11
13.0617
21
-4.77471
0
LINE
8
BLACK
6
CONTINUOUS
10
13.0617
20
-4.77471
11
13.0746
21
-4.7813
0
LINE
8
BLACK
6
CONTINUOUS
10
13.0746
20
-4.7813
11
13.0868
21
-4.78921
0
LINE
8
BLACK
6
CONTINUOUS
10
13.0868
20
-4.78921
11
13.0981
21
-4.79835
0
LINE
8
BLACK
6
CONTINUOUS
10
13.0981
20
-4.79835
11
13.1083
21
-4.80863
0
LINE
8
BLACK
6
CONTINUOUS
10
13.1083
20
-4.80863
11
13.1175
21
-4.81992
0
LINE
8
BLACK
6
CONTINUOUS
10
13.1175
20
-4.81992
11
13.1254
21
-4.8321
0
LINE
8
BLACK
6
CONTINUOUS
10
13.1254
20
-4.8321
11
13.132
21
-4.84504
0
LINE
8
BLACK
6
CONTINUOUS
10
13.132
20
-4.84504
11
13.1372
21
-4.8586
0
LINE
8
BLACK
6
CONTINUOUS
10
13.1372
20
-4.8586
11
13.141
21
-4.87263
0
LINE
8
BLACK
6
CONTINUOUS
10
13.141
20
-4.87263
11
13.1432
21
-4.88698
0
LINE
8
BLACK
6
CONTINUOUS
10
13.1432
20
-4.88698
11
13.144
21
-4.90149
0
LINE
8
BLACK
6
CONTINUOUS
10
13.144
20
-4.90149
11
13.1432
21
-4.91599
0
LINE
8
BLACK
6
CONTINUOUS
10
13.1432
20
-4.91599
11
13.141
21
-4.93034
0
LINE
8
BLACK
6
CONTINUOUS
10
13.141
20
-4.93034
11
13.1372
21
-4.94437
0
LINE
8
BLACK
6
CONTINUOUS
10
13.1372
20
-4.94437
11
13.132
21
-4.95793
0
LINE
8
BLACK
6
CONTINUOUS
10
13.132
20
-4.95793
11
13.1254
21
-4.97088
0
LINE
8
BLACK
6
CONTINUOUS
10
13.1254
20
-4.97088
11
13.1175
21
-4.98306
0
LINE
8
BLACK
6
CONTINUOUS
10
13.1175
20
-4.98306
11
13.1083
21
-4.99435
0
LINE
8
BLACK
6
CONTINUOUS
10
13.1083
20
-4.99435
11
13.0981
21
-5.00462
0
LINE
8
BLACK
6
CONTINUOUS
10
13.0981
20
-5.00462
11
13.0868
21
-5.01376
0
LINE
8
BLACK
6
CONTINUOUS
10
13.0868
20
-5.01376
11
13.0746
21
-5.02167
0
LINE
8
BLACK
6
CONTINUOUS
10
13.0746
20
-5.02167
11
13.0617
21
-5.02827
0
LINE
8
BLACK
6
CONTINUOUS
10
13.0617
20
-5.02827
11
13.0481
21
-5.03348
0
LINE
8
BLACK
6
CONTINUOUS
10
13.0481
20
-5.03348
11
13.0341
21
-5.03724
0
LINE
8
BLACK
6
CONTINUOUS
10
13.0341
20
-5.03724
11
13.0197
21
-5.03951
0
LINE
8
BLACK
6
CONTINUOUS
10
13.0197
20
-5.03951
11
13.0052
21
-5.04027
0
LINE
8
BLACK
6
CONTINUOUS
10
13.0052
20
-5.04027
11
12.9907
21
-5.03951
0
LINE
8
BLACK
6
CONTINUOUS
10
12.9907
20
-5.03951
11
12.9764
21
-5.03724
0
LINE
8
BLACK
6
CONTINUOUS
10
12.9764
20
-5.03724
11
12.9623
21
-5.03348
0
LINE
8
BLACK
6
CONTINUOUS
10
12.9623
20
-5.03348
11
12.9488
21
-5.02827
0
LINE
8
BLACK
6
CONTINUOUS
10
12.9488
20
-5.02827
11
12.9358
21
-5.02167
0
LINE
8
BLACK
6
CONTINUOUS
10
12.9358
20
-5.02167
11
12.9236
21
-5.01376
0
LINE
8
BLACK
6
CONTINUOUS
10
12.9236
20
-5.01376
11
12.9123
21
-5.00462
0
LINE
8
BLACK
6
CONTINUOUS
10
12.9123
20
-5.00462
11
12.9021
21
-4.99435
0
LINE
8
BLACK
6
CONTINUOUS
10
12.9021
20
-4.99435
11
12.8929
21
-4.98306
0
LINE
8
BLACK
6
CONTINUOUS
10
12.8929
20
-4.98306
11
12.885
21
-4.97088
0
LINE
8
BLACK
6
CONTINUOUS
10
12.885
20
-4.97088
11
12.8784
21
-4.95793
0
LINE
8
BLACK
6
CONTINUOUS
10
12.8784
20
-4.95793
11
12.8732
21
-4.94437
0
LINE
8
BLACK
6
CONTINUOUS
10
12.8732
20
-4.94437
11
12.8695
21
-4.93034
0
LINE
8
BLACK
6
CONTINUOUS
10
12.8695
20
-4.93034
11
12.8672
21
-4.91599
0
LINE
8
BLACK
6
CONTINUOUS
10
12.8672
20
-4.91599
11
12.8664
21
-4.90149
0
LINE
8
BLACK
6
CONTINUOUS
10
12.8664
20
-4.90149
11
12.8672
21
-4.88698
0
LINE
8
BLACK
6
CONTINUOUS
10
12.8672
20
-4.88698
11
12.8695
21
-4.87263
0
LINE
8
BLACK
6
CONTINUOUS
10
12.8712
20
-4.92997
11
12.8749
21
-4.94382
0
LINE
8
BLACK
6
CONTINUOUS
10
12.8749
20
-4.94382
11
12.8801
21
-4.95721
0
LINE
8
BLACK
6
CONTINUOUS
10
12.8801
20
-4.95721
11
12.8866
21
-4.96999
0
LINE
8
BLACK
6
CONTINUOUS
10
12.8866
20
-4.96999
11
12.8944
21
-4.98201
0
LINE
8
BLACK
6
CONTINUOUS
10
12.8944
20
-4.98201
11
12.9034
21
-4.99316
0
LINE
8
BLACK
6
CONTINUOUS
10
12.9034
20
-4.99316
11
12.9135
21
-5.0033
0
LINE
8
BLACK
6
CONTINUOUS
10
12.9135
20
-5.0033
11
12.9247
21
-5.01232
0
LINE
8
BLACK
6
CONTINUOUS
10
12.9247
20
-5.01232
11
12.9367
21
-5.02013
0
LINE
8
BLACK
6
CONTINUOUS
10
12.9367
20
-5.02013
11
12.9495
21
-5.02664
0
LINE
8
BLACK
6
CONTINUOUS
10
12.9495
20
-5.02664
11
12.9629
21
-5.03178
0
LINE
8
BLACK
6
CONTINUOUS
10
12.9629
20
-5.03178
11
12.9767
21
-5.03549
0
LINE
8
BLACK
6
CONTINUOUS
10
12.9767
20
-5.03549
11
12.9909
21
-5.03774
0
LINE
8
BLACK
6
CONTINUOUS
10
12.9909
20
-5.03774
11
13.0052
21
-5.03849
0
LINE
8
BLACK
6
CONTINUOUS
10
13.0052
20
-5.03849
11
13.0195
21
-5.03774
0
LINE
8
BLACK
6
CONTINUOUS
10
13.0195
20
-5.03774
11
13.0337
21
-5.03549
0
LINE
8
BLACK
6
CONTINUOUS
10
13.0337
20
-5.03549
11
13.0475
21
-5.03178
0
LINE
8
BLACK
6
CONTINUOUS
10
13.0475
20
-5.03178
11
13.0609
21
-5.02664
0
LINE
8
BLACK
6
CONTINUOUS
10
13.0609
20
-5.02664
11
13.0737
21
-5.02013
0
LINE
8
BLACK
6
CONTINUOUS
10
13.0737
20
-5.02013
11
13.0857
21
-5.01232
0
LINE
8
BLACK
6
CONTINUOUS
10
13.0857
20
-5.01232
11
13.0969
21
-5.0033
0
LINE
8
BLACK
6
CONTINUOUS
10
13.0969
20
-5.0033
11
13.107
21
-4.99316
0
LINE
8
BLACK
6
CONTINUOUS
10
13.107
20
-4.99316
11
13.116
21
-4.98201
0
LINE
8
BLACK
6
CONTINUOUS
10
13.116
20
-4.98201
11
13.1238
21
-4.96999
0
LINE
8
BLACK
6
CONTINUOUS
10
13.1238
20
-4.96999
11
13.1304
21
-4.95721
0
LINE
8
BLACK
6
CONTINUOUS
10
13.1304
20
-4.95721
11
13.1355
21
-4.94382
0
LINE
8
BLACK
6
CONTINUOUS
10
13.1355
20
-4.94382
11
13.1392
21
-4.92997
0
LINE
8
BLACK
6
CONTINUOUS
10
13.1392
20
-4.92997
11
13.1415
21
-4.91581
0
LINE
8
BLACK
6
CONTINUOUS
10
13.1415
20
-4.91581
11
13.1422
21
-4.90149
0
LINE
8
BLACK
6
CONTINUOUS
10
13.1422
20
-4.90149
11
13.1415
21
-4.88717
0
LINE
8
BLACK
6
CONTINUOUS
10
13.1415
20
-4.88717
11
13.1392
21
-4.873
0
LINE
8
BLACK
6
CONTINUOUS
10
13.1392
20
-4.873
11
13.1355
21
-4.85915
0
LINE
8
BLACK
6
CONTINUOUS
10
13.1355
20
-4.85915
11
13.1304
21
-4.84577
0
LINE
8
BLACK
6
CONTINUOUS
10
13.1304
20
-4.84577
11
13.1238
21
-4.83299
0
LINE
8
BLACK
6
CONTINUOUS
10
13.1238
20
-4.83299
11
13.116
21
-4.82096
0
LINE
8
BLACK
6
CONTINUOUS
10
13.116
20
-4.82096
11
13.107
21
-4.80982
0
LINE
8
BLACK
6
CONTINUOUS
10
13.107
20
-4.80982
11
13.0969
21
-4.79968
0
LINE
8
BLACK
6
CONTINUOUS
10
13.0969
20
-4.79968
11
13.0857
21
-4.79065
0
LINE
8
BLACK
6
CONTINUOUS
10
13.0857
20
-4.79065
11
13.0737
21
-4.78284
0
LINE
8
BLACK
6
CONTINUOUS
10
13.0737
20
-4.78284
11
13.0609
21
-4.77633
0
LINE
8
BLACK
6
CONTINUOUS
10
13.0609
20
-4.77633
11
13.0475
21
-4.77119
0
LINE
8
BLACK
6
CONTINUOUS
10
13.0475
20
-4.77119
11
13.0337
21
-4.76748
0
LINE
8
BLACK
6
CONTINUOUS
10
13.0337
20
-4.76748
11
13.0195
21
-4.76524
0
LINE
8
BLACK
6
CONTINUOUS
10
13.0195
20
-4.76524
11
13.0052
21
-4.76449
0
LINE
8
BLACK
6
CONTINUOUS
10
13.0052
20
-4.76449
11
12.9909
21
-4.76524
0
LINE
8
BLACK
6
CONTINUOUS
10
12.9909
20
-4.76524
11
12.9767
21
-4.76748
0
LINE
8
BLACK
6
CONTINUOUS
10
12.9767
20
-4.76748
11
12.9629
21
-4.77119
0
LINE
8
BLACK
6
CONTINUOUS
10
12.9629
20
-4.77119
11
12.9495
21
-4.77633
0
LINE
8
BLACK
6
CONTINUOUS
10
12.9495
20
-4.77633
11
12.9367
21
-4.78284
0
LINE
8
BLACK
6
CONTINUOUS
10
12.9367
20
-4.78284
11
12.9247
21
-4.79065
0
LINE
8
BLACK
6
CONTINUOUS
10
12.9247
20
-4.79065
11
12.9135
21
-4.79968
0
LINE
8
BLACK
6
CONTINUOUS
10
12.9135
20
-4.79968
11
12.9034
21
-4.80982
0
LINE
8
BLACK
6
CONTINUOUS
10
12.9034
20
-4.80982
11
12.8944
21
-4.82096
0
LINE
8
BLACK
6
CONTINUOUS
10
12.8944
20
-4.82096
11
12.8866
21
-4.83299
0
LINE
8
BLACK
6
CONTINUOUS
10
12.8866
20
-4.83299
11
12.8801
21
-4.84577
0
LINE
8
BLACK
6
CONTINUOUS
10
12.8801
20
-4.84577
11
12.8749
21
-4.85915
0
LINE
8
BLACK
6
CONTINUOUS
10
12.8749
20
-4.85915
11
12.8712
21
-4.873
0
LINE
8
BLACK
6
CONTINUOUS
10
12.8712
20
-4.873
11
12.869
21
-4.88717
0
LINE
8
BLACK
6
CONTINUOUS
10
12.869
20
-4.88717
11
12.8682
21
-4.90149
0
LINE
8
BLACK
6
CONTINUOUS
10
12.8682
20
-4.90149
11
12.869
21
-4.91581
0
LINE
8
BLACK
6
CONTINUOUS
10
12.869
20
-4.91581
11
12.8712
21
-4.92997
0
LINE
8
BLACK
6
CONTINUOUS
10
10.5844
20
-4.87263
11
10.5882
21
-4.8586
0
LINE
8
BLACK
6
CONTINUOUS
10
10.5882
20
-4.8586
11
10.5934
21
-4.84504
0
LINE
8
BLACK
6
CONTINUOUS
10
10.5934
20
-4.84504
11
10.6
21
-4.8321
0
LINE
8
BLACK
6
CONTINUOUS
10
10.6
20
-4.8321
11
10.6079
21
-4.81992
0
LINE
8
BLACK
6
CONTINUOUS
10
10.6079
20
-4.81992
11
10.617
21
-4.80863
0
LINE
8
BLACK
6
CONTINUOUS
10
10.617
20
-4.80863
11
10.6273
21
-4.79835
0
LINE
8
BLACK
6
CONTINUOUS
10
10.6273
20
-4.79835
11
10.6386
21
-4.78921
0
LINE
8
BLACK
6
CONTINUOUS
10
10.6386
20
-4.78921
11
10.6508
21
-4.7813
0
LINE
8
BLACK
6
CONTINUOUS
10
10.6508
20
-4.7813
11
10.6637
21
-4.77471
0
LINE
8
BLACK
6
CONTINUOUS
10
10.6637
20
-4.77471
11
10.6773
21
-4.7695
0
LINE
8
BLACK
6
CONTINUOUS
10
10.6773
20
-4.7695
11
10.6913
21
-4.76574
0
LINE
8
BLACK
6
CONTINUOUS
10
10.6913
20
-4.76574
11
10.7057
21
-4.76347
0
LINE
8
BLACK
6
CONTINUOUS
10
10.7057
20
-4.76347
11
10.7202
21
-4.76271
0
LINE
8
BLACK
6
CONTINUOUS
10
10.7202
20
-4.76271
11
10.7347
21
-4.76347
0
LINE
8
BLACK
6
CONTINUOUS
10
10.7347
20
-4.76347
11
10.749
21
-4.76574
0
LINE
8
BLACK
6
CONTINUOUS
10
10.749
20
-4.76574
11
10.7631
21
-4.7695
0
LINE
8
BLACK
6
CONTINUOUS
10
10.7631
20
-4.7695
11
10.7766
21
-4.77471
0
LINE
8
BLACK
6
CONTINUOUS
10
10.7766
20
-4.77471
11
10.7896
21
-4.7813
0
LINE
8
BLACK
6
CONTINUOUS
10
10.7896
20
-4.7813
11
10.8017
21
-4.78921
0
LINE
8
BLACK
6
CONTINUOUS
10
10.8017
20
-4.78921
11
10.813
21
-4.79835
0
LINE
8
BLACK
6
CONTINUOUS
10
10.813
20
-4.79835
11
10.8233
21
-4.80863
0
LINE
8
BLACK
6
CONTINUOUS
10
10.8233
20
-4.80863
11
10.8324
21
-4.81992
0
LINE
8
BLACK
6
CONTINUOUS
10
10.8324
20
-4.81992
11
10.8404
21
-4.8321
0
LINE
8
BLACK
6
CONTINUOUS
10
10.8404
20
-4.8321
11
10.8469
21
-4.84504
0
LINE
8
BLACK
6
CONTINUOUS
10
10.8469
20
-4.84504
11
10.8522
21
-4.8586
0
LINE
8
BLACK
6
CONTINUOUS
10
10.8522
20
-4.8586
11
10.8559
21
-4.87263
0
LINE
8
BLACK
6
CONTINUOUS
10
10.8559
20
-4.87263
11
10.8582
21
-4.88698
0
LINE
8
BLACK
6
CONTINUOUS
10
10.8582
20
-4.88698
11
10.8589
21
-4.90149
0
LINE
8
BLACK
6
CONTINUOUS
10
10.8589
20
-4.90149
11
10.8582
21
-4.91599
0
LINE
8
BLACK
6
CONTINUOUS
10
10.8582
20
-4.91599
11
10.8559
21
-4.93034
0
LINE
8
BLACK
6
CONTINUOUS
10
10.8559
20
-4.93034
11
10.8522
21
-4.94437
0
LINE
8
BLACK
6
CONTINUOUS
10
10.8522
20
-4.94437
11
10.8469
21
-4.95793
0
LINE
8
BLACK
6
CONTINUOUS
10
10.8469
20
-4.95793
11
10.8404
21
-4.97088
0
LINE
8
BLACK
6
CONTINUOUS
10
10.8404
20
-4.97088
11
10.8324
21
-4.98306
0
LINE
8
BLACK
6
CONTINUOUS
10
10.8324
20
-4.98306
11
10.8233
21
-4.99435
0
LINE
8
BLACK
6
CONTINUOUS
10
10.8233
20
-4.99435
11
10.813
21
-5.00462
0
LINE
8
BLACK
6
CONTINUOUS
10
10.813
20
-5.00462
11
10.8017
21
-5.01376
0
LINE
8
BLACK
6
CONTINUOUS
10
10.8017
20
-5.01376
11
10.7896
21
-5.02167
0
LINE
8
BLACK
6
CONTINUOUS
10
10.7896
20
-5.02167
11
10.7766
21
-5.02827
0
LINE
8
BLACK
6
CONTINUOUS
10
10.7766
20
-5.02827
11
10.7631
21
-5.03348
0
LINE
8
BLACK
6
CONTINUOUS
10
10.7631
20
-5.03348
11
10.749
21
-5.03724
0
LINE
8
BLACK
6
CONTINUOUS
10
10.749
20
-5.03724
11
10.7347
21
-5.03951
0
LINE
8
BLACK
6
CONTINUOUS
10
10.7347
20
-5.03951
11
10.7202
21
-5.04027
0
LINE
8
BLACK
6
CONTINUOUS
10
10.7202
20
-5.04027
11
10.7057
21
-5.03951
0
LINE
8
BLACK
6
CONTINUOUS
10
10.7057
20
-5.03951
11
10.6913
21
-5.03724
0
LINE
8
BLACK
6
CONTINUOUS
10
10.6913
20
-5.03724
11
10.6773
21
-5.03348
0
LINE
8
BLACK
6
CONTINUOUS
10
10.6773
20
-5.03348
11
10.6637
21
-5.02827
0
LINE
8
BLACK
6
CONTINUOUS
10
10.6637
20
-5.02827
11
10.6508
21
-5.02167
0
LINE
8
BLACK
6
CONTINUOUS
10
10.6508
20
-5.02167
11
10.6386
21
-5.01376
0
LINE
8
BLACK
6
CONTINUOUS
10
10.6386
20
-5.01376
11
10.6273
21
-5.00462
0
LINE
8
BLACK
6
CONTINUOUS
10
10.6273
20
-5.00462
11
10.617
21
-4.99435
0
LINE
8
BLACK
6
CONTINUOUS
10
10.617
20
-4.99435
11
10.6079
21
-4.98306
0
LINE
8
BLACK
6
CONTINUOUS
10
10.6079
20
-4.98306
11
10.6
21
-4.97088
0
LINE
8
BLACK
6
CONTINUOUS
10
10.6
20
-4.97088
11
10.5934
21
-4.95793
0
LINE
8
BLACK
6
CONTINUOUS
10
10.5934
20
-4.95793
11
10.5882
21
-4.94437
0
LINE
8
BLACK
6
CONTINUOUS
10
10.5882
20
-4.94437
11
10.5844
21
-4.93034
0
LINE
8
BLACK
6
CONTINUOUS
10
10.5844
20
-4.93034
11
10.5821
21
-4.91599
0
LINE
8
BLACK
6
CONTINUOUS
10
10.5821
20
-4.91599
11
10.5814
21
-4.90149
0
LINE
8
BLACK
6
CONTINUOUS
10
10.5814
20
-4.90149
11
10.5821
21
-4.88698
0
LINE
8
BLACK
6
CONTINUOUS
10
10.5821
20
-4.88698
11
10.5844
21
-4.87263
0
LINE
8
BLACK
6
CONTINUOUS
10
10.5862
20
-4.92997
11
10.5899
21
-4.94382
0
LINE
8
BLACK
6
CONTINUOUS
10
10.5899
20
-4.94382
11
10.595
21
-4.95721
0
LINE
8
BLACK
6
CONTINUOUS
10
10.595
20
-4.95721
11
10.6015
21
-4.96999
0
LINE
8
BLACK
6
CONTINUOUS
10
10.6015
20
-4.96999
11
10.6093
21
-4.98201
0
LINE
8
BLACK
6
CONTINUOUS
10
10.6093
20
-4.98201
11
10.6184
21
-4.99316
0
LINE
8
BLACK
6
CONTINUOUS
10
10.6184
20
-4.99316
11
10.6285
21
-5.0033
0
LINE
8
BLACK
6
CONTINUOUS
10
10.6285
20
-5.0033
11
10.6396
21
-5.01232
0
LINE
8
BLACK
6
CONTINUOUS
10
10.6396
20
-5.01232
11
10.6517
21
-5.02013
0
LINE
8
BLACK
6
CONTINUOUS
10
10.6517
20
-5.02013
11
10.6644
21
-5.02664
0
LINE
8
BLACK
6
CONTINUOUS
10
10.6644
20
-5.02664
11
10.6778
21
-5.03178
0
LINE
8
BLACK
6
CONTINUOUS
10
10.6778
20
-5.03178
11
10.6917
21
-5.03549
0
LINE
8
BLACK
6
CONTINUOUS
10
10.6917
20
-5.03549
11
10.7058
21
-5.03774
0
LINE
8
BLACK
6
CONTINUOUS
10
10.7058
20
-5.03774
11
10.7202
21
-5.03849
0
LINE
8
BLACK
6
CONTINUOUS
10
10.7202
20
-5.03849
11
10.7345
21
-5.03774
0
LINE
8
BLACK
6
CONTINUOUS
10
10.7345
20
-5.03774
11
10.7486
21
-5.03549
0
LINE
8
BLACK
6
CONTINUOUS
10
10.7486
20
-5.03549
11
10.7625
21
-5.03178
0
LINE
8
BLACK
6
CONTINUOUS
10
10.7625
20
-5.03178
11
10.7759
21
-5.02664
0
LINE
8
BLACK
6
CONTINUOUS
10
10.7759
20
-5.02664
11
10.7887
21
-5.02013
0
LINE
8
BLACK
6
CONTINUOUS
10
10.7887
20
-5.02013
11
10.8007
21
-5.01232
0
LINE
8
BLACK
6
CONTINUOUS
10
10.8007
20
-5.01232
11
10.8118
21
-5.0033
0
LINE
8
BLACK
6
CONTINUOUS
10
10.8118
20
-5.0033
11
10.822
21
-4.99316
0
LINE
8
BLACK
6
CONTINUOUS
10
10.822
20
-4.99316
11
10.831
21
-4.98201
0
LINE
8
BLACK
6
CONTINUOUS
10
10.831
20
-4.98201
11
10.8388
21
-4.96999
0
LINE
8
BLACK
6
CONTINUOUS
10
10.8388
20
-4.96999
11
10.8453
21
-4.95721
0
LINE
8
BLACK
6
CONTINUOUS
10
10.8453
20
-4.95721
11
10.8505
21
-4.94382
0
LINE
8
BLACK
6
CONTINUOUS
10
10.8505
20
-4.94382
11
10.8542
21
-4.92997
0
LINE
8
BLACK
6
CONTINUOUS
10
10.8542
20
-4.92997
11
10.8564
21
-4.91581
0
LINE
8
BLACK
6
CONTINUOUS
10
10.8564
20
-4.91581
11
10.8572
21
-4.90149
0
LINE
8
BLACK
6
CONTINUOUS
10
10.8572
20
-4.90149
11
10.8564
21
-4.88717
0
LINE
8
BLACK
6
CONTINUOUS
10
10.8564
20
-4.88717
11
10.8542
21
-4.873
0
LINE
8
BLACK
6
CONTINUOUS
10
10.8542
20
-4.873
11
10.8505
21
-4.85915
0
LINE
8
BLACK
6
CONTINUOUS
10
10.8505
20
-4.85915
11
10.8453
21
-4.84577
0
LINE
8
BLACK
6
CONTINUOUS
10
10.8453
20
-4.84577
11
10.8388
21
-4.83299
0
LINE
8
BLACK
6
CONTINUOUS
10
10.8388
20
-4.83299
11
10.831
21
-4.82096
0
LINE
8
BLACK
6
CONTINUOUS
10
10.831
20
-4.82096
11
10.822
21
-4.80982
0
LINE
8
BLACK
6
CONTINUOUS
10
10.822
20
-4.80982
11
10.8118
21
-4.79968
0
LINE
8
BLACK
6
CONTINUOUS
10
10.8118
20
-4.79968
11
10.8007
21
-4.79065
0
LINE
8
BLACK
6
CONTINUOUS
10
10.8007
20
-4.79065
11
10.7887
21
-4.78284
0
LINE
8
BLACK
6
CONTINUOUS
10
10.7887
20
-4.78284
11
10.7759
21
-4.77633
0
LINE
8
BLACK
6
CONTINUOUS
10
10.7759
20
-4.77633
11
10.7625
21
-4.77119
0
LINE
8
BLACK
6
CONTINUOUS
10
10.7625
20
-4.77119
11
10.7486
21
-4.76748
0
LINE
8
BLACK
6
CONTINUOUS
10
10.7486
20
-4.76748
11
10.7345
21
-4.76524
0
LINE
8
BLACK
6
CONTINUOUS
10
10.7345
20
-4.76524
11
10.7202
21
-4.76449
0
LINE
8
BLACK
6
CONTINUOUS
10
10.7202
20
-4.76449
11
10.7058
21
-4.76524
0
LINE
8
BLACK
6
CONTINUOUS
10
10.7058
20
-4.76524
11
10.6917
21
-4.76748
0
LINE
8
BLACK
6
CONTINUOUS
10
10.6917
20
-4.76748
11
10.6778
21
-4.77119
0
LINE
8
BLACK
6
CONTINUOUS
10
10.6778
20
-4.77119
11
10.6644
21
-4.77633
0
LINE
8
BLACK
6
CONTINUOUS
10
10.6644
20
-4.77633
11
10.6517
21
-4.78284
0
LINE
8
BLACK
6
CONTINUOUS
10
10.6517
20
-4.78284
11
10.6396
21
-4.79065
0
LINE
8
BLACK
6
CONTINUOUS
10
10.6396
20
-4.79065
11
10.6285
21
-4.79968
0
LINE
8
BLACK
6
CONTINUOUS
10
10.6285
20
-4.79968
11
10.6184
21
-4.80982
0
LINE
8
BLACK
6
CONTINUOUS
10
10.6184
20
-4.80982
11
10.6093
21
-4.82096
0
LINE
8
BLACK
6
CONTINUOUS
10
10.6093
20
-4.82096
11
10.6015
21
-4.83299
0
LINE
8
BLACK
6
CONTINUOUS
10
10.6015
20
-4.83299
11
10.595
21
-4.84577
0
LINE
8
BLACK
6
CONTINUOUS
10
10.595
20
-4.84577
11
10.5899
21
-4.85915
0
LINE
8
BLACK
6
CONTINUOUS
10
10.5899
20
-4.85915
11
10.5862
21
-4.873
0
LINE
8
BLACK
6
CONTINUOUS
10
10.5862
20
-4.873
11
10.5839
21
-4.88717
0
LINE
8
BLACK
6
CONTINUOUS
10
10.5839
20
-4.88717
11
10.5832
21
-4.90149
0
LINE
8
BLACK
6
CONTINUOUS
10
10.5832
20
-4.90149
11
10.5839
21
-4.91581
0
LINE
8
BLACK
6
CONTINUOUS
10
10.5839
20
-4.91581
11
10.5862
21
-4.92997
0
LINE
8
BLACK
6
CONTINUOUS
10
5.81343
20
-4.87277
11
5.81731
21
-4.85989
0
LINE
8
BLACK
6
CONTINUOUS
10
5.81731
20
-4.85989
11
5.82261
21
-4.84753
0
LINE
8
BLACK
6
CONTINUOUS
10
5.82261
20
-4.84753
11
5.82925
21
-4.83583
0
LINE
8
BLACK
6
CONTINUOUS
10
5.82925
20
-4.83583
11
5.83716
21
-4.82495
0
LINE
8
BLACK
6
CONTINUOUS
10
5.83716
20
-4.82495
11
5.84623
21
-4.81502
0
LINE
8
BLACK
6
CONTINUOUS
10
5.84623
20
-4.81502
11
5.85635
21
-4.80616
0
LINE
8
BLACK
6
CONTINUOUS
10
5.85635
20
-4.80616
11
5.86739
21
-4.79848
0
LINE
8
BLACK
6
CONTINUOUS
10
5.86739
20
-4.79848
11
5.87922
21
-4.79209
0
LINE
8
BLACK
6
CONTINUOUS
10
5.87922
20
-4.79209
11
5.8917
21
-4.78705
0
LINE
8
BLACK
6
CONTINUOUS
10
5.8917
20
-4.78705
11
5.90465
21
-4.78343
0
LINE
8
BLACK
6
CONTINUOUS
10
5.90465
20
-4.78343
11
5.91793
21
-4.78128
0
LINE
8
BLACK
6
CONTINUOUS
10
5.91793
20
-4.78128
11
5.93136
21
-4.78062
0
LINE
8
BLACK
6
CONTINUOUS
10
5.93136
20
-4.78062
11
5.94478
21
-4.78147
0
LINE
8
BLACK
6
CONTINUOUS
10
5.94478
20
-4.78147
11
5.95803
21
-4.78381
0
LINE
8
BLACK
6
CONTINUOUS
10
5.95803
20
-4.78381
11
5.97093
21
-4.7876
0
LINE
8
BLACK
6
CONTINUOUS
10
5.97093
20
-4.7876
11
5.98333
21
-4.79281
0
LINE
8
BLACK
6
CONTINUOUS
10
5.98333
20
-4.79281
11
5.99507
21
-4.79938
0
LINE
8
BLACK
6
CONTINUOUS
10
5.99507
20
-4.79938
11
6.00601
21
-4.80721
0
LINE
8
BLACK
6
CONTINUOUS
10
6.00601
20
-4.80721
11
6.016
21
-4.81621
0
LINE
8
BLACK
6
CONTINUOUS
10
6.016
20
-4.81621
11
6.02493
21
-4.82626
0
LINE
8
BLACK
6
CONTINUOUS
10
6.02493
20
-4.82626
11
6.03269
21
-4.83725
0
LINE
8
BLACK
6
CONTINUOUS
10
6.03269
20
-4.83725
11
6.03917
21
-4.84904
0
LINE
8
BLACK
6
CONTINUOUS
10
6.03917
20
-4.84904
11
6.04429
21
-4.86148
0
LINE
8
BLACK
6
CONTINUOUS
10
6.04429
20
-4.86148
11
6.048
21
-4.8744
0
LINE
8
BLACK
6
CONTINUOUS
10
6.048
20
-4.8744
11
6.05024
21
-4.88767
0
LINE
8
BLACK
6
CONTINUOUS
10
6.05024
20
-4.88767
11
6.05099
21
-4.90109
0
LINE
8
BLACK
6
CONTINUOUS
10
6.05099
20
-4.90109
11
6.05095
21
-4.90446
0
LINE
8
BLACK
6
CONTINUOUS
10
6.05095
20
-4.90446
11
6.04982
21
-4.91786
0
LINE
8
BLACK
6
CONTINUOUS
10
6.04982
20
-4.91786
11
6.04721
21
-4.93105
0
LINE
8
BLACK
6
CONTINUOUS
10
6.04721
20
-4.93105
11
6.04314
21
-4.94388
0
LINE
8
BLACK
6
CONTINUOUS
10
6.04314
20
-4.94388
11
6.03767
21
-4.95616
0
LINE
8
BLACK
6
CONTINUOUS
10
6.03767
20
-4.95616
11
6.03086
21
-4.96776
0
LINE
8
BLACK
6
CONTINUOUS
10
6.03086
20
-4.96776
11
6.02281
21
-4.97853
0
LINE
8
BLACK
6
CONTINUOUS
10
6.02281
20
-4.97853
11
6.0136
21
-4.98834
0
LINE
8
BLACK
6
CONTINUOUS
10
6.0136
20
-4.98834
11
6.00336
21
-4.99705
0
LINE
8
BLACK
6
CONTINUOUS
10
6.00336
20
-4.99705
11
5.99221
21
-5.00458
0
LINE
8
BLACK
6
CONTINUOUS
10
5.99221
20
-5.00458
11
5.98029
21
-5.01081
0
LINE
8
BLACK
6
CONTINUOUS
10
5.98029
20
-5.01081
11
5.96775
21
-5.01567
0
LINE
8
BLACK
6
CONTINUOUS
10
5.96775
20
-5.01567
11
5.95474
21
-5.01911
0
LINE
8
BLACK
6
CONTINUOUS
10
5.95474
20
-5.01911
11
5.94144
21
-5.02107
0
LINE
8
BLACK
6
CONTINUOUS
10
5.94144
20
-5.02107
11
5.928
21
-5.02154
0
LINE
8
BLACK
6
CONTINUOUS
10
5.928
20
-5.02154
11
5.91459
21
-5.02051
0
LINE
8
BLACK
6
CONTINUOUS
10
5.91459
20
-5.02051
11
5.90137
21
-5.01799
0
LINE
8
BLACK
6
CONTINUOUS
10
5.90137
20
-5.01799
11
5.88853
21
-5.01401
0
LINE
8
BLACK
6
CONTINUOUS
10
5.88853
20
-5.01401
11
5.8762
21
-5.00863
0
LINE
8
BLACK
6
CONTINUOUS
10
5.8762
20
-5.00863
11
5.86455
21
-5.0019
0
LINE
8
BLACK
6
CONTINUOUS
10
5.86455
20
-5.0019
11
5.85373
21
-4.99392
0
LINE
8
BLACK
6
CONTINUOUS
10
5.85373
20
-4.99392
11
5.84386
21
-4.98478
0
LINE
8
BLACK
6
CONTINUOUS
10
5.84386
20
-4.98478
11
5.83507
21
-4.9746
0
LINE
8
BLACK
6
CONTINUOUS
10
5.83507
20
-4.9746
11
5.82747
21
-4.9635
0
LINE
8
BLACK
6
CONTINUOUS
10
5.82747
20
-4.9635
11
5.82116
21
-4.95163
0
LINE
8
BLACK
6
CONTINUOUS
10
5.82116
20
-4.95163
11
5.81621
21
-4.93912
0
LINE
8
BLACK
6
CONTINUOUS
10
5.81621
20
-4.93912
11
5.81268
21
-4.92614
0
LINE
8
BLACK
6
CONTINUOUS
10
5.81268
20
-4.92614
11
5.81062
21
-4.91285
0
LINE
8
BLACK
6
CONTINUOUS
10
5.81062
20
-4.91285
11
5.81006
21
-4.89941
0
LINE
8
BLACK
6
CONTINUOUS
10
5.81006
20
-4.89941
11
5.8102
21
-4.89745
0
LINE
8
BLACK
6
CONTINUOUS
10
5.8102
20
-4.89745
11
5.811
21
-4.886
0
LINE
8
BLACK
6
CONTINUOUS
10
5.811
20
-4.886
11
5.81343
21
-4.87277
0
LINE
8
BLACK
6
CONTINUOUS
10
5.81686
20
-4.92401
11
5.82025
21
-4.93692
0
LINE
8
BLACK
6
CONTINUOUS
10
5.82025
20
-4.93692
11
5.8251
21
-4.94936
0
LINE
8
BLACK
6
CONTINUOUS
10
5.8251
20
-4.94936
11
5.83135
21
-4.96116
0
LINE
8
BLACK
6
CONTINUOUS
10
5.83135
20
-4.96116
11
5.83891
21
-4.97216
0
LINE
8
BLACK
6
CONTINUOUS
10
5.83891
20
-4.97216
11
5.84768
21
-4.98222
0
LINE
8
BLACK
6
CONTINUOUS
10
5.84768
20
-4.98222
11
5.85755
21
-4.9912
0
LINE
8
BLACK
6
CONTINUOUS
10
5.85755
20
-4.9912
11
5.86839
21
-4.99899
0
LINE
8
BLACK
6
CONTINUOUS
10
5.86839
20
-4.99899
11
5.88006
21
-5.00548
0
LINE
8
BLACK
6
CONTINUOUS
10
5.88006
20
-5.00548
11
5.89239
21
-5.01059
0
LINE
8
BLACK
6
CONTINUOUS
10
5.89239
20
-5.01059
11
5.90523
21
-5.01425
0
LINE
8
BLACK
6
CONTINUOUS
10
5.90523
20
-5.01425
11
5.9184
21
-5.0164
0
LINE
8
BLACK
6
CONTINUOUS
10
5.9184
20
-5.0164
11
5.93173
21
-5.01703
0
LINE
8
BLACK
6
CONTINUOUS
10
5.93173
20
-5.01703
11
5.94505
21
-5.01612
0
LINE
8
BLACK
6
CONTINUOUS
10
5.94505
20
-5.01612
11
5.95818
21
-5.01369
0
LINE
8
BLACK
6
CONTINUOUS
10
5.95818
20
-5.01369
11
5.97093
21
-5.00977
0
LINE
8
BLACK
6
CONTINUOUS
10
5.97093
20
-5.00977
11
5.98316
21
-5.0044
0
LINE
8
BLACK
6
CONTINUOUS
10
5.98316
20
-5.0044
11
5.99468
21
-4.99767
0
LINE
8
BLACK
6
CONTINUOUS
10
5.99468
20
-4.99767
11
6.00536
21
-4.98965
0
LINE
8
BLACK
6
CONTINUOUS
10
6.00536
20
-4.98965
11
6.01504
21
-4.98046
0
LINE
8
BLACK
6
CONTINUOUS
10
6.01504
20
-4.98046
11
6.0236
21
-4.97022
0
LINE
8
BLACK
6
CONTINUOUS
10
6.0236
20
-4.97022
11
6.03093
21
-4.95907
0
LINE
8
BLACK
6
CONTINUOUS
10
6.03093
20
-4.95907
11
6.03693
21
-4.94714
0
LINE
8
BLACK
6
CONTINUOUS
10
6.03693
20
-4.94714
11
6.04152
21
-4.93461
0
LINE
8
BLACK
6
CONTINUOUS
10
6.04152
20
-4.93461
11
6.04463
21
-4.92163
0
LINE
8
BLACK
6
CONTINUOUS
10
6.04463
20
-4.92163
11
6.04624
21
-4.90837
0
LINE
8
BLACK
6
CONTINUOUS
10
6.04624
20
-4.90837
11
6.04646
21
-4.90109
0
LINE
8
BLACK
6
CONTINUOUS
10
6.04646
20
-4.90109
11
6.0457
21
-4.88777
0
LINE
8
BLACK
6
CONTINUOUS
10
6.0457
20
-4.88777
11
6.0434
21
-4.87462
0
LINE
8
BLACK
6
CONTINUOUS
10
6.0434
20
-4.87462
11
6.03961
21
-4.86182
0
LINE
8
BLACK
6
CONTINUOUS
10
6.03961
20
-4.86182
11
6.03437
21
-4.84954
0
LINE
8
BLACK
6
CONTINUOUS
10
6.03437
20
-4.84954
11
6.02776
21
-4.83795
0
LINE
8
BLACK
6
CONTINUOUS
10
6.02776
20
-4.83795
11
6.01986
21
-4.82719
0
LINE
8
BLACK
6
CONTINUOUS
10
6.01986
20
-4.82719
11
6.01077
21
-4.81741
0
LINE
8
BLACK
6
CONTINUOUS
10
6.01077
20
-4.81741
11
6.00062
21
-4.80874
0
LINE
8
BLACK
6
CONTINUOUS
10
6.00062
20
-4.80874
11
5.98954
21
-4.8013
0
LINE
8
BLACK
6
CONTINUOUS
10
5.98954
20
-4.8013
11
5.97768
21
-4.79517
0
LINE
8
BLACK
6
CONTINUOUS
10
5.97768
20
-4.79517
11
5.96519
21
-4.79046
0
LINE
8
BLACK
6
CONTINUOUS
10
5.96519
20
-4.79046
11
5.95225
21
-4.7872
0
LINE
8
BLACK
6
CONTINUOUS
10
5.95225
20
-4.7872
11
5.93901
21
-4.78546
0
LINE
8
BLACK
6
CONTINUOUS
10
5.93901
20
-4.78546
11
5.92566
21
-4.78525
0
LINE
8
BLACK
6
CONTINUOUS
10
5.92566
20
-4.78525
11
5.91238
21
-4.78658
0
LINE
8
BLACK
6
CONTINUOUS
10
5.91238
20
-4.78658
11
5.89934
21
-4.78942
0
LINE
8
BLACK
6
CONTINUOUS
10
5.89934
20
-4.78942
11
5.88671
21
-4.79375
0
LINE
8
BLACK
6
CONTINUOUS
10
5.88671
20
-4.79375
11
5.87466
21
-4.79949
0
LINE
8
BLACK
6
CONTINUOUS
10
5.87466
20
-4.79949
11
5.86336
21
-4.80659
0
LINE
8
BLACK
6
CONTINUOUS
10
5.86336
20
-4.80659
11
5.85294
21
-4.81493
0
LINE
8
BLACK
6
CONTINUOUS
10
5.85294
20
-4.81493
11
5.84355
21
-4.82442
0
LINE
8
BLACK
6
CONTINUOUS
10
5.84355
20
-4.82442
11
5.83531
21
-4.83492
0
LINE
8
BLACK
6
CONTINUOUS
10
5.83531
20
-4.83492
11
5.82834
21
-4.84631
0
LINE
8
BLACK
6
CONTINUOUS
10
5.82834
20
-4.84631
11
5.82272
21
-4.85841
0
LINE
8
BLACK
6
CONTINUOUS
10
5.82272
20
-4.85841
11
5.81853
21
-4.87109
0
LINE
8
BLACK
6
CONTINUOUS
10
5.81853
20
-4.87109
11
5.81582
21
-4.88416
0
LINE
8
BLACK
6
CONTINUOUS
10
5.81582
20
-4.88416
11
5.81463
21
-4.89745
0
LINE
8
BLACK
6
CONTINUOUS
10
5.81463
20
-4.89745
11
5.81498
21
-4.9108
0
LINE
8
BLACK
6
CONTINUOUS
10
5.81498
20
-4.9108
11
5.81686
21
-4.92401
0
LINE
8
BLACK
6
CONTINUOUS
10
5.01343
20
-4.87277
11
5.01731
21
-4.85989
0
LINE
8
BLACK
6
CONTINUOUS
10
5.01731
20
-4.85989
11
5.02261
21
-4.84753
0
LINE
8
BLACK
6
CONTINUOUS
10
5.02261
20
-4.84753
11
5.02925
21
-4.83583
0
LINE
8
BLACK
6
CONTINUOUS
10
5.02925
20
-4.83583
11
5.03716
21
-4.82495
0
LINE
8
BLACK
6
CONTINUOUS
10
5.03716
20
-4.82495
11
5.04623
21
-4.81502
0
LINE
8
BLACK
6
CONTINUOUS
10
5.04623
20
-4.81502
11
5.05635
21
-4.80616
0
LINE
8
BLACK
6
CONTINUOUS
10
5.05635
20
-4.80616
11
5.06739
21
-4.79848
0
LINE
8
BLACK
6
CONTINUOUS
10
5.06739
20
-4.79848
11
5.07923
21
-4.79209
0
LINE
8
BLACK
6
CONTINUOUS
10
5.07923
20
-4.79209
11
5.0917
21
-4.78705
0
LINE
8
BLACK
6
CONTINUOUS
10
5.0917
20
-4.78705
11
5.10465
21
-4.78343
0
LINE
8
BLACK
6
CONTINUOUS
10
5.10465
20
-4.78343
11
5.11793
21
-4.78128
0
LINE
8
BLACK
6
CONTINUOUS
10
5.11793
20
-4.78128
11
5.13136
21
-4.78062
0
LINE
8
BLACK
6
CONTINUOUS
10
5.13136
20
-4.78062
11
5.14478
21
-4.78147
0
LINE
8
BLACK
6
CONTINUOUS
10
5.14478
20
-4.78147
11
5.15803
21
-4.78381
0
LINE
8
BLACK
6
CONTINUOUS
10
5.15803
20
-4.78381
11
5.17093
21
-4.7876
0
LINE
8
BLACK
6
CONTINUOUS
10
5.17093
20
-4.7876
11
5.18333
21
-4.79281
0
LINE
8
BLACK
6
CONTINUOUS
10
5.18333
20
-4.79281
11
5.19507
21
-4.79938
0
LINE
8
BLACK
6
CONTINUOUS
10
5.19507
20
-4.79938
11
5.20601
21
-4.80721
0
LINE
8
BLACK
6
CONTINUOUS
10
5.20601
20
-4.80721
11
5.216
21
-4.81621
0
LINE
8
BLACK
6
CONTINUOUS
10
5.216
20
-4.81621
11
5.22493
21
-4.82626
0
LINE
8
BLACK
6
CONTINUOUS
10
5.22493
20
-4.82626
11
5.23269
21
-4.83725
0
LINE
8
BLACK
6
CONTINUOUS
10
5.23269
20
-4.83725
11
5.23917
21
-4.84904
0
LINE
8
BLACK
6
CONTINUOUS
10
5.23917
20
-4.84904
11
5.24429
21
-4.86148
0
LINE
8
BLACK
6
CONTINUOUS
10
5.24429
20
-4.86148
11
5.248
21
-4.8744
0
LINE
8
BLACK
6
CONTINUOUS
10
5.248
20
-4.8744
11
5.25024
21
-4.88767
0
LINE
8
BLACK
6
CONTINUOUS
10
5.25024
20
-4.88767
11
5.25099
21
-4.90109
0
LINE
8
BLACK
6
CONTINUOUS
10
5.25099
20
-4.90109
11
5.25095
21
-4.90446
0
LINE
8
BLACK
6
CONTINUOUS
10
5.25095
20
-4.90446
11
5.24982
21
-4.91786
0
LINE
8
BLACK
6
CONTINUOUS
10
5.24982
20
-4.91786
11
5.24721
21
-4.93105
0
LINE
8
BLACK
6
CONTINUOUS
10
5.24721
20
-4.93105
11
5.24314
21
-4.94388
0
LINE
8
BLACK
6
CONTINUOUS
10
5.24314
20
-4.94388
11
5.23767
21
-4.95616
0
LINE
8
BLACK
6
CONTINUOUS
10
5.23767
20
-4.95616
11
5.23086
21
-4.96776
0
LINE
8
BLACK
6
CONTINUOUS
10
5.23086
20
-4.96776
11
5.22281
21
-4.97853
0
LINE
8
BLACK
6
CONTINUOUS
10
5.22281
20
-4.97853
11
5.2136
21
-4.98834
0
LINE
8
BLACK
6
CONTINUOUS
10
5.2136
20
-4.98834
11
5.20336
21
-4.99705
0
LINE
8
BLACK
6
CONTINUOUS
10
5.20336
20
-4.99705
11
5.19221
21
-5.00458
0
LINE
8
BLACK
6
CONTINUOUS
10
5.19221
20
-5.00458
11
5.18029
21
-5.01081
0
LINE
8
BLACK
6
CONTINUOUS
10
5.18029
20
-5.01081
11
5.16775
21
-5.01567
0
LINE
8
BLACK
6
CONTINUOUS
10
5.16775
20
-5.01567
11
5.15474
21
-5.01911
0
LINE
8
BLACK
6
CONTINUOUS
10
5.15474
20
-5.01911
11
5.14144
21
-5.02107
0
LINE
8
BLACK
6
CONTINUOUS
10
5.14144
20
-5.02107
11
5.128
21
-5.02154
0
LINE
8
BLACK
6
CONTINUOUS
10
5.128
20
-5.02154
11
5.11459
21
-5.02051
0
LINE
8
BLACK
6
CONTINUOUS
10
5.11459
20
-5.02051
11
5.10137
21
-5.01799
0
LINE
8
BLACK
6
CONTINUOUS
10
5.10137
20
-5.01799
11
5.08853
21
-5.01401
0
LINE
8
BLACK
6
CONTINUOUS
10
5.08853
20
-5.01401
11
5.0762
21
-5.00863
0
LINE
8
BLACK
6
CONTINUOUS
10
5.0762
20
-5.00863
11
5.06455
21
-5.0019
0
LINE
8
BLACK
6
CONTINUOUS
10
5.06455
20
-5.0019
11
5.05373
21
-4.99392
0
LINE
8
BLACK
6
CONTINUOUS
10
5.05373
20
-4.99392
11
5.04386
21
-4.98478
0
LINE
8
BLACK
6
CONTINUOUS
10
5.04386
20
-4.98478
11
5.03507
21
-4.9746
0
LINE
8
BLACK
6
CONTINUOUS
10
5.03507
20
-4.9746
11
5.02747
21
-4.9635
0
LINE
8
BLACK
6
CONTINUOUS
10
5.02747
20
-4.9635
11
5.02116
21
-4.95163
0
LINE
8
BLACK
6
CONTINUOUS
10
5.02116
20
-4.95163
11
5.01621
21
-4.93912
0
LINE
8
BLACK
6
CONTINUOUS
10
5.01621
20
-4.93912
11
5.01268
21
-4.92614
0
LINE
8
BLACK
6
CONTINUOUS
10
5.01268
20
-4.92614
11
5.01062
21
-4.91285
0
LINE
8
BLACK
6
CONTINUOUS
10
5.01062
20
-4.91285
11
5.01006
21
-4.89941
0
LINE
8
BLACK
6
CONTINUOUS
10
5.01006
20
-4.89941
11
5.0102
21
-4.89745
0
LINE
8
BLACK
6
CONTINUOUS
10
5.0102
20
-4.89745
11
5.011
21
-4.886
0
LINE
8
BLACK
6
CONTINUOUS
10
5.011
20
-4.886
11
5.01343
21
-4.87277
0
LINE
8
BLACK
6
CONTINUOUS
10
5.01686
20
-4.92401
11
5.02025
21
-4.93692
0
LINE
8
BLACK
6
CONTINUOUS
10
5.02025
20
-4.93692
11
5.0251
21
-4.94936
0
LINE
8
BLACK
6
CONTINUOUS
10
5.0251
20
-4.94936
11
5.03135
21
-4.96116
0
LINE
8
BLACK
6
CONTINUOUS
10
5.03135
20
-4.96116
11
5.03891
21
-4.97216
0
LINE
8
BLACK
6
CONTINUOUS
10
5.03891
20
-4.97216
11
5.04768
21
-4.98222
0
LINE
8
BLACK
6
CONTINUOUS
10
5.04768
20
-4.98222
11
5.05755
21
-4.9912
0
LINE
8
BLACK
6
CONTINUOUS
10
5.05755
20
-4.9912
11
5.06839
21
-4.99899
0
LINE
8
BLACK
6
CONTINUOUS
10
5.06839
20
-4.99899
11
5.08006
21
-5.00548
0
LINE
8
BLACK
6
CONTINUOUS
10
5.08006
20
-5.00548
11
5.09239
21
-5.01059
0
LINE
8
BLACK
6
CONTINUOUS
10
5.09239
20
-5.01059
11
5.10523
21
-5.01425
0
LINE
8
BLACK
6
CONTINUOUS
10
5.10523
20
-5.01425
11
5.1184
21
-5.0164
0
LINE
8
BLACK
6
CONTINUOUS
10
5.1184
20
-5.0164
11
5.13173
21
-5.01703
0
LINE
8
BLACK
6
CONTINUOUS
10
5.13173
20
-5.01703
11
5.14505
21
-5.01612
0
LINE
8
BLACK
6
CONTINUOUS
10
5.14505
20
-5.01612
11
5.15818
21
-5.01369
0
LINE
8
BLACK
6
CONTINUOUS
10
5.15818
20
-5.01369
11
5.17093
21
-5.00977
0
LINE
8
BLACK
6
CONTINUOUS
10
5.17093
20
-5.00977
11
5.18316
21
-5.0044
0
LINE
8
BLACK
6
CONTINUOUS
10
5.18316
20
-5.0044
11
5.19468
21
-4.99767
0
LINE
8
BLACK
6
CONTINUOUS
10
5.19468
20
-4.99767
11
5.20536
21
-4.98965
0
LINE
8
BLACK
6
CONTINUOUS
10
5.20536
20
-4.98965
11
5.21504
21
-4.98046
0
LINE
8
BLACK
6
CONTINUOUS
10
5.21504
20
-4.98046
11
5.2236
21
-4.97022
0
LINE
8
BLACK
6
CONTINUOUS
10
5.2236
20
-4.97022
11
5.23093
21
-4.95907
0
LINE
8
BLACK
6
CONTINUOUS
10
5.23093
20
-4.95907
11
5.23693
21
-4.94714
0
LINE
8
BLACK
6
CONTINUOUS
10
5.23693
20
-4.94714
11
5.24152
21
-4.93461
0
LINE
8
BLACK
6
CONTINUOUS
10
5.24152
20
-4.93461
11
5.24463
21
-4.92163
0
LINE
8
BLACK
6
CONTINUOUS
10
5.24463
20
-4.92163
11
5.24624
21
-4.90837
0
LINE
8
BLACK
6
CONTINUOUS
10
5.24624
20
-4.90837
11
5.24646
21
-4.90109
0
LINE
8
BLACK
6
CONTINUOUS
10
5.24646
20
-4.90109
11
5.2457
21
-4.88777
0
LINE
8
BLACK
6
CONTINUOUS
10
5.2457
20
-4.88777
11
5.2434
21
-4.87462
0
LINE
8
BLACK
6
CONTINUOUS
10
5.2434
20
-4.87462
11
5.23961
21
-4.86182
0
LINE
8
BLACK
6
CONTINUOUS
10
5.23961
20
-4.86182
11
5.23437
21
-4.84954
0
LINE
8
BLACK
6
CONTINUOUS
10
5.23437
20
-4.84954
11
5.22776
21
-4.83795
0
LINE
8
BLACK
6
CONTINUOUS
10
5.22776
20
-4.83795
11
5.21986
21
-4.82719
0
LINE
8
BLACK
6
CONTINUOUS
10
5.21986
20
-4.82719
11
5.21077
21
-4.81741
0
LINE
8
BLACK
6
CONTINUOUS
10
5.21077
20
-4.81741
11
5.20062
21
-4.80874
0
LINE
8
BLACK
6
CONTINUOUS
10
5.20062
20
-4.80874
11
5.18954
21
-4.8013
0
LINE
8
BLACK
6
CONTINUOUS
10
5.18954
20
-4.8013
11
5.17768
21
-4.79517
0
LINE
8
BLACK
6
CONTINUOUS
10
5.17768
20
-4.79517
11
5.16519
21
-4.79046
0
LINE
8
BLACK
6
CONTINUOUS
10
5.16519
20
-4.79046
11
5.15225
21
-4.7872
0
LINE
8
BLACK
6
CONTINUOUS
10
5.15225
20
-4.7872
11
5.13901
21
-4.78546
0
LINE
8
BLACK
6
CONTINUOUS
10
5.13901
20
-4.78546
11
5.12566
21
-4.78525
0
LINE
8
BLACK
6
CONTINUOUS
10
5.12566
20
-4.78525
11
5.11238
21
-4.78658
0
LINE
8
BLACK
6
CONTINUOUS
10
5.11238
20
-4.78658
11
5.09934
21
-4.78942
0
LINE
8
BLACK
6
CONTINUOUS
10
5.09934
20
-4.78942
11
5.08671
21
-4.79375
0
LINE
8
BLACK
6
CONTINUOUS
10
5.08671
20
-4.79375
11
5.07466
21
-4.79949
0
LINE
8
BLACK
6
CONTINUOUS
10
5.07466
20
-4.79949
11
5.06336
21
-4.80659
0
LINE
8
BLACK
6
CONTINUOUS
10
5.06336
20
-4.80659
11
5.05294
21
-4.81493
0
LINE
8
BLACK
6
CONTINUOUS
10
5.05294
20
-4.81493
11
5.04355
21
-4.82442
0
LINE
8
BLACK
6
CONTINUOUS
10
5.04355
20
-4.82442
11
5.03531
21
-4.83492
0
LINE
8
BLACK
6
CONTINUOUS
10
5.03531
20
-4.83492
11
5.02834
21
-4.84631
0
LINE
8
BLACK
6
CONTINUOUS
10
5.02834
20
-4.84631
11
5.02272
21
-4.85841
0
LINE
8
BLACK
6
CONTINUOUS
10
5.02272
20
-4.85841
11
5.01853
21
-4.87109
0
LINE
8
BLACK
6
CONTINUOUS
10
5.01853
20
-4.87109
11
5.01582
21
-4.88416
0
LINE
8
BLACK
6
CONTINUOUS
10
5.01582
20
-4.88416
11
5.01463
21
-4.89745
0
LINE
8
BLACK
6
CONTINUOUS
10
5.01463
20
-4.89745
11
5.01498
21
-4.9108
0
LINE
8
BLACK
6
CONTINUOUS
10
5.01498
20
-4.9108
11
5.01686
21
-4.92401
0
LINE
8
BLACK
6
CONTINUOUS
10
6.61343
20
-4.87277
11
6.61731
21
-4.85989
0
LINE
8
BLACK
6
CONTINUOUS
10
6.61731
20
-4.85989
11
6.62261
21
-4.84753
0
LINE
8
BLACK
6
CONTINUOUS
10
6.62261
20
-4.84753
11
6.62925
21
-4.83583
0
LINE
8
BLACK
6
CONTINUOUS
10
6.62925
20
-4.83583
11
6.63716
21
-4.82495
0
LINE
8
BLACK
6
CONTINUOUS
10
6.63716
20
-4.82495
11
6.64623
21
-4.81502
0
LINE
8
BLACK
6
CONTINUOUS
10
6.64623
20
-4.81502
11
6.65635
21
-4.80616
0
LINE
8
BLACK
6
CONTINUOUS
10
6.65635
20
-4.80616
11
6.66739
21
-4.79848
0
LINE
8
BLACK
6
CONTINUOUS
10
6.66739
20
-4.79848
11
6.67922
21
-4.79209
0
LINE
8
BLACK
6
CONTINUOUS
10
6.67922
20
-4.79209
11
6.6917
21
-4.78705
0
LINE
8
BLACK
6
CONTINUOUS
10
6.6917
20
-4.78705
11
6.70465
21
-4.78343
0
LINE
8
BLACK
6
CONTINUOUS
10
6.70465
20
-4.78343
11
6.71793
21
-4.78128
0
LINE
8
BLACK
6
CONTINUOUS
10
6.71793
20
-4.78128
11
6.73136
21
-4.78062
0
LINE
8
BLACK
6
CONTINUOUS
10
6.73136
20
-4.78062
11
6.74478
21
-4.78147
0
LINE
8
BLACK
6
CONTINUOUS
10
6.74478
20
-4.78147
11
6.75803
21
-4.78381
0
LINE
8
BLACK
6
CONTINUOUS
10
6.75803
20
-4.78381
11
6.77093
21
-4.7876
0
LINE
8
BLACK
6
CONTINUOUS
10
6.77093
20
-4.7876
11
6.78333
21
-4.79281
0
LINE
8
BLACK
6
CONTINUOUS
10
6.78333
20
-4.79281
11
6.79507
21
-4.79938
0
LINE
8
BLACK
6
CONTINUOUS
10
6.79507
20
-4.79938
11
6.80601
21
-4.80721
0
LINE
8
BLACK
6
CONTINUOUS
10
6.80601
20
-4.80721
11
6.816
21
-4.81621
0
LINE
8
BLACK
6
CONTINUOUS
10
6.816
20
-4.81621
11
6.82493
21
-4.82626
0
LINE
8
BLACK
6
CONTINUOUS
10
6.82493
20
-4.82626
11
6.83269
21
-4.83725
0
LINE
8
BLACK
6
CONTINUOUS
10
6.83269
20
-4.83725
11
6.83917
21
-4.84904
0
LINE
8
BLACK
6
CONTINUOUS
10
6.83917
20
-4.84904
11
6.84429
21
-4.86148
0
LINE
8
BLACK
6
CONTINUOUS
10
6.84429
20
-4.86148
11
6.848
21
-4.8744
0
LINE
8
BLACK
6
CONTINUOUS
10
6.848
20
-4.8744
11
6.85024
21
-4.88767
0
LINE
8
BLACK
6
CONTINUOUS
10
6.85024
20
-4.88767
11
6.85099
21
-4.90109
0
LINE
8
BLACK
6
CONTINUOUS
10
6.85099
20
-4.90109
11
6.85095
21
-4.90446
0
LINE
8
BLACK
6
CONTINUOUS
10
6.85095
20
-4.90446
11
6.84982
21
-4.91786
0
LINE
8
BLACK
6
CONTINUOUS
10
6.84982
20
-4.91786
11
6.84721
21
-4.93105
0
LINE
8
BLACK
6
CONTINUOUS
10
6.84721
20
-4.93105
11
6.84314
21
-4.94388
0
LINE
8
BLACK
6
CONTINUOUS
10
6.84314
20
-4.94388
11
6.83767
21
-4.95616
0
LINE
8
BLACK
6
CONTINUOUS
10
6.83767
20
-4.95616
11
6.83086
21
-4.96776
0
LINE
8
BLACK
6
CONTINUOUS
10
6.83086
20
-4.96776
11
6.82281
21
-4.97853
0
LINE
8
BLACK
6
CONTINUOUS
10
6.82281
20
-4.97853
11
6.8136
21
-4.98834
0
LINE
8
BLACK
6
CONTINUOUS
10
6.8136
20
-4.98834
11
6.80336
21
-4.99705
0
LINE
8
BLACK
6
CONTINUOUS
10
6.80336
20
-4.99705
11
6.79221
21
-5.00458
0
LINE
8
BLACK
6
CONTINUOUS
10
6.79221
20
-5.00458
11
6.78029
21
-5.01081
0
LINE
8
BLACK
6
CONTINUOUS
10
6.78029
20
-5.01081
11
6.76775
21
-5.01567
0
LINE
8
BLACK
6
CONTINUOUS
10
6.76775
20
-5.01567
11
6.75474
21
-5.01911
0
LINE
8
BLACK
6
CONTINUOUS
10
6.75474
20
-5.01911
11
6.74144
21
-5.02107
0
LINE
8
BLACK
6
CONTINUOUS
10
6.74144
20
-5.02107
11
6.728
21
-5.02154
0
LINE
8
BLACK
6
CONTINUOUS
10
6.728
20
-5.02154
11
6.71459
21
-5.02051
0
LINE
8
BLACK
6
CONTINUOUS
10
6.71459
20
-5.02051
11
6.70137
21
-5.01799
0
LINE
8
BLACK
6
CONTINUOUS
10
6.70137
20
-5.01799
11
6.68853
21
-5.01401
0
LINE
8
BLACK
6
CONTINUOUS
10
6.68853
20
-5.01401
11
6.6762
21
-5.00863
0
LINE
8
BLACK
6
CONTINUOUS
10
6.6762
20
-5.00863
11
6.66455
21
-5.0019
0
LINE
8
BLACK
6
CONTINUOUS
10
6.66455
20
-5.0019
11
6.65373
21
-4.99392
0
LINE
8
BLACK
6
CONTINUOUS
10
6.65373
20
-4.99392
11
6.64386
21
-4.98478
0
LINE
8
BLACK
6
CONTINUOUS
10
6.64386
20
-4.98478
11
6.63507
21
-4.9746
0
LINE
8
BLACK
6
CONTINUOUS
10
6.63507
20
-4.9746
11
6.62747
21
-4.9635
0
LINE
8
BLACK
6
CONTINUOUS
10
6.62747
20
-4.9635
11
6.62116
21
-4.95163
0
LINE
8
BLACK
6
CONTINUOUS
10
6.62116
20
-4.95163
11
6.61621
21
-4.93912
0
LINE
8
BLACK
6
CONTINUOUS
10
6.61621
20
-4.93912
11
6.61268
21
-4.92614
0
LINE
8
BLACK
6
CONTINUOUS
10
6.61268
20
-4.92614
11
6.61062
21
-4.91285
0
LINE
8
BLACK
6
CONTINUOUS
10
6.61062
20
-4.91285
11
6.61006
21
-4.89941
0
LINE
8
BLACK
6
CONTINUOUS
10
6.61006
20
-4.89941
11
6.6102
21
-4.89745
0
LINE
8
BLACK
6
CONTINUOUS
10
6.6102
20
-4.89745
11
6.611
21
-4.886
0
LINE
8
BLACK
6
CONTINUOUS
10
6.611
20
-4.886
11
6.61343
21
-4.87277
0
LINE
8
BLACK
6
CONTINUOUS
10
6.61686
20
-4.92401
11
6.62025
21
-4.93692
0
LINE
8
BLACK
6
CONTINUOUS
10
6.62025
20
-4.93692
11
6.6251
21
-4.94936
0
LINE
8
BLACK
6
CONTINUOUS
10
6.6251
20
-4.94936
11
6.63135
21
-4.96116
0
LINE
8
BLACK
6
CONTINUOUS
10
6.63135
20
-4.96116
11
6.63891
21
-4.97216
0
LINE
8
BLACK
6
CONTINUOUS
10
6.63891
20
-4.97216
11
6.64768
21
-4.98222
0
LINE
8
BLACK
6
CONTINUOUS
10
6.64768
20
-4.98222
11
6.65755
21
-4.9912
0
LINE
8
BLACK
6
CONTINUOUS
10
6.65755
20
-4.9912
11
6.66839
21
-4.99899
0
LINE
8
BLACK
6
CONTINUOUS
10
6.66839
20
-4.99899
11
6.68006
21
-5.00548
0
LINE
8
BLACK
6
CONTINUOUS
10
6.68006
20
-5.00548
11
6.69239
21
-5.01059
0
LINE
8
BLACK
6
CONTINUOUS
10
6.69239
20
-5.01059
11
6.70523
21
-5.01425
0
LINE
8
BLACK
6
CONTINUOUS
10
6.70523
20
-5.01425
11
6.7184
21
-5.0164
0
LINE
8
BLACK
6
CONTINUOUS
10
6.7184
20
-5.0164
11
6.73173
21
-5.01703
0
LINE
8
BLACK
6
CONTINUOUS
10
6.73173
20
-5.01703
11
6.74505
21
-5.01612
0
LINE
8
BLACK
6
CONTINUOUS
10
6.74505
20
-5.01612
11
6.75818
21
-5.01369
0
LINE
8
BLACK
6
CONTINUOUS
10
6.75818
20
-5.01369
11
6.77093
21
-5.00977
0
LINE
8
BLACK
6
CONTINUOUS
10
6.77093
20
-5.00977
11
6.78316
21
-5.0044
0
LINE
8
BLACK
6
CONTINUOUS
10
6.78316
20
-5.0044
11
6.79468
21
-4.99767
0
LINE
8
BLACK
6
CONTINUOUS
10
6.79468
20
-4.99767
11
6.80536
21
-4.98965
0
LINE
8
BLACK
6
CONTINUOUS
10
6.80536
20
-4.98965
11
6.81504
21
-4.98046
0
LINE
8
BLACK
6
CONTINUOUS
10
6.81504
20
-4.98046
11
6.8236
21
-4.97022
0
LINE
8
BLACK
6
CONTINUOUS
10
6.8236
20
-4.97022
11
6.83093
21
-4.95907
0
LINE
8
BLACK
6
CONTINUOUS
10
6.83093
20
-4.95907
11
6.83693
21
-4.94714
0
LINE
8
BLACK
6
CONTINUOUS
10
6.83693
20
-4.94714
11
6.84152
21
-4.93461
0
LINE
8
BLACK
6
CONTINUOUS
10
6.84152
20
-4.93461
11
6.84463
21
-4.92163
0
LINE
8
BLACK
6
CONTINUOUS
10
6.84463
20
-4.92163
11
6.84624
21
-4.90837
0
LINE
8
BLACK
6
CONTINUOUS
10
6.84624
20
-4.90837
11
6.84646
21
-4.90109
0
LINE
8
BLACK
6
CONTINUOUS
10
6.84646
20
-4.90109
11
6.8457
21
-4.88777
0
LINE
8
BLACK
6
CONTINUOUS
10
6.8457
20
-4.88777
11
6.8434
21
-4.87462
0
LINE
8
BLACK
6
CONTINUOUS
10
6.8434
20
-4.87462
11
6.83961
21
-4.86182
0
LINE
8
BLACK
6
CONTINUOUS
10
6.83961
20
-4.86182
11
6.83437
21
-4.84954
0
LINE
8
BLACK
6
CONTINUOUS
10
6.83437
20
-4.84954
11
6.82776
21
-4.83795
0
LINE
8
BLACK
6
CONTINUOUS
10
6.82776
20
-4.83795
11
6.81986
21
-4.82719
0
LINE
8
BLACK
6
CONTINUOUS
10
6.81986
20
-4.82719
11
6.81077
21
-4.81741
0
LINE
8
BLACK
6
CONTINUOUS
10
6.81077
20
-4.81741
11
6.80062
21
-4.80874
0
LINE
8
BLACK
6
CONTINUOUS
10
6.80062
20
-4.80874
11
6.78954
21
-4.8013
0
LINE
8
BLACK
6
CONTINUOUS
10
6.78954
20
-4.8013
11
6.77768
21
-4.79517
0
LINE
8
BLACK
6
CONTINUOUS
10
6.77768
20
-4.79517
11
6.76519
21
-4.79046
0
LINE
8
BLACK
6
CONTINUOUS
10
6.76519
20
-4.79046
11
6.75225
21
-4.7872
0
LINE
8
BLACK
6
CONTINUOUS
10
6.75225
20
-4.7872
11
6.73901
21
-4.78546
0
LINE
8
BLACK
6
CONTINUOUS
10
6.73901
20
-4.78546
11
6.72566
21
-4.78525
0
LINE
8
BLACK
6
CONTINUOUS
10
6.72566
20
-4.78525
11
6.71238
21
-4.78658
0
LINE
8
BLACK
6
CONTINUOUS
10
6.71238
20
-4.78658
11
6.69934
21
-4.78942
0
LINE
8
BLACK
6
CONTINUOUS
10
6.69934
20
-4.78942
11
6.68671
21
-4.79375
0
LINE
8
BLACK
6
CONTINUOUS
10
6.68671
20
-4.79375
11
6.67466
21
-4.79949
0
LINE
8
BLACK
6
CONTINUOUS
10
6.67466
20
-4.79949
11
6.66336
21
-4.80659
0
LINE
8
BLACK
6
CONTINUOUS
10
6.66336
20
-4.80659
11
6.65294
21
-4.81493
0
LINE
8
BLACK
6
CONTINUOUS
10
6.65294
20
-4.81493
11
6.64355
21
-4.82442
0
LINE
8
BLACK
6
CONTINUOUS
10
6.64355
20
-4.82442
11
6.63531
21
-4.83492
0
LINE
8
BLACK
6
CONTINUOUS
10
6.63531
20
-4.83492
11
6.62834
21
-4.84631
0
LINE
8
BLACK
6
CONTINUOUS
10
6.62834
20
-4.84631
11
6.62272
21
-4.85841
0
LINE
8
BLACK
6
CONTINUOUS
10
6.62272
20
-4.85841
11
6.61853
21
-4.87109
0
LINE
8
BLACK
6
CONTINUOUS
10
6.61853
20
-4.87109
11
6.61582
21
-4.88416
0
LINE
8
BLACK
6
CONTINUOUS
10
6.61582
20
-4.88416
11
6.61463
21
-4.89745
0
LINE
8
BLACK
6
CONTINUOUS
10
6.61463
20
-4.89745
11
6.61498
21
-4.9108
0
LINE
8
BLACK
6
CONTINUOUS
10
6.61498
20
-4.9108
11
6.61686
21
-4.92401
0
LINE
8
BLACK
6
CONTINUOUS
10
4.21343
20
-4.87277
11
4.21731
21
-4.85989
0
LINE
8
BLACK
6
CONTINUOUS
10
4.21731
20
-4.85989
11
4.22261
21
-4.84753
0
LINE
8
BLACK
6
CONTINUOUS
10
4.22261
20
-4.84753
11
4.22925
21
-4.83583
0
LINE
8
BLACK
6
CONTINUOUS
10
4.22925
20
-4.83583
11
4.23716
21
-4.82495
0
LINE
8
BLACK
6
CONTINUOUS
10
4.23716
20
-4.82495
11
4.24623
21
-4.81502
0
LINE
8
BLACK
6
CONTINUOUS
10
4.24623
20
-4.81502
11
4.25635
21
-4.80616
0
LINE
8
BLACK
6
CONTINUOUS
10
4.25635
20
-4.80616
11
4.26739
21
-4.79848
0
LINE
8
BLACK
6
CONTINUOUS
10
4.26739
20
-4.79848
11
4.27923
21
-4.79209
0
LINE
8
BLACK
6
CONTINUOUS
10
4.27923
20
-4.79209
11
4.2917
21
-4.78705
0
LINE
8
BLACK
6
CONTINUOUS
10
4.2917
20
-4.78705
11
4.30465
21
-4.78343
0
LINE
8
BLACK
6
CONTINUOUS
10
4.30465
20
-4.78343
11
4.31793
21
-4.78128
0
LINE
8
BLACK
6
CONTINUOUS
10
4.31793
20
-4.78128
11
4.33136
21
-4.78062
0
LINE
8
BLACK
6
CONTINUOUS
10
4.33136
20
-4.78062
11
4.34478
21
-4.78147
0
LINE
8
BLACK
6
CONTINUOUS
10
4.34478
20
-4.78147
11
4.35803
21
-4.78381
0
LINE
8
BLACK
6
CONTINUOUS
10
4.35803
20
-4.78381
11
4.37093
21
-4.7876
0
LINE
8
BLACK
6
CONTINUOUS
10
4.37093
20
-4.7876
11
4.38333
21
-4.79281
0
LINE
8
BLACK
6
CONTINUOUS
10
4.38333
20
-4.79281
11
4.39507
21
-4.79938
0
LINE
8
BLACK
6
CONTINUOUS
10
4.39507
20
-4.79938
11
4.40601
21
-4.80721
0
LINE
8
BLACK
6
CONTINUOUS
10
4.40601
20
-4.80721
11
4.416
21
-4.81621
0
LINE
8
BLACK
6
CONTINUOUS
10
4.416
20
-4.81621
11
4.42493
21
-4.82626
0
LINE
8
BLACK
6
CONTINUOUS
10
4.42493
20
-4.82626
11
4.43269
21
-4.83725
0
LINE
8
BLACK
6
CONTINUOUS
10
4.43269
20
-4.83725
11
4.43917
21
-4.84904
0
LINE
8
BLACK
6
CONTINUOUS
10
4.43917
20
-4.84904
11
4.44429
21
-4.86148
0
LINE
8
BLACK
6
CONTINUOUS
10
4.44429
20
-4.86148
11
4.448
21
-4.8744
0
LINE
8
BLACK
6
CONTINUOUS
10
4.448
20
-4.8744
11
4.45024
21
-4.88767
0
LINE
8
BLACK
6
CONTINUOUS
10
4.45024
20
-4.88767
11
4.45099
21
-4.90109
0
LINE
8
BLACK
6
CONTINUOUS
10
4.45099
20
-4.90109
11
4.45095
21
-4.90446
0
LINE
8
BLACK
6
CONTINUOUS
10
4.45095
20
-4.90446
11
4.44982
21
-4.91786
0
LINE
8
BLACK
6
CONTINUOUS
10
4.44982
20
-4.91786
11
4.44721
21
-4.93105
0
LINE
8
BLACK
6
CONTINUOUS
10
4.44721
20
-4.93105
11
4.44314
21
-4.94388
0
LINE
8
BLACK
6
CONTINUOUS
10
4.44314
20
-4.94388
11
4.43767
21
-4.95616
0
LINE
8
BLACK
6
CONTINUOUS
10
4.43767
20
-4.95616
11
4.43086
21
-4.96776
0
LINE
8
BLACK
6
CONTINUOUS
10
4.43086
20
-4.96776
11
4.42281
21
-4.97853
0
LINE
8
BLACK
6
CONTINUOUS
10
4.42281
20
-4.97853
11
4.4136
21
-4.98834
0
LINE
8
BLACK
6
CONTINUOUS
10
4.4136
20
-4.98834
11
4.40336
21
-4.99705
0
LINE
8
BLACK
6
CONTINUOUS
10
4.40336
20
-4.99705
11
4.39221
21
-5.00458
0
LINE
8
BLACK
6
CONTINUOUS
10
4.39221
20
-5.00458
11
4.38029
21
-5.01081
0
LINE
8
BLACK
6
CONTINUOUS
10
4.38029
20
-5.01081
11
4.36775
21
-5.01567
0
LINE
8
BLACK
6
CONTINUOUS
10
4.36775
20
-5.01567
11
4.35474
21
-5.01911
0
LINE
8
BLACK
6
CONTINUOUS
10
4.35474
20
-5.01911
11
4.34144
21
-5.02107
0
LINE
8
BLACK
6
CONTINUOUS
10
4.34144
20
-5.02107
11
4.328
21
-5.02154
0
LINE
8
BLACK
6
CONTINUOUS
10
4.328
20
-5.02154
11
4.31459
21
-5.02051
0
LINE
8
BLACK
6
CONTINUOUS
10
4.31459
20
-5.02051
11
4.30137
21
-5.01799
0
LINE
8
BLACK
6
CONTINUOUS
10
4.30137
20
-5.01799
11
4.28853
21
-5.01401
0
LINE
8
BLACK
6
CONTINUOUS
10
4.28853
20
-5.01401
11
4.2762
21
-5.00863
0
LINE
8
BLACK
6
CONTINUOUS
10
4.2762
20
-5.00863
11
4.26455
21
-5.0019
0
LINE
8
BLACK
6
CONTINUOUS
10
4.26455
20
-5.0019
11
4.25373
21
-4.99392
0
LINE
8
BLACK
6
CONTINUOUS
10
4.25373
20
-4.99392
11
4.24386
21
-4.98478
0
LINE
8
BLACK
6
CONTINUOUS
10
4.24386
20
-4.98478
11
4.23507
21
-4.9746
0
LINE
8
BLACK
6
CONTINUOUS
10
4.23507
20
-4.9746
11
4.22747
21
-4.9635
0
LINE
8
BLACK
6
CONTINUOUS
10
4.22747
20
-4.9635
11
4.22116
21
-4.95163
0
LINE
8
BLACK
6
CONTINUOUS
10
4.22116
20
-4.95163
11
4.21621
21
-4.93912
0
LINE
8
BLACK
6
CONTINUOUS
10
4.21621
20
-4.93912
11
4.21268
21
-4.92614
0
LINE
8
BLACK
6
CONTINUOUS
10
4.21268
20
-4.92614
11
4.21062
21
-4.91285
0
LINE
8
BLACK
6
CONTINUOUS
10
4.21062
20
-4.91285
11
4.21006
21
-4.89941
0
LINE
8
BLACK
6
CONTINUOUS
10
4.21006
20
-4.89941
11
4.2102
21
-4.89745
0
LINE
8
BLACK
6
CONTINUOUS
10
4.2102
20
-4.89745
11
4.211
21
-4.886
0
LINE
8
BLACK
6
CONTINUOUS
10
4.211
20
-4.886
11
4.21343
21
-4.87277
0
LINE
8
BLACK
6
CONTINUOUS
10
4.21686
20
-4.92401
11
4.22025
21
-4.93692
0
LINE
8
BLACK
6
CONTINUOUS
10
4.22025
20
-4.93692
11
4.2251
21
-4.94936
0
LINE
8
BLACK
6
CONTINUOUS
10
4.2251
20
-4.94936
11
4.23135
21
-4.96116
0
LINE
8
BLACK
6
CONTINUOUS
10
4.23135
20
-4.96116
11
4.23891
21
-4.97216
0
LINE
8
BLACK
6
CONTINUOUS
10
4.23891
20
-4.97216
11
4.24768
21
-4.98222
0
LINE
8
BLACK
6
CONTINUOUS
10
4.24768
20
-4.98222
11
4.25755
21
-4.9912
0
LINE
8
BLACK
6
CONTINUOUS
10
4.25755
20
-4.9912
11
4.26839
21
-4.99899
0
LINE
8
BLACK
6
CONTINUOUS
10
4.26839
20
-4.99899
11
4.28006
21
-5.00548
0
LINE
8
BLACK
6
CONTINUOUS
10
4.28006
20
-5.00548
11
4.29239
21
-5.01059
0
LINE
8
BLACK
6
CONTINUOUS
10
4.29239
20
-5.01059
11
4.30523
21
-5.01425
0
LINE
8
BLACK
6
CONTINUOUS
10
4.30523
20
-5.01425
11
4.3184
21
-5.0164
0
LINE
8
BLACK
6
CONTINUOUS
10
4.3184
20
-5.0164
11
4.33173
21
-5.01703
0
LINE
8
BLACK
6
CONTINUOUS
10
4.33173
20
-5.01703
11
4.34505
21
-5.01612
0
LINE
8
BLACK
6
CONTINUOUS
10
4.34505
20
-5.01612
11
4.35818
21
-5.01369
0
LINE
8
BLACK
6
CONTINUOUS
10
4.35818
20
-5.01369
11
4.37093
21
-5.00977
0
LINE
8
BLACK
6
CONTINUOUS
10
4.37093
20
-5.00977
11
4.38316
21
-5.0044
0
LINE
8
BLACK
6
CONTINUOUS
10
4.38316
20
-5.0044
11
4.39468
21
-4.99767
0
LINE
8
BLACK
6
CONTINUOUS
10
4.39468
20
-4.99767
11
4.40536
21
-4.98965
0
LINE
8
BLACK
6
CONTINUOUS
10
4.40536
20
-4.98965
11
4.41504
21
-4.98046
0
LINE
8
BLACK
6
CONTINUOUS
10
4.41504
20
-4.98046
11
4.4236
21
-4.97022
0
LINE
8
BLACK
6
CONTINUOUS
10
4.4236
20
-4.97022
11
4.43093
21
-4.95907
0
LINE
8
BLACK
6
CONTINUOUS
10
4.43093
20
-4.95907
11
4.43693
21
-4.94714
0
LINE
8
BLACK
6
CONTINUOUS
10
4.43693
20
-4.94714
11
4.44152
21
-4.93461
0
LINE
8
BLACK
6
CONTINUOUS
10
4.44152
20
-4.93461
11
4.44463
21
-4.92163
0
LINE
8
BLACK
6
CONTINUOUS
10
4.44463
20
-4.92163
11
4.44624
21
-4.90837
0
LINE
8
BLACK
6
CONTINUOUS
10
4.44624
20
-4.90837
11
4.44646
21
-4.90109
0
LINE
8
BLACK
6
CONTINUOUS
10
4.44646
20
-4.90109
11
4.4457
21
-4.88777
0
LINE
8
BLACK
6
CONTINUOUS
10
4.4457
20
-4.88777
11
4.4434
21
-4.87462
0
LINE
8
BLACK
6
CONTINUOUS
10
4.4434
20
-4.87462
11
4.43961
21
-4.86182
0
LINE
8
BLACK
6
CONTINUOUS
10
4.43961
20
-4.86182
11
4.43437
21
-4.84954
0
LINE
8
BLACK
6
CONTINUOUS
10
4.43437
20
-4.84954
11
4.42776
21
-4.83795
0
LINE
8
BLACK
6
CONTINUOUS
10
4.42776
20
-4.83795
11
4.41986
21
-4.82719
0
LINE
8
BLACK
6
CONTINUOUS
10
4.41986
20
-4.82719
11
4.41077
21
-4.81741
0
LINE
8
BLACK
6
CONTINUOUS
10
4.41077
20
-4.81741
11
4.40062
21
-4.80874
0
LINE
8
BLACK
6
CONTINUOUS
10
4.40062
20
-4.80874
11
4.38954
21
-4.8013
0
LINE
8
BLACK
6
CONTINUOUS
10
4.38954
20
-4.8013
11
4.37768
21
-4.79517
0
LINE
8
BLACK
6
CONTINUOUS
10
4.37768
20
-4.79517
11
4.36519
21
-4.79046
0
LINE
8
BLACK
6
CONTINUOUS
10
4.36519
20
-4.79046
11
4.35225
21
-4.7872
0
LINE
8
BLACK
6
CONTINUOUS
10
4.35225
20
-4.7872
11
4.33901
21
-4.78546
0
LINE
8
BLACK
6
CONTINUOUS
10
4.33901
20
-4.78546
11
4.32566
21
-4.78525
0
LINE
8
BLACK
6
CONTINUOUS
10
4.32566
20
-4.78525
11
4.31238
21
-4.78658
0
LINE
8
BLACK
6
CONTINUOUS
10
4.31238
20
-4.78658
11
4.29934
21
-4.78942
0
LINE
8
BLACK
6
CONTINUOUS
10
4.29934
20
-4.78942
11
4.28671
21
-4.79375
0
LINE
8
BLACK
6
CONTINUOUS
10
4.28671
20
-4.79375
11
4.27466
21
-4.79949
0
LINE
8
BLACK
6
CONTINUOUS
10
4.27466
20
-4.79949
11
4.26336
21
-4.80659
0
LINE
8
BLACK
6
CONTINUOUS
10
4.26336
20
-4.80659
11
4.25294
21
-4.81493
0
LINE
8
BLACK
6
CONTINUOUS
10
4.25294
20
-4.81493
11
4.24355
21
-4.82442
0
LINE
8
BLACK
6
CONTINUOUS
10
4.24355
20
-4.82442
11
4.23531
21
-4.83492
0
LINE
8
BLACK
6
CONTINUOUS
10
4.23531
20
-4.83492
11
4.22834
21
-4.84631
0
LINE
8
BLACK
6
CONTINUOUS
10
4.22834
20
-4.84631
11
4.22272
21
-4.85841
0
LINE
8
BLACK
6
CONTINUOUS
10
4.22272
20
-4.85841
11
4.21853
21
-4.87109
0
LINE
8
BLACK
6
CONTINUOUS
10
4.21853
20
-4.87109
11
4.21582
21
-4.88416
0
LINE
8
BLACK
6
CONTINUOUS
10
4.21582
20
-4.88416
11
4.21463
21
-4.89745
0
LINE
8
BLACK
6
CONTINUOUS
10
4.21463
20
-4.89745
11
4.21498
21
-4.9108
0
LINE
8
BLACK
6
CONTINUOUS
10
4.21498
20
-4.9108
11
4.21686
21
-4.92401
0
LINE
8
BLACK
6
CONTINUOUS
10
10.1472
20
-4.54247
11
10.1508
21
-4.53363
0
LINE
8
BLACK
6
CONTINUOUS
10
10.1508
20
-4.53363
11
10.1558
21
-4.52546
0
LINE
8
BLACK
6
CONTINUOUS
10
10.1558
20
-4.52546
11
10.1621
21
-4.51818
0
LINE
8
BLACK
6
CONTINUOUS
10
10.1621
20
-4.51818
11
10.1693
21
-4.51196
0
LINE
8
BLACK
6
CONTINUOUS
10
10.1693
20
-4.51196
11
10.1775
21
-4.50696
0
LINE
8
BLACK
6
CONTINUOUS
10
10.1775
20
-4.50696
11
10.1863
21
-4.50329
0
LINE
8
BLACK
6
CONTINUOUS
10
10.1863
20
-4.50329
11
10.1957
21
-4.50106
0
LINE
8
BLACK
6
CONTINUOUS
10
10.1957
20
-4.50106
11
10.2052
21
-4.50031
0
LINE
8
BLACK
6
CONTINUOUS
10
10.2052
20
-4.50031
11
10.2148
21
-4.50106
0
LINE
8
BLACK
6
CONTINUOUS
10
10.2148
20
-4.50106
11
10.2241
21
-4.50329
0
LINE
8
BLACK
6
CONTINUOUS
10
10.2241
20
-4.50329
11
10.2329
21
-4.50696
0
LINE
8
BLACK
6
CONTINUOUS
10
10.2329
20
-4.50696
11
10.2411
21
-4.51196
0
LINE
8
BLACK
6
CONTINUOUS
10
10.2411
20
-4.51196
11
10.2484
21
-4.51818
0
LINE
8
BLACK
6
CONTINUOUS
10
10.2484
20
-4.51818
11
10.2546
21
-4.52546
0
LINE
8
BLACK
6
CONTINUOUS
10
10.2546
20
-4.52546
11
10.2596
21
-4.53363
0
LINE
8
BLACK
6
CONTINUOUS
10
10.2596
20
-4.53363
11
10.2632
21
-4.54247
0
LINE
8
BLACK
6
CONTINUOUS
10
10.2632
20
-4.54247
11
10.2655
21
-4.55178
0
LINE
8
BLACK
6
CONTINUOUS
10
10.2655
20
-4.55178
11
10.2662
21
-4.56133
0
LINE
8
BLACK
6
CONTINUOUS
10
10.2662
20
-4.56133
11
10.2655
21
-4.57088
0
LINE
8
BLACK
6
CONTINUOUS
10
10.2655
20
-4.57088
11
10.2632
21
-4.58019
0
LINE
8
BLACK
6
CONTINUOUS
10
10.2632
20
-4.58019
11
10.2596
21
-4.58903
0
LINE
8
BLACK
6
CONTINUOUS
10
10.2596
20
-4.58903
11
10.2546
21
-4.5972
0
LINE
8
BLACK
6
CONTINUOUS
10
10.2546
20
-4.5972
11
10.2484
21
-4.60448
0
LINE
8
BLACK
6
CONTINUOUS
10
10.2484
20
-4.60448
11
10.2411
21
-4.6107
0
LINE
8
BLACK
6
CONTINUOUS
10
10.2411
20
-4.6107
11
10.2329
21
-4.6157
0
LINE
8
BLACK
6
CONTINUOUS
10
10.2329
20
-4.6157
11
10.2241
21
-4.61937
0
LINE
8
BLACK
6
CONTINUOUS
10
10.2241
20
-4.61937
11
10.2148
21
-4.6216
0
LINE
8
BLACK
6
CONTINUOUS
10
10.2148
20
-4.6216
11
10.2052
21
-4.62235
0
LINE
8
BLACK
6
CONTINUOUS
10
10.2052
20
-4.62235
11
10.1957
21
-4.6216
0
LINE
8
BLACK
6
CONTINUOUS
10
10.1957
20
-4.6216
11
10.1863
21
-4.61937
0
LINE
8
BLACK
6
CONTINUOUS
10
10.1863
20
-4.61937
11
10.1775
21
-4.6157
0
LINE
8
BLACK
6
CONTINUOUS
10
10.1775
20
-4.6157
11
10.1693
21
-4.6107
0
LINE
8
BLACK
6
CONTINUOUS
10
10.1693
20
-4.6107
11
10.1621
21
-4.60448
0
LINE
8
BLACK
6
CONTINUOUS
10
10.1621
20
-4.60448
11
10.1558
21
-4.5972
0
LINE
8
BLACK
6
CONTINUOUS
10
10.1558
20
-4.5972
11
10.1508
21
-4.58903
0
LINE
8
BLACK
6
CONTINUOUS
10
10.1508
20
-4.58903
11
10.1472
21
-4.58019
0
LINE
8
BLACK
6
CONTINUOUS
10
10.1472
20
-4.58019
11
10.1449
21
-4.57088
0
LINE
8
BLACK
6
CONTINUOUS
10
10.1449
20
-4.57088
11
10.1442
21
-4.56133
0
LINE
8
BLACK
6
CONTINUOUS
10
10.1442
20
-4.56133
11
10.1443
21
-4.55993
0
LINE
8
BLACK
6
CONTINUOUS
10
10.1443
20
-4.55993
11
10.1449
21
-4.55178
0
LINE
8
BLACK
6
CONTINUOUS
10
10.1449
20
-4.55178
11
10.1472
21
-4.54247
0
LINE
8
BLACK
6
CONTINUOUS
10
10.1505
20
-4.57846
11
10.1541
21
-4.58716
0
LINE
8
BLACK
6
CONTINUOUS
10
10.1541
20
-4.58716
11
10.159
21
-4.59516
0
LINE
8
BLACK
6
CONTINUOUS
10
10.159
20
-4.59516
11
10.1651
21
-4.60226
0
LINE
8
BLACK
6
CONTINUOUS
10
10.1651
20
-4.60226
11
10.1723
21
-4.60825
0
LINE
8
BLACK
6
CONTINUOUS
10
10.1723
20
-4.60825
11
10.1805
21
-4.61299
0
LINE
8
BLACK
6
CONTINUOUS
10
10.1805
20
-4.61299
11
10.1892
21
-4.61634
0
LINE
8
BLACK
6
CONTINUOUS
10
10.1892
20
-4.61634
11
10.1984
21
-4.61821
0
LINE
8
BLACK
6
CONTINUOUS
10
10.1984
20
-4.61821
11
10.2078
21
-4.61855
0
LINE
8
BLACK
6
CONTINUOUS
10
10.2078
20
-4.61855
11
10.2171
21
-4.61736
0
LINE
8
BLACK
6
CONTINUOUS
10
10.2171
20
-4.61736
11
10.2261
21
-4.61466
0
LINE
8
BLACK
6
CONTINUOUS
10
10.2261
20
-4.61466
11
10.2345
21
-4.61053
0
LINE
8
BLACK
6
CONTINUOUS
10
10.2345
20
-4.61053
11
10.2422
21
-4.60508
0
LINE
8
BLACK
6
CONTINUOUS
10
10.2422
20
-4.60508
11
10.2488
21
-4.59846
0
LINE
8
BLACK
6
CONTINUOUS
10
10.2488
20
-4.59846
11
10.2543
21
-4.59083
0
LINE
8
BLACK
6
CONTINUOUS
10
10.2543
20
-4.59083
11
10.2585
21
-4.58242
0
LINE
8
BLACK
6
CONTINUOUS
10
10.2585
20
-4.58242
11
10.2612
21
-4.57344
0
LINE
8
BLACK
6
CONTINUOUS
10
10.2612
20
-4.57344
11
10.2624
21
-4.56413
0
LINE
8
BLACK
6
CONTINUOUS
10
10.2624
20
-4.56413
11
10.2625
21
-4.56133
0
LINE
8
BLACK
6
CONTINUOUS
10
10.2625
20
-4.56133
11
10.2617
21
-4.55198
0
LINE
8
BLACK
6
CONTINUOUS
10
10.2617
20
-4.55198
11
10.2594
21
-4.54287
0
LINE
8
BLACK
6
CONTINUOUS
10
10.2594
20
-4.54287
11
10.2557
21
-4.53426
0
LINE
8
BLACK
6
CONTINUOUS
10
10.2557
20
-4.53426
11
10.2506
21
-4.52638
0
LINE
8
BLACK
6
CONTINUOUS
10
10.2506
20
-4.52638
11
10.2443
21
-4.51944
0
LINE
8
BLACK
6
CONTINUOUS
10
10.2443
20
-4.51944
11
10.2369
21
-4.51362
0
LINE
8
BLACK
6
CONTINUOUS
10
10.2369
20
-4.51362
11
10.2287
21
-4.50908
0
LINE
8
BLACK
6
CONTINUOUS
10
10.2287
20
-4.50908
11
10.2198
21
-4.50595
0
LINE
8
BLACK
6
CONTINUOUS
10
10.2198
20
-4.50595
11
10.2106
21
-4.5043
0
LINE
8
BLACK
6
CONTINUOUS
10
10.2106
20
-4.5043
11
10.2012
21
-4.50419
0
LINE
8
BLACK
6
CONTINUOUS
10
10.2012
20
-4.50419
11
10.1919
21
-4.50561
0
LINE
8
BLACK
6
CONTINUOUS
10
10.1919
20
-4.50561
11
10.183
21
-4.50852
0
LINE
8
BLACK
6
CONTINUOUS
10
10.183
20
-4.50852
11
10.1747
21
-4.51286
0
LINE
8
BLACK
6
CONTINUOUS
10
10.1747
20
-4.51286
11
10.1672
21
-4.5185
0
LINE
8
BLACK
6
CONTINUOUS
10
10.1672
20
-4.5185
11
10.1607
21
-4.52528
0
LINE
8
BLACK
6
CONTINUOUS
10
10.1607
20
-4.52528
11
10.1554
21
-4.53304
0
LINE
8
BLACK
6
CONTINUOUS
10
10.1554
20
-4.53304
11
10.1514
21
-4.54155
0
LINE
8
BLACK
6
CONTINUOUS
10
10.1514
20
-4.54155
11
10.1489
21
-4.5506
0
LINE
8
BLACK
6
CONTINUOUS
10
10.1489
20
-4.5506
11
10.1479
21
-4.55993
0
LINE
8
BLACK
6
CONTINUOUS
10
10.1479
20
-4.55993
11
10.1485
21
-4.5693
0
LINE
8
BLACK
6
CONTINUOUS
10
10.1485
20
-4.5693
11
10.1505
21
-4.57846
0
LINE
8
BLACK
6
CONTINUOUS
10
13.3472
20
-4.54247
11
13.3508
21
-4.53363
0
LINE
8
BLACK
6
CONTINUOUS
10
13.3508
20
-4.53363
11
13.3558
21
-4.52546
0
LINE
8
BLACK
6
CONTINUOUS
10
13.3558
20
-4.52546
11
13.3621
21
-4.51818
0
LINE
8
BLACK
6
CONTINUOUS
10
13.3621
20
-4.51818
11
13.3693
21
-4.51196
0
LINE
8
BLACK
6
CONTINUOUS
10
13.3693
20
-4.51196
11
13.3775
21
-4.50696
0
LINE
8
BLACK
6
CONTINUOUS
10
13.3775
20
-4.50696
11
13.3863
21
-4.50329
0
LINE
8
BLACK
6
CONTINUOUS
10
13.3863
20
-4.50329
11
13.3957
21
-4.50106
0
LINE
8
BLACK
6
CONTINUOUS
10
13.3957
20
-4.50106
11
13.4052
21
-4.50031
0
LINE
8
BLACK
6
CONTINUOUS
10
13.4052
20
-4.50031
11
13.4148
21
-4.50106
0
LINE
8
BLACK
6
CONTINUOUS
10
13.4148
20
-4.50106
11
13.4241
21
-4.50329
0
LINE
8
BLACK
6
CONTINUOUS
10
13.4241
20
-4.50329
11
13.4329
21
-4.50696
0
LINE
8
BLACK
6
CONTINUOUS
10
13.4329
20
-4.50696
11
13.4411
21
-4.51196
0
LINE
8
BLACK
6
CONTINUOUS
10
13.4411
20
-4.51196
11
13.4484
21
-4.51818
0
LINE
8
BLACK
6
CONTINUOUS
10
13.4484
20
-4.51818
11
13.4546
21
-4.52546
0
LINE
8
BLACK
6
CONTINUOUS
10
13.4546
20
-4.52546
11
13.4596
21
-4.53363
0
LINE
8
BLACK
6
CONTINUOUS
10
13.4596
20
-4.53363
11
13.4632
21
-4.54247
0
LINE
8
BLACK
6
CONTINUOUS
10
13.4632
20
-4.54247
11
13.4655
21
-4.55178
0
LINE
8
BLACK
6
CONTINUOUS
10
13.4655
20
-4.55178
11
13.4662
21
-4.56133
0
LINE
8
BLACK
6
CONTINUOUS
10
13.4662
20
-4.56133
11
13.4655
21
-4.57088
0
LINE
8
BLACK
6
CONTINUOUS
10
13.4655
20
-4.57088
11
13.4632
21
-4.58019
0
LINE
8
BLACK
6
CONTINUOUS
10
13.4632
20
-4.58019
11
13.4596
21
-4.58903
0
LINE
8
BLACK
6
CONTINUOUS
10
13.4596
20
-4.58903
11
13.4546
21
-4.5972
0
LINE
8
BLACK
6
CONTINUOUS
10
13.4546
20
-4.5972
11
13.4484
21
-4.60448
0
LINE
8
BLACK
6
CONTINUOUS
10
13.4484
20
-4.60448
11
13.4411
21
-4.6107
0
LINE
8
BLACK
6
CONTINUOUS
10
13.4411
20
-4.6107
11
13.4329
21
-4.6157
0
LINE
8
BLACK
6
CONTINUOUS
10
13.4329
20
-4.6157
11
13.4241
21
-4.61937
0
LINE
8
BLACK
6
CONTINUOUS
10
13.4241
20
-4.61937
11
13.4148
21
-4.6216
0
LINE
8
BLACK
6
CONTINUOUS
10
13.4148
20
-4.6216
11
13.4052
21
-4.62235
0
LINE
8
BLACK
6
CONTINUOUS
10
13.4052
20
-4.62235
11
13.3957
21
-4.6216
0
LINE
8
BLACK
6
CONTINUOUS
10
13.3957
20
-4.6216
11
13.3863
21
-4.61937
0
LINE
8
BLACK
6
CONTINUOUS
10
13.3863
20
-4.61937
11
13.3775
21
-4.6157
0
LINE
8
BLACK
6
CONTINUOUS
10
13.3775
20
-4.6157
11
13.3693
21
-4.6107
0
LINE
8
BLACK
6
CONTINUOUS
10
13.3693
20
-4.6107
11
13.3621
21
-4.60448
0
LINE
8
BLACK
6
CONTINUOUS
10
13.3621
20
-4.60448
11
13.3558
21
-4.5972
0
LINE
8
BLACK
6
CONTINUOUS
10
13.3558
20
-4.5972
11
13.3508
21
-4.58903
0
LINE
8
BLACK
6
CONTINUOUS
10
13.3508
20
-4.58903
11
13.3472
21
-4.58019
0
LINE
8
BLACK
6
CONTINUOUS
10
13.3472
20
-4.58019
11
13.3449
21
-4.57088
0
LINE
8
BLACK
6
CONTINUOUS
10
13.3449
20
-4.57088
11
13.3442
21
-4.56133
0
LINE
8
BLACK
6
CONTINUOUS
10
13.3442
20
-4.56133
11
13.3443
21
-4.55993
0
LINE
8
BLACK
6
CONTINUOUS
10
13.3443
20
-4.55993
11
13.3449
21
-4.55178
0
LINE
8
BLACK
6
CONTINUOUS
10
13.3449
20
-4.55178
11
13.3472
21
-4.54247
0
LINE
8
BLACK
6
CONTINUOUS
10
13.3505
20
-4.57846
11
13.3541
21
-4.58716
0
LINE
8
BLACK
6
CONTINUOUS
10
13.3541
20
-4.58716
11
13.359
21
-4.59516
0
LINE
8
BLACK
6
CONTINUOUS
10
13.359
20
-4.59516
11
13.3651
21
-4.60226
0
LINE
8
BLACK
6
CONTINUOUS
10
13.3651
20
-4.60226
11
13.3723
21
-4.60825
0
LINE
8
BLACK
6
CONTINUOUS
10
13.3723
20
-4.60825
11
13.3805
21
-4.61299
0
LINE
8
BLACK
6
CONTINUOUS
10
13.3805
20
-4.61299
11
13.3892
21
-4.61634
0
LINE
8
BLACK
6
CONTINUOUS
10
13.3892
20
-4.61634
11
13.3984
21
-4.61821
0
LINE
8
BLACK
6
CONTINUOUS
10
13.3984
20
-4.61821
11
13.4078
21
-4.61855
0
LINE
8
BLACK
6
CONTINUOUS
10
13.4078
20
-4.61855
11
13.4171
21
-4.61736
0
LINE
8
BLACK
6
CONTINUOUS
10
13.4171
20
-4.61736
11
13.4261
21
-4.61466
0
LINE
8
BLACK
6
CONTINUOUS
10
13.4261
20
-4.61466
11
13.4345
21
-4.61053
0
LINE
8
BLACK
6
CONTINUOUS
10
13.4345
20
-4.61053
11
13.4422
21
-4.60508
0
LINE
8
BLACK
6
CONTINUOUS
10
13.4422
20
-4.60508
11
13.4488
21
-4.59846
0
LINE
8
BLACK
6
CONTINUOUS
10
13.4488
20
-4.59846
11
13.4543
21
-4.59083
0
LINE
8
BLACK
6
CONTINUOUS
10
13.4543
20
-4.59083
11
13.4585
21
-4.58242
0
LINE
8
BLACK
6
CONTINUOUS
10
13.4585
20
-4.58242
11
13.4612
21
-4.57344
0
LINE
8
BLACK
6
CONTINUOUS
10
13.4612
20
-4.57344
11
13.4624
21
-4.56413
0
LINE
8
BLACK
6
CONTINUOUS
10
13.4624
20
-4.56413
11
13.4625
21
-4.56133
0
LINE
8
BLACK
6
CONTINUOUS
10
13.4625
20
-4.56133
11
13.4617
21
-4.55198
0
LINE
8
BLACK
6
CONTINUOUS
10
13.4617
20
-4.55198
11
13.4594
21
-4.54287
0
LINE
8
BLACK
6
CONTINUOUS
10
13.4594
20
-4.54287
11
13.4557
21
-4.53426
0
LINE
8
BLACK
6
CONTINUOUS
10
13.4557
20
-4.53426
11
13.4506
21
-4.52638
0
LINE
8
BLACK
6
CONTINUOUS
10
13.4506
20
-4.52638
11
13.4443
21
-4.51944
0
LINE
8
BLACK
6
CONTINUOUS
10
13.4443
20
-4.51944
11
13.4369
21
-4.51362
0
LINE
8
BLACK
6
CONTINUOUS
10
13.4369
20
-4.51362
11
13.4287
21
-4.50908
0
LINE
8
BLACK
6
CONTINUOUS
10
13.4287
20
-4.50908
11
13.4198
21
-4.50595
0
LINE
8
BLACK
6
CONTINUOUS
10
13.4198
20
-4.50595
11
13.4106
21
-4.5043
0
LINE
8
BLACK
6
CONTINUOUS
10
13.4106
20
-4.5043
11
13.4012
21
-4.50419
0
LINE
8
BLACK
6
CONTINUOUS
10
13.4012
20
-4.50419
11
13.3919
21
-4.50561
0
LINE
8
BLACK
6
CONTINUOUS
10
13.3919
20
-4.50561
11
13.383
21
-4.50852
0
LINE
8
BLACK
6
CONTINUOUS
10
13.383
20
-4.50852
11
13.3747
21
-4.51286
0
LINE
8
BLACK
6
CONTINUOUS
10
13.3747
20
-4.51286
11
13.3672
21
-4.5185
0
LINE
8
BLACK
6
CONTINUOUS
10
13.3672
20
-4.5185
11
13.3607
21
-4.52528
0
LINE
8
BLACK
6
CONTINUOUS
10
13.3607
20
-4.52528
11
13.3554
21
-4.53304
0
LINE
8
BLACK
6
CONTINUOUS
10
13.3554
20
-4.53304
11
13.3514
21
-4.54155
0
LINE
8
BLACK
6
CONTINUOUS
10
13.3514
20
-4.54155
11
13.3489
21
-4.5506
0
LINE
8
BLACK
6
CONTINUOUS
10
13.3489
20
-4.5506
11
13.3479
21
-4.55993
0
LINE
8
BLACK
6
CONTINUOUS
10
13.3479
20
-4.55993
11
13.3485
21
-4.5693
0
LINE
8
BLACK
6
CONTINUOUS
10
13.3485
20
-4.5693
11
13.3505
21
-4.57846
0
LINE
8
BLACK
6
CONTINUOUS
10
7.8637
20
-4.54247
11
7.86737
21
-4.53363
0
LINE
8
BLACK
6
CONTINUOUS
10
7.86737
20
-4.53363
11
7.87237
21
-4.52546
0
LINE
8
BLACK
6
CONTINUOUS
10
7.87237
20
-4.52546
11
7.87859
21
-4.51818
0
LINE
8
BLACK
6
CONTINUOUS
10
7.87859
20
-4.51818
11
7.88587
21
-4.51196
0
LINE
8
BLACK
6
CONTINUOUS
10
7.88587
20
-4.51196
11
7.89404
21
-4.50696
0
LINE
8
BLACK
6
CONTINUOUS
10
7.89404
20
-4.50696
11
7.90288
21
-4.50329
0
LINE
8
BLACK
6
CONTINUOUS
10
7.90288
20
-4.50329
11
7.91219
21
-4.50106
0
LINE
8
BLACK
6
CONTINUOUS
10
7.91219
20
-4.50106
11
7.92174
21
-4.50031
0
LINE
8
BLACK
6
CONTINUOUS
10
7.92174
20
-4.50031
11
7.93129
21
-4.50106
0
LINE
8
BLACK
6
CONTINUOUS
10
7.93129
20
-4.50106
11
7.9406
21
-4.50329
0
LINE
8
BLACK
6
CONTINUOUS
10
7.9406
20
-4.50329
11
7.94944
21
-4.50696
0
LINE
8
BLACK
6
CONTINUOUS
10
7.94944
20
-4.50696
11
7.95761
21
-4.51196
0
LINE
8
BLACK
6
CONTINUOUS
10
7.95761
20
-4.51196
11
7.96489
21
-4.51818
0
LINE
8
BLACK
6
CONTINUOUS
10
7.96489
20
-4.51818
11
7.97111
21
-4.52546
0
LINE
8
BLACK
6
CONTINUOUS
10
7.97111
20
-4.52546
11
7.97611
21
-4.53363
0
LINE
8
BLACK
6
CONTINUOUS
10
7.97611
20
-4.53363
11
7.97978
21
-4.54247
0
LINE
8
BLACK
6
CONTINUOUS
10
7.97978
20
-4.54247
11
7.98201
21
-4.55178
0
LINE
8
BLACK
6
CONTINUOUS
10
7.98201
20
-4.55178
11
7.98276
21
-4.56133
0
LINE
8
BLACK
6
CONTINUOUS
10
7.98276
20
-4.56133
11
7.98201
21
-4.57088
0
LINE
8
BLACK
6
CONTINUOUS
10
7.98201
20
-4.57088
11
7.97978
21
-4.58019
0
LINE
8
BLACK
6
CONTINUOUS
10
7.97978
20
-4.58019
11
7.97611
21
-4.58903
0
LINE
8
BLACK
6
CONTINUOUS
10
7.97611
20
-4.58903
11
7.97111
21
-4.5972
0
LINE
8
BLACK
6
CONTINUOUS
10
7.97111
20
-4.5972
11
7.96489
21
-4.60448
0
LINE
8
BLACK
6
CONTINUOUS
10
7.96489
20
-4.60448
11
7.95761
21
-4.6107
0
LINE
8
BLACK
6
CONTINUOUS
10
7.95761
20
-4.6107
11
7.94944
21
-4.6157
0
LINE
8
BLACK
6
CONTINUOUS
10
7.94944
20
-4.6157
11
7.9406
21
-4.61937
0
LINE
8
BLACK
6
CONTINUOUS
10
7.9406
20
-4.61937
11
7.93129
21
-4.6216
0
LINE
8
BLACK
6
CONTINUOUS
10
7.93129
20
-4.6216
11
7.92174
21
-4.62235
0
LINE
8
BLACK
6
CONTINUOUS
10
7.92174
20
-4.62235
11
7.91219
21
-4.6216
0
LINE
8
BLACK
6
CONTINUOUS
10
7.91219
20
-4.6216
11
7.90288
21
-4.61937
0
LINE
8
BLACK
6
CONTINUOUS
10
7.90288
20
-4.61937
11
7.89404
21
-4.6157
0
LINE
8
BLACK
6
CONTINUOUS
10
7.89404
20
-4.6157
11
7.88587
21
-4.6107
0
LINE
8
BLACK
6
CONTINUOUS
10
7.88587
20
-4.6107
11
7.87859
21
-4.60448
0
LINE
8
BLACK
6
CONTINUOUS
10
7.87859
20
-4.60448
11
7.87237
21
-4.5972
0
LINE
8
BLACK
6
CONTINUOUS
10
7.87237
20
-4.5972
11
7.86737
21
-4.58903
0
LINE
8
BLACK
6
CONTINUOUS
10
7.86737
20
-4.58903
11
7.8637
21
-4.58019
0
LINE
8
BLACK
6
CONTINUOUS
10
7.8637
20
-4.58019
11
7.86147
21
-4.57088
0
LINE
8
BLACK
6
CONTINUOUS
10
7.86147
20
-4.57088
11
7.86072
21
-4.56133
0
LINE
8
BLACK
6
CONTINUOUS
10
7.86072
20
-4.56133
11
7.86083
21
-4.55993
0
LINE
8
BLACK
6
CONTINUOUS
10
7.86083
20
-4.55993
11
7.86147
21
-4.55178
0
LINE
8
BLACK
6
CONTINUOUS
10
7.86147
20
-4.55178
11
7.8637
21
-4.54247
0
LINE
8
BLACK
6
CONTINUOUS
10
7.86708
20
-4.57846
11
7.87061
21
-4.58716
0
LINE
8
BLACK
6
CONTINUOUS
10
7.87061
20
-4.58716
11
7.87552
21
-4.59516
0
LINE
8
BLACK
6
CONTINUOUS
10
7.87552
20
-4.59516
11
7.88166
21
-4.60226
0
LINE
8
BLACK
6
CONTINUOUS
10
7.88166
20
-4.60226
11
7.88888
21
-4.60825
0
LINE
8
BLACK
6
CONTINUOUS
10
7.88888
20
-4.60825
11
7.89699
21
-4.61299
0
LINE
8
BLACK
6
CONTINUOUS
10
7.89699
20
-4.61299
11
7.90576
21
-4.61634
0
LINE
8
BLACK
6
CONTINUOUS
10
7.90576
20
-4.61634
11
7.91496
21
-4.61821
0
LINE
8
BLACK
6
CONTINUOUS
10
7.91496
20
-4.61821
11
7.92434
21
-4.61855
0
LINE
8
BLACK
6
CONTINUOUS
10
7.92434
20
-4.61855
11
7.93365
21
-4.61736
0
LINE
8
BLACK
6
CONTINUOUS
10
7.93365
20
-4.61736
11
7.94264
21
-4.61466
0
LINE
8
BLACK
6
CONTINUOUS
10
7.94264
20
-4.61466
11
7.95107
21
-4.61053
0
LINE
8
BLACK
6
CONTINUOUS
10
7.95107
20
-4.61053
11
7.95871
21
-4.60508
0
LINE
8
BLACK
6
CONTINUOUS
10
7.95871
20
-4.60508
11
7.96536
21
-4.59846
0
LINE
8
BLACK
6
CONTINUOUS
10
7.96536
20
-4.59846
11
7.97084
21
-4.59083
0
LINE
8
BLACK
6
CONTINUOUS
10
7.97084
20
-4.59083
11
7.975
21
-4.58242
0
LINE
8
BLACK
6
CONTINUOUS
10
7.975
20
-4.58242
11
7.97773
21
-4.57344
0
LINE
8
BLACK
6
CONTINUOUS
10
7.97773
20
-4.57344
11
7.97895
21
-4.56413
0
LINE
8
BLACK
6
CONTINUOUS
10
7.97895
20
-4.56413
11
7.97902
21
-4.56133
0
LINE
8
BLACK
6
CONTINUOUS
10
7.97902
20
-4.56133
11
7.97825
21
-4.55198
0
LINE
8
BLACK
6
CONTINUOUS
10
7.97825
20
-4.55198
11
7.97597
21
-4.54287
0
LINE
8
BLACK
6
CONTINUOUS
10
7.97597
20
-4.54287
11
7.97222
21
-4.53426
0
LINE
8
BLACK
6
CONTINUOUS
10
7.97222
20
-4.53426
11
7.96712
21
-4.52638
0
LINE
8
BLACK
6
CONTINUOUS
10
7.96712
20
-4.52638
11
7.96081
21
-4.51944
0
LINE
8
BLACK
6
CONTINUOUS
10
7.96081
20
-4.51944
11
7.95344
21
-4.51362
0
LINE
8
BLACK
6
CONTINUOUS
10
7.95344
20
-4.51362
11
7.94522
21
-4.50908
0
LINE
8
BLACK
6
CONTINUOUS
10
7.94522
20
-4.50908
11
7.93637
21
-4.50595
0
LINE
8
BLACK
6
CONTINUOUS
10
7.93637
20
-4.50595
11
7.92713
21
-4.5043
0
LINE
8
BLACK
6
CONTINUOUS
10
7.92713
20
-4.5043
11
7.91774
21
-4.50419
0
LINE
8
BLACK
6
CONTINUOUS
10
7.91774
20
-4.50419
11
7.90847
21
-4.50561
0
LINE
8
BLACK
6
CONTINUOUS
10
7.90847
20
-4.50561
11
7.89954
21
-4.50852
0
LINE
8
BLACK
6
CONTINUOUS
10
7.89954
20
-4.50852
11
7.89122
21
-4.51286
0
LINE
8
BLACK
6
CONTINUOUS
10
7.89122
20
-4.51286
11
7.88371
21
-4.5185
0
LINE
8
BLACK
6
CONTINUOUS
10
7.88371
20
-4.5185
11
7.87722
21
-4.52528
0
LINE
8
BLACK
6
CONTINUOUS
10
7.87722
20
-4.52528
11
7.87193
21
-4.53304
0
LINE
8
BLACK
6
CONTINUOUS
10
7.87193
20
-4.53304
11
7.86798
21
-4.54155
0
LINE
8
BLACK
6
CONTINUOUS
10
7.86798
20
-4.54155
11
7.86547
21
-4.5506
0
LINE
8
BLACK
6
CONTINUOUS
10
7.86547
20
-4.5506
11
7.86447
21
-4.55993
0
LINE
8
BLACK
6
CONTINUOUS
10
7.86447
20
-4.55993
11
7.86502
21
-4.5693
0
LINE
8
BLACK
6
CONTINUOUS
10
7.86502
20
-4.5693
11
7.86708
21
-4.57846
0
LINE
8
BLACK
6
CONTINUOUS
10
3.87248
20
-4.54208
11
3.87615
21
-4.53323
0
LINE
8
BLACK
6
CONTINUOUS
10
3.87615
20
-4.53323
11
3.88115
21
-4.52507
0
LINE
8
BLACK
6
CONTINUOUS
10
3.88115
20
-4.52507
11
3.88737
21
-4.51779
0
LINE
8
BLACK
6
CONTINUOUS
10
3.88737
20
-4.51779
11
3.89465
21
-4.51157
0
LINE
8
BLACK
6
CONTINUOUS
10
3.89465
20
-4.51157
11
3.90282
21
-4.50656
0
LINE
8
BLACK
6
CONTINUOUS
10
3.90282
20
-4.50656
11
3.91166
21
-4.5029
0
LINE
8
BLACK
6
CONTINUOUS
10
3.91166
20
-4.5029
11
3.92097
21
-4.50066
0
LINE
8
BLACK
6
CONTINUOUS
10
3.92097
20
-4.50066
11
3.93052
21
-4.49991
0
LINE
8
BLACK
6
CONTINUOUS
10
3.93052
20
-4.49991
11
3.94007
21
-4.50066
0
LINE
8
BLACK
6
CONTINUOUS
10
3.94007
20
-4.50066
11
3.94938
21
-4.5029
0
LINE
8
BLACK
6
CONTINUOUS
10
3.94938
20
-4.5029
11
3.95822
21
-4.50656
0
LINE
8
BLACK
6
CONTINUOUS
10
3.95822
20
-4.50656
11
3.96639
21
-4.51157
0
LINE
8
BLACK
6
CONTINUOUS
10
3.96639
20
-4.51157
11
3.97367
21
-4.51779
0
LINE
8
BLACK
6
CONTINUOUS
10
3.97367
20
-4.51779
11
3.97989
21
-4.52507
0
LINE
8
BLACK
6
CONTINUOUS
10
3.97989
20
-4.52507
11
3.98489
21
-4.53323
0
LINE
8
BLACK
6
CONTINUOUS
10
3.98489
20
-4.53323
11
3.98856
21
-4.54208
0
LINE
8
BLACK
6
CONTINUOUS
10
3.98856
20
-4.54208
11
3.99079
21
-4.55139
0
LINE
8
BLACK
6
CONTINUOUS
10
3.99079
20
-4.55139
11
3.99154
21
-4.56094
0
LINE
8
BLACK
6
CONTINUOUS
10
3.99154
20
-4.56094
11
3.99079
21
-4.57048
0
LINE
8
BLACK
6
CONTINUOUS
10
3.99079
20
-4.57048
11
3.98856
21
-4.57979
0
LINE
8
BLACK
6
CONTINUOUS
10
3.98856
20
-4.57979
11
3.98489
21
-4.58864
0
LINE
8
BLACK
6
CONTINUOUS
10
3.98489
20
-4.58864
11
3.97989
21
-4.59681
0
LINE
8
BLACK
6
CONTINUOUS
10
3.97989
20
-4.59681
11
3.97367
21
-4.60409
0
LINE
8
BLACK
6
CONTINUOUS
10
3.97367
20
-4.60409
11
3.96639
21
-4.61031
0
LINE
8
BLACK
6
CONTINUOUS
10
3.96639
20
-4.61031
11
3.95822
21
-4.61531
0
LINE
8
BLACK
6
CONTINUOUS
10
3.95822
20
-4.61531
11
3.94938
21
-4.61897
0
LINE
8
BLACK
6
CONTINUOUS
10
3.94938
20
-4.61897
11
3.94007
21
-4.62121
0
LINE
8
BLACK
6
CONTINUOUS
10
3.94007
20
-4.62121
11
3.93052
21
-4.62196
0
LINE
8
BLACK
6
CONTINUOUS
10
3.93052
20
-4.62196
11
3.92097
21
-4.62121
0
LINE
8
BLACK
6
CONTINUOUS
10
3.92097
20
-4.62121
11
3.91166
21
-4.61897
0
LINE
8
BLACK
6
CONTINUOUS
10
3.91166
20
-4.61897
11
3.90282
21
-4.61531
0
LINE
8
BLACK
6
CONTINUOUS
10
3.90282
20
-4.61531
11
3.89465
21
-4.61031
0
LINE
8
BLACK
6
CONTINUOUS
10
3.89465
20
-4.61031
11
3.88737
21
-4.60409
0
LINE
8
BLACK
6
CONTINUOUS
10
3.88737
20
-4.60409
11
3.88115
21
-4.59681
0
LINE
8
BLACK
6
CONTINUOUS
10
3.88115
20
-4.59681
11
3.87615
21
-4.58864
0
LINE
8
BLACK
6
CONTINUOUS
10
3.87615
20
-4.58864
11
3.87248
21
-4.57979
0
LINE
8
BLACK
6
CONTINUOUS
10
3.87248
20
-4.57979
11
3.87025
21
-4.57048
0
LINE
8
BLACK
6
CONTINUOUS
10
3.87025
20
-4.57048
11
3.8695
21
-4.56094
0
LINE
8
BLACK
6
CONTINUOUS
10
3.8695
20
-4.56094
11
3.86961
21
-4.55954
0
LINE
8
BLACK
6
CONTINUOUS
10
3.86961
20
-4.55954
11
3.87025
21
-4.55139
0
LINE
8
BLACK
6
CONTINUOUS
10
3.87025
20
-4.55139
11
3.87248
21
-4.54208
0
LINE
8
BLACK
6
CONTINUOUS
10
3.87586
20
-4.57807
11
3.87939
21
-4.58676
0
LINE
8
BLACK
6
CONTINUOUS
10
3.87939
20
-4.58676
11
3.8843
21
-4.59477
0
LINE
8
BLACK
6
CONTINUOUS
10
3.8843
20
-4.59477
11
3.89044
21
-4.60186
0
LINE
8
BLACK
6
CONTINUOUS
10
3.89044
20
-4.60186
11
3.89766
21
-4.60786
0
LINE
8
BLACK
6
CONTINUOUS
10
3.89766
20
-4.60786
11
3.90577
21
-4.6126
0
LINE
8
BLACK
6
CONTINUOUS
10
3.90577
20
-4.6126
11
3.91454
21
-4.61594
0
LINE
8
BLACK
6
CONTINUOUS
10
3.91454
20
-4.61594
11
3.92374
21
-4.61782
0
LINE
8
BLACK
6
CONTINUOUS
10
3.92374
20
-4.61782
11
3.93312
21
-4.61816
0
LINE
8
BLACK
6
CONTINUOUS
10
3.93312
20
-4.61816
11
3.94243
21
-4.61697
0
LINE
8
BLACK
6
CONTINUOUS
10
3.94243
20
-4.61697
11
3.95142
21
-4.61427
0
LINE
8
BLACK
6
CONTINUOUS
10
3.95142
20
-4.61427
11
3.95985
21
-4.61014
0
LINE
8
BLACK
6
CONTINUOUS
10
3.95985
20
-4.61014
11
3.96749
21
-4.60469
0
LINE
8
BLACK
6
CONTINUOUS
10
3.96749
20
-4.60469
11
3.97414
21
-4.59806
0
LINE
8
BLACK
6
CONTINUOUS
10
3.97414
20
-4.59806
11
3.97962
21
-4.59044
0
LINE
8
BLACK
6
CONTINUOUS
10
3.97962
20
-4.59044
11
3.98378
21
-4.58202
0
LINE
8
BLACK
6
CONTINUOUS
10
3.98378
20
-4.58202
11
3.98651
21
-4.57304
0
LINE
8
BLACK
6
CONTINUOUS
10
3.98651
20
-4.57304
11
3.98773
21
-4.56374
0
LINE
8
BLACK
6
CONTINUOUS
10
3.98773
20
-4.56374
11
3.9878
21
-4.56094
0
LINE
8
BLACK
6
CONTINUOUS
10
3.9878
20
-4.56094
11
3.98703
21
-4.55158
0
LINE
8
BLACK
6
CONTINUOUS
10
3.98703
20
-4.55158
11
3.98475
21
-4.54248
0
LINE
8
BLACK
6
CONTINUOUS
10
3.98475
20
-4.54248
11
3.981
21
-4.53387
0
LINE
8
BLACK
6
CONTINUOUS
10
3.981
20
-4.53387
11
3.9759
21
-4.52599
0
LINE
8
BLACK
6
CONTINUOUS
10
3.9759
20
-4.52599
11
3.96959
21
-4.51904
0
LINE
8
BLACK
6
CONTINUOUS
10
3.96959
20
-4.51904
11
3.96222
21
-4.51323
0
LINE
8
BLACK
6
CONTINUOUS
10
3.96222
20
-4.51323
11
3.954
21
-4.50869
0
LINE
8
BLACK
6
CONTINUOUS
10
3.954
20
-4.50869
11
3.94515
21
-4.50556
0
LINE
8
BLACK
6
CONTINUOUS
10
3.94515
20
-4.50556
11
3.93591
21
-4.50391
0
LINE
8
BLACK
6
CONTINUOUS
10
3.93591
20
-4.50391
11
3.92652
21
-4.50379
0
LINE
8
BLACK
6
CONTINUOUS
10
3.92652
20
-4.50379
11
3.91724
21
-4.50521
0
LINE
8
BLACK
6
CONTINUOUS
10
3.91724
20
-4.50521
11
3.90832
21
-4.50813
0
LINE
8
BLACK
6
CONTINUOUS
10
3.90832
20
-4.50813
11
3.9
21
-4.51247
0
LINE
8
BLACK
6
CONTINUOUS
10
3.9
20
-4.51247
11
3.89249
21
-4.5181
0
LINE
8
BLACK
6
CONTINUOUS
10
3.89249
20
-4.5181
11
3.886
21
-4.52489
0
LINE
8
BLACK
6
CONTINUOUS
10
3.886
20
-4.52489
11
3.88071
21
-4.53264
0
LINE
8
BLACK
6
CONTINUOUS
10
3.88071
20
-4.53264
11
3.87676
21
-4.54116
0
LINE
8
BLACK
6
CONTINUOUS
10
3.87676
20
-4.54116
11
3.87425
21
-4.5502
0
LINE
8
BLACK
6
CONTINUOUS
10
3.87425
20
-4.5502
11
3.87325
21
-4.55954
0
LINE
8
BLACK
6
CONTINUOUS
10
3.87325
20
-4.55954
11
3.87379
21
-4.56891
0
LINE
8
BLACK
6
CONTINUOUS
10
3.87379
20
-4.56891
11
3.87586
21
-4.57807
  0
ENDSEC
  0
EOF
