  0
SECTION
  2
HEADER
  9
$ANGBASE
  50
0.0
  9
$ANGDIR
  70
1
  9
$MEASUREMENT
  70
0
  0
ENDSEC
  0
SECTION
  2
TABLES
  0
TABLE
  2
LTYPE
  70
4
  0
LTYPE
  5
40F
  2
CONTINUOUS
  70
0
  3
Solid line
  72
65
  73
0
  40
0.0
  0
LTYPE
  5
410
  2
DASHDOT
 70
0
  3
Dash Dot ____ _ ____ _
 72
65
 73
4
 40
2.0
 49
1.25
 49
-0.25
 49
0.25
 49
-0.25
  0
LTYPE
  5
411
  2
DASHED
 70
0
  3
Dashed __ __ __ __ __
 72
65
 73
2
 40
0.75
 49
0.5
 49
-0.25
  0
LTYPE
  5
43B
  2
DOTTED
 70
0
  3
Dotted .  .  .  .
 72
65
 73
2
 40
0.2
 49
0.0
 49
-0.2
  0
ENDTAB
  0
TABLE
  2
STYLE
  70
4
  0
STYLE
  2
KICAD
  70
0
  40
0
  41
1
  42
1
  50
0
  71
0
  3
isocp.shx
  0
STYLE
  2
KICADB
  70
0
  40
0
  41
1
  42
1
  50
0
  71
0
  3
isocp.shx
  0
STYLE
  2
KICADI
  70
0
  40
0
  41
1
  42
1
  50
15
  71
0
  3
isocp.shx
  0
STYLE
  2
KICADBI
  70
0
  40
0
  41
1
  42
1
  50
15
  71
0
  3
isocp.shx
  0
ENDTAB
  0
TABLE
  2
LAYER
  70
1
  0
LAYER
  2
BLACK
  70
0
  62
7
  6
CONTINUOUS
  0
ENDTAB
  0
ENDSEC
  0
SECTION
  2
ENTITIES
0
LINE
8
BLACK
6
CONTINUOUS
10
3.97002
20
-3.56
11
13.7194
21
-3.56
0
LINE
8
BLACK
6
CONTINUOUS
10
13.7194
20
-3.56
11
13.7194
21
-6.31591
0
LINE
8
BLACK
6
CONTINUOUS
10
13.7194
20
-6.31591
11
3.97002
21
-6.31591
0
LINE
8
BLACK
6
CONTINUOUS
10
3.97002
20
-6.31591
11
3.97002
21
-3.56
0
CIRCLE
8
BLACK
10
6.90722
20
-4.03756
40
0.11811
0
CIRCLE
8
BLACK
10
6.10722
20
-4.03756
40
0.11811
0
CIRCLE
8
BLACK
10
5.30722
20
-4.93756
40
0.11811
0
CIRCLE
8
BLACK
10
6.90722
20
-4.93756
40
0.11811
0
CIRCLE
8
BLACK
10
5.30722
20
-5.83756
40
0.11811
0
CIRCLE
8
BLACK
10
5.30722
20
-4.03756
40
0.11811
0
CIRCLE
8
BLACK
10
6.90722
20
-5.83756
40
0.11811
0
CIRCLE
8
BLACK
10
4.50722
20
-5.83756
40
0.11811
0
CIRCLE
8
BLACK
10
6.10722
20
-4.93756
40
0.11811
0
CIRCLE
8
BLACK
10
6.10722
20
-5.83756
40
0.11811
0
CIRCLE
8
BLACK
10
4.50722
20
-4.93756
40
0.11811
0
CIRCLE
8
BLACK
10
4.50722
20
-4.03756
40
0.11811
0
CIRCLE
8
BLACK
10
8.09844
20
-3.6978
40
0.0590551
0
CIRCLE
8
BLACK
10
10.3819
20
-3.6978
40
0.0590551
0
CIRCLE
8
BLACK
10
11.9252
20
-5.83795
40
0.137795
0
LINE
8
BLACK
6
CONTINUOUS
10
11.7786
20
-3.66295
11
12.5286
21
-3.66295
0
LINE
8
BLACK
6
CONTINUOUS
10
12.5286
20
-3.66295
11
12.5286
21
-4.41295
0
LINE
8
BLACK
6
CONTINUOUS
10
12.5286
20
-4.41295
11
11.7786
21
-4.41295
0
LINE
8
BLACK
6
CONTINUOUS
10
11.7786
20
-4.41295
11
11.7786
21
-3.66295
0
CIRCLE
8
BLACK
10
10.3819
20
-6.17811
40
0.0590551
0
CIRCLE
8
BLACK
10
10.8969
20
-4.03795
40
0.137795
0
CIRCLE
8
BLACK
10
7.30691
20
-6.17811
40
0.0590551
0
CIRCLE
8
BLACK
10
4.10722
20
-3.6974
40
0.0590551
0
LINE
8
BLACK
6
CONTINUOUS
10
10.1439
20
-5.80414
11
7.54549
21
-5.80414
0
LINE
8
BLACK
6
CONTINUOUS
10
7.54549
20
-5.80414
11
7.54549
21
-4.50414
0
LINE
8
BLACK
6
CONTINUOUS
10
7.54549
20
-4.50414
11
10.1439
21
-4.50414
0
LINE
8
BLACK
6
CONTINUOUS
10
10.1439
20
-4.50414
11
10.1439
21
-5.80414
0
CIRCLE
8
BLACK
10
12.5536
20
-4.93795
40
0.137795
0
CIRCLE
8
BLACK
10
4.10722
20
-6.17772
40
0.0590551
0
CIRCLE
8
BLACK
10
13.5819
20
-3.6978
40
0.0590551
0
LINE
8
BLACK
6
CONTINUOUS
10
10.5219
20
-5.46295
11
11.2719
21
-5.46295
0
LINE
8
BLACK
6
CONTINUOUS
10
11.2719
20
-5.46295
11
11.2719
21
-6.21295
0
LINE
8
BLACK
6
CONTINUOUS
10
11.2719
20
-6.21295
11
10.5219
21
-6.21295
0
LINE
8
BLACK
6
CONTINUOUS
10
10.5219
20
-6.21295
11
10.5219
21
-5.46295
0
LINE
8
BLACK
6
CONTINUOUS
10
11.1502
20
-4.56295
11
11.9002
21
-4.56295
0
LINE
8
BLACK
6
CONTINUOUS
10
11.9002
20
-4.56295
11
11.9002
21
-5.31295
0
LINE
8
BLACK
6
CONTINUOUS
10
11.9002
20
-5.31295
11
11.1502
21
-5.31295
0
LINE
8
BLACK
6
CONTINUOUS
10
11.1502
20
-5.31295
11
11.1502
21
-4.56295
0
CIRCLE
8
BLACK
10
13.5819
20
-6.17811
40
0.0590551
0
CIRCLE
8
BLACK
10
13.1819
20
-4.03795
40
0.137795
  0
ENDSEC
  0
EOF
