%TF.GenerationSoftware,KiCad,Pcbnew,(6.0.8)*%
%TF.CreationDate,2022-10-17T00:13:45-07:00*%
%TF.ProjectId,norns-deck-210330,6e6f726e-732d-4646-9563-6b2d32313033,rev?*%
%TF.SameCoordinates,Original*%
%TF.FileFunction,Drillmap*%
%TF.FilePolarity,Positive*%
%FSLAX45Y45*%
G04 Gerber Fmt 4.5, Leading zero omitted, Abs format (unit mm)*
G04 Created by KiCad (PCBNEW (6.0.8)) date 2022-10-17 00:13:45*
%MOMM*%
%LPD*%
G01*
G04 APERTURE LIST*
%ADD10C,0.150000*%
%ADD11C,0.200000*%
%ADD12C,0.025400*%
%ADD13C,0.038100*%
%ADD14C,0.050000*%
%ADD15C,0.075000*%
%ADD16C,0.076200*%
%ADD17C,0.100000*%
%ADD18C,0.110000*%
%ADD19C,0.120000*%
%ADD20C,0.180000*%
G04 APERTURE END LIST*
D10*
X9381020Y-17515780D02*
G75*
G03*
X9635020Y-17515780I127000J0D01*
G01*
X4874020Y-18235780D02*
X9127020Y-18235780D01*
X9635020Y-17981780D02*
G75*
G03*
X9381020Y-17981780I-127000J0D01*
G01*
X9381020Y-11489780D02*
G75*
G03*
X9127020Y-11235780I-254000J0D01*
G01*
X4874020Y-11235780D02*
X9127020Y-11235780D01*
X34144420Y-11235780D02*
X9889020Y-11235780D01*
X4620020Y-17981780D02*
G75*
G03*
X4874020Y-18235780I254000J0D01*
G01*
X9635020Y-17981780D02*
G75*
G03*
X9889020Y-18235780I254000J0D01*
G01*
X9635020Y-11955780D02*
X9635020Y-17515780D01*
X9381020Y-17515780D02*
X9381020Y-11955780D01*
X9127020Y-18235780D02*
G75*
G03*
X9381020Y-17981780I0J254000D01*
G01*
X34144420Y-18235780D02*
G75*
G03*
X34398420Y-17981780I0J254000D01*
G01*
X9889020Y-18235780D02*
X34144420Y-18235780D01*
X34398420Y-17981780D02*
X34398420Y-11489780D01*
X34398420Y-11489780D02*
G75*
G03*
X34144420Y-11235780I-254000J0D01*
G01*
X4874020Y-11235780D02*
G75*
G03*
X4620020Y-11489780I0J-254000D01*
G01*
X4620020Y-11489780D02*
X4620020Y-17981780D01*
X9381020Y-11489780D02*
G75*
G03*
X9635020Y-11489780I127000J0D01*
G01*
X9889020Y-11235780D02*
G75*
G03*
X9635020Y-11489780I0J-254000D01*
G01*
X9635020Y-11955780D02*
G75*
G03*
X9381020Y-11955780I-127000J0D01*
G01*
D11*
D12*
X20163280Y-16795840D02*
X20188680Y-16821240D01*
X20188680Y-16795840D02*
X20163280Y-16821240D01*
X20543520Y-13191580D02*
X20568920Y-13216980D01*
X20568920Y-13191580D02*
X20543520Y-13216980D01*
X20734020Y-15096580D02*
X20759420Y-15121980D01*
X20759420Y-15096580D02*
X20734020Y-15121980D01*
X20861020Y-15223580D02*
X20886420Y-15248980D01*
X20886420Y-15223580D02*
X20861020Y-15248980D01*
X20924520Y-15350580D02*
X20949920Y-15375980D01*
X20949920Y-15350580D02*
X20924520Y-15375980D01*
X20924520Y-15668080D02*
X20949920Y-15693480D01*
X20949920Y-15668080D02*
X20924520Y-15693480D01*
X21115020Y-17115880D02*
X21140420Y-17141280D01*
X21140420Y-17115880D02*
X21115020Y-17141280D01*
X21146770Y-15541080D02*
X21172170Y-15566480D01*
X21172170Y-15541080D02*
X21146770Y-15566480D01*
X21305520Y-13191580D02*
X21330920Y-13216980D01*
X21330920Y-13191580D02*
X21305520Y-13216980D01*
X21369020Y-15668080D02*
X21394420Y-15693480D01*
X21394420Y-15668080D02*
X21369020Y-15693480D01*
X21559520Y-16811080D02*
X21584920Y-16836480D01*
X21584920Y-16811080D02*
X21559520Y-16836480D01*
X21623020Y-14398080D02*
X21648420Y-14423480D01*
X21648420Y-14398080D02*
X21623020Y-14423480D01*
X21686520Y-15414080D02*
X21711920Y-15439480D01*
X21711920Y-15414080D02*
X21686520Y-15439480D01*
X21686520Y-15668080D02*
X21711920Y-15693480D01*
X21711920Y-15668080D02*
X21686520Y-15693480D01*
X21813520Y-13223330D02*
X21838920Y-13248730D01*
X21838920Y-13223330D02*
X21813520Y-13248730D01*
X21813520Y-16811080D02*
X21838920Y-16836480D01*
X21838920Y-16811080D02*
X21813520Y-16836480D01*
X21940520Y-15541080D02*
X21965920Y-15566480D01*
X21965920Y-15541080D02*
X21940520Y-15566480D01*
X21940520Y-16938080D02*
X21965920Y-16963480D01*
X21965920Y-16938080D02*
X21940520Y-16963480D01*
X22321520Y-15795080D02*
X22346920Y-15820480D01*
X22346920Y-15795080D02*
X22321520Y-15820480D01*
X22575520Y-13223330D02*
X22600920Y-13248730D01*
X22600920Y-13223330D02*
X22575520Y-13248730D01*
X24227280Y-16869500D02*
X24252680Y-16894900D01*
X24252680Y-16869500D02*
X24227280Y-16894900D01*
X24339040Y-16778060D02*
X24364440Y-16803460D01*
X24364440Y-16778060D02*
X24339040Y-16803460D01*
X25410920Y-17189540D02*
X25436320Y-17214940D01*
X25436320Y-17189540D02*
X25410920Y-17214940D01*
X25827480Y-14758760D02*
X25852880Y-14784160D01*
X25852880Y-14758760D02*
X25827480Y-14784160D01*
X25865580Y-16938080D02*
X25890980Y-16963480D01*
X25890980Y-16938080D02*
X25865580Y-16963480D01*
X25865580Y-17110800D02*
X25890980Y-17136200D01*
X25890980Y-17110800D02*
X25865580Y-17136200D01*
X25903680Y-14829880D02*
X25929080Y-14855280D01*
X25929080Y-14829880D02*
X25903680Y-14855280D01*
X25977340Y-17024440D02*
X26002740Y-17049840D01*
X26002740Y-17024440D02*
X25977340Y-17049840D01*
X25996900Y-15989300D02*
X26022300Y-16014700D01*
X26022300Y-15989300D02*
X25996900Y-16014700D01*
X26085520Y-13372080D02*
X26110920Y-13397480D01*
X26110920Y-13372080D02*
X26085520Y-13397480D01*
X26098500Y-16090900D02*
X26123900Y-16116300D01*
X26123900Y-16090900D02*
X26098500Y-16116300D01*
X26200100Y-16192500D02*
X26225500Y-16217900D01*
X26225500Y-16192500D02*
X26200100Y-16217900D01*
X27038020Y-13372080D02*
X27063420Y-13397480D01*
X27063420Y-13372080D02*
X27038020Y-13397480D01*
X28538920Y-17444080D02*
X28564320Y-17469480D01*
X28564320Y-17444080D02*
X28538920Y-17469480D01*
X29491420Y-17444080D02*
X29516820Y-17469480D01*
X29516820Y-17444080D02*
X29491420Y-17469480D01*
X30091020Y-15158080D02*
X30116420Y-15183480D01*
X30116420Y-15158080D02*
X30091020Y-15183480D01*
X31043520Y-15158080D02*
X31068920Y-15183480D01*
X31068920Y-15158080D02*
X31043520Y-15183480D01*
X31687020Y-12872080D02*
X31712420Y-12897480D01*
X31712420Y-12872080D02*
X31687020Y-12897480D01*
X32639520Y-12872080D02*
X32664920Y-12897480D01*
X32664920Y-12872080D02*
X32639520Y-12897480D01*
D13*
X20130770Y-14093280D02*
G75*
G03*
X20130770Y-14093280I-19050J0D01*
G01*
X20321270Y-13775780D02*
G75*
G03*
X20321270Y-13775780I-19050J0D01*
G01*
X20638770Y-14410780D02*
G75*
G03*
X20638770Y-14410780I-19050J0D01*
G01*
X20670520Y-12791530D02*
G75*
G03*
X20670520Y-12791530I-19050J0D01*
G01*
X20829270Y-14474280D02*
G75*
G03*
X20829270Y-14474280I-19050J0D01*
G01*
X20956270Y-13394780D02*
G75*
G03*
X20956270Y-13394780I-19050J0D01*
G01*
X21083270Y-12791530D02*
G75*
G03*
X21083270Y-12791530I-19050J0D01*
G01*
X21146770Y-14188530D02*
G75*
G03*
X21146770Y-14188530I-19050J0D01*
G01*
X21273770Y-13585280D02*
G75*
G03*
X21273770Y-13585280I-19050J0D01*
G01*
X21466270Y-15141030D02*
G75*
G03*
X21466270Y-15141030I-19050J0D01*
G01*
X21654770Y-13013780D02*
G75*
G03*
X21654770Y-13013780I-19050J0D01*
G01*
X21654770Y-13648780D02*
G75*
G03*
X21654770Y-13648780I-19050J0D01*
G01*
X21845270Y-14442530D02*
G75*
G03*
X21845270Y-14442530I-19050J0D01*
G01*
X22797770Y-13013780D02*
G75*
G03*
X22797770Y-13013780I-19050J0D01*
G01*
D14*
X22302470Y-14195280D02*
X22302470Y-14245280D01*
X22277470Y-14220280D02*
X22327470Y-14220280D01*
X22429470Y-13687280D02*
X22429470Y-13737280D01*
X22404470Y-13712280D02*
X22454470Y-13712280D01*
X22810470Y-13687280D02*
X22810470Y-13737280D01*
X22785470Y-13712280D02*
X22835470Y-13712280D01*
X22905720Y-14163530D02*
X22905720Y-14213530D01*
X22880720Y-14188530D02*
X22930720Y-14188530D01*
D15*
X8493137Y-14480137D02*
X8493137Y-14427103D01*
X8440103Y-14427103D01*
X8440103Y-14480137D01*
X8493137Y-14480137D01*
X8493137Y-14680137D02*
X8493137Y-14627103D01*
X8440103Y-14627103D01*
X8440103Y-14680137D01*
X8493137Y-14680137D01*
X8493137Y-14880137D02*
X8493137Y-14827103D01*
X8440103Y-14827103D01*
X8440103Y-14880137D01*
X8493137Y-14880137D01*
X8493137Y-15080137D02*
X8493137Y-15027103D01*
X8440103Y-15027103D01*
X8440103Y-15080137D01*
X8493137Y-15080137D01*
X8493137Y-15750137D02*
X8493137Y-15697103D01*
X8440103Y-15697103D01*
X8440103Y-15750137D01*
X8493137Y-15750137D01*
X8493137Y-15950137D02*
X8493137Y-15897103D01*
X8440103Y-15897103D01*
X8440103Y-15950137D01*
X8493137Y-15950137D01*
X8493137Y-16150137D02*
X8493137Y-16097103D01*
X8440103Y-16097103D01*
X8440103Y-16150137D01*
X8493137Y-16150137D01*
X8493137Y-16350137D02*
X8493137Y-16297103D01*
X8440103Y-16297103D01*
X8440103Y-16350137D01*
X8493137Y-16350137D01*
X8493137Y-17020137D02*
X8493137Y-16967103D01*
X8440103Y-16967103D01*
X8440103Y-17020137D01*
X8493137Y-17020137D01*
X8493137Y-17220137D02*
X8493137Y-17167103D01*
X8440103Y-17167103D01*
X8440103Y-17220137D01*
X8493137Y-17220137D01*
D16*
X5610620Y-15153880D02*
X5648720Y-15115780D01*
X5610620Y-15077680D01*
X5572520Y-15115780D01*
X5610620Y-15153880D01*
X5610620Y-15407880D02*
X5648720Y-15369780D01*
X5610620Y-15331680D01*
X5572520Y-15369780D01*
X5610620Y-15407880D01*
X5610620Y-15661880D02*
X5648720Y-15623780D01*
X5610620Y-15585680D01*
X5572520Y-15623780D01*
X5610620Y-15661880D01*
X5610620Y-15915880D02*
X5648720Y-15877780D01*
X5610620Y-15839680D01*
X5572520Y-15877780D01*
X5610620Y-15915880D01*
X5610620Y-16169880D02*
X5648720Y-16131780D01*
X5610620Y-16093680D01*
X5572520Y-16131780D01*
X5610620Y-16169880D01*
X5610620Y-16423880D02*
X5648720Y-16385780D01*
X5610620Y-16347680D01*
X5572520Y-16385780D01*
X5610620Y-16423880D01*
X5610620Y-16677880D02*
X5648720Y-16639780D01*
X5610620Y-16601680D01*
X5572520Y-16639780D01*
X5610620Y-16677880D01*
X6276100Y-14584920D02*
X6314200Y-14546820D01*
X6276100Y-14508720D01*
X6238000Y-14546820D01*
X6276100Y-14584920D01*
X6530100Y-14584920D02*
X6568200Y-14546820D01*
X6530100Y-14508720D01*
X6492000Y-14546820D01*
X6530100Y-14584920D01*
X6784100Y-14584920D02*
X6822200Y-14546820D01*
X6784100Y-14508720D01*
X6746000Y-14546820D01*
X6784100Y-14584920D01*
X7038100Y-14584920D02*
X7076200Y-14546820D01*
X7038100Y-14508720D01*
X7000000Y-14546820D01*
X7038100Y-14584920D01*
X7292100Y-14584920D02*
X7330200Y-14546820D01*
X7292100Y-14508720D01*
X7254000Y-14546820D01*
X7292100Y-14584920D01*
X7927100Y-15143720D02*
X7965200Y-15105620D01*
X7927100Y-15067520D01*
X7889000Y-15105620D01*
X7927100Y-15143720D01*
X7927100Y-15397720D02*
X7965200Y-15359620D01*
X7927100Y-15321520D01*
X7889000Y-15359620D01*
X7927100Y-15397720D01*
X7927100Y-16972520D02*
X7965200Y-16934420D01*
X7927100Y-16896320D01*
X7889000Y-16934420D01*
X7927100Y-16972520D01*
X7927100Y-17226520D02*
X7965200Y-17188420D01*
X7927100Y-17150320D01*
X7889000Y-17188420D01*
X7927100Y-17226520D01*
X23719280Y-14758080D02*
X23757380Y-14719980D01*
X23719280Y-14681880D01*
X23681180Y-14719980D01*
X23719280Y-14758080D01*
X23973280Y-14758080D02*
X24011380Y-14719980D01*
X23973280Y-14681880D01*
X23935180Y-14719980D01*
X23973280Y-14758080D01*
X24227280Y-14758080D02*
X24265380Y-14719980D01*
X24227280Y-14681880D01*
X24189180Y-14719980D01*
X24227280Y-14758080D01*
X24481280Y-14758080D02*
X24519380Y-14719980D01*
X24481280Y-14681880D01*
X24443180Y-14719980D01*
X24481280Y-14758080D01*
X24735280Y-14758080D02*
X24773380Y-14719980D01*
X24735280Y-14681880D01*
X24697180Y-14719980D01*
X24735280Y-14758080D01*
X24989280Y-14758080D02*
X25027380Y-14719980D01*
X24989280Y-14681880D01*
X24951180Y-14719980D01*
X24989280Y-14758080D01*
D17*
X4982020Y-12525780D02*
X5082020Y-12625780D01*
X5082020Y-12525780D02*
X4982020Y-12625780D01*
X5082020Y-12575780D02*
G75*
G03*
X5082020Y-12575780I-50000J0D01*
G01*
X4982020Y-12779780D02*
X5082020Y-12879780D01*
X5082020Y-12779780D02*
X4982020Y-12879780D01*
X5082020Y-12829780D02*
G75*
G03*
X5082020Y-12829780I-50000J0D01*
G01*
X4982020Y-13033780D02*
X5082020Y-13133780D01*
X5082020Y-13033780D02*
X4982020Y-13133780D01*
X5082020Y-13083780D02*
G75*
G03*
X5082020Y-13083780I-50000J0D01*
G01*
X4982020Y-13287780D02*
X5082020Y-13387780D01*
X5082020Y-13287780D02*
X4982020Y-13387780D01*
X5082020Y-13337780D02*
G75*
G03*
X5082020Y-13337780I-50000J0D01*
G01*
X4982020Y-13541780D02*
X5082020Y-13641780D01*
X5082020Y-13541780D02*
X4982020Y-13641780D01*
X5082020Y-13591780D02*
G75*
G03*
X5082020Y-13591780I-50000J0D01*
G01*
X4982020Y-13795780D02*
X5082020Y-13895780D01*
X5082020Y-13795780D02*
X4982020Y-13895780D01*
X5082020Y-13845780D02*
G75*
G03*
X5082020Y-13845780I-50000J0D01*
G01*
X4982020Y-14049780D02*
X5082020Y-14149780D01*
X5082020Y-14049780D02*
X4982020Y-14149780D01*
X5082020Y-14099780D02*
G75*
G03*
X5082020Y-14099780I-50000J0D01*
G01*
X4982020Y-14303780D02*
X5082020Y-14403780D01*
X5082020Y-14303780D02*
X4982020Y-14403780D01*
X5082020Y-14353780D02*
G75*
G03*
X5082020Y-14353780I-50000J0D01*
G01*
X4982020Y-14557780D02*
X5082020Y-14657780D01*
X5082020Y-14557780D02*
X4982020Y-14657780D01*
X5082020Y-14607780D02*
G75*
G03*
X5082020Y-14607780I-50000J0D01*
G01*
X4982020Y-14811780D02*
X5082020Y-14911780D01*
X5082020Y-14811780D02*
X4982020Y-14911780D01*
X5082020Y-14861780D02*
G75*
G03*
X5082020Y-14861780I-50000J0D01*
G01*
X4982020Y-15065780D02*
X5082020Y-15165780D01*
X5082020Y-15065780D02*
X4982020Y-15165780D01*
X5082020Y-15115780D02*
G75*
G03*
X5082020Y-15115780I-50000J0D01*
G01*
X4982020Y-15319780D02*
X5082020Y-15419780D01*
X5082020Y-15319780D02*
X4982020Y-15419780D01*
X5082020Y-15369780D02*
G75*
G03*
X5082020Y-15369780I-50000J0D01*
G01*
X4982020Y-15573780D02*
X5082020Y-15673780D01*
X5082020Y-15573780D02*
X4982020Y-15673780D01*
X5082020Y-15623780D02*
G75*
G03*
X5082020Y-15623780I-50000J0D01*
G01*
X4982020Y-15827780D02*
X5082020Y-15927780D01*
X5082020Y-15827780D02*
X4982020Y-15927780D01*
X5082020Y-15877780D02*
G75*
G03*
X5082020Y-15877780I-50000J0D01*
G01*
X4982020Y-16081780D02*
X5082020Y-16181780D01*
X5082020Y-16081780D02*
X4982020Y-16181780D01*
X5082020Y-16131780D02*
G75*
G03*
X5082020Y-16131780I-50000J0D01*
G01*
X4982020Y-16335780D02*
X5082020Y-16435780D01*
X5082020Y-16335780D02*
X4982020Y-16435780D01*
X5082020Y-16385780D02*
G75*
G03*
X5082020Y-16385780I-50000J0D01*
G01*
X4982020Y-16589780D02*
X5082020Y-16689780D01*
X5082020Y-16589780D02*
X4982020Y-16689780D01*
X5082020Y-16639780D02*
G75*
G03*
X5082020Y-16639780I-50000J0D01*
G01*
X4982020Y-16843780D02*
X5082020Y-16943780D01*
X5082020Y-16843780D02*
X4982020Y-16943780D01*
X5082020Y-16893780D02*
G75*
G03*
X5082020Y-16893780I-50000J0D01*
G01*
X9997020Y-12525780D02*
X10097020Y-12625780D01*
X10097020Y-12525780D02*
X9997020Y-12625780D01*
X10097020Y-12575780D02*
G75*
G03*
X10097020Y-12575780I-50000J0D01*
G01*
X9997020Y-12779780D02*
X10097020Y-12879780D01*
X10097020Y-12779780D02*
X9997020Y-12879780D01*
X10097020Y-12829780D02*
G75*
G03*
X10097020Y-12829780I-50000J0D01*
G01*
X9997020Y-13033780D02*
X10097020Y-13133780D01*
X10097020Y-13033780D02*
X9997020Y-13133780D01*
X10097020Y-13083780D02*
G75*
G03*
X10097020Y-13083780I-50000J0D01*
G01*
X9997020Y-13287780D02*
X10097020Y-13387780D01*
X10097020Y-13287780D02*
X9997020Y-13387780D01*
X10097020Y-13337780D02*
G75*
G03*
X10097020Y-13337780I-50000J0D01*
G01*
X9997020Y-13541780D02*
X10097020Y-13641780D01*
X10097020Y-13541780D02*
X9997020Y-13641780D01*
X10097020Y-13591780D02*
G75*
G03*
X10097020Y-13591780I-50000J0D01*
G01*
X9997020Y-13795780D02*
X10097020Y-13895780D01*
X10097020Y-13795780D02*
X9997020Y-13895780D01*
X10097020Y-13845780D02*
G75*
G03*
X10097020Y-13845780I-50000J0D01*
G01*
X9997020Y-14049780D02*
X10097020Y-14149780D01*
X10097020Y-14049780D02*
X9997020Y-14149780D01*
X10097020Y-14099780D02*
G75*
G03*
X10097020Y-14099780I-50000J0D01*
G01*
X9997020Y-14303780D02*
X10097020Y-14403780D01*
X10097020Y-14303780D02*
X9997020Y-14403780D01*
X10097020Y-14353780D02*
G75*
G03*
X10097020Y-14353780I-50000J0D01*
G01*
X9997020Y-14557780D02*
X10097020Y-14657780D01*
X10097020Y-14557780D02*
X9997020Y-14657780D01*
X10097020Y-14607780D02*
G75*
G03*
X10097020Y-14607780I-50000J0D01*
G01*
X9997020Y-14811780D02*
X10097020Y-14911780D01*
X10097020Y-14811780D02*
X9997020Y-14911780D01*
X10097020Y-14861780D02*
G75*
G03*
X10097020Y-14861780I-50000J0D01*
G01*
X9997020Y-15065780D02*
X10097020Y-15165780D01*
X10097020Y-15065780D02*
X9997020Y-15165780D01*
X10097020Y-15115780D02*
G75*
G03*
X10097020Y-15115780I-50000J0D01*
G01*
X9997020Y-15319780D02*
X10097020Y-15419780D01*
X10097020Y-15319780D02*
X9997020Y-15419780D01*
X10097020Y-15369780D02*
G75*
G03*
X10097020Y-15369780I-50000J0D01*
G01*
X9997020Y-15573780D02*
X10097020Y-15673780D01*
X10097020Y-15573780D02*
X9997020Y-15673780D01*
X10097020Y-15623780D02*
G75*
G03*
X10097020Y-15623780I-50000J0D01*
G01*
X9997020Y-15827780D02*
X10097020Y-15927780D01*
X10097020Y-15827780D02*
X9997020Y-15927780D01*
X10097020Y-15877780D02*
G75*
G03*
X10097020Y-15877780I-50000J0D01*
G01*
X9997020Y-16081780D02*
X10097020Y-16181780D01*
X10097020Y-16081780D02*
X9997020Y-16181780D01*
X10097020Y-16131780D02*
G75*
G03*
X10097020Y-16131780I-50000J0D01*
G01*
X9997020Y-16335780D02*
X10097020Y-16435780D01*
X10097020Y-16335780D02*
X9997020Y-16435780D01*
X10097020Y-16385780D02*
G75*
G03*
X10097020Y-16385780I-50000J0D01*
G01*
X9997020Y-16589780D02*
X10097020Y-16689780D01*
X10097020Y-16589780D02*
X9997020Y-16689780D01*
X10097020Y-16639780D02*
G75*
G03*
X10097020Y-16639780I-50000J0D01*
G01*
X9997020Y-16843780D02*
X10097020Y-16943780D01*
X10097020Y-16843780D02*
X9997020Y-16943780D01*
X10097020Y-16893780D02*
G75*
G03*
X10097020Y-16893780I-50000J0D01*
G01*
X10699520Y-13148780D02*
X10799520Y-13248780D01*
X10799520Y-13148780D02*
X10699520Y-13248780D01*
X10799520Y-13198780D02*
G75*
G03*
X10799520Y-13198780I-50000J0D01*
G01*
X10699520Y-15434780D02*
X10799520Y-15534780D01*
X10799520Y-15434780D02*
X10699520Y-15534780D01*
X10799520Y-15484780D02*
G75*
G03*
X10799520Y-15484780I-50000J0D01*
G01*
X10699520Y-17720780D02*
X10799520Y-17820780D01*
X10799520Y-17720780D02*
X10699520Y-17820780D01*
X10799520Y-17770780D02*
G75*
G03*
X10799520Y-17770780I-50000J0D01*
G01*
X10949520Y-13148780D02*
X11049520Y-13248780D01*
X11049520Y-13148780D02*
X10949520Y-13248780D01*
X11049520Y-13198780D02*
G75*
G03*
X11049520Y-13198780I-50000J0D01*
G01*
X10949520Y-15434780D02*
X11049520Y-15534780D01*
X11049520Y-15434780D02*
X10949520Y-15534780D01*
X11049520Y-15484780D02*
G75*
G03*
X11049520Y-15484780I-50000J0D01*
G01*
X10949520Y-17720780D02*
X11049520Y-17820780D01*
X11049520Y-17720780D02*
X10949520Y-17820780D01*
X11049520Y-17770780D02*
G75*
G03*
X11049520Y-17770780I-50000J0D01*
G01*
X11199520Y-13148780D02*
X11299520Y-13248780D01*
X11299520Y-13148780D02*
X11199520Y-13248780D01*
X11299520Y-13198780D02*
G75*
G03*
X11299520Y-13198780I-50000J0D01*
G01*
X11199520Y-15434780D02*
X11299520Y-15534780D01*
X11299520Y-15434780D02*
X11199520Y-15534780D01*
X11299520Y-15484780D02*
G75*
G03*
X11299520Y-15484780I-50000J0D01*
G01*
X11199520Y-17720780D02*
X11299520Y-17820780D01*
X11299520Y-17720780D02*
X11199520Y-17820780D01*
X11299520Y-17770780D02*
G75*
G03*
X11299520Y-17770780I-50000J0D01*
G01*
X12731520Y-13148780D02*
X12831520Y-13248780D01*
X12831520Y-13148780D02*
X12731520Y-13248780D01*
X12831520Y-13198780D02*
G75*
G03*
X12831520Y-13198780I-50000J0D01*
G01*
X12731520Y-15434780D02*
X12831520Y-15534780D01*
X12831520Y-15434780D02*
X12731520Y-15534780D01*
X12831520Y-15484780D02*
G75*
G03*
X12831520Y-15484780I-50000J0D01*
G01*
X12731520Y-17720780D02*
X12831520Y-17820780D01*
X12831520Y-17720780D02*
X12731520Y-17820780D01*
X12831520Y-17770780D02*
G75*
G03*
X12831520Y-17770780I-50000J0D01*
G01*
X12981520Y-13148780D02*
X13081520Y-13248780D01*
X13081520Y-13148780D02*
X12981520Y-13248780D01*
X13081520Y-13198780D02*
G75*
G03*
X13081520Y-13198780I-50000J0D01*
G01*
X12981520Y-15434780D02*
X13081520Y-15534780D01*
X13081520Y-15434780D02*
X12981520Y-15534780D01*
X13081520Y-15484780D02*
G75*
G03*
X13081520Y-15484780I-50000J0D01*
G01*
X12981520Y-17720780D02*
X13081520Y-17820780D01*
X13081520Y-17720780D02*
X12981520Y-17820780D01*
X13081520Y-17770780D02*
G75*
G03*
X13081520Y-17770780I-50000J0D01*
G01*
X13231520Y-13148780D02*
X13331520Y-13248780D01*
X13331520Y-13148780D02*
X13231520Y-13248780D01*
X13331520Y-13198780D02*
G75*
G03*
X13331520Y-13198780I-50000J0D01*
G01*
X13231520Y-15434780D02*
X13331520Y-15534780D01*
X13331520Y-15434780D02*
X13231520Y-15534780D01*
X13331520Y-15484780D02*
G75*
G03*
X13331520Y-15484780I-50000J0D01*
G01*
X13231520Y-17720780D02*
X13331520Y-17820780D01*
X13331520Y-17720780D02*
X13231520Y-17820780D01*
X13331520Y-17770780D02*
G75*
G03*
X13331520Y-17770780I-50000J0D01*
G01*
X14763520Y-13148780D02*
X14863520Y-13248780D01*
X14863520Y-13148780D02*
X14763520Y-13248780D01*
X14863520Y-13198780D02*
G75*
G03*
X14863520Y-13198780I-50000J0D01*
G01*
X14763520Y-15434780D02*
X14863520Y-15534780D01*
X14863520Y-15434780D02*
X14763520Y-15534780D01*
X14863520Y-15484780D02*
G75*
G03*
X14863520Y-15484780I-50000J0D01*
G01*
X14763520Y-17720780D02*
X14863520Y-17820780D01*
X14863520Y-17720780D02*
X14763520Y-17820780D01*
X14863520Y-17770780D02*
G75*
G03*
X14863520Y-17770780I-50000J0D01*
G01*
X15013520Y-13148780D02*
X15113520Y-13248780D01*
X15113520Y-13148780D02*
X15013520Y-13248780D01*
X15113520Y-13198780D02*
G75*
G03*
X15113520Y-13198780I-50000J0D01*
G01*
X15013520Y-15434780D02*
X15113520Y-15534780D01*
X15113520Y-15434780D02*
X15013520Y-15534780D01*
X15113520Y-15484780D02*
G75*
G03*
X15113520Y-15484780I-50000J0D01*
G01*
X15013520Y-17720780D02*
X15113520Y-17820780D01*
X15113520Y-17720780D02*
X15013520Y-17820780D01*
X15113520Y-17770780D02*
G75*
G03*
X15113520Y-17770780I-50000J0D01*
G01*
X15263520Y-13148780D02*
X15363520Y-13248780D01*
X15363520Y-13148780D02*
X15263520Y-13248780D01*
X15363520Y-13198780D02*
G75*
G03*
X15363520Y-13198780I-50000J0D01*
G01*
X15263520Y-15434780D02*
X15363520Y-15534780D01*
X15363520Y-15434780D02*
X15263520Y-15534780D01*
X15363520Y-15484780D02*
G75*
G03*
X15363520Y-15484780I-50000J0D01*
G01*
X15263520Y-17720780D02*
X15363520Y-17820780D01*
X15363520Y-17720780D02*
X15263520Y-17820780D01*
X15363520Y-17770780D02*
G75*
G03*
X15363520Y-17770780I-50000J0D01*
G01*
X16795520Y-13148780D02*
X16895520Y-13248780D01*
X16895520Y-13148780D02*
X16795520Y-13248780D01*
X16895520Y-13198780D02*
G75*
G03*
X16895520Y-13198780I-50000J0D01*
G01*
X16795520Y-15434780D02*
X16895520Y-15534780D01*
X16895520Y-15434780D02*
X16795520Y-15534780D01*
X16895520Y-15484780D02*
G75*
G03*
X16895520Y-15484780I-50000J0D01*
G01*
X16795520Y-17720780D02*
X16895520Y-17820780D01*
X16895520Y-17720780D02*
X16795520Y-17820780D01*
X16895520Y-17770780D02*
G75*
G03*
X16895520Y-17770780I-50000J0D01*
G01*
X17045520Y-13148780D02*
X17145520Y-13248780D01*
X17145520Y-13148780D02*
X17045520Y-13248780D01*
X17145520Y-13198780D02*
G75*
G03*
X17145520Y-13198780I-50000J0D01*
G01*
X17045520Y-15434780D02*
X17145520Y-15534780D01*
X17145520Y-15434780D02*
X17045520Y-15534780D01*
X17145520Y-15484780D02*
G75*
G03*
X17145520Y-15484780I-50000J0D01*
G01*
X17045520Y-17720780D02*
X17145520Y-17820780D01*
X17145520Y-17720780D02*
X17045520Y-17820780D01*
X17145520Y-17770780D02*
G75*
G03*
X17145520Y-17770780I-50000J0D01*
G01*
X17295520Y-13148780D02*
X17395520Y-13248780D01*
X17395520Y-13148780D02*
X17295520Y-13248780D01*
X17395520Y-13198780D02*
G75*
G03*
X17395520Y-13198780I-50000J0D01*
G01*
X17295520Y-15434780D02*
X17395520Y-15534780D01*
X17395520Y-15434780D02*
X17295520Y-15534780D01*
X17395520Y-15484780D02*
G75*
G03*
X17395520Y-15484780I-50000J0D01*
G01*
X17295520Y-17720780D02*
X17395520Y-17820780D01*
X17395520Y-17720780D02*
X17295520Y-17820780D01*
X17395520Y-17770780D02*
G75*
G03*
X17395520Y-17770780I-50000J0D01*
G01*
X19553720Y-17311280D02*
X19653720Y-17411280D01*
X19653720Y-17311280D02*
X19553720Y-17411280D01*
X19653720Y-17361280D02*
G75*
G03*
X19653720Y-17361280I-50000J0D01*
G01*
X19807720Y-17311280D02*
X19907720Y-17411280D01*
X19907720Y-17311280D02*
X19807720Y-17411280D01*
X19907720Y-17361280D02*
G75*
G03*
X19907720Y-17361280I-50000J0D01*
G01*
X20061720Y-17311280D02*
X20161720Y-17411280D01*
X20161720Y-17311280D02*
X20061720Y-17411280D01*
X20161720Y-17361280D02*
G75*
G03*
X20161720Y-17361280I-50000J0D01*
G01*
X20315720Y-17311280D02*
X20415720Y-17411280D01*
X20415720Y-17311280D02*
X20315720Y-17411280D01*
X20415720Y-17361280D02*
G75*
G03*
X20415720Y-17361280I-50000J0D01*
G01*
X20558220Y-16308780D02*
X20658220Y-16408780D01*
X20658220Y-16308780D02*
X20558220Y-16408780D01*
X20658220Y-16358780D02*
G75*
G03*
X20658220Y-16358780I-50000J0D01*
G01*
X20558220Y-16562780D02*
X20658220Y-16662780D01*
X20658220Y-16562780D02*
X20558220Y-16662780D01*
X20658220Y-16612780D02*
G75*
G03*
X20658220Y-16612780I-50000J0D01*
G01*
X20569720Y-17311280D02*
X20669720Y-17411280D01*
X20669720Y-17311280D02*
X20569720Y-17411280D01*
X20669720Y-17361280D02*
G75*
G03*
X20669720Y-17361280I-50000J0D01*
G01*
X20812220Y-16308780D02*
X20912220Y-16408780D01*
X20912220Y-16308780D02*
X20812220Y-16408780D01*
X20912220Y-16358780D02*
G75*
G03*
X20912220Y-16358780I-50000J0D01*
G01*
X20812220Y-16562780D02*
X20912220Y-16662780D01*
X20912220Y-16562780D02*
X20812220Y-16662780D01*
X20912220Y-16612780D02*
G75*
G03*
X20912220Y-16612780I-50000J0D01*
G01*
X20823720Y-17311280D02*
X20923720Y-17411280D01*
X20923720Y-17311280D02*
X20823720Y-17411280D01*
X20923720Y-17361280D02*
G75*
G03*
X20923720Y-17361280I-50000J0D01*
G01*
X21066220Y-16308780D02*
X21166220Y-16408780D01*
X21166220Y-16308780D02*
X21066220Y-16408780D01*
X21166220Y-16358780D02*
G75*
G03*
X21166220Y-16358780I-50000J0D01*
G01*
X21066220Y-16562780D02*
X21166220Y-16662780D01*
X21166220Y-16562780D02*
X21066220Y-16662780D01*
X21166220Y-16612780D02*
G75*
G03*
X21166220Y-16612780I-50000J0D01*
G01*
X21077720Y-17311280D02*
X21177720Y-17411280D01*
X21177720Y-17311280D02*
X21077720Y-17411280D01*
X21177720Y-17361280D02*
G75*
G03*
X21177720Y-17361280I-50000J0D01*
G01*
X21320220Y-16308780D02*
X21420220Y-16408780D01*
X21420220Y-16308780D02*
X21320220Y-16408780D01*
X21420220Y-16358780D02*
G75*
G03*
X21420220Y-16358780I-50000J0D01*
G01*
X21320220Y-16562780D02*
X21420220Y-16662780D01*
X21420220Y-16562780D02*
X21320220Y-16662780D01*
X21420220Y-16612780D02*
G75*
G03*
X21420220Y-16612780I-50000J0D01*
G01*
X21331720Y-17311280D02*
X21431720Y-17411280D01*
X21431720Y-17311280D02*
X21331720Y-17411280D01*
X21431720Y-17361280D02*
G75*
G03*
X21431720Y-17361280I-50000J0D01*
G01*
X21574220Y-16308780D02*
X21674220Y-16408780D01*
X21674220Y-16308780D02*
X21574220Y-16408780D01*
X21674220Y-16358780D02*
G75*
G03*
X21674220Y-16358780I-50000J0D01*
G01*
X21574220Y-16562780D02*
X21674220Y-16662780D01*
X21674220Y-16562780D02*
X21574220Y-16662780D01*
X21674220Y-16612780D02*
G75*
G03*
X21674220Y-16612780I-50000J0D01*
G01*
X21585720Y-17311280D02*
X21685720Y-17411280D01*
X21685720Y-17311280D02*
X21585720Y-17411280D01*
X21685720Y-17361280D02*
G75*
G03*
X21685720Y-17361280I-50000J0D01*
G01*
X21828220Y-16308780D02*
X21928220Y-16408780D01*
X21928220Y-16308780D02*
X21828220Y-16408780D01*
X21928220Y-16358780D02*
G75*
G03*
X21928220Y-16358780I-50000J0D01*
G01*
X21828220Y-16562780D02*
X21928220Y-16662780D01*
X21928220Y-16562780D02*
X21828220Y-16662780D01*
X21928220Y-16612780D02*
G75*
G03*
X21928220Y-16612780I-50000J0D01*
G01*
X21839720Y-17311280D02*
X21939720Y-17411280D01*
X21939720Y-17311280D02*
X21839720Y-17411280D01*
X21939720Y-17361280D02*
G75*
G03*
X21939720Y-17361280I-50000J0D01*
G01*
X22082220Y-16308780D02*
X22182220Y-16408780D01*
X22182220Y-16308780D02*
X22082220Y-16408780D01*
X22182220Y-16358780D02*
G75*
G03*
X22182220Y-16358780I-50000J0D01*
G01*
X22082220Y-16562780D02*
X22182220Y-16662780D01*
X22182220Y-16562780D02*
X22082220Y-16662780D01*
X22182220Y-16612780D02*
G75*
G03*
X22182220Y-16612780I-50000J0D01*
G01*
X22093720Y-17311280D02*
X22193720Y-17411280D01*
X22193720Y-17311280D02*
X22093720Y-17411280D01*
X22193720Y-17361280D02*
G75*
G03*
X22193720Y-17361280I-50000J0D01*
G01*
X22336220Y-16308780D02*
X22436220Y-16408780D01*
X22436220Y-16308780D02*
X22336220Y-16408780D01*
X22436220Y-16358780D02*
G75*
G03*
X22436220Y-16358780I-50000J0D01*
G01*
X22336220Y-16562780D02*
X22436220Y-16662780D01*
X22436220Y-16562780D02*
X22336220Y-16662780D01*
X22436220Y-16612780D02*
G75*
G03*
X22436220Y-16612780I-50000J0D01*
G01*
X22347720Y-17311280D02*
X22447720Y-17411280D01*
X22447720Y-17311280D02*
X22347720Y-17411280D01*
X22447720Y-17361280D02*
G75*
G03*
X22447720Y-17361280I-50000J0D01*
G01*
X22590220Y-16308780D02*
X22690220Y-16408780D01*
X22690220Y-16308780D02*
X22590220Y-16408780D01*
X22690220Y-16358780D02*
G75*
G03*
X22690220Y-16358780I-50000J0D01*
G01*
X22590220Y-16562780D02*
X22690220Y-16662780D01*
X22690220Y-16562780D02*
X22590220Y-16662780D01*
X22690220Y-16612780D02*
G75*
G03*
X22690220Y-16612780I-50000J0D01*
G01*
X22601720Y-17311280D02*
X22701720Y-17411280D01*
X22701720Y-17311280D02*
X22601720Y-17411280D01*
X22701720Y-17361280D02*
G75*
G03*
X22701720Y-17361280I-50000J0D01*
G01*
X22844220Y-16308780D02*
X22944220Y-16408780D01*
X22944220Y-16308780D02*
X22844220Y-16408780D01*
X22944220Y-16358780D02*
G75*
G03*
X22944220Y-16358780I-50000J0D01*
G01*
X22844220Y-16562780D02*
X22944220Y-16662780D01*
X22944220Y-16562780D02*
X22844220Y-16662780D01*
X22944220Y-16612780D02*
G75*
G03*
X22944220Y-16612780I-50000J0D01*
G01*
X22855720Y-17311280D02*
X22955720Y-17411280D01*
X22955720Y-17311280D02*
X22855720Y-17411280D01*
X22955720Y-17361280D02*
G75*
G03*
X22955720Y-17361280I-50000J0D01*
G01*
X23098220Y-16308780D02*
X23198220Y-16408780D01*
X23198220Y-16308780D02*
X23098220Y-16408780D01*
X23198220Y-16358780D02*
G75*
G03*
X23198220Y-16358780I-50000J0D01*
G01*
X23098220Y-16562780D02*
X23198220Y-16662780D01*
X23198220Y-16562780D02*
X23098220Y-16662780D01*
X23198220Y-16612780D02*
G75*
G03*
X23198220Y-16612780I-50000J0D01*
G01*
X23109720Y-17311280D02*
X23209720Y-17411280D01*
X23209720Y-17311280D02*
X23109720Y-17411280D01*
X23209720Y-17361280D02*
G75*
G03*
X23209720Y-17361280I-50000J0D01*
G01*
X23352220Y-16308780D02*
X23452220Y-16408780D01*
X23452220Y-16308780D02*
X23352220Y-16408780D01*
X23452220Y-16358780D02*
G75*
G03*
X23452220Y-16358780I-50000J0D01*
G01*
X23352220Y-16562780D02*
X23452220Y-16662780D01*
X23452220Y-16562780D02*
X23352220Y-16662780D01*
X23452220Y-16612780D02*
G75*
G03*
X23452220Y-16612780I-50000J0D01*
G01*
X23363720Y-17311280D02*
X23463720Y-17411280D01*
X23463720Y-17311280D02*
X23363720Y-17411280D01*
X23463720Y-17361280D02*
G75*
G03*
X23463720Y-17361280I-50000J0D01*
G01*
X23606220Y-16308780D02*
X23706220Y-16408780D01*
X23706220Y-16308780D02*
X23606220Y-16408780D01*
X23706220Y-16358780D02*
G75*
G03*
X23706220Y-16358780I-50000J0D01*
G01*
X23606220Y-16562780D02*
X23706220Y-16662780D01*
X23706220Y-16562780D02*
X23606220Y-16662780D01*
X23706220Y-16612780D02*
G75*
G03*
X23706220Y-16612780I-50000J0D01*
G01*
X23617720Y-17311280D02*
X23717720Y-17411280D01*
X23717720Y-17311280D02*
X23617720Y-17411280D01*
X23717720Y-17361280D02*
G75*
G03*
X23717720Y-17361280I-50000J0D01*
G01*
X23860220Y-16308780D02*
X23960220Y-16408780D01*
X23960220Y-16308780D02*
X23860220Y-16408780D01*
X23960220Y-16358780D02*
G75*
G03*
X23960220Y-16358780I-50000J0D01*
G01*
X23860220Y-16562780D02*
X23960220Y-16662780D01*
X23960220Y-16562780D02*
X23860220Y-16662780D01*
X23960220Y-16612780D02*
G75*
G03*
X23960220Y-16612780I-50000J0D01*
G01*
X23871720Y-17311280D02*
X23971720Y-17411280D01*
X23971720Y-17311280D02*
X23871720Y-17411280D01*
X23971720Y-17361280D02*
G75*
G03*
X23971720Y-17361280I-50000J0D01*
G01*
X24114220Y-16308780D02*
X24214220Y-16408780D01*
X24214220Y-16308780D02*
X24114220Y-16408780D01*
X24214220Y-16358780D02*
G75*
G03*
X24214220Y-16358780I-50000J0D01*
G01*
X24114220Y-16562780D02*
X24214220Y-16662780D01*
X24214220Y-16562780D02*
X24114220Y-16662780D01*
X24214220Y-16612780D02*
G75*
G03*
X24214220Y-16612780I-50000J0D01*
G01*
X24125720Y-17311280D02*
X24225720Y-17411280D01*
X24225720Y-17311280D02*
X24125720Y-17411280D01*
X24225720Y-17361280D02*
G75*
G03*
X24225720Y-17361280I-50000J0D01*
G01*
X24368220Y-16308780D02*
X24468220Y-16408780D01*
X24468220Y-16308780D02*
X24368220Y-16408780D01*
X24468220Y-16358780D02*
G75*
G03*
X24468220Y-16358780I-50000J0D01*
G01*
X24368220Y-16562780D02*
X24468220Y-16662780D01*
X24468220Y-16562780D02*
X24368220Y-16662780D01*
X24468220Y-16612780D02*
G75*
G03*
X24468220Y-16612780I-50000J0D01*
G01*
X24379720Y-17311280D02*
X24479720Y-17411280D01*
X24479720Y-17311280D02*
X24379720Y-17411280D01*
X24479720Y-17361280D02*
G75*
G03*
X24479720Y-17361280I-50000J0D01*
G01*
X24622220Y-16308780D02*
X24722220Y-16408780D01*
X24722220Y-16308780D02*
X24622220Y-16408780D01*
X24722220Y-16358780D02*
G75*
G03*
X24722220Y-16358780I-50000J0D01*
G01*
X24622220Y-16562780D02*
X24722220Y-16662780D01*
X24722220Y-16562780D02*
X24622220Y-16662780D01*
X24722220Y-16612780D02*
G75*
G03*
X24722220Y-16612780I-50000J0D01*
G01*
X24876220Y-16308780D02*
X24976220Y-16408780D01*
X24976220Y-16308780D02*
X24876220Y-16408780D01*
X24976220Y-16358780D02*
G75*
G03*
X24976220Y-16358780I-50000J0D01*
G01*
X24876220Y-16562780D02*
X24976220Y-16662780D01*
X24976220Y-16562780D02*
X24876220Y-16662780D01*
X24976220Y-16612780D02*
G75*
G03*
X24976220Y-16612780I-50000J0D01*
G01*
X25130220Y-16308780D02*
X25230220Y-16408780D01*
X25230220Y-16308780D02*
X25130220Y-16408780D01*
X25230220Y-16358780D02*
G75*
G03*
X25230220Y-16358780I-50000J0D01*
G01*
X25130220Y-16562780D02*
X25230220Y-16662780D01*
X25230220Y-16562780D02*
X25130220Y-16662780D01*
X25230220Y-16612780D02*
G75*
G03*
X25230220Y-16612780I-50000J0D01*
G01*
X25384220Y-16308780D02*
X25484220Y-16408780D01*
X25484220Y-16308780D02*
X25384220Y-16408780D01*
X25484220Y-16358780D02*
G75*
G03*
X25484220Y-16358780I-50000J0D01*
G01*
X25384220Y-16562780D02*
X25484220Y-16662780D01*
X25484220Y-16562780D02*
X25384220Y-16662780D01*
X25484220Y-16612780D02*
G75*
G03*
X25484220Y-16612780I-50000J0D01*
G01*
X26429220Y-12149780D02*
X26529220Y-12249780D01*
X26529220Y-12149780D02*
X26429220Y-12249780D01*
X26529220Y-12199780D02*
G75*
G03*
X26529220Y-12199780I-50000J0D01*
G01*
X26429220Y-12399780D02*
X26529220Y-12499780D01*
X26529220Y-12399780D02*
X26429220Y-12499780D01*
X26529220Y-12449780D02*
G75*
G03*
X26529220Y-12449780I-50000J0D01*
G01*
X26429220Y-12649780D02*
X26529220Y-12749780D01*
X26529220Y-12649780D02*
X26429220Y-12749780D01*
X26529220Y-12699780D02*
G75*
G03*
X26529220Y-12699780I-50000J0D01*
G01*
X29041220Y-16721780D02*
X29141220Y-16821780D01*
X29141220Y-16721780D02*
X29041220Y-16821780D01*
X29141220Y-16771780D02*
G75*
G03*
X29141220Y-16771780I-50000J0D01*
G01*
X29041220Y-16971780D02*
X29141220Y-17071780D01*
X29141220Y-16971780D02*
X29041220Y-17071780D01*
X29141220Y-17021780D02*
G75*
G03*
X29141220Y-17021780I-50000J0D01*
G01*
X29041220Y-17221780D02*
X29141220Y-17321780D01*
X29141220Y-17221780D02*
X29041220Y-17321780D01*
X29141220Y-17271780D02*
G75*
G03*
X29141220Y-17271780I-50000J0D01*
G01*
X30637220Y-14435780D02*
X30737220Y-14535780D01*
X30737220Y-14435780D02*
X30637220Y-14535780D01*
X30737220Y-14485780D02*
G75*
G03*
X30737220Y-14485780I-50000J0D01*
G01*
X30637220Y-14685780D02*
X30737220Y-14785780D01*
X30737220Y-14685780D02*
X30637220Y-14785780D01*
X30737220Y-14735780D02*
G75*
G03*
X30737220Y-14735780I-50000J0D01*
G01*
X30637220Y-14935780D02*
X30737220Y-15035780D01*
X30737220Y-14935780D02*
X30637220Y-15035780D01*
X30737220Y-14985780D02*
G75*
G03*
X30737220Y-14985780I-50000J0D01*
G01*
X32233220Y-12149780D02*
X32333220Y-12249780D01*
X32333220Y-12149780D02*
X32233220Y-12249780D01*
X32333220Y-12199780D02*
G75*
G03*
X32333220Y-12199780I-50000J0D01*
G01*
X32233220Y-12399780D02*
X32333220Y-12499780D01*
X32333220Y-12399780D02*
X32233220Y-12499780D01*
X32333220Y-12449780D02*
G75*
G03*
X32333220Y-12449780I-50000J0D01*
G01*
X32233220Y-12649780D02*
X32333220Y-12749780D01*
X32333220Y-12649780D02*
X32233220Y-12749780D01*
X32333220Y-12699780D02*
G75*
G03*
X32333220Y-12699780I-50000J0D01*
G01*
D18*
X5618996Y-11941780D02*
X5728996Y-12051780D01*
X5728996Y-11941780D02*
X5618996Y-12051780D01*
X5673996Y-11941780D02*
X5673996Y-12051780D01*
X5618996Y-11996780D02*
X5728996Y-11996780D01*
X5618996Y-12195780D02*
X5728996Y-12305780D01*
X5728996Y-12195780D02*
X5618996Y-12305780D01*
X5673996Y-12195780D02*
X5673996Y-12305780D01*
X5618996Y-12250780D02*
X5728996Y-12250780D01*
X5618996Y-12449780D02*
X5728996Y-12559780D01*
X5728996Y-12449780D02*
X5618996Y-12559780D01*
X5673996Y-12449780D02*
X5673996Y-12559780D01*
X5618996Y-12504780D02*
X5728996Y-12504780D01*
X5618996Y-12703780D02*
X5728996Y-12813780D01*
X5728996Y-12703780D02*
X5618996Y-12813780D01*
X5673996Y-12703780D02*
X5673996Y-12813780D01*
X5618996Y-12758780D02*
X5728996Y-12758780D01*
X5618996Y-12957780D02*
X5728996Y-13067780D01*
X5728996Y-12957780D02*
X5618996Y-13067780D01*
X5673996Y-12957780D02*
X5673996Y-13067780D01*
X5618996Y-13012780D02*
X5728996Y-13012780D01*
X5618996Y-13211780D02*
X5728996Y-13321780D01*
X5728996Y-13211780D02*
X5618996Y-13321780D01*
X5673996Y-13211780D02*
X5673996Y-13321780D01*
X5618996Y-13266780D02*
X5728996Y-13266780D01*
X5618996Y-13465780D02*
X5728996Y-13575780D01*
X5728996Y-13465780D02*
X5618996Y-13575780D01*
X5673996Y-13465780D02*
X5673996Y-13575780D01*
X5618996Y-13520780D02*
X5728996Y-13520780D01*
X5872996Y-11941780D02*
X5982996Y-12051780D01*
X5982996Y-11941780D02*
X5872996Y-12051780D01*
X5927996Y-11941780D02*
X5927996Y-12051780D01*
X5872996Y-11996780D02*
X5982996Y-11996780D01*
X5872996Y-13465780D02*
X5982996Y-13575780D01*
X5982996Y-13465780D02*
X5872996Y-13575780D01*
X5927996Y-13465780D02*
X5927996Y-13575780D01*
X5872996Y-13520780D02*
X5982996Y-13520780D01*
X6126996Y-11941780D02*
X6236996Y-12051780D01*
X6236996Y-11941780D02*
X6126996Y-12051780D01*
X6181996Y-11941780D02*
X6181996Y-12051780D01*
X6126996Y-11996780D02*
X6236996Y-11996780D01*
X6126996Y-12195780D02*
X6236996Y-12305780D01*
X6236996Y-12195780D02*
X6126996Y-12305780D01*
X6181996Y-12195780D02*
X6181996Y-12305780D01*
X6126996Y-12250780D02*
X6236996Y-12250780D01*
X6126996Y-12449780D02*
X6236996Y-12559780D01*
X6236996Y-12449780D02*
X6126996Y-12559780D01*
X6181996Y-12449780D02*
X6181996Y-12559780D01*
X6126996Y-12504780D02*
X6236996Y-12504780D01*
X6126996Y-12703780D02*
X6236996Y-12813780D01*
X6236996Y-12703780D02*
X6126996Y-12813780D01*
X6181996Y-12703780D02*
X6181996Y-12813780D01*
X6126996Y-12758780D02*
X6236996Y-12758780D01*
X6126996Y-12957780D02*
X6236996Y-13067780D01*
X6236996Y-12957780D02*
X6126996Y-13067780D01*
X6181996Y-12957780D02*
X6181996Y-13067780D01*
X6126996Y-13012780D02*
X6236996Y-13012780D01*
X6126996Y-13211780D02*
X6236996Y-13321780D01*
X6236996Y-13211780D02*
X6126996Y-13321780D01*
X6181996Y-13211780D02*
X6181996Y-13321780D01*
X6126996Y-13266780D02*
X6236996Y-13266780D01*
X6126996Y-13465780D02*
X6236996Y-13575780D01*
X6236996Y-13465780D02*
X6126996Y-13575780D01*
X6181996Y-13465780D02*
X6181996Y-13575780D01*
X6126996Y-13520780D02*
X6236996Y-13520780D01*
X6380996Y-11941780D02*
X6490996Y-12051780D01*
X6490996Y-11941780D02*
X6380996Y-12051780D01*
X6435996Y-11941780D02*
X6435996Y-12051780D01*
X6380996Y-11996780D02*
X6490996Y-11996780D01*
X6380996Y-12195780D02*
X6490996Y-12305780D01*
X6490996Y-12195780D02*
X6380996Y-12305780D01*
X6435996Y-12195780D02*
X6435996Y-12305780D01*
X6380996Y-12250780D02*
X6490996Y-12250780D01*
X6380996Y-12449780D02*
X6490996Y-12559780D01*
X6490996Y-12449780D02*
X6380996Y-12559780D01*
X6435996Y-12449780D02*
X6435996Y-12559780D01*
X6380996Y-12504780D02*
X6490996Y-12504780D01*
X6380996Y-12703780D02*
X6490996Y-12813780D01*
X6490996Y-12703780D02*
X6380996Y-12813780D01*
X6435996Y-12703780D02*
X6435996Y-12813780D01*
X6380996Y-12758780D02*
X6490996Y-12758780D01*
X6380996Y-12957780D02*
X6490996Y-13067780D01*
X6490996Y-12957780D02*
X6380996Y-13067780D01*
X6435996Y-12957780D02*
X6435996Y-13067780D01*
X6380996Y-13012780D02*
X6490996Y-13012780D01*
X6380996Y-13211780D02*
X6490996Y-13321780D01*
X6490996Y-13211780D02*
X6380996Y-13321780D01*
X6435996Y-13211780D02*
X6435996Y-13321780D01*
X6380996Y-13266780D02*
X6490996Y-13266780D01*
X6380996Y-13465780D02*
X6490996Y-13575780D01*
X6490996Y-13465780D02*
X6380996Y-13575780D01*
X6435996Y-13465780D02*
X6435996Y-13575780D01*
X6380996Y-13520780D02*
X6490996Y-13520780D01*
X6634996Y-11941780D02*
X6744996Y-12051780D01*
X6744996Y-11941780D02*
X6634996Y-12051780D01*
X6689996Y-11941780D02*
X6689996Y-12051780D01*
X6634996Y-11996780D02*
X6744996Y-11996780D01*
X6634996Y-13465780D02*
X6744996Y-13575780D01*
X6744996Y-13465780D02*
X6634996Y-13575780D01*
X6689996Y-13465780D02*
X6689996Y-13575780D01*
X6634996Y-13520780D02*
X6744996Y-13520780D01*
X6888996Y-11941780D02*
X6998996Y-12051780D01*
X6998996Y-11941780D02*
X6888996Y-12051780D01*
X6943996Y-11941780D02*
X6943996Y-12051780D01*
X6888996Y-11996780D02*
X6998996Y-11996780D01*
X6888996Y-13465780D02*
X6998996Y-13575780D01*
X6998996Y-13465780D02*
X6888996Y-13575780D01*
X6943996Y-13465780D02*
X6943996Y-13575780D01*
X6888996Y-13520780D02*
X6998996Y-13520780D01*
X7142996Y-11941780D02*
X7252996Y-12051780D01*
X7252996Y-11941780D02*
X7142996Y-12051780D01*
X7197996Y-11941780D02*
X7197996Y-12051780D01*
X7142996Y-11996780D02*
X7252996Y-11996780D01*
X7142996Y-13465780D02*
X7252996Y-13575780D01*
X7252996Y-13465780D02*
X7142996Y-13575780D01*
X7197996Y-13465780D02*
X7197996Y-13575780D01*
X7142996Y-13520780D02*
X7252996Y-13520780D01*
X7396996Y-11941780D02*
X7506996Y-12051780D01*
X7506996Y-11941780D02*
X7396996Y-12051780D01*
X7451996Y-11941780D02*
X7451996Y-12051780D01*
X7396996Y-11996780D02*
X7506996Y-11996780D01*
X7396996Y-13465780D02*
X7506996Y-13575780D01*
X7506996Y-13465780D02*
X7396996Y-13575780D01*
X7451996Y-13465780D02*
X7451996Y-13575780D01*
X7396996Y-13520780D02*
X7506996Y-13520780D01*
X7650996Y-11941780D02*
X7760996Y-12051780D01*
X7760996Y-11941780D02*
X7650996Y-12051780D01*
X7705996Y-11941780D02*
X7705996Y-12051780D01*
X7650996Y-11996780D02*
X7760996Y-11996780D01*
X7650996Y-13465780D02*
X7760996Y-13575780D01*
X7760996Y-13465780D02*
X7650996Y-13575780D01*
X7705996Y-13465780D02*
X7705996Y-13575780D01*
X7650996Y-13520780D02*
X7760996Y-13520780D01*
X7904996Y-11941780D02*
X8014996Y-12051780D01*
X8014996Y-11941780D02*
X7904996Y-12051780D01*
X7959996Y-11941780D02*
X7959996Y-12051780D01*
X7904996Y-11996780D02*
X8014996Y-11996780D01*
X7904996Y-13465780D02*
X8014996Y-13575780D01*
X8014996Y-13465780D02*
X7904996Y-13575780D01*
X7959996Y-13465780D02*
X7959996Y-13575780D01*
X7904996Y-13520780D02*
X8014996Y-13520780D01*
X8158996Y-11941780D02*
X8268996Y-12051780D01*
X8268996Y-11941780D02*
X8158996Y-12051780D01*
X8213996Y-11941780D02*
X8213996Y-12051780D01*
X8158996Y-11996780D02*
X8268996Y-11996780D01*
X8158996Y-13465780D02*
X8268996Y-13575780D01*
X8268996Y-13465780D02*
X8158996Y-13575780D01*
X8213996Y-13465780D02*
X8213996Y-13575780D01*
X8158996Y-13520780D02*
X8268996Y-13520780D01*
X8412996Y-11941780D02*
X8522996Y-12051780D01*
X8522996Y-11941780D02*
X8412996Y-12051780D01*
X8467996Y-11941780D02*
X8467996Y-12051780D01*
X8412996Y-11996780D02*
X8522996Y-11996780D01*
X8412996Y-13465780D02*
X8522996Y-13575780D01*
X8522996Y-13465780D02*
X8412996Y-13575780D01*
X8467996Y-13465780D02*
X8467996Y-13575780D01*
X8412996Y-13520780D02*
X8522996Y-13520780D01*
X8666996Y-11941780D02*
X8776996Y-12051780D01*
X8776996Y-11941780D02*
X8666996Y-12051780D01*
X8721996Y-11941780D02*
X8721996Y-12051780D01*
X8666996Y-11996780D02*
X8776996Y-11996780D01*
X8666996Y-12195780D02*
X8776996Y-12305780D01*
X8776996Y-12195780D02*
X8666996Y-12305780D01*
X8721996Y-12195780D02*
X8721996Y-12305780D01*
X8666996Y-12250780D02*
X8776996Y-12250780D01*
X8666996Y-13465780D02*
X8776996Y-13575780D01*
X8776996Y-13465780D02*
X8666996Y-13575780D01*
X8721996Y-13465780D02*
X8721996Y-13575780D01*
X8666996Y-13520780D02*
X8776996Y-13520780D01*
X8920996Y-11941780D02*
X9030996Y-12051780D01*
X9030996Y-11941780D02*
X8920996Y-12051780D01*
X8975996Y-11941780D02*
X8975996Y-12051780D01*
X8920996Y-11996780D02*
X9030996Y-11996780D01*
X8920996Y-13465780D02*
X9030996Y-13575780D01*
X9030996Y-13465780D02*
X8920996Y-13575780D01*
X8975996Y-13465780D02*
X8975996Y-13575780D01*
X8920996Y-13520780D02*
X9030996Y-13520780D01*
D19*
X20627220Y-11719780D02*
X20747220Y-11839780D01*
X20747220Y-11719780D02*
X20627220Y-11839780D01*
X20729647Y-11822207D02*
X20729647Y-11737353D01*
X20644793Y-11737353D01*
X20644793Y-11822207D01*
X20729647Y-11822207D01*
X20657220Y-12299780D02*
X20777220Y-12419780D01*
X20777220Y-12299780D02*
X20657220Y-12419780D01*
X20759647Y-12402207D02*
X20759647Y-12317353D01*
X20674793Y-12317353D01*
X20674793Y-12402207D01*
X20759647Y-12402207D01*
X21127220Y-11429780D02*
X21247220Y-11549780D01*
X21247220Y-11429780D02*
X21127220Y-11549780D01*
X21229647Y-11532207D02*
X21229647Y-11447353D01*
X21144793Y-11447353D01*
X21144793Y-11532207D01*
X21229647Y-11532207D01*
X21127220Y-12119780D02*
X21247220Y-12239780D01*
X21247220Y-12119780D02*
X21127220Y-12239780D01*
X21229647Y-12222207D02*
X21229647Y-12137353D01*
X21144793Y-12137353D01*
X21144793Y-12222207D01*
X21229647Y-12222207D01*
X21897220Y-11719780D02*
X22017220Y-11839780D01*
X22017220Y-11719780D02*
X21897220Y-11839780D01*
X21999647Y-11822207D02*
X21999647Y-11737353D01*
X21914793Y-11737353D01*
X21914793Y-11822207D01*
X21999647Y-11822207D01*
X21927220Y-12299780D02*
X22047220Y-12419780D01*
X22047220Y-12299780D02*
X21927220Y-12419780D01*
X22029647Y-12402207D02*
X22029647Y-12317353D01*
X21944793Y-12317353D01*
X21944793Y-12402207D01*
X22029647Y-12402207D01*
X22397220Y-11429780D02*
X22517220Y-11549780D01*
X22517220Y-11429780D02*
X22397220Y-11549780D01*
X22499647Y-11532207D02*
X22499647Y-11447353D01*
X22414793Y-11447353D01*
X22414793Y-11532207D01*
X22499647Y-11532207D01*
X22397220Y-12119780D02*
X22517220Y-12239780D01*
X22517220Y-12119780D02*
X22397220Y-12239780D01*
X22499647Y-12222207D02*
X22499647Y-12137353D01*
X22414793Y-12137353D01*
X22414793Y-12222207D01*
X22499647Y-12222207D01*
D10*
X26773220Y-16692780D02*
X26923220Y-16842780D01*
X26923220Y-16692780D02*
X26773220Y-16842780D01*
X26848220Y-16842780D02*
X26923220Y-16767780D01*
X26848220Y-16692780D01*
X26773220Y-16767780D01*
X26848220Y-16842780D01*
X27154220Y-11803280D02*
X27304220Y-11953280D01*
X27304220Y-11803280D02*
X27154220Y-11953280D01*
X27229220Y-11953280D02*
X27304220Y-11878280D01*
X27229220Y-11803280D01*
X27154220Y-11878280D01*
X27229220Y-11953280D01*
X27154220Y-12946280D02*
X27304220Y-13096280D01*
X27304220Y-12946280D02*
X27154220Y-13096280D01*
X27229220Y-13096280D02*
X27304220Y-13021280D01*
X27229220Y-12946280D01*
X27154220Y-13021280D01*
X27229220Y-13096280D01*
X27408220Y-16438780D02*
X27558220Y-16588780D01*
X27558220Y-16438780D02*
X27408220Y-16588780D01*
X27483220Y-16588780D02*
X27558220Y-16513780D01*
X27483220Y-16438780D01*
X27408220Y-16513780D01*
X27483220Y-16588780D01*
X28369220Y-14406780D02*
X28519220Y-14556780D01*
X28519220Y-14406780D02*
X28369220Y-14556780D01*
X28444220Y-14556780D02*
X28519220Y-14481780D01*
X28444220Y-14406780D01*
X28369220Y-14481780D01*
X28444220Y-14556780D01*
X29004220Y-14152780D02*
X29154220Y-14302780D01*
X29154220Y-14152780D02*
X29004220Y-14302780D01*
X29079220Y-14302780D02*
X29154220Y-14227780D01*
X29079220Y-14152780D01*
X29004220Y-14227780D01*
X29079220Y-14302780D01*
X29766220Y-16375280D02*
X29916220Y-16525280D01*
X29916220Y-16375280D02*
X29766220Y-16525280D01*
X29841220Y-16525280D02*
X29916220Y-16450280D01*
X29841220Y-16375280D01*
X29766220Y-16450280D01*
X29841220Y-16525280D01*
X29766220Y-17518280D02*
X29916220Y-17668280D01*
X29916220Y-17518280D02*
X29766220Y-17668280D01*
X29841220Y-17668280D02*
X29916220Y-17593280D01*
X29841220Y-17518280D01*
X29766220Y-17593280D01*
X29841220Y-17668280D01*
X29965220Y-12120780D02*
X30115220Y-12270780D01*
X30115220Y-12120780D02*
X29965220Y-12270780D01*
X30040220Y-12270780D02*
X30115220Y-12195780D01*
X30040220Y-12120780D01*
X29965220Y-12195780D01*
X30040220Y-12270780D01*
X30600220Y-11866780D02*
X30750220Y-12016780D01*
X30750220Y-11866780D02*
X30600220Y-12016780D01*
X30675220Y-12016780D02*
X30750220Y-11941780D01*
X30675220Y-11866780D01*
X30600220Y-11941780D01*
X30675220Y-12016780D01*
X31362220Y-14089280D02*
X31512220Y-14239280D01*
X31512220Y-14089280D02*
X31362220Y-14239280D01*
X31437220Y-14239280D02*
X31512220Y-14164280D01*
X31437220Y-14089280D01*
X31362220Y-14164280D01*
X31437220Y-14239280D01*
X31362220Y-15232280D02*
X31512220Y-15382280D01*
X31512220Y-15232280D02*
X31362220Y-15382280D01*
X31437220Y-15382280D02*
X31512220Y-15307280D01*
X31437220Y-15232280D01*
X31362220Y-15307280D01*
X31437220Y-15382280D01*
X32958220Y-11803280D02*
X33108220Y-11953280D01*
X33108220Y-11803280D02*
X32958220Y-11953280D01*
X33033220Y-11953280D02*
X33108220Y-11878280D01*
X33033220Y-11803280D01*
X32958220Y-11878280D01*
X33033220Y-11953280D01*
X32958220Y-12946280D02*
X33108220Y-13096280D01*
X33108220Y-12946280D02*
X32958220Y-13096280D01*
X33033220Y-13096280D02*
X33108220Y-13021280D01*
X33033220Y-12946280D01*
X32958220Y-13021280D01*
X33033220Y-13096280D01*
D20*
X10559520Y-12408780D02*
X10559520Y-12588780D01*
X10469520Y-12498780D02*
X10649520Y-12498780D01*
X10649520Y-12498780D02*
G75*
G03*
X10649520Y-12498780I-90000J0D01*
G01*
D11*
X10649520Y-12513780D02*
X10649520Y-12483780D01*
X10469520Y-12513780D02*
X10469520Y-12483780D01*
X10649520Y-12483780D02*
G75*
G03*
X10469520Y-12483780I-90000J0D01*
G01*
X10469520Y-12513780D02*
G75*
G03*
X10649520Y-12513780I90000J0D01*
G01*
D20*
X10559520Y-14694780D02*
X10559520Y-14874780D01*
X10469520Y-14784780D02*
X10649520Y-14784780D01*
X10649520Y-14784780D02*
G75*
G03*
X10649520Y-14784780I-90000J0D01*
G01*
D11*
X10649520Y-14799780D02*
X10649520Y-14769780D01*
X10469520Y-14799780D02*
X10469520Y-14769780D01*
X10649520Y-14769780D02*
G75*
G03*
X10469520Y-14769780I-90000J0D01*
G01*
X10469520Y-14799780D02*
G75*
G03*
X10649520Y-14799780I90000J0D01*
G01*
D20*
X10559520Y-16980780D02*
X10559520Y-17160780D01*
X10469520Y-17070780D02*
X10649520Y-17070780D01*
X10649520Y-17070780D02*
G75*
G03*
X10649520Y-17070780I-90000J0D01*
G01*
D11*
X10649520Y-17085780D02*
X10649520Y-17055780D01*
X10469520Y-17085780D02*
X10469520Y-17055780D01*
X10649520Y-17055780D02*
G75*
G03*
X10469520Y-17055780I-90000J0D01*
G01*
X10469520Y-17085780D02*
G75*
G03*
X10649520Y-17085780I90000J0D01*
G01*
D20*
X11439520Y-12408780D02*
X11439520Y-12588780D01*
X11349520Y-12498780D02*
X11529520Y-12498780D01*
X11529520Y-12498780D02*
G75*
G03*
X11529520Y-12498780I-90000J0D01*
G01*
D11*
X11529520Y-12513780D02*
X11529520Y-12483780D01*
X11349520Y-12513780D02*
X11349520Y-12483780D01*
X11529520Y-12483780D02*
G75*
G03*
X11349520Y-12483780I-90000J0D01*
G01*
X11349520Y-12513780D02*
G75*
G03*
X11529520Y-12513780I90000J0D01*
G01*
D20*
X11439520Y-14694780D02*
X11439520Y-14874780D01*
X11349520Y-14784780D02*
X11529520Y-14784780D01*
X11529520Y-14784780D02*
G75*
G03*
X11529520Y-14784780I-90000J0D01*
G01*
D11*
X11529520Y-14799780D02*
X11529520Y-14769780D01*
X11349520Y-14799780D02*
X11349520Y-14769780D01*
X11529520Y-14769780D02*
G75*
G03*
X11349520Y-14769780I-90000J0D01*
G01*
X11349520Y-14799780D02*
G75*
G03*
X11529520Y-14799780I90000J0D01*
G01*
D20*
X11439520Y-16980780D02*
X11439520Y-17160780D01*
X11349520Y-17070780D02*
X11529520Y-17070780D01*
X11529520Y-17070780D02*
G75*
G03*
X11529520Y-17070780I-90000J0D01*
G01*
D11*
X11529520Y-17085780D02*
X11529520Y-17055780D01*
X11349520Y-17085780D02*
X11349520Y-17055780D01*
X11529520Y-17055780D02*
G75*
G03*
X11349520Y-17055780I-90000J0D01*
G01*
X11349520Y-17085780D02*
G75*
G03*
X11529520Y-17085780I90000J0D01*
G01*
D20*
X12591520Y-12408780D02*
X12591520Y-12588780D01*
X12501520Y-12498780D02*
X12681520Y-12498780D01*
X12681520Y-12498780D02*
G75*
G03*
X12681520Y-12498780I-90000J0D01*
G01*
D11*
X12681520Y-12513780D02*
X12681520Y-12483780D01*
X12501520Y-12513780D02*
X12501520Y-12483780D01*
X12681520Y-12483780D02*
G75*
G03*
X12501520Y-12483780I-90000J0D01*
G01*
X12501520Y-12513780D02*
G75*
G03*
X12681520Y-12513780I90000J0D01*
G01*
D20*
X12591520Y-14694780D02*
X12591520Y-14874780D01*
X12501520Y-14784780D02*
X12681520Y-14784780D01*
X12681520Y-14784780D02*
G75*
G03*
X12681520Y-14784780I-90000J0D01*
G01*
D11*
X12681520Y-14799780D02*
X12681520Y-14769780D01*
X12501520Y-14799780D02*
X12501520Y-14769780D01*
X12681520Y-14769780D02*
G75*
G03*
X12501520Y-14769780I-90000J0D01*
G01*
X12501520Y-14799780D02*
G75*
G03*
X12681520Y-14799780I90000J0D01*
G01*
D20*
X12591520Y-16980780D02*
X12591520Y-17160780D01*
X12501520Y-17070780D02*
X12681520Y-17070780D01*
X12681520Y-17070780D02*
G75*
G03*
X12681520Y-17070780I-90000J0D01*
G01*
D11*
X12681520Y-17085780D02*
X12681520Y-17055780D01*
X12501520Y-17085780D02*
X12501520Y-17055780D01*
X12681520Y-17055780D02*
G75*
G03*
X12501520Y-17055780I-90000J0D01*
G01*
X12501520Y-17085780D02*
G75*
G03*
X12681520Y-17085780I90000J0D01*
G01*
D20*
X13471520Y-12408780D02*
X13471520Y-12588780D01*
X13381520Y-12498780D02*
X13561520Y-12498780D01*
X13561520Y-12498780D02*
G75*
G03*
X13561520Y-12498780I-90000J0D01*
G01*
D11*
X13561520Y-12513780D02*
X13561520Y-12483780D01*
X13381520Y-12513780D02*
X13381520Y-12483780D01*
X13561520Y-12483780D02*
G75*
G03*
X13381520Y-12483780I-90000J0D01*
G01*
X13381520Y-12513780D02*
G75*
G03*
X13561520Y-12513780I90000J0D01*
G01*
D20*
X13471520Y-14694780D02*
X13471520Y-14874780D01*
X13381520Y-14784780D02*
X13561520Y-14784780D01*
X13561520Y-14784780D02*
G75*
G03*
X13561520Y-14784780I-90000J0D01*
G01*
D11*
X13561520Y-14799780D02*
X13561520Y-14769780D01*
X13381520Y-14799780D02*
X13381520Y-14769780D01*
X13561520Y-14769780D02*
G75*
G03*
X13381520Y-14769780I-90000J0D01*
G01*
X13381520Y-14799780D02*
G75*
G03*
X13561520Y-14799780I90000J0D01*
G01*
D20*
X13471520Y-16980780D02*
X13471520Y-17160780D01*
X13381520Y-17070780D02*
X13561520Y-17070780D01*
X13561520Y-17070780D02*
G75*
G03*
X13561520Y-17070780I-90000J0D01*
G01*
D11*
X13561520Y-17085780D02*
X13561520Y-17055780D01*
X13381520Y-17085780D02*
X13381520Y-17055780D01*
X13561520Y-17055780D02*
G75*
G03*
X13381520Y-17055780I-90000J0D01*
G01*
X13381520Y-17085780D02*
G75*
G03*
X13561520Y-17085780I90000J0D01*
G01*
D20*
X14623520Y-12408780D02*
X14623520Y-12588780D01*
X14533520Y-12498780D02*
X14713520Y-12498780D01*
X14713520Y-12498780D02*
G75*
G03*
X14713520Y-12498780I-90000J0D01*
G01*
D11*
X14713520Y-12513780D02*
X14713520Y-12483780D01*
X14533520Y-12513780D02*
X14533520Y-12483780D01*
X14713520Y-12483780D02*
G75*
G03*
X14533520Y-12483780I-90000J0D01*
G01*
X14533520Y-12513780D02*
G75*
G03*
X14713520Y-12513780I90000J0D01*
G01*
D20*
X14623520Y-14694780D02*
X14623520Y-14874780D01*
X14533520Y-14784780D02*
X14713520Y-14784780D01*
X14713520Y-14784780D02*
G75*
G03*
X14713520Y-14784780I-90000J0D01*
G01*
D11*
X14713520Y-14799780D02*
X14713520Y-14769780D01*
X14533520Y-14799780D02*
X14533520Y-14769780D01*
X14713520Y-14769780D02*
G75*
G03*
X14533520Y-14769780I-90000J0D01*
G01*
X14533520Y-14799780D02*
G75*
G03*
X14713520Y-14799780I90000J0D01*
G01*
D20*
X14623520Y-16980780D02*
X14623520Y-17160780D01*
X14533520Y-17070780D02*
X14713520Y-17070780D01*
X14713520Y-17070780D02*
G75*
G03*
X14713520Y-17070780I-90000J0D01*
G01*
D11*
X14713520Y-17085780D02*
X14713520Y-17055780D01*
X14533520Y-17085780D02*
X14533520Y-17055780D01*
X14713520Y-17055780D02*
G75*
G03*
X14533520Y-17055780I-90000J0D01*
G01*
X14533520Y-17085780D02*
G75*
G03*
X14713520Y-17085780I90000J0D01*
G01*
D20*
X15503520Y-12408780D02*
X15503520Y-12588780D01*
X15413520Y-12498780D02*
X15593520Y-12498780D01*
X15593520Y-12498780D02*
G75*
G03*
X15593520Y-12498780I-90000J0D01*
G01*
D11*
X15593520Y-12513780D02*
X15593520Y-12483780D01*
X15413520Y-12513780D02*
X15413520Y-12483780D01*
X15593520Y-12483780D02*
G75*
G03*
X15413520Y-12483780I-90000J0D01*
G01*
X15413520Y-12513780D02*
G75*
G03*
X15593520Y-12513780I90000J0D01*
G01*
D20*
X15503520Y-14694780D02*
X15503520Y-14874780D01*
X15413520Y-14784780D02*
X15593520Y-14784780D01*
X15593520Y-14784780D02*
G75*
G03*
X15593520Y-14784780I-90000J0D01*
G01*
D11*
X15593520Y-14799780D02*
X15593520Y-14769780D01*
X15413520Y-14799780D02*
X15413520Y-14769780D01*
X15593520Y-14769780D02*
G75*
G03*
X15413520Y-14769780I-90000J0D01*
G01*
X15413520Y-14799780D02*
G75*
G03*
X15593520Y-14799780I90000J0D01*
G01*
D20*
X15503520Y-16980780D02*
X15503520Y-17160780D01*
X15413520Y-17070780D02*
X15593520Y-17070780D01*
X15593520Y-17070780D02*
G75*
G03*
X15593520Y-17070780I-90000J0D01*
G01*
D11*
X15593520Y-17085780D02*
X15593520Y-17055780D01*
X15413520Y-17085780D02*
X15413520Y-17055780D01*
X15593520Y-17055780D02*
G75*
G03*
X15413520Y-17055780I-90000J0D01*
G01*
X15413520Y-17085780D02*
G75*
G03*
X15593520Y-17085780I90000J0D01*
G01*
D20*
X16655520Y-12408780D02*
X16655520Y-12588780D01*
X16565520Y-12498780D02*
X16745520Y-12498780D01*
X16745520Y-12498780D02*
G75*
G03*
X16745520Y-12498780I-90000J0D01*
G01*
D11*
X16745520Y-12513780D02*
X16745520Y-12483780D01*
X16565520Y-12513780D02*
X16565520Y-12483780D01*
X16745520Y-12483780D02*
G75*
G03*
X16565520Y-12483780I-90000J0D01*
G01*
X16565520Y-12513780D02*
G75*
G03*
X16745520Y-12513780I90000J0D01*
G01*
D20*
X16655520Y-14694780D02*
X16655520Y-14874780D01*
X16565520Y-14784780D02*
X16745520Y-14784780D01*
X16745520Y-14784780D02*
G75*
G03*
X16745520Y-14784780I-90000J0D01*
G01*
D11*
X16745520Y-14799780D02*
X16745520Y-14769780D01*
X16565520Y-14799780D02*
X16565520Y-14769780D01*
X16745520Y-14769780D02*
G75*
G03*
X16565520Y-14769780I-90000J0D01*
G01*
X16565520Y-14799780D02*
G75*
G03*
X16745520Y-14799780I90000J0D01*
G01*
D20*
X16655520Y-16980780D02*
X16655520Y-17160780D01*
X16565520Y-17070780D02*
X16745520Y-17070780D01*
X16745520Y-17070780D02*
G75*
G03*
X16745520Y-17070780I-90000J0D01*
G01*
D11*
X16745520Y-17085780D02*
X16745520Y-17055780D01*
X16565520Y-17085780D02*
X16565520Y-17055780D01*
X16745520Y-17055780D02*
G75*
G03*
X16565520Y-17055780I-90000J0D01*
G01*
X16565520Y-17085780D02*
G75*
G03*
X16745520Y-17085780I90000J0D01*
G01*
D20*
X17535520Y-12408780D02*
X17535520Y-12588780D01*
X17445520Y-12498780D02*
X17625520Y-12498780D01*
X17625520Y-12498780D02*
G75*
G03*
X17625520Y-12498780I-90000J0D01*
G01*
D11*
X17625520Y-12513780D02*
X17625520Y-12483780D01*
X17445520Y-12513780D02*
X17445520Y-12483780D01*
X17625520Y-12483780D02*
G75*
G03*
X17445520Y-12483780I-90000J0D01*
G01*
X17445520Y-12513780D02*
G75*
G03*
X17625520Y-12513780I90000J0D01*
G01*
D20*
X17535520Y-14694780D02*
X17535520Y-14874780D01*
X17445520Y-14784780D02*
X17625520Y-14784780D01*
X17625520Y-14784780D02*
G75*
G03*
X17625520Y-14784780I-90000J0D01*
G01*
D11*
X17625520Y-14799780D02*
X17625520Y-14769780D01*
X17445520Y-14799780D02*
X17445520Y-14769780D01*
X17625520Y-14769780D02*
G75*
G03*
X17445520Y-14769780I-90000J0D01*
G01*
X17445520Y-14799780D02*
G75*
G03*
X17625520Y-14799780I90000J0D01*
G01*
D20*
X17535520Y-16980780D02*
X17535520Y-17160780D01*
X17445520Y-17070780D02*
X17625520Y-17070780D01*
X17625520Y-17070780D02*
G75*
G03*
X17625520Y-17070780I-90000J0D01*
G01*
D11*
X17625520Y-17085780D02*
X17625520Y-17055780D01*
X17445520Y-17085780D02*
X17445520Y-17055780D01*
X17625520Y-17055780D02*
G75*
G03*
X17445520Y-17055780I-90000J0D01*
G01*
X17445520Y-17085780D02*
G75*
G03*
X17625520Y-17085780I90000J0D01*
G01*
X4870139Y-18553756D02*
X4870139Y-18353756D01*
X4917758Y-18353756D01*
X4946330Y-18363280D01*
X4965377Y-18382328D01*
X4974901Y-18401375D01*
X4984425Y-18439470D01*
X4984425Y-18468042D01*
X4974901Y-18506137D01*
X4965377Y-18525185D01*
X4946330Y-18544232D01*
X4917758Y-18553756D01*
X4870139Y-18553756D01*
X5070139Y-18553756D02*
X5070139Y-18420423D01*
X5070139Y-18458518D02*
X5079663Y-18439470D01*
X5089187Y-18429947D01*
X5108234Y-18420423D01*
X5127282Y-18420423D01*
X5193949Y-18553756D02*
X5193949Y-18420423D01*
X5193949Y-18353756D02*
X5184425Y-18363280D01*
X5193949Y-18372804D01*
X5203472Y-18363280D01*
X5193949Y-18353756D01*
X5193949Y-18372804D01*
X5317758Y-18553756D02*
X5298710Y-18544232D01*
X5289187Y-18525185D01*
X5289187Y-18353756D01*
X5422520Y-18553756D02*
X5403472Y-18544232D01*
X5393949Y-18525185D01*
X5393949Y-18353756D01*
X5651091Y-18553756D02*
X5651091Y-18353756D01*
X5717758Y-18496613D01*
X5784425Y-18353756D01*
X5784425Y-18553756D01*
X5965377Y-18553756D02*
X5965377Y-18448994D01*
X5955853Y-18429947D01*
X5936806Y-18420423D01*
X5898710Y-18420423D01*
X5879663Y-18429947D01*
X5965377Y-18544232D02*
X5946329Y-18553756D01*
X5898710Y-18553756D01*
X5879663Y-18544232D01*
X5870139Y-18525185D01*
X5870139Y-18506137D01*
X5879663Y-18487090D01*
X5898710Y-18477566D01*
X5946329Y-18477566D01*
X5965377Y-18468042D01*
X6060615Y-18420423D02*
X6060615Y-18620423D01*
X6060615Y-18429947D02*
X6079663Y-18420423D01*
X6117758Y-18420423D01*
X6136806Y-18429947D01*
X6146329Y-18439470D01*
X6155853Y-18458518D01*
X6155853Y-18515661D01*
X6146329Y-18534709D01*
X6136806Y-18544232D01*
X6117758Y-18553756D01*
X6079663Y-18553756D01*
X6060615Y-18544232D01*
X6241568Y-18534709D02*
X6251091Y-18544232D01*
X6241568Y-18553756D01*
X6232044Y-18544232D01*
X6241568Y-18534709D01*
X6241568Y-18553756D01*
X6241568Y-18429947D02*
X6251091Y-18439470D01*
X6241568Y-18448994D01*
X6232044Y-18439470D01*
X6241568Y-18429947D01*
X6241568Y-18448994D01*
D12*
X4587120Y-18870580D02*
X4612520Y-18895980D01*
X4612520Y-18870580D02*
X4587120Y-18895980D01*
D11*
X4908234Y-18773756D02*
X4927282Y-18773756D01*
X4946330Y-18783280D01*
X4955853Y-18792804D01*
X4965377Y-18811851D01*
X4974901Y-18849947D01*
X4974901Y-18897566D01*
X4965377Y-18935661D01*
X4955853Y-18954709D01*
X4946330Y-18964232D01*
X4927282Y-18973756D01*
X4908234Y-18973756D01*
X4889187Y-18964232D01*
X4879663Y-18954709D01*
X4870139Y-18935661D01*
X4860615Y-18897566D01*
X4860615Y-18849947D01*
X4870139Y-18811851D01*
X4879663Y-18792804D01*
X4889187Y-18783280D01*
X4908234Y-18773756D01*
X5060615Y-18954709D02*
X5070139Y-18964232D01*
X5060615Y-18973756D01*
X5051091Y-18964232D01*
X5060615Y-18954709D01*
X5060615Y-18973756D01*
X5146330Y-18792804D02*
X5155853Y-18783280D01*
X5174901Y-18773756D01*
X5222520Y-18773756D01*
X5241568Y-18783280D01*
X5251091Y-18792804D01*
X5260615Y-18811851D01*
X5260615Y-18830899D01*
X5251091Y-18859470D01*
X5136806Y-18973756D01*
X5260615Y-18973756D01*
X5441568Y-18773756D02*
X5346330Y-18773756D01*
X5336806Y-18868994D01*
X5346330Y-18859470D01*
X5365377Y-18849947D01*
X5412996Y-18849947D01*
X5432044Y-18859470D01*
X5441568Y-18868994D01*
X5451091Y-18888042D01*
X5451091Y-18935661D01*
X5441568Y-18954709D01*
X5432044Y-18964232D01*
X5412996Y-18973756D01*
X5365377Y-18973756D01*
X5346330Y-18964232D01*
X5336806Y-18954709D01*
X5622520Y-18840423D02*
X5622520Y-18973756D01*
X5574901Y-18764232D02*
X5527282Y-18907090D01*
X5651091Y-18907090D01*
X5727282Y-18973756D02*
X5727282Y-18840423D01*
X5727282Y-18859470D02*
X5736806Y-18849947D01*
X5755853Y-18840423D01*
X5784425Y-18840423D01*
X5803472Y-18849947D01*
X5812996Y-18868994D01*
X5812996Y-18973756D01*
X5812996Y-18868994D02*
X5822520Y-18849947D01*
X5841568Y-18840423D01*
X5870139Y-18840423D01*
X5889187Y-18849947D01*
X5898710Y-18868994D01*
X5898710Y-18973756D01*
X5993948Y-18973756D02*
X5993948Y-18840423D01*
X5993948Y-18859470D02*
X6003472Y-18849947D01*
X6022520Y-18840423D01*
X6051091Y-18840423D01*
X6070139Y-18849947D01*
X6079663Y-18868994D01*
X6079663Y-18973756D01*
X6079663Y-18868994D02*
X6089187Y-18849947D01*
X6108234Y-18840423D01*
X6136806Y-18840423D01*
X6155853Y-18849947D01*
X6165377Y-18868994D01*
X6165377Y-18973756D01*
X6555853Y-18764232D02*
X6384425Y-19021375D01*
X6812996Y-18773756D02*
X6832044Y-18773756D01*
X6851091Y-18783280D01*
X6860615Y-18792804D01*
X6870139Y-18811851D01*
X6879663Y-18849947D01*
X6879663Y-18897566D01*
X6870139Y-18935661D01*
X6860615Y-18954709D01*
X6851091Y-18964232D01*
X6832044Y-18973756D01*
X6812996Y-18973756D01*
X6793948Y-18964232D01*
X6784425Y-18954709D01*
X6774901Y-18935661D01*
X6765377Y-18897566D01*
X6765377Y-18849947D01*
X6774901Y-18811851D01*
X6784425Y-18792804D01*
X6793948Y-18783280D01*
X6812996Y-18773756D01*
X6965377Y-18954709D02*
X6974901Y-18964232D01*
X6965377Y-18973756D01*
X6955853Y-18964232D01*
X6965377Y-18954709D01*
X6965377Y-18973756D01*
X7098710Y-18773756D02*
X7117758Y-18773756D01*
X7136806Y-18783280D01*
X7146329Y-18792804D01*
X7155853Y-18811851D01*
X7165377Y-18849947D01*
X7165377Y-18897566D01*
X7155853Y-18935661D01*
X7146329Y-18954709D01*
X7136806Y-18964232D01*
X7117758Y-18973756D01*
X7098710Y-18973756D01*
X7079663Y-18964232D01*
X7070139Y-18954709D01*
X7060615Y-18935661D01*
X7051091Y-18897566D01*
X7051091Y-18849947D01*
X7060615Y-18811851D01*
X7070139Y-18792804D01*
X7079663Y-18783280D01*
X7098710Y-18773756D01*
X7355853Y-18973756D02*
X7241568Y-18973756D01*
X7298710Y-18973756D02*
X7298710Y-18773756D01*
X7279663Y-18802328D01*
X7260615Y-18821375D01*
X7241568Y-18830899D01*
X7479663Y-18773756D02*
X7498710Y-18773756D01*
X7517758Y-18783280D01*
X7527282Y-18792804D01*
X7536806Y-18811851D01*
X7546329Y-18849947D01*
X7546329Y-18897566D01*
X7536806Y-18935661D01*
X7527282Y-18954709D01*
X7517758Y-18964232D01*
X7498710Y-18973756D01*
X7479663Y-18973756D01*
X7460615Y-18964232D01*
X7451091Y-18954709D01*
X7441568Y-18935661D01*
X7432044Y-18897566D01*
X7432044Y-18849947D01*
X7441568Y-18811851D01*
X7451091Y-18792804D01*
X7460615Y-18783280D01*
X7479663Y-18773756D01*
X7670139Y-18773756D02*
X7689187Y-18773756D01*
X7708234Y-18783280D01*
X7717758Y-18792804D01*
X7727282Y-18811851D01*
X7736806Y-18849947D01*
X7736806Y-18897566D01*
X7727282Y-18935661D01*
X7717758Y-18954709D01*
X7708234Y-18964232D01*
X7689187Y-18973756D01*
X7670139Y-18973756D01*
X7651091Y-18964232D01*
X7641568Y-18954709D01*
X7632044Y-18935661D01*
X7622520Y-18897566D01*
X7622520Y-18849947D01*
X7632044Y-18811851D01*
X7641568Y-18792804D01*
X7651091Y-18783280D01*
X7670139Y-18773756D01*
X7812996Y-18773756D02*
X7812996Y-18811851D01*
X7889187Y-18773756D02*
X7889187Y-18811851D01*
X8184425Y-19049947D02*
X8174901Y-19040423D01*
X8155853Y-19011851D01*
X8146329Y-18992804D01*
X8136806Y-18964232D01*
X8127282Y-18916613D01*
X8127282Y-18878518D01*
X8136806Y-18830899D01*
X8146329Y-18802328D01*
X8155853Y-18783280D01*
X8174901Y-18754709D01*
X8184425Y-18745185D01*
X8241568Y-18773756D02*
X8365377Y-18773756D01*
X8298710Y-18849947D01*
X8327282Y-18849947D01*
X8346329Y-18859470D01*
X8355853Y-18868994D01*
X8365377Y-18888042D01*
X8365377Y-18935661D01*
X8355853Y-18954709D01*
X8346329Y-18964232D01*
X8327282Y-18973756D01*
X8270139Y-18973756D01*
X8251091Y-18964232D01*
X8241568Y-18954709D01*
X8460615Y-18973756D02*
X8498710Y-18973756D01*
X8517758Y-18964232D01*
X8527282Y-18954709D01*
X8546330Y-18926137D01*
X8555853Y-18888042D01*
X8555853Y-18811851D01*
X8546330Y-18792804D01*
X8536806Y-18783280D01*
X8517758Y-18773756D01*
X8479663Y-18773756D01*
X8460615Y-18783280D01*
X8451091Y-18792804D01*
X8441568Y-18811851D01*
X8441568Y-18859470D01*
X8451091Y-18878518D01*
X8460615Y-18888042D01*
X8479663Y-18897566D01*
X8517758Y-18897566D01*
X8536806Y-18888042D01*
X8546330Y-18878518D01*
X8555853Y-18859470D01*
X8793949Y-18973756D02*
X8793949Y-18773756D01*
X8879663Y-18973756D02*
X8879663Y-18868994D01*
X8870139Y-18849947D01*
X8851091Y-18840423D01*
X8822520Y-18840423D01*
X8803472Y-18849947D01*
X8793949Y-18859470D01*
X9003472Y-18973756D02*
X8984425Y-18964232D01*
X8974901Y-18954709D01*
X8965377Y-18935661D01*
X8965377Y-18878518D01*
X8974901Y-18859470D01*
X8984425Y-18849947D01*
X9003472Y-18840423D01*
X9032044Y-18840423D01*
X9051091Y-18849947D01*
X9060615Y-18859470D01*
X9070139Y-18878518D01*
X9070139Y-18935661D01*
X9060615Y-18954709D01*
X9051091Y-18964232D01*
X9032044Y-18973756D01*
X9003472Y-18973756D01*
X9184425Y-18973756D02*
X9165377Y-18964232D01*
X9155853Y-18945185D01*
X9155853Y-18773756D01*
X9336806Y-18964232D02*
X9317758Y-18973756D01*
X9279663Y-18973756D01*
X9260615Y-18964232D01*
X9251091Y-18945185D01*
X9251091Y-18868994D01*
X9260615Y-18849947D01*
X9279663Y-18840423D01*
X9317758Y-18840423D01*
X9336806Y-18849947D01*
X9346330Y-18868994D01*
X9346330Y-18888042D01*
X9251091Y-18907090D01*
X9422520Y-18964232D02*
X9441568Y-18973756D01*
X9479663Y-18973756D01*
X9498710Y-18964232D01*
X9508234Y-18945185D01*
X9508234Y-18935661D01*
X9498710Y-18916613D01*
X9479663Y-18907090D01*
X9451091Y-18907090D01*
X9432044Y-18897566D01*
X9422520Y-18878518D01*
X9422520Y-18868994D01*
X9432044Y-18849947D01*
X9451091Y-18840423D01*
X9479663Y-18840423D01*
X9498710Y-18849947D01*
X9574901Y-19049947D02*
X9584425Y-19040423D01*
X9603472Y-19011851D01*
X9612996Y-18992804D01*
X9622520Y-18964232D01*
X9632044Y-18916613D01*
X9632044Y-18878518D01*
X9622520Y-18830899D01*
X9612996Y-18802328D01*
X9603472Y-18783280D01*
X9584425Y-18754709D01*
X9574901Y-18745185D01*
D13*
X4612520Y-19147280D02*
G75*
G03*
X4612520Y-19147280I-19050J0D01*
G01*
D11*
X4908234Y-19037756D02*
X4927282Y-19037756D01*
X4946330Y-19047280D01*
X4955853Y-19056804D01*
X4965377Y-19075851D01*
X4974901Y-19113947D01*
X4974901Y-19161566D01*
X4965377Y-19199661D01*
X4955853Y-19218709D01*
X4946330Y-19228232D01*
X4927282Y-19237756D01*
X4908234Y-19237756D01*
X4889187Y-19228232D01*
X4879663Y-19218709D01*
X4870139Y-19199661D01*
X4860615Y-19161566D01*
X4860615Y-19113947D01*
X4870139Y-19075851D01*
X4879663Y-19056804D01*
X4889187Y-19047280D01*
X4908234Y-19037756D01*
X5060615Y-19218709D02*
X5070139Y-19228232D01*
X5060615Y-19237756D01*
X5051091Y-19228232D01*
X5060615Y-19218709D01*
X5060615Y-19237756D01*
X5136806Y-19037756D02*
X5260615Y-19037756D01*
X5193949Y-19113947D01*
X5222520Y-19113947D01*
X5241568Y-19123470D01*
X5251091Y-19132994D01*
X5260615Y-19152042D01*
X5260615Y-19199661D01*
X5251091Y-19218709D01*
X5241568Y-19228232D01*
X5222520Y-19237756D01*
X5165377Y-19237756D01*
X5146330Y-19228232D01*
X5136806Y-19218709D01*
X5374901Y-19123470D02*
X5355853Y-19113947D01*
X5346330Y-19104423D01*
X5336806Y-19085375D01*
X5336806Y-19075851D01*
X5346330Y-19056804D01*
X5355853Y-19047280D01*
X5374901Y-19037756D01*
X5412996Y-19037756D01*
X5432044Y-19047280D01*
X5441568Y-19056804D01*
X5451091Y-19075851D01*
X5451091Y-19085375D01*
X5441568Y-19104423D01*
X5432044Y-19113947D01*
X5412996Y-19123470D01*
X5374901Y-19123470D01*
X5355853Y-19132994D01*
X5346330Y-19142518D01*
X5336806Y-19161566D01*
X5336806Y-19199661D01*
X5346330Y-19218709D01*
X5355853Y-19228232D01*
X5374901Y-19237756D01*
X5412996Y-19237756D01*
X5432044Y-19228232D01*
X5441568Y-19218709D01*
X5451091Y-19199661D01*
X5451091Y-19161566D01*
X5441568Y-19142518D01*
X5432044Y-19132994D01*
X5412996Y-19123470D01*
X5641568Y-19237756D02*
X5527282Y-19237756D01*
X5584425Y-19237756D02*
X5584425Y-19037756D01*
X5565377Y-19066328D01*
X5546330Y-19085375D01*
X5527282Y-19094899D01*
X5727282Y-19237756D02*
X5727282Y-19104423D01*
X5727282Y-19123470D02*
X5736806Y-19113947D01*
X5755853Y-19104423D01*
X5784425Y-19104423D01*
X5803472Y-19113947D01*
X5812996Y-19132994D01*
X5812996Y-19237756D01*
X5812996Y-19132994D02*
X5822520Y-19113947D01*
X5841568Y-19104423D01*
X5870139Y-19104423D01*
X5889187Y-19113947D01*
X5898710Y-19132994D01*
X5898710Y-19237756D01*
X5993948Y-19237756D02*
X5993948Y-19104423D01*
X5993948Y-19123470D02*
X6003472Y-19113947D01*
X6022520Y-19104423D01*
X6051091Y-19104423D01*
X6070139Y-19113947D01*
X6079663Y-19132994D01*
X6079663Y-19237756D01*
X6079663Y-19132994D02*
X6089187Y-19113947D01*
X6108234Y-19104423D01*
X6136806Y-19104423D01*
X6155853Y-19113947D01*
X6165377Y-19132994D01*
X6165377Y-19237756D01*
X6555853Y-19028232D02*
X6384425Y-19285375D01*
X6812996Y-19037756D02*
X6832044Y-19037756D01*
X6851091Y-19047280D01*
X6860615Y-19056804D01*
X6870139Y-19075851D01*
X6879663Y-19113947D01*
X6879663Y-19161566D01*
X6870139Y-19199661D01*
X6860615Y-19218709D01*
X6851091Y-19228232D01*
X6832044Y-19237756D01*
X6812996Y-19237756D01*
X6793948Y-19228232D01*
X6784425Y-19218709D01*
X6774901Y-19199661D01*
X6765377Y-19161566D01*
X6765377Y-19113947D01*
X6774901Y-19075851D01*
X6784425Y-19056804D01*
X6793948Y-19047280D01*
X6812996Y-19037756D01*
X6965377Y-19218709D02*
X6974901Y-19228232D01*
X6965377Y-19237756D01*
X6955853Y-19228232D01*
X6965377Y-19218709D01*
X6965377Y-19237756D01*
X7098710Y-19037756D02*
X7117758Y-19037756D01*
X7136806Y-19047280D01*
X7146329Y-19056804D01*
X7155853Y-19075851D01*
X7165377Y-19113947D01*
X7165377Y-19161566D01*
X7155853Y-19199661D01*
X7146329Y-19218709D01*
X7136806Y-19228232D01*
X7117758Y-19237756D01*
X7098710Y-19237756D01*
X7079663Y-19228232D01*
X7070139Y-19218709D01*
X7060615Y-19199661D01*
X7051091Y-19161566D01*
X7051091Y-19113947D01*
X7060615Y-19075851D01*
X7070139Y-19056804D01*
X7079663Y-19047280D01*
X7098710Y-19037756D01*
X7355853Y-19237756D02*
X7241568Y-19237756D01*
X7298710Y-19237756D02*
X7298710Y-19037756D01*
X7279663Y-19066328D01*
X7260615Y-19085375D01*
X7241568Y-19094899D01*
X7536806Y-19037756D02*
X7441568Y-19037756D01*
X7432044Y-19132994D01*
X7441568Y-19123470D01*
X7460615Y-19113947D01*
X7508234Y-19113947D01*
X7527282Y-19123470D01*
X7536806Y-19132994D01*
X7546329Y-19152042D01*
X7546329Y-19199661D01*
X7536806Y-19218709D01*
X7527282Y-19228232D01*
X7508234Y-19237756D01*
X7460615Y-19237756D01*
X7441568Y-19228232D01*
X7432044Y-19218709D01*
X7670139Y-19037756D02*
X7689187Y-19037756D01*
X7708234Y-19047280D01*
X7717758Y-19056804D01*
X7727282Y-19075851D01*
X7736806Y-19113947D01*
X7736806Y-19161566D01*
X7727282Y-19199661D01*
X7717758Y-19218709D01*
X7708234Y-19228232D01*
X7689187Y-19237756D01*
X7670139Y-19237756D01*
X7651091Y-19228232D01*
X7641568Y-19218709D01*
X7632044Y-19199661D01*
X7622520Y-19161566D01*
X7622520Y-19113947D01*
X7632044Y-19075851D01*
X7641568Y-19056804D01*
X7651091Y-19047280D01*
X7670139Y-19037756D01*
X7812996Y-19037756D02*
X7812996Y-19075851D01*
X7889187Y-19037756D02*
X7889187Y-19075851D01*
X8184425Y-19313947D02*
X8174901Y-19304423D01*
X8155853Y-19275851D01*
X8146329Y-19256804D01*
X8136806Y-19228232D01*
X8127282Y-19180613D01*
X8127282Y-19142518D01*
X8136806Y-19094899D01*
X8146329Y-19066328D01*
X8155853Y-19047280D01*
X8174901Y-19018709D01*
X8184425Y-19009185D01*
X8365377Y-19237756D02*
X8251091Y-19237756D01*
X8308234Y-19237756D02*
X8308234Y-19037756D01*
X8289187Y-19066328D01*
X8270139Y-19085375D01*
X8251091Y-19094899D01*
X8536806Y-19104423D02*
X8536806Y-19237756D01*
X8489187Y-19028232D02*
X8441568Y-19171090D01*
X8565377Y-19171090D01*
X8793949Y-19237756D02*
X8793949Y-19037756D01*
X8879663Y-19237756D02*
X8879663Y-19132994D01*
X8870139Y-19113947D01*
X8851091Y-19104423D01*
X8822520Y-19104423D01*
X8803472Y-19113947D01*
X8793949Y-19123470D01*
X9003472Y-19237756D02*
X8984425Y-19228232D01*
X8974901Y-19218709D01*
X8965377Y-19199661D01*
X8965377Y-19142518D01*
X8974901Y-19123470D01*
X8984425Y-19113947D01*
X9003472Y-19104423D01*
X9032044Y-19104423D01*
X9051091Y-19113947D01*
X9060615Y-19123470D01*
X9070139Y-19142518D01*
X9070139Y-19199661D01*
X9060615Y-19218709D01*
X9051091Y-19228232D01*
X9032044Y-19237756D01*
X9003472Y-19237756D01*
X9184425Y-19237756D02*
X9165377Y-19228232D01*
X9155853Y-19209185D01*
X9155853Y-19037756D01*
X9336806Y-19228232D02*
X9317758Y-19237756D01*
X9279663Y-19237756D01*
X9260615Y-19228232D01*
X9251091Y-19209185D01*
X9251091Y-19132994D01*
X9260615Y-19113947D01*
X9279663Y-19104423D01*
X9317758Y-19104423D01*
X9336806Y-19113947D01*
X9346330Y-19132994D01*
X9346330Y-19152042D01*
X9251091Y-19171090D01*
X9422520Y-19228232D02*
X9441568Y-19237756D01*
X9479663Y-19237756D01*
X9498710Y-19228232D01*
X9508234Y-19209185D01*
X9508234Y-19199661D01*
X9498710Y-19180613D01*
X9479663Y-19171090D01*
X9451091Y-19171090D01*
X9432044Y-19161566D01*
X9422520Y-19142518D01*
X9422520Y-19132994D01*
X9432044Y-19113947D01*
X9451091Y-19104423D01*
X9479663Y-19104423D01*
X9498710Y-19113947D01*
X9574901Y-19313947D02*
X9584425Y-19304423D01*
X9603472Y-19275851D01*
X9612996Y-19256804D01*
X9622520Y-19228232D01*
X9632044Y-19180613D01*
X9632044Y-19142518D01*
X9622520Y-19094899D01*
X9612996Y-19066328D01*
X9603472Y-19047280D01*
X9584425Y-19018709D01*
X9574901Y-19009185D01*
D14*
X4587520Y-19386280D02*
X4587520Y-19436280D01*
X4562520Y-19411280D02*
X4612520Y-19411280D01*
D11*
X4908234Y-19301756D02*
X4927282Y-19301756D01*
X4946330Y-19311280D01*
X4955853Y-19320804D01*
X4965377Y-19339851D01*
X4974901Y-19377947D01*
X4974901Y-19425566D01*
X4965377Y-19463661D01*
X4955853Y-19482709D01*
X4946330Y-19492232D01*
X4927282Y-19501756D01*
X4908234Y-19501756D01*
X4889187Y-19492232D01*
X4879663Y-19482709D01*
X4870139Y-19463661D01*
X4860615Y-19425566D01*
X4860615Y-19377947D01*
X4870139Y-19339851D01*
X4879663Y-19320804D01*
X4889187Y-19311280D01*
X4908234Y-19301756D01*
X5060615Y-19482709D02*
X5070139Y-19492232D01*
X5060615Y-19501756D01*
X5051091Y-19492232D01*
X5060615Y-19482709D01*
X5060615Y-19501756D01*
X5251091Y-19301756D02*
X5155853Y-19301756D01*
X5146330Y-19396994D01*
X5155853Y-19387470D01*
X5174901Y-19377947D01*
X5222520Y-19377947D01*
X5241568Y-19387470D01*
X5251091Y-19396994D01*
X5260615Y-19416042D01*
X5260615Y-19463661D01*
X5251091Y-19482709D01*
X5241568Y-19492232D01*
X5222520Y-19501756D01*
X5174901Y-19501756D01*
X5155853Y-19492232D01*
X5146330Y-19482709D01*
X5384425Y-19301756D02*
X5403472Y-19301756D01*
X5422520Y-19311280D01*
X5432044Y-19320804D01*
X5441568Y-19339851D01*
X5451091Y-19377947D01*
X5451091Y-19425566D01*
X5441568Y-19463661D01*
X5432044Y-19482709D01*
X5422520Y-19492232D01*
X5403472Y-19501756D01*
X5384425Y-19501756D01*
X5365377Y-19492232D01*
X5355853Y-19482709D01*
X5346330Y-19463661D01*
X5336806Y-19425566D01*
X5336806Y-19377947D01*
X5346330Y-19339851D01*
X5355853Y-19320804D01*
X5365377Y-19311280D01*
X5384425Y-19301756D01*
X5574901Y-19301756D02*
X5593948Y-19301756D01*
X5612996Y-19311280D01*
X5622520Y-19320804D01*
X5632044Y-19339851D01*
X5641568Y-19377947D01*
X5641568Y-19425566D01*
X5632044Y-19463661D01*
X5622520Y-19482709D01*
X5612996Y-19492232D01*
X5593948Y-19501756D01*
X5574901Y-19501756D01*
X5555853Y-19492232D01*
X5546330Y-19482709D01*
X5536806Y-19463661D01*
X5527282Y-19425566D01*
X5527282Y-19377947D01*
X5536806Y-19339851D01*
X5546330Y-19320804D01*
X5555853Y-19311280D01*
X5574901Y-19301756D01*
X5727282Y-19501756D02*
X5727282Y-19368423D01*
X5727282Y-19387470D02*
X5736806Y-19377947D01*
X5755853Y-19368423D01*
X5784425Y-19368423D01*
X5803472Y-19377947D01*
X5812996Y-19396994D01*
X5812996Y-19501756D01*
X5812996Y-19396994D02*
X5822520Y-19377947D01*
X5841568Y-19368423D01*
X5870139Y-19368423D01*
X5889187Y-19377947D01*
X5898710Y-19396994D01*
X5898710Y-19501756D01*
X5993948Y-19501756D02*
X5993948Y-19368423D01*
X5993948Y-19387470D02*
X6003472Y-19377947D01*
X6022520Y-19368423D01*
X6051091Y-19368423D01*
X6070139Y-19377947D01*
X6079663Y-19396994D01*
X6079663Y-19501756D01*
X6079663Y-19396994D02*
X6089187Y-19377947D01*
X6108234Y-19368423D01*
X6136806Y-19368423D01*
X6155853Y-19377947D01*
X6165377Y-19396994D01*
X6165377Y-19501756D01*
X6555853Y-19292232D02*
X6384425Y-19549375D01*
X6812996Y-19301756D02*
X6832044Y-19301756D01*
X6851091Y-19311280D01*
X6860615Y-19320804D01*
X6870139Y-19339851D01*
X6879663Y-19377947D01*
X6879663Y-19425566D01*
X6870139Y-19463661D01*
X6860615Y-19482709D01*
X6851091Y-19492232D01*
X6832044Y-19501756D01*
X6812996Y-19501756D01*
X6793948Y-19492232D01*
X6784425Y-19482709D01*
X6774901Y-19463661D01*
X6765377Y-19425566D01*
X6765377Y-19377947D01*
X6774901Y-19339851D01*
X6784425Y-19320804D01*
X6793948Y-19311280D01*
X6812996Y-19301756D01*
X6965377Y-19482709D02*
X6974901Y-19492232D01*
X6965377Y-19501756D01*
X6955853Y-19492232D01*
X6965377Y-19482709D01*
X6965377Y-19501756D01*
X7098710Y-19301756D02*
X7117758Y-19301756D01*
X7136806Y-19311280D01*
X7146329Y-19320804D01*
X7155853Y-19339851D01*
X7165377Y-19377947D01*
X7165377Y-19425566D01*
X7155853Y-19463661D01*
X7146329Y-19482709D01*
X7136806Y-19492232D01*
X7117758Y-19501756D01*
X7098710Y-19501756D01*
X7079663Y-19492232D01*
X7070139Y-19482709D01*
X7060615Y-19463661D01*
X7051091Y-19425566D01*
X7051091Y-19377947D01*
X7060615Y-19339851D01*
X7070139Y-19320804D01*
X7079663Y-19311280D01*
X7098710Y-19301756D01*
X7355853Y-19501756D02*
X7241568Y-19501756D01*
X7298710Y-19501756D02*
X7298710Y-19301756D01*
X7279663Y-19330328D01*
X7260615Y-19349375D01*
X7241568Y-19358899D01*
X7451091Y-19501756D02*
X7489187Y-19501756D01*
X7508234Y-19492232D01*
X7517758Y-19482709D01*
X7536806Y-19454137D01*
X7546329Y-19416042D01*
X7546329Y-19339851D01*
X7536806Y-19320804D01*
X7527282Y-19311280D01*
X7508234Y-19301756D01*
X7470139Y-19301756D01*
X7451091Y-19311280D01*
X7441568Y-19320804D01*
X7432044Y-19339851D01*
X7432044Y-19387470D01*
X7441568Y-19406518D01*
X7451091Y-19416042D01*
X7470139Y-19425566D01*
X7508234Y-19425566D01*
X7527282Y-19416042D01*
X7536806Y-19406518D01*
X7546329Y-19387470D01*
X7612996Y-19301756D02*
X7746329Y-19301756D01*
X7660615Y-19501756D01*
X7812996Y-19301756D02*
X7812996Y-19339851D01*
X7889187Y-19301756D02*
X7889187Y-19339851D01*
X8184425Y-19577947D02*
X8174901Y-19568423D01*
X8155853Y-19539851D01*
X8146329Y-19520804D01*
X8136806Y-19492232D01*
X8127282Y-19444613D01*
X8127282Y-19406518D01*
X8136806Y-19358899D01*
X8146329Y-19330328D01*
X8155853Y-19311280D01*
X8174901Y-19282709D01*
X8184425Y-19273185D01*
X8346329Y-19368423D02*
X8346329Y-19501756D01*
X8298710Y-19292232D02*
X8251091Y-19435090D01*
X8374901Y-19435090D01*
X8603472Y-19501756D02*
X8603472Y-19301756D01*
X8689187Y-19501756D02*
X8689187Y-19396994D01*
X8679663Y-19377947D01*
X8660615Y-19368423D01*
X8632044Y-19368423D01*
X8612996Y-19377947D01*
X8603472Y-19387470D01*
X8812996Y-19501756D02*
X8793949Y-19492232D01*
X8784425Y-19482709D01*
X8774901Y-19463661D01*
X8774901Y-19406518D01*
X8784425Y-19387470D01*
X8793949Y-19377947D01*
X8812996Y-19368423D01*
X8841568Y-19368423D01*
X8860615Y-19377947D01*
X8870139Y-19387470D01*
X8879663Y-19406518D01*
X8879663Y-19463661D01*
X8870139Y-19482709D01*
X8860615Y-19492232D01*
X8841568Y-19501756D01*
X8812996Y-19501756D01*
X8993949Y-19501756D02*
X8974901Y-19492232D01*
X8965377Y-19473185D01*
X8965377Y-19301756D01*
X9146330Y-19492232D02*
X9127282Y-19501756D01*
X9089187Y-19501756D01*
X9070139Y-19492232D01*
X9060615Y-19473185D01*
X9060615Y-19396994D01*
X9070139Y-19377947D01*
X9089187Y-19368423D01*
X9127282Y-19368423D01*
X9146330Y-19377947D01*
X9155853Y-19396994D01*
X9155853Y-19416042D01*
X9060615Y-19435090D01*
X9232044Y-19492232D02*
X9251091Y-19501756D01*
X9289187Y-19501756D01*
X9308234Y-19492232D01*
X9317758Y-19473185D01*
X9317758Y-19463661D01*
X9308234Y-19444613D01*
X9289187Y-19435090D01*
X9260615Y-19435090D01*
X9241568Y-19425566D01*
X9232044Y-19406518D01*
X9232044Y-19396994D01*
X9241568Y-19377947D01*
X9260615Y-19368423D01*
X9289187Y-19368423D01*
X9308234Y-19377947D01*
X9384425Y-19577947D02*
X9393949Y-19568423D01*
X9412996Y-19539851D01*
X9422520Y-19520804D01*
X9432044Y-19492232D01*
X9441568Y-19444613D01*
X9441568Y-19406518D01*
X9432044Y-19358899D01*
X9422520Y-19330328D01*
X9412996Y-19311280D01*
X9393949Y-19282709D01*
X9384425Y-19273185D01*
D15*
X4601537Y-19701797D02*
X4601537Y-19648763D01*
X4548503Y-19648763D01*
X4548503Y-19701797D01*
X4601537Y-19701797D01*
D11*
X4908234Y-19565756D02*
X4927282Y-19565756D01*
X4946330Y-19575280D01*
X4955853Y-19584804D01*
X4965377Y-19603851D01*
X4974901Y-19641947D01*
X4974901Y-19689566D01*
X4965377Y-19727661D01*
X4955853Y-19746709D01*
X4946330Y-19756232D01*
X4927282Y-19765756D01*
X4908234Y-19765756D01*
X4889187Y-19756232D01*
X4879663Y-19746709D01*
X4870139Y-19727661D01*
X4860615Y-19689566D01*
X4860615Y-19641947D01*
X4870139Y-19603851D01*
X4879663Y-19584804D01*
X4889187Y-19575280D01*
X4908234Y-19565756D01*
X5060615Y-19746709D02*
X5070139Y-19756232D01*
X5060615Y-19765756D01*
X5051091Y-19756232D01*
X5060615Y-19746709D01*
X5060615Y-19765756D01*
X5136806Y-19565756D02*
X5270139Y-19565756D01*
X5184425Y-19765756D01*
X5441568Y-19565756D02*
X5346330Y-19565756D01*
X5336806Y-19660994D01*
X5346330Y-19651470D01*
X5365377Y-19641947D01*
X5412996Y-19641947D01*
X5432044Y-19651470D01*
X5441568Y-19660994D01*
X5451091Y-19680042D01*
X5451091Y-19727661D01*
X5441568Y-19746709D01*
X5432044Y-19756232D01*
X5412996Y-19765756D01*
X5365377Y-19765756D01*
X5346330Y-19756232D01*
X5336806Y-19746709D01*
X5574901Y-19565756D02*
X5593948Y-19565756D01*
X5612996Y-19575280D01*
X5622520Y-19584804D01*
X5632044Y-19603851D01*
X5641568Y-19641947D01*
X5641568Y-19689566D01*
X5632044Y-19727661D01*
X5622520Y-19746709D01*
X5612996Y-19756232D01*
X5593948Y-19765756D01*
X5574901Y-19765756D01*
X5555853Y-19756232D01*
X5546330Y-19746709D01*
X5536806Y-19727661D01*
X5527282Y-19689566D01*
X5527282Y-19641947D01*
X5536806Y-19603851D01*
X5546330Y-19584804D01*
X5555853Y-19575280D01*
X5574901Y-19565756D01*
X5727282Y-19765756D02*
X5727282Y-19632423D01*
X5727282Y-19651470D02*
X5736806Y-19641947D01*
X5755853Y-19632423D01*
X5784425Y-19632423D01*
X5803472Y-19641947D01*
X5812996Y-19660994D01*
X5812996Y-19765756D01*
X5812996Y-19660994D02*
X5822520Y-19641947D01*
X5841568Y-19632423D01*
X5870139Y-19632423D01*
X5889187Y-19641947D01*
X5898710Y-19660994D01*
X5898710Y-19765756D01*
X5993948Y-19765756D02*
X5993948Y-19632423D01*
X5993948Y-19651470D02*
X6003472Y-19641947D01*
X6022520Y-19632423D01*
X6051091Y-19632423D01*
X6070139Y-19641947D01*
X6079663Y-19660994D01*
X6079663Y-19765756D01*
X6079663Y-19660994D02*
X6089187Y-19641947D01*
X6108234Y-19632423D01*
X6136806Y-19632423D01*
X6155853Y-19641947D01*
X6165377Y-19660994D01*
X6165377Y-19765756D01*
X6555853Y-19556232D02*
X6384425Y-19813375D01*
X6812996Y-19565756D02*
X6832044Y-19565756D01*
X6851091Y-19575280D01*
X6860615Y-19584804D01*
X6870139Y-19603851D01*
X6879663Y-19641947D01*
X6879663Y-19689566D01*
X6870139Y-19727661D01*
X6860615Y-19746709D01*
X6851091Y-19756232D01*
X6832044Y-19765756D01*
X6812996Y-19765756D01*
X6793948Y-19756232D01*
X6784425Y-19746709D01*
X6774901Y-19727661D01*
X6765377Y-19689566D01*
X6765377Y-19641947D01*
X6774901Y-19603851D01*
X6784425Y-19584804D01*
X6793948Y-19575280D01*
X6812996Y-19565756D01*
X6965377Y-19746709D02*
X6974901Y-19756232D01*
X6965377Y-19765756D01*
X6955853Y-19756232D01*
X6965377Y-19746709D01*
X6965377Y-19765756D01*
X7098710Y-19565756D02*
X7117758Y-19565756D01*
X7136806Y-19575280D01*
X7146329Y-19584804D01*
X7155853Y-19603851D01*
X7165377Y-19641947D01*
X7165377Y-19689566D01*
X7155853Y-19727661D01*
X7146329Y-19746709D01*
X7136806Y-19756232D01*
X7117758Y-19765756D01*
X7098710Y-19765756D01*
X7079663Y-19756232D01*
X7070139Y-19746709D01*
X7060615Y-19727661D01*
X7051091Y-19689566D01*
X7051091Y-19641947D01*
X7060615Y-19603851D01*
X7070139Y-19584804D01*
X7079663Y-19575280D01*
X7098710Y-19565756D01*
X7241568Y-19584804D02*
X7251091Y-19575280D01*
X7270139Y-19565756D01*
X7317758Y-19565756D01*
X7336806Y-19575280D01*
X7346329Y-19584804D01*
X7355853Y-19603851D01*
X7355853Y-19622899D01*
X7346329Y-19651470D01*
X7232044Y-19765756D01*
X7355853Y-19765756D01*
X7451091Y-19765756D02*
X7489187Y-19765756D01*
X7508234Y-19756232D01*
X7517758Y-19746709D01*
X7536806Y-19718137D01*
X7546329Y-19680042D01*
X7546329Y-19603851D01*
X7536806Y-19584804D01*
X7527282Y-19575280D01*
X7508234Y-19565756D01*
X7470139Y-19565756D01*
X7451091Y-19575280D01*
X7441568Y-19584804D01*
X7432044Y-19603851D01*
X7432044Y-19651470D01*
X7441568Y-19670518D01*
X7451091Y-19680042D01*
X7470139Y-19689566D01*
X7508234Y-19689566D01*
X7527282Y-19680042D01*
X7536806Y-19670518D01*
X7546329Y-19651470D01*
X7727282Y-19565756D02*
X7632044Y-19565756D01*
X7622520Y-19660994D01*
X7632044Y-19651470D01*
X7651091Y-19641947D01*
X7698710Y-19641947D01*
X7717758Y-19651470D01*
X7727282Y-19660994D01*
X7736806Y-19680042D01*
X7736806Y-19727661D01*
X7727282Y-19746709D01*
X7717758Y-19756232D01*
X7698710Y-19765756D01*
X7651091Y-19765756D01*
X7632044Y-19756232D01*
X7622520Y-19746709D01*
X7812996Y-19565756D02*
X7812996Y-19603851D01*
X7889187Y-19565756D02*
X7889187Y-19603851D01*
X8184425Y-19841947D02*
X8174901Y-19832423D01*
X8155853Y-19803851D01*
X8146329Y-19784804D01*
X8136806Y-19756232D01*
X8127282Y-19708613D01*
X8127282Y-19670518D01*
X8136806Y-19622899D01*
X8146329Y-19594328D01*
X8155853Y-19575280D01*
X8174901Y-19546709D01*
X8184425Y-19537185D01*
X8365377Y-19765756D02*
X8251091Y-19765756D01*
X8308234Y-19765756D02*
X8308234Y-19565756D01*
X8289187Y-19594328D01*
X8270139Y-19613375D01*
X8251091Y-19622899D01*
X8489187Y-19565756D02*
X8508234Y-19565756D01*
X8527282Y-19575280D01*
X8536806Y-19584804D01*
X8546330Y-19603851D01*
X8555853Y-19641947D01*
X8555853Y-19689566D01*
X8546330Y-19727661D01*
X8536806Y-19746709D01*
X8527282Y-19756232D01*
X8508234Y-19765756D01*
X8489187Y-19765756D01*
X8470139Y-19756232D01*
X8460615Y-19746709D01*
X8451091Y-19727661D01*
X8441568Y-19689566D01*
X8441568Y-19641947D01*
X8451091Y-19603851D01*
X8460615Y-19584804D01*
X8470139Y-19575280D01*
X8489187Y-19565756D01*
X8793949Y-19765756D02*
X8793949Y-19565756D01*
X8879663Y-19765756D02*
X8879663Y-19660994D01*
X8870139Y-19641947D01*
X8851091Y-19632423D01*
X8822520Y-19632423D01*
X8803472Y-19641947D01*
X8793949Y-19651470D01*
X9003472Y-19765756D02*
X8984425Y-19756232D01*
X8974901Y-19746709D01*
X8965377Y-19727661D01*
X8965377Y-19670518D01*
X8974901Y-19651470D01*
X8984425Y-19641947D01*
X9003472Y-19632423D01*
X9032044Y-19632423D01*
X9051091Y-19641947D01*
X9060615Y-19651470D01*
X9070139Y-19670518D01*
X9070139Y-19727661D01*
X9060615Y-19746709D01*
X9051091Y-19756232D01*
X9032044Y-19765756D01*
X9003472Y-19765756D01*
X9184425Y-19765756D02*
X9165377Y-19756232D01*
X9155853Y-19737185D01*
X9155853Y-19565756D01*
X9336806Y-19756232D02*
X9317758Y-19765756D01*
X9279663Y-19765756D01*
X9260615Y-19756232D01*
X9251091Y-19737185D01*
X9251091Y-19660994D01*
X9260615Y-19641947D01*
X9279663Y-19632423D01*
X9317758Y-19632423D01*
X9336806Y-19641947D01*
X9346330Y-19660994D01*
X9346330Y-19680042D01*
X9251091Y-19699090D01*
X9422520Y-19756232D02*
X9441568Y-19765756D01*
X9479663Y-19765756D01*
X9498710Y-19756232D01*
X9508234Y-19737185D01*
X9508234Y-19727661D01*
X9498710Y-19708613D01*
X9479663Y-19699090D01*
X9451091Y-19699090D01*
X9432044Y-19689566D01*
X9422520Y-19670518D01*
X9422520Y-19660994D01*
X9432044Y-19641947D01*
X9451091Y-19632423D01*
X9479663Y-19632423D01*
X9498710Y-19641947D01*
X9574901Y-19841947D02*
X9584425Y-19832423D01*
X9603472Y-19803851D01*
X9612996Y-19784804D01*
X9622520Y-19756232D01*
X9632044Y-19708613D01*
X9632044Y-19670518D01*
X9622520Y-19622899D01*
X9612996Y-19594328D01*
X9603472Y-19575280D01*
X9584425Y-19546709D01*
X9574901Y-19537185D01*
D16*
X4574420Y-19977380D02*
X4612520Y-19939280D01*
X4574420Y-19901180D01*
X4536320Y-19939280D01*
X4574420Y-19977380D01*
D11*
X4908234Y-19829756D02*
X4927282Y-19829756D01*
X4946330Y-19839280D01*
X4955853Y-19848804D01*
X4965377Y-19867851D01*
X4974901Y-19905947D01*
X4974901Y-19953566D01*
X4965377Y-19991661D01*
X4955853Y-20010709D01*
X4946330Y-20020232D01*
X4927282Y-20029756D01*
X4908234Y-20029756D01*
X4889187Y-20020232D01*
X4879663Y-20010709D01*
X4870139Y-19991661D01*
X4860615Y-19953566D01*
X4860615Y-19905947D01*
X4870139Y-19867851D01*
X4879663Y-19848804D01*
X4889187Y-19839280D01*
X4908234Y-19829756D01*
X5060615Y-20010709D02*
X5070139Y-20020232D01*
X5060615Y-20029756D01*
X5051091Y-20020232D01*
X5060615Y-20010709D01*
X5060615Y-20029756D01*
X5136806Y-19829756D02*
X5270139Y-19829756D01*
X5184425Y-20029756D01*
X5432044Y-19829756D02*
X5393949Y-19829756D01*
X5374901Y-19839280D01*
X5365377Y-19848804D01*
X5346330Y-19877375D01*
X5336806Y-19915470D01*
X5336806Y-19991661D01*
X5346330Y-20010709D01*
X5355853Y-20020232D01*
X5374901Y-20029756D01*
X5412996Y-20029756D01*
X5432044Y-20020232D01*
X5441568Y-20010709D01*
X5451091Y-19991661D01*
X5451091Y-19944042D01*
X5441568Y-19924994D01*
X5432044Y-19915470D01*
X5412996Y-19905947D01*
X5374901Y-19905947D01*
X5355853Y-19915470D01*
X5346330Y-19924994D01*
X5336806Y-19944042D01*
X5527282Y-19848804D02*
X5536806Y-19839280D01*
X5555853Y-19829756D01*
X5603472Y-19829756D01*
X5622520Y-19839280D01*
X5632044Y-19848804D01*
X5641568Y-19867851D01*
X5641568Y-19886899D01*
X5632044Y-19915470D01*
X5517758Y-20029756D01*
X5641568Y-20029756D01*
X5727282Y-20029756D02*
X5727282Y-19896423D01*
X5727282Y-19915470D02*
X5736806Y-19905947D01*
X5755853Y-19896423D01*
X5784425Y-19896423D01*
X5803472Y-19905947D01*
X5812996Y-19924994D01*
X5812996Y-20029756D01*
X5812996Y-19924994D02*
X5822520Y-19905947D01*
X5841568Y-19896423D01*
X5870139Y-19896423D01*
X5889187Y-19905947D01*
X5898710Y-19924994D01*
X5898710Y-20029756D01*
X5993948Y-20029756D02*
X5993948Y-19896423D01*
X5993948Y-19915470D02*
X6003472Y-19905947D01*
X6022520Y-19896423D01*
X6051091Y-19896423D01*
X6070139Y-19905947D01*
X6079663Y-19924994D01*
X6079663Y-20029756D01*
X6079663Y-19924994D02*
X6089187Y-19905947D01*
X6108234Y-19896423D01*
X6136806Y-19896423D01*
X6155853Y-19905947D01*
X6165377Y-19924994D01*
X6165377Y-20029756D01*
X6555853Y-19820232D02*
X6384425Y-20077375D01*
X6812996Y-19829756D02*
X6832044Y-19829756D01*
X6851091Y-19839280D01*
X6860615Y-19848804D01*
X6870139Y-19867851D01*
X6879663Y-19905947D01*
X6879663Y-19953566D01*
X6870139Y-19991661D01*
X6860615Y-20010709D01*
X6851091Y-20020232D01*
X6832044Y-20029756D01*
X6812996Y-20029756D01*
X6793948Y-20020232D01*
X6784425Y-20010709D01*
X6774901Y-19991661D01*
X6765377Y-19953566D01*
X6765377Y-19905947D01*
X6774901Y-19867851D01*
X6784425Y-19848804D01*
X6793948Y-19839280D01*
X6812996Y-19829756D01*
X6965377Y-20010709D02*
X6974901Y-20020232D01*
X6965377Y-20029756D01*
X6955853Y-20020232D01*
X6965377Y-20010709D01*
X6965377Y-20029756D01*
X7098710Y-19829756D02*
X7117758Y-19829756D01*
X7136806Y-19839280D01*
X7146329Y-19848804D01*
X7155853Y-19867851D01*
X7165377Y-19905947D01*
X7165377Y-19953566D01*
X7155853Y-19991661D01*
X7146329Y-20010709D01*
X7136806Y-20020232D01*
X7117758Y-20029756D01*
X7098710Y-20029756D01*
X7079663Y-20020232D01*
X7070139Y-20010709D01*
X7060615Y-19991661D01*
X7051091Y-19953566D01*
X7051091Y-19905947D01*
X7060615Y-19867851D01*
X7070139Y-19848804D01*
X7079663Y-19839280D01*
X7098710Y-19829756D01*
X7232044Y-19829756D02*
X7355853Y-19829756D01*
X7289187Y-19905947D01*
X7317758Y-19905947D01*
X7336806Y-19915470D01*
X7346329Y-19924994D01*
X7355853Y-19944042D01*
X7355853Y-19991661D01*
X7346329Y-20010709D01*
X7336806Y-20020232D01*
X7317758Y-20029756D01*
X7260615Y-20029756D01*
X7241568Y-20020232D01*
X7232044Y-20010709D01*
X7479663Y-19829756D02*
X7498710Y-19829756D01*
X7517758Y-19839280D01*
X7527282Y-19848804D01*
X7536806Y-19867851D01*
X7546329Y-19905947D01*
X7546329Y-19953566D01*
X7536806Y-19991661D01*
X7527282Y-20010709D01*
X7517758Y-20020232D01*
X7498710Y-20029756D01*
X7479663Y-20029756D01*
X7460615Y-20020232D01*
X7451091Y-20010709D01*
X7441568Y-19991661D01*
X7432044Y-19953566D01*
X7432044Y-19905947D01*
X7441568Y-19867851D01*
X7451091Y-19848804D01*
X7460615Y-19839280D01*
X7479663Y-19829756D01*
X7670139Y-19829756D02*
X7689187Y-19829756D01*
X7708234Y-19839280D01*
X7717758Y-19848804D01*
X7727282Y-19867851D01*
X7736806Y-19905947D01*
X7736806Y-19953566D01*
X7727282Y-19991661D01*
X7717758Y-20010709D01*
X7708234Y-20020232D01*
X7689187Y-20029756D01*
X7670139Y-20029756D01*
X7651091Y-20020232D01*
X7641568Y-20010709D01*
X7632044Y-19991661D01*
X7622520Y-19953566D01*
X7622520Y-19905947D01*
X7632044Y-19867851D01*
X7641568Y-19848804D01*
X7651091Y-19839280D01*
X7670139Y-19829756D01*
X7812996Y-19829756D02*
X7812996Y-19867851D01*
X7889187Y-19829756D02*
X7889187Y-19867851D01*
X8184425Y-20105947D02*
X8174901Y-20096423D01*
X8155853Y-20067851D01*
X8146329Y-20048804D01*
X8136806Y-20020232D01*
X8127282Y-19972613D01*
X8127282Y-19934518D01*
X8136806Y-19886899D01*
X8146329Y-19858328D01*
X8155853Y-19839280D01*
X8174901Y-19810709D01*
X8184425Y-19801185D01*
X8251091Y-19848804D02*
X8260615Y-19839280D01*
X8279663Y-19829756D01*
X8327282Y-19829756D01*
X8346329Y-19839280D01*
X8355853Y-19848804D01*
X8365377Y-19867851D01*
X8365377Y-19886899D01*
X8355853Y-19915470D01*
X8241568Y-20029756D01*
X8365377Y-20029756D01*
X8441568Y-19848804D02*
X8451091Y-19839280D01*
X8470139Y-19829756D01*
X8517758Y-19829756D01*
X8536806Y-19839280D01*
X8546330Y-19848804D01*
X8555853Y-19867851D01*
X8555853Y-19886899D01*
X8546330Y-19915470D01*
X8432044Y-20029756D01*
X8555853Y-20029756D01*
X8793949Y-20029756D02*
X8793949Y-19829756D01*
X8879663Y-20029756D02*
X8879663Y-19924994D01*
X8870139Y-19905947D01*
X8851091Y-19896423D01*
X8822520Y-19896423D01*
X8803472Y-19905947D01*
X8793949Y-19915470D01*
X9003472Y-20029756D02*
X8984425Y-20020232D01*
X8974901Y-20010709D01*
X8965377Y-19991661D01*
X8965377Y-19934518D01*
X8974901Y-19915470D01*
X8984425Y-19905947D01*
X9003472Y-19896423D01*
X9032044Y-19896423D01*
X9051091Y-19905947D01*
X9060615Y-19915470D01*
X9070139Y-19934518D01*
X9070139Y-19991661D01*
X9060615Y-20010709D01*
X9051091Y-20020232D01*
X9032044Y-20029756D01*
X9003472Y-20029756D01*
X9184425Y-20029756D02*
X9165377Y-20020232D01*
X9155853Y-20001185D01*
X9155853Y-19829756D01*
X9336806Y-20020232D02*
X9317758Y-20029756D01*
X9279663Y-20029756D01*
X9260615Y-20020232D01*
X9251091Y-20001185D01*
X9251091Y-19924994D01*
X9260615Y-19905947D01*
X9279663Y-19896423D01*
X9317758Y-19896423D01*
X9336806Y-19905947D01*
X9346330Y-19924994D01*
X9346330Y-19944042D01*
X9251091Y-19963090D01*
X9422520Y-20020232D02*
X9441568Y-20029756D01*
X9479663Y-20029756D01*
X9498710Y-20020232D01*
X9508234Y-20001185D01*
X9508234Y-19991661D01*
X9498710Y-19972613D01*
X9479663Y-19963090D01*
X9451091Y-19963090D01*
X9432044Y-19953566D01*
X9422520Y-19934518D01*
X9422520Y-19924994D01*
X9432044Y-19905947D01*
X9451091Y-19896423D01*
X9479663Y-19896423D01*
X9498710Y-19905947D01*
X9574901Y-20105947D02*
X9584425Y-20096423D01*
X9603472Y-20067851D01*
X9612996Y-20048804D01*
X9622520Y-20020232D01*
X9632044Y-19972613D01*
X9632044Y-19934518D01*
X9622520Y-19886899D01*
X9612996Y-19858328D01*
X9603472Y-19839280D01*
X9584425Y-19810709D01*
X9574901Y-19801185D01*
D17*
X4512520Y-20153280D02*
X4612520Y-20253280D01*
X4612520Y-20153280D02*
X4512520Y-20253280D01*
X4612520Y-20203280D02*
G75*
G03*
X4612520Y-20203280I-50000J0D01*
G01*
D11*
X4974901Y-20293756D02*
X4860615Y-20293756D01*
X4917758Y-20293756D02*
X4917758Y-20093756D01*
X4898710Y-20122328D01*
X4879663Y-20141375D01*
X4860615Y-20150899D01*
X5060615Y-20274709D02*
X5070139Y-20284232D01*
X5060615Y-20293756D01*
X5051091Y-20284232D01*
X5060615Y-20274709D01*
X5060615Y-20293756D01*
X5193949Y-20093756D02*
X5212996Y-20093756D01*
X5232044Y-20103280D01*
X5241568Y-20112804D01*
X5251091Y-20131851D01*
X5260615Y-20169947D01*
X5260615Y-20217566D01*
X5251091Y-20255661D01*
X5241568Y-20274709D01*
X5232044Y-20284232D01*
X5212996Y-20293756D01*
X5193949Y-20293756D01*
X5174901Y-20284232D01*
X5165377Y-20274709D01*
X5155853Y-20255661D01*
X5146330Y-20217566D01*
X5146330Y-20169947D01*
X5155853Y-20131851D01*
X5165377Y-20112804D01*
X5174901Y-20103280D01*
X5193949Y-20093756D01*
X5384425Y-20093756D02*
X5403472Y-20093756D01*
X5422520Y-20103280D01*
X5432044Y-20112804D01*
X5441568Y-20131851D01*
X5451091Y-20169947D01*
X5451091Y-20217566D01*
X5441568Y-20255661D01*
X5432044Y-20274709D01*
X5422520Y-20284232D01*
X5403472Y-20293756D01*
X5384425Y-20293756D01*
X5365377Y-20284232D01*
X5355853Y-20274709D01*
X5346330Y-20255661D01*
X5336806Y-20217566D01*
X5336806Y-20169947D01*
X5346330Y-20131851D01*
X5355853Y-20112804D01*
X5365377Y-20103280D01*
X5384425Y-20093756D01*
X5574901Y-20093756D02*
X5593948Y-20093756D01*
X5612996Y-20103280D01*
X5622520Y-20112804D01*
X5632044Y-20131851D01*
X5641568Y-20169947D01*
X5641568Y-20217566D01*
X5632044Y-20255661D01*
X5622520Y-20274709D01*
X5612996Y-20284232D01*
X5593948Y-20293756D01*
X5574901Y-20293756D01*
X5555853Y-20284232D01*
X5546330Y-20274709D01*
X5536806Y-20255661D01*
X5527282Y-20217566D01*
X5527282Y-20169947D01*
X5536806Y-20131851D01*
X5546330Y-20112804D01*
X5555853Y-20103280D01*
X5574901Y-20093756D01*
X5727282Y-20293756D02*
X5727282Y-20160423D01*
X5727282Y-20179470D02*
X5736806Y-20169947D01*
X5755853Y-20160423D01*
X5784425Y-20160423D01*
X5803472Y-20169947D01*
X5812996Y-20188994D01*
X5812996Y-20293756D01*
X5812996Y-20188994D02*
X5822520Y-20169947D01*
X5841568Y-20160423D01*
X5870139Y-20160423D01*
X5889187Y-20169947D01*
X5898710Y-20188994D01*
X5898710Y-20293756D01*
X5993948Y-20293756D02*
X5993948Y-20160423D01*
X5993948Y-20179470D02*
X6003472Y-20169947D01*
X6022520Y-20160423D01*
X6051091Y-20160423D01*
X6070139Y-20169947D01*
X6079663Y-20188994D01*
X6079663Y-20293756D01*
X6079663Y-20188994D02*
X6089187Y-20169947D01*
X6108234Y-20160423D01*
X6136806Y-20160423D01*
X6155853Y-20169947D01*
X6165377Y-20188994D01*
X6165377Y-20293756D01*
X6555853Y-20084232D02*
X6384425Y-20341375D01*
X6812996Y-20093756D02*
X6832044Y-20093756D01*
X6851091Y-20103280D01*
X6860615Y-20112804D01*
X6870139Y-20131851D01*
X6879663Y-20169947D01*
X6879663Y-20217566D01*
X6870139Y-20255661D01*
X6860615Y-20274709D01*
X6851091Y-20284232D01*
X6832044Y-20293756D01*
X6812996Y-20293756D01*
X6793948Y-20284232D01*
X6784425Y-20274709D01*
X6774901Y-20255661D01*
X6765377Y-20217566D01*
X6765377Y-20169947D01*
X6774901Y-20131851D01*
X6784425Y-20112804D01*
X6793948Y-20103280D01*
X6812996Y-20093756D01*
X6965377Y-20274709D02*
X6974901Y-20284232D01*
X6965377Y-20293756D01*
X6955853Y-20284232D01*
X6965377Y-20274709D01*
X6965377Y-20293756D01*
X7098710Y-20093756D02*
X7117758Y-20093756D01*
X7136806Y-20103280D01*
X7146329Y-20112804D01*
X7155853Y-20131851D01*
X7165377Y-20169947D01*
X7165377Y-20217566D01*
X7155853Y-20255661D01*
X7146329Y-20274709D01*
X7136806Y-20284232D01*
X7117758Y-20293756D01*
X7098710Y-20293756D01*
X7079663Y-20284232D01*
X7070139Y-20274709D01*
X7060615Y-20255661D01*
X7051091Y-20217566D01*
X7051091Y-20169947D01*
X7060615Y-20131851D01*
X7070139Y-20112804D01*
X7079663Y-20103280D01*
X7098710Y-20093756D01*
X7232044Y-20093756D02*
X7355853Y-20093756D01*
X7289187Y-20169947D01*
X7317758Y-20169947D01*
X7336806Y-20179470D01*
X7346329Y-20188994D01*
X7355853Y-20208042D01*
X7355853Y-20255661D01*
X7346329Y-20274709D01*
X7336806Y-20284232D01*
X7317758Y-20293756D01*
X7260615Y-20293756D01*
X7241568Y-20284232D01*
X7232044Y-20274709D01*
X7451091Y-20293756D02*
X7489187Y-20293756D01*
X7508234Y-20284232D01*
X7517758Y-20274709D01*
X7536806Y-20246137D01*
X7546329Y-20208042D01*
X7546329Y-20131851D01*
X7536806Y-20112804D01*
X7527282Y-20103280D01*
X7508234Y-20093756D01*
X7470139Y-20093756D01*
X7451091Y-20103280D01*
X7441568Y-20112804D01*
X7432044Y-20131851D01*
X7432044Y-20179470D01*
X7441568Y-20198518D01*
X7451091Y-20208042D01*
X7470139Y-20217566D01*
X7508234Y-20217566D01*
X7527282Y-20208042D01*
X7536806Y-20198518D01*
X7546329Y-20179470D01*
X7717758Y-20160423D02*
X7717758Y-20293756D01*
X7670139Y-20084232D02*
X7622520Y-20227090D01*
X7746329Y-20227090D01*
X7812996Y-20093756D02*
X7812996Y-20131851D01*
X7889187Y-20093756D02*
X7889187Y-20131851D01*
X8184425Y-20369947D02*
X8174901Y-20360423D01*
X8155853Y-20331851D01*
X8146329Y-20312804D01*
X8136806Y-20284232D01*
X8127282Y-20236613D01*
X8127282Y-20198518D01*
X8136806Y-20150899D01*
X8146329Y-20122328D01*
X8155853Y-20103280D01*
X8174901Y-20074709D01*
X8184425Y-20065185D01*
X8365377Y-20293756D02*
X8251091Y-20293756D01*
X8308234Y-20293756D02*
X8308234Y-20093756D01*
X8289187Y-20122328D01*
X8270139Y-20141375D01*
X8251091Y-20150899D01*
X8536806Y-20160423D02*
X8536806Y-20293756D01*
X8489187Y-20084232D02*
X8441568Y-20227090D01*
X8565377Y-20227090D01*
X8727282Y-20160423D02*
X8727282Y-20293756D01*
X8679663Y-20084232D02*
X8632044Y-20227090D01*
X8755853Y-20227090D01*
X8984425Y-20293756D02*
X8984425Y-20093756D01*
X9070139Y-20293756D02*
X9070139Y-20188994D01*
X9060615Y-20169947D01*
X9041568Y-20160423D01*
X9012996Y-20160423D01*
X8993949Y-20169947D01*
X8984425Y-20179470D01*
X9193949Y-20293756D02*
X9174901Y-20284232D01*
X9165377Y-20274709D01*
X9155853Y-20255661D01*
X9155853Y-20198518D01*
X9165377Y-20179470D01*
X9174901Y-20169947D01*
X9193949Y-20160423D01*
X9222520Y-20160423D01*
X9241568Y-20169947D01*
X9251091Y-20179470D01*
X9260615Y-20198518D01*
X9260615Y-20255661D01*
X9251091Y-20274709D01*
X9241568Y-20284232D01*
X9222520Y-20293756D01*
X9193949Y-20293756D01*
X9374901Y-20293756D02*
X9355853Y-20284232D01*
X9346330Y-20265185D01*
X9346330Y-20093756D01*
X9527282Y-20284232D02*
X9508234Y-20293756D01*
X9470139Y-20293756D01*
X9451091Y-20284232D01*
X9441568Y-20265185D01*
X9441568Y-20188994D01*
X9451091Y-20169947D01*
X9470139Y-20160423D01*
X9508234Y-20160423D01*
X9527282Y-20169947D01*
X9536806Y-20188994D01*
X9536806Y-20208042D01*
X9441568Y-20227090D01*
X9612996Y-20284232D02*
X9632044Y-20293756D01*
X9670139Y-20293756D01*
X9689187Y-20284232D01*
X9698710Y-20265185D01*
X9698710Y-20255661D01*
X9689187Y-20236613D01*
X9670139Y-20227090D01*
X9641568Y-20227090D01*
X9622520Y-20217566D01*
X9612996Y-20198518D01*
X9612996Y-20188994D01*
X9622520Y-20169947D01*
X9641568Y-20160423D01*
X9670139Y-20160423D01*
X9689187Y-20169947D01*
X9765377Y-20369947D02*
X9774901Y-20360423D01*
X9793949Y-20331851D01*
X9803472Y-20312804D01*
X9812996Y-20284232D01*
X9822520Y-20236613D01*
X9822520Y-20198518D01*
X9812996Y-20150899D01*
X9803472Y-20122328D01*
X9793949Y-20103280D01*
X9774901Y-20074709D01*
X9765377Y-20065185D01*
D18*
X4502520Y-20412280D02*
X4612520Y-20522280D01*
X4612520Y-20412280D02*
X4502520Y-20522280D01*
X4557520Y-20412280D02*
X4557520Y-20522280D01*
X4502520Y-20467280D02*
X4612520Y-20467280D01*
D11*
X4974901Y-20557756D02*
X4860615Y-20557756D01*
X4917758Y-20557756D02*
X4917758Y-20357756D01*
X4898710Y-20386328D01*
X4879663Y-20405375D01*
X4860615Y-20414899D01*
X5060615Y-20538709D02*
X5070139Y-20548232D01*
X5060615Y-20557756D01*
X5051091Y-20548232D01*
X5060615Y-20538709D01*
X5060615Y-20557756D01*
X5260615Y-20557756D02*
X5146330Y-20557756D01*
X5203472Y-20557756D02*
X5203472Y-20357756D01*
X5184425Y-20386328D01*
X5165377Y-20405375D01*
X5146330Y-20414899D01*
X5384425Y-20357756D02*
X5403472Y-20357756D01*
X5422520Y-20367280D01*
X5432044Y-20376804D01*
X5441568Y-20395851D01*
X5451091Y-20433947D01*
X5451091Y-20481566D01*
X5441568Y-20519661D01*
X5432044Y-20538709D01*
X5422520Y-20548232D01*
X5403472Y-20557756D01*
X5384425Y-20557756D01*
X5365377Y-20548232D01*
X5355853Y-20538709D01*
X5346330Y-20519661D01*
X5336806Y-20481566D01*
X5336806Y-20433947D01*
X5346330Y-20395851D01*
X5355853Y-20376804D01*
X5365377Y-20367280D01*
X5384425Y-20357756D01*
X5574901Y-20357756D02*
X5593948Y-20357756D01*
X5612996Y-20367280D01*
X5622520Y-20376804D01*
X5632044Y-20395851D01*
X5641568Y-20433947D01*
X5641568Y-20481566D01*
X5632044Y-20519661D01*
X5622520Y-20538709D01*
X5612996Y-20548232D01*
X5593948Y-20557756D01*
X5574901Y-20557756D01*
X5555853Y-20548232D01*
X5546330Y-20538709D01*
X5536806Y-20519661D01*
X5527282Y-20481566D01*
X5527282Y-20433947D01*
X5536806Y-20395851D01*
X5546330Y-20376804D01*
X5555853Y-20367280D01*
X5574901Y-20357756D01*
X5727282Y-20557756D02*
X5727282Y-20424423D01*
X5727282Y-20443470D02*
X5736806Y-20433947D01*
X5755853Y-20424423D01*
X5784425Y-20424423D01*
X5803472Y-20433947D01*
X5812996Y-20452994D01*
X5812996Y-20557756D01*
X5812996Y-20452994D02*
X5822520Y-20433947D01*
X5841568Y-20424423D01*
X5870139Y-20424423D01*
X5889187Y-20433947D01*
X5898710Y-20452994D01*
X5898710Y-20557756D01*
X5993948Y-20557756D02*
X5993948Y-20424423D01*
X5993948Y-20443470D02*
X6003472Y-20433947D01*
X6022520Y-20424423D01*
X6051091Y-20424423D01*
X6070139Y-20433947D01*
X6079663Y-20452994D01*
X6079663Y-20557756D01*
X6079663Y-20452994D02*
X6089187Y-20433947D01*
X6108234Y-20424423D01*
X6136806Y-20424423D01*
X6155853Y-20433947D01*
X6165377Y-20452994D01*
X6165377Y-20557756D01*
X6555853Y-20348232D02*
X6384425Y-20605375D01*
X6812996Y-20357756D02*
X6832044Y-20357756D01*
X6851091Y-20367280D01*
X6860615Y-20376804D01*
X6870139Y-20395851D01*
X6879663Y-20433947D01*
X6879663Y-20481566D01*
X6870139Y-20519661D01*
X6860615Y-20538709D01*
X6851091Y-20548232D01*
X6832044Y-20557756D01*
X6812996Y-20557756D01*
X6793948Y-20548232D01*
X6784425Y-20538709D01*
X6774901Y-20519661D01*
X6765377Y-20481566D01*
X6765377Y-20433947D01*
X6774901Y-20395851D01*
X6784425Y-20376804D01*
X6793948Y-20367280D01*
X6812996Y-20357756D01*
X6965377Y-20538709D02*
X6974901Y-20548232D01*
X6965377Y-20557756D01*
X6955853Y-20548232D01*
X6965377Y-20538709D01*
X6965377Y-20557756D01*
X7098710Y-20357756D02*
X7117758Y-20357756D01*
X7136806Y-20367280D01*
X7146329Y-20376804D01*
X7155853Y-20395851D01*
X7165377Y-20433947D01*
X7165377Y-20481566D01*
X7155853Y-20519661D01*
X7146329Y-20538709D01*
X7136806Y-20548232D01*
X7117758Y-20557756D01*
X7098710Y-20557756D01*
X7079663Y-20548232D01*
X7070139Y-20538709D01*
X7060615Y-20519661D01*
X7051091Y-20481566D01*
X7051091Y-20433947D01*
X7060615Y-20395851D01*
X7070139Y-20376804D01*
X7079663Y-20367280D01*
X7098710Y-20357756D01*
X7336806Y-20424423D02*
X7336806Y-20557756D01*
X7289187Y-20348232D02*
X7241568Y-20491090D01*
X7365377Y-20491090D01*
X7422520Y-20357756D02*
X7546329Y-20357756D01*
X7479663Y-20433947D01*
X7508234Y-20433947D01*
X7527282Y-20443470D01*
X7536806Y-20452994D01*
X7546329Y-20472042D01*
X7546329Y-20519661D01*
X7536806Y-20538709D01*
X7527282Y-20548232D01*
X7508234Y-20557756D01*
X7451091Y-20557756D01*
X7432044Y-20548232D01*
X7422520Y-20538709D01*
X7612996Y-20357756D02*
X7736806Y-20357756D01*
X7670139Y-20433947D01*
X7698710Y-20433947D01*
X7717758Y-20443470D01*
X7727282Y-20452994D01*
X7736806Y-20472042D01*
X7736806Y-20519661D01*
X7727282Y-20538709D01*
X7717758Y-20548232D01*
X7698710Y-20557756D01*
X7641568Y-20557756D01*
X7622520Y-20548232D01*
X7612996Y-20538709D01*
X7812996Y-20357756D02*
X7812996Y-20395851D01*
X7889187Y-20357756D02*
X7889187Y-20395851D01*
X8184425Y-20633947D02*
X8174901Y-20624423D01*
X8155853Y-20595851D01*
X8146329Y-20576804D01*
X8136806Y-20548232D01*
X8127282Y-20500613D01*
X8127282Y-20462518D01*
X8136806Y-20414899D01*
X8146329Y-20386328D01*
X8155853Y-20367280D01*
X8174901Y-20338709D01*
X8184425Y-20329185D01*
X8346329Y-20424423D02*
X8346329Y-20557756D01*
X8298710Y-20348232D02*
X8251091Y-20491090D01*
X8374901Y-20491090D01*
X8536806Y-20424423D02*
X8536806Y-20557756D01*
X8489187Y-20348232D02*
X8441568Y-20491090D01*
X8565377Y-20491090D01*
X8793949Y-20557756D02*
X8793949Y-20357756D01*
X8879663Y-20557756D02*
X8879663Y-20452994D01*
X8870139Y-20433947D01*
X8851091Y-20424423D01*
X8822520Y-20424423D01*
X8803472Y-20433947D01*
X8793949Y-20443470D01*
X9003472Y-20557756D02*
X8984425Y-20548232D01*
X8974901Y-20538709D01*
X8965377Y-20519661D01*
X8965377Y-20462518D01*
X8974901Y-20443470D01*
X8984425Y-20433947D01*
X9003472Y-20424423D01*
X9032044Y-20424423D01*
X9051091Y-20433947D01*
X9060615Y-20443470D01*
X9070139Y-20462518D01*
X9070139Y-20519661D01*
X9060615Y-20538709D01*
X9051091Y-20548232D01*
X9032044Y-20557756D01*
X9003472Y-20557756D01*
X9184425Y-20557756D02*
X9165377Y-20548232D01*
X9155853Y-20529185D01*
X9155853Y-20357756D01*
X9336806Y-20548232D02*
X9317758Y-20557756D01*
X9279663Y-20557756D01*
X9260615Y-20548232D01*
X9251091Y-20529185D01*
X9251091Y-20452994D01*
X9260615Y-20433947D01*
X9279663Y-20424423D01*
X9317758Y-20424423D01*
X9336806Y-20433947D01*
X9346330Y-20452994D01*
X9346330Y-20472042D01*
X9251091Y-20491090D01*
X9422520Y-20548232D02*
X9441568Y-20557756D01*
X9479663Y-20557756D01*
X9498710Y-20548232D01*
X9508234Y-20529185D01*
X9508234Y-20519661D01*
X9498710Y-20500613D01*
X9479663Y-20491090D01*
X9451091Y-20491090D01*
X9432044Y-20481566D01*
X9422520Y-20462518D01*
X9422520Y-20452994D01*
X9432044Y-20433947D01*
X9451091Y-20424423D01*
X9479663Y-20424423D01*
X9498710Y-20433947D01*
X9574901Y-20633947D02*
X9584425Y-20624423D01*
X9603472Y-20595851D01*
X9612996Y-20576804D01*
X9622520Y-20548232D01*
X9632044Y-20500613D01*
X9632044Y-20462518D01*
X9622520Y-20414899D01*
X9612996Y-20386328D01*
X9603472Y-20367280D01*
X9584425Y-20338709D01*
X9574901Y-20329185D01*
D19*
X4492520Y-20671280D02*
X4612520Y-20791280D01*
X4612520Y-20671280D02*
X4492520Y-20791280D01*
X4594947Y-20773707D02*
X4594947Y-20688853D01*
X4510093Y-20688853D01*
X4510093Y-20773707D01*
X4594947Y-20773707D01*
D11*
X4974901Y-20821756D02*
X4860615Y-20821756D01*
X4917758Y-20821756D02*
X4917758Y-20621756D01*
X4898710Y-20650328D01*
X4879663Y-20669375D01*
X4860615Y-20678899D01*
X5060615Y-20802709D02*
X5070139Y-20812232D01*
X5060615Y-20821756D01*
X5051091Y-20812232D01*
X5060615Y-20802709D01*
X5060615Y-20821756D01*
X5146330Y-20640804D02*
X5155853Y-20631280D01*
X5174901Y-20621756D01*
X5222520Y-20621756D01*
X5241568Y-20631280D01*
X5251091Y-20640804D01*
X5260615Y-20659851D01*
X5260615Y-20678899D01*
X5251091Y-20707470D01*
X5136806Y-20821756D01*
X5260615Y-20821756D01*
X5384425Y-20621756D02*
X5403472Y-20621756D01*
X5422520Y-20631280D01*
X5432044Y-20640804D01*
X5441568Y-20659851D01*
X5451091Y-20697947D01*
X5451091Y-20745566D01*
X5441568Y-20783661D01*
X5432044Y-20802709D01*
X5422520Y-20812232D01*
X5403472Y-20821756D01*
X5384425Y-20821756D01*
X5365377Y-20812232D01*
X5355853Y-20802709D01*
X5346330Y-20783661D01*
X5336806Y-20745566D01*
X5336806Y-20697947D01*
X5346330Y-20659851D01*
X5355853Y-20640804D01*
X5365377Y-20631280D01*
X5384425Y-20621756D01*
X5574901Y-20621756D02*
X5593948Y-20621756D01*
X5612996Y-20631280D01*
X5622520Y-20640804D01*
X5632044Y-20659851D01*
X5641568Y-20697947D01*
X5641568Y-20745566D01*
X5632044Y-20783661D01*
X5622520Y-20802709D01*
X5612996Y-20812232D01*
X5593948Y-20821756D01*
X5574901Y-20821756D01*
X5555853Y-20812232D01*
X5546330Y-20802709D01*
X5536806Y-20783661D01*
X5527282Y-20745566D01*
X5527282Y-20697947D01*
X5536806Y-20659851D01*
X5546330Y-20640804D01*
X5555853Y-20631280D01*
X5574901Y-20621756D01*
X5727282Y-20821756D02*
X5727282Y-20688423D01*
X5727282Y-20707470D02*
X5736806Y-20697947D01*
X5755853Y-20688423D01*
X5784425Y-20688423D01*
X5803472Y-20697947D01*
X5812996Y-20716994D01*
X5812996Y-20821756D01*
X5812996Y-20716994D02*
X5822520Y-20697947D01*
X5841568Y-20688423D01*
X5870139Y-20688423D01*
X5889187Y-20697947D01*
X5898710Y-20716994D01*
X5898710Y-20821756D01*
X5993948Y-20821756D02*
X5993948Y-20688423D01*
X5993948Y-20707470D02*
X6003472Y-20697947D01*
X6022520Y-20688423D01*
X6051091Y-20688423D01*
X6070139Y-20697947D01*
X6079663Y-20716994D01*
X6079663Y-20821756D01*
X6079663Y-20716994D02*
X6089187Y-20697947D01*
X6108234Y-20688423D01*
X6136806Y-20688423D01*
X6155853Y-20697947D01*
X6165377Y-20716994D01*
X6165377Y-20821756D01*
X6555853Y-20612232D02*
X6384425Y-20869375D01*
X6812996Y-20621756D02*
X6832044Y-20621756D01*
X6851091Y-20631280D01*
X6860615Y-20640804D01*
X6870139Y-20659851D01*
X6879663Y-20697947D01*
X6879663Y-20745566D01*
X6870139Y-20783661D01*
X6860615Y-20802709D01*
X6851091Y-20812232D01*
X6832044Y-20821756D01*
X6812996Y-20821756D01*
X6793948Y-20812232D01*
X6784425Y-20802709D01*
X6774901Y-20783661D01*
X6765377Y-20745566D01*
X6765377Y-20697947D01*
X6774901Y-20659851D01*
X6784425Y-20640804D01*
X6793948Y-20631280D01*
X6812996Y-20621756D01*
X6965377Y-20802709D02*
X6974901Y-20812232D01*
X6965377Y-20821756D01*
X6955853Y-20812232D01*
X6965377Y-20802709D01*
X6965377Y-20821756D01*
X7098710Y-20621756D02*
X7117758Y-20621756D01*
X7136806Y-20631280D01*
X7146329Y-20640804D01*
X7155853Y-20659851D01*
X7165377Y-20697947D01*
X7165377Y-20745566D01*
X7155853Y-20783661D01*
X7146329Y-20802709D01*
X7136806Y-20812232D01*
X7117758Y-20821756D01*
X7098710Y-20821756D01*
X7079663Y-20812232D01*
X7070139Y-20802709D01*
X7060615Y-20783661D01*
X7051091Y-20745566D01*
X7051091Y-20697947D01*
X7060615Y-20659851D01*
X7070139Y-20640804D01*
X7079663Y-20631280D01*
X7098710Y-20621756D01*
X7336806Y-20688423D02*
X7336806Y-20821756D01*
X7289187Y-20612232D02*
X7241568Y-20755090D01*
X7365377Y-20755090D01*
X7422520Y-20621756D02*
X7555853Y-20621756D01*
X7470139Y-20821756D01*
X7622520Y-20640804D02*
X7632044Y-20631280D01*
X7651091Y-20621756D01*
X7698710Y-20621756D01*
X7717758Y-20631280D01*
X7727282Y-20640804D01*
X7736806Y-20659851D01*
X7736806Y-20678899D01*
X7727282Y-20707470D01*
X7612996Y-20821756D01*
X7736806Y-20821756D01*
X7812996Y-20621756D02*
X7812996Y-20659851D01*
X7889187Y-20621756D02*
X7889187Y-20659851D01*
X8184425Y-20897947D02*
X8174901Y-20888423D01*
X8155853Y-20859851D01*
X8146329Y-20840804D01*
X8136806Y-20812232D01*
X8127282Y-20764613D01*
X8127282Y-20726518D01*
X8136806Y-20678899D01*
X8146329Y-20650328D01*
X8155853Y-20631280D01*
X8174901Y-20602709D01*
X8184425Y-20593185D01*
X8289187Y-20707470D02*
X8270139Y-20697947D01*
X8260615Y-20688423D01*
X8251091Y-20669375D01*
X8251091Y-20659851D01*
X8260615Y-20640804D01*
X8270139Y-20631280D01*
X8289187Y-20621756D01*
X8327282Y-20621756D01*
X8346329Y-20631280D01*
X8355853Y-20640804D01*
X8365377Y-20659851D01*
X8365377Y-20669375D01*
X8355853Y-20688423D01*
X8346329Y-20697947D01*
X8327282Y-20707470D01*
X8289187Y-20707470D01*
X8270139Y-20716994D01*
X8260615Y-20726518D01*
X8251091Y-20745566D01*
X8251091Y-20783661D01*
X8260615Y-20802709D01*
X8270139Y-20812232D01*
X8289187Y-20821756D01*
X8327282Y-20821756D01*
X8346329Y-20812232D01*
X8355853Y-20802709D01*
X8365377Y-20783661D01*
X8365377Y-20745566D01*
X8355853Y-20726518D01*
X8346329Y-20716994D01*
X8327282Y-20707470D01*
X8603472Y-20821756D02*
X8603472Y-20621756D01*
X8689187Y-20821756D02*
X8689187Y-20716994D01*
X8679663Y-20697947D01*
X8660615Y-20688423D01*
X8632044Y-20688423D01*
X8612996Y-20697947D01*
X8603472Y-20707470D01*
X8812996Y-20821756D02*
X8793949Y-20812232D01*
X8784425Y-20802709D01*
X8774901Y-20783661D01*
X8774901Y-20726518D01*
X8784425Y-20707470D01*
X8793949Y-20697947D01*
X8812996Y-20688423D01*
X8841568Y-20688423D01*
X8860615Y-20697947D01*
X8870139Y-20707470D01*
X8879663Y-20726518D01*
X8879663Y-20783661D01*
X8870139Y-20802709D01*
X8860615Y-20812232D01*
X8841568Y-20821756D01*
X8812996Y-20821756D01*
X8993949Y-20821756D02*
X8974901Y-20812232D01*
X8965377Y-20793185D01*
X8965377Y-20621756D01*
X9146330Y-20812232D02*
X9127282Y-20821756D01*
X9089187Y-20821756D01*
X9070139Y-20812232D01*
X9060615Y-20793185D01*
X9060615Y-20716994D01*
X9070139Y-20697947D01*
X9089187Y-20688423D01*
X9127282Y-20688423D01*
X9146330Y-20697947D01*
X9155853Y-20716994D01*
X9155853Y-20736042D01*
X9060615Y-20755090D01*
X9232044Y-20812232D02*
X9251091Y-20821756D01*
X9289187Y-20821756D01*
X9308234Y-20812232D01*
X9317758Y-20793185D01*
X9317758Y-20783661D01*
X9308234Y-20764613D01*
X9289187Y-20755090D01*
X9260615Y-20755090D01*
X9241568Y-20745566D01*
X9232044Y-20726518D01*
X9232044Y-20716994D01*
X9241568Y-20697947D01*
X9260615Y-20688423D01*
X9289187Y-20688423D01*
X9308234Y-20697947D01*
X9384425Y-20897947D02*
X9393949Y-20888423D01*
X9412996Y-20859851D01*
X9422520Y-20840804D01*
X9432044Y-20812232D01*
X9441568Y-20764613D01*
X9441568Y-20726518D01*
X9432044Y-20678899D01*
X9422520Y-20650328D01*
X9412996Y-20631280D01*
X9393949Y-20602709D01*
X9384425Y-20593185D01*
D10*
X4462520Y-20920280D02*
X4612520Y-21070280D01*
X4612520Y-20920280D02*
X4462520Y-21070280D01*
X4537520Y-21070280D02*
X4612520Y-20995280D01*
X4537520Y-20920280D01*
X4462520Y-20995280D01*
X4537520Y-21070280D01*
D11*
X4974901Y-21085756D02*
X4860615Y-21085756D01*
X4917758Y-21085756D02*
X4917758Y-20885756D01*
X4898710Y-20914328D01*
X4879663Y-20933375D01*
X4860615Y-20942899D01*
X5060615Y-21066709D02*
X5070139Y-21076232D01*
X5060615Y-21085756D01*
X5051091Y-21076232D01*
X5060615Y-21066709D01*
X5060615Y-21085756D01*
X5251091Y-20885756D02*
X5155853Y-20885756D01*
X5146330Y-20980994D01*
X5155853Y-20971470D01*
X5174901Y-20961947D01*
X5222520Y-20961947D01*
X5241568Y-20971470D01*
X5251091Y-20980994D01*
X5260615Y-21000042D01*
X5260615Y-21047661D01*
X5251091Y-21066709D01*
X5241568Y-21076232D01*
X5222520Y-21085756D01*
X5174901Y-21085756D01*
X5155853Y-21076232D01*
X5146330Y-21066709D01*
X5384425Y-20885756D02*
X5403472Y-20885756D01*
X5422520Y-20895280D01*
X5432044Y-20904804D01*
X5441568Y-20923851D01*
X5451091Y-20961947D01*
X5451091Y-21009566D01*
X5441568Y-21047661D01*
X5432044Y-21066709D01*
X5422520Y-21076232D01*
X5403472Y-21085756D01*
X5384425Y-21085756D01*
X5365377Y-21076232D01*
X5355853Y-21066709D01*
X5346330Y-21047661D01*
X5336806Y-21009566D01*
X5336806Y-20961947D01*
X5346330Y-20923851D01*
X5355853Y-20904804D01*
X5365377Y-20895280D01*
X5384425Y-20885756D01*
X5574901Y-20885756D02*
X5593948Y-20885756D01*
X5612996Y-20895280D01*
X5622520Y-20904804D01*
X5632044Y-20923851D01*
X5641568Y-20961947D01*
X5641568Y-21009566D01*
X5632044Y-21047661D01*
X5622520Y-21066709D01*
X5612996Y-21076232D01*
X5593948Y-21085756D01*
X5574901Y-21085756D01*
X5555853Y-21076232D01*
X5546330Y-21066709D01*
X5536806Y-21047661D01*
X5527282Y-21009566D01*
X5527282Y-20961947D01*
X5536806Y-20923851D01*
X5546330Y-20904804D01*
X5555853Y-20895280D01*
X5574901Y-20885756D01*
X5727282Y-21085756D02*
X5727282Y-20952423D01*
X5727282Y-20971470D02*
X5736806Y-20961947D01*
X5755853Y-20952423D01*
X5784425Y-20952423D01*
X5803472Y-20961947D01*
X5812996Y-20980994D01*
X5812996Y-21085756D01*
X5812996Y-20980994D02*
X5822520Y-20961947D01*
X5841568Y-20952423D01*
X5870139Y-20952423D01*
X5889187Y-20961947D01*
X5898710Y-20980994D01*
X5898710Y-21085756D01*
X5993948Y-21085756D02*
X5993948Y-20952423D01*
X5993948Y-20971470D02*
X6003472Y-20961947D01*
X6022520Y-20952423D01*
X6051091Y-20952423D01*
X6070139Y-20961947D01*
X6079663Y-20980994D01*
X6079663Y-21085756D01*
X6079663Y-20980994D02*
X6089187Y-20961947D01*
X6108234Y-20952423D01*
X6136806Y-20952423D01*
X6155853Y-20961947D01*
X6165377Y-20980994D01*
X6165377Y-21085756D01*
X6555853Y-20876232D02*
X6384425Y-21133375D01*
X6812996Y-20885756D02*
X6832044Y-20885756D01*
X6851091Y-20895280D01*
X6860615Y-20904804D01*
X6870139Y-20923851D01*
X6879663Y-20961947D01*
X6879663Y-21009566D01*
X6870139Y-21047661D01*
X6860615Y-21066709D01*
X6851091Y-21076232D01*
X6832044Y-21085756D01*
X6812996Y-21085756D01*
X6793948Y-21076232D01*
X6784425Y-21066709D01*
X6774901Y-21047661D01*
X6765377Y-21009566D01*
X6765377Y-20961947D01*
X6774901Y-20923851D01*
X6784425Y-20904804D01*
X6793948Y-20895280D01*
X6812996Y-20885756D01*
X6965377Y-21066709D02*
X6974901Y-21076232D01*
X6965377Y-21085756D01*
X6955853Y-21076232D01*
X6965377Y-21066709D01*
X6965377Y-21085756D01*
X7098710Y-20885756D02*
X7117758Y-20885756D01*
X7136806Y-20895280D01*
X7146329Y-20904804D01*
X7155853Y-20923851D01*
X7165377Y-20961947D01*
X7165377Y-21009566D01*
X7155853Y-21047661D01*
X7146329Y-21066709D01*
X7136806Y-21076232D01*
X7117758Y-21085756D01*
X7098710Y-21085756D01*
X7079663Y-21076232D01*
X7070139Y-21066709D01*
X7060615Y-21047661D01*
X7051091Y-21009566D01*
X7051091Y-20961947D01*
X7060615Y-20923851D01*
X7070139Y-20904804D01*
X7079663Y-20895280D01*
X7098710Y-20885756D01*
X7346329Y-20885756D02*
X7251091Y-20885756D01*
X7241568Y-20980994D01*
X7251091Y-20971470D01*
X7270139Y-20961947D01*
X7317758Y-20961947D01*
X7336806Y-20971470D01*
X7346329Y-20980994D01*
X7355853Y-21000042D01*
X7355853Y-21047661D01*
X7346329Y-21066709D01*
X7336806Y-21076232D01*
X7317758Y-21085756D01*
X7270139Y-21085756D01*
X7251091Y-21076232D01*
X7241568Y-21066709D01*
X7451091Y-21085756D02*
X7489187Y-21085756D01*
X7508234Y-21076232D01*
X7517758Y-21066709D01*
X7536806Y-21038137D01*
X7546329Y-21000042D01*
X7546329Y-20923851D01*
X7536806Y-20904804D01*
X7527282Y-20895280D01*
X7508234Y-20885756D01*
X7470139Y-20885756D01*
X7451091Y-20895280D01*
X7441568Y-20904804D01*
X7432044Y-20923851D01*
X7432044Y-20971470D01*
X7441568Y-20990518D01*
X7451091Y-21000042D01*
X7470139Y-21009566D01*
X7508234Y-21009566D01*
X7527282Y-21000042D01*
X7536806Y-20990518D01*
X7546329Y-20971470D01*
X7736806Y-21085756D02*
X7622520Y-21085756D01*
X7679663Y-21085756D02*
X7679663Y-20885756D01*
X7660615Y-20914328D01*
X7641568Y-20933375D01*
X7622520Y-20942899D01*
X7812996Y-20885756D02*
X7812996Y-20923851D01*
X7889187Y-20885756D02*
X7889187Y-20923851D01*
X8184425Y-21161947D02*
X8174901Y-21152423D01*
X8155853Y-21123851D01*
X8146329Y-21104804D01*
X8136806Y-21076232D01*
X8127282Y-21028613D01*
X8127282Y-20990518D01*
X8136806Y-20942899D01*
X8146329Y-20914328D01*
X8155853Y-20895280D01*
X8174901Y-20866709D01*
X8184425Y-20857185D01*
X8365377Y-21085756D02*
X8251091Y-21085756D01*
X8308234Y-21085756D02*
X8308234Y-20885756D01*
X8289187Y-20914328D01*
X8270139Y-20933375D01*
X8251091Y-20942899D01*
X8536806Y-20952423D02*
X8536806Y-21085756D01*
X8489187Y-20876232D02*
X8441568Y-21019090D01*
X8565377Y-21019090D01*
X8793949Y-21085756D02*
X8793949Y-20885756D01*
X8879663Y-21085756D02*
X8879663Y-20980994D01*
X8870139Y-20961947D01*
X8851091Y-20952423D01*
X8822520Y-20952423D01*
X8803472Y-20961947D01*
X8793949Y-20971470D01*
X9003472Y-21085756D02*
X8984425Y-21076232D01*
X8974901Y-21066709D01*
X8965377Y-21047661D01*
X8965377Y-20990518D01*
X8974901Y-20971470D01*
X8984425Y-20961947D01*
X9003472Y-20952423D01*
X9032044Y-20952423D01*
X9051091Y-20961947D01*
X9060615Y-20971470D01*
X9070139Y-20990518D01*
X9070139Y-21047661D01*
X9060615Y-21066709D01*
X9051091Y-21076232D01*
X9032044Y-21085756D01*
X9003472Y-21085756D01*
X9184425Y-21085756D02*
X9165377Y-21076232D01*
X9155853Y-21057185D01*
X9155853Y-20885756D01*
X9336806Y-21076232D02*
X9317758Y-21085756D01*
X9279663Y-21085756D01*
X9260615Y-21076232D01*
X9251091Y-21057185D01*
X9251091Y-20980994D01*
X9260615Y-20961947D01*
X9279663Y-20952423D01*
X9317758Y-20952423D01*
X9336806Y-20961947D01*
X9346330Y-20980994D01*
X9346330Y-21000042D01*
X9251091Y-21019090D01*
X9422520Y-21076232D02*
X9441568Y-21085756D01*
X9479663Y-21085756D01*
X9498710Y-21076232D01*
X9508234Y-21057185D01*
X9508234Y-21047661D01*
X9498710Y-21028613D01*
X9479663Y-21019090D01*
X9451091Y-21019090D01*
X9432044Y-21009566D01*
X9422520Y-20990518D01*
X9422520Y-20980994D01*
X9432044Y-20961947D01*
X9451091Y-20952423D01*
X9479663Y-20952423D01*
X9498710Y-20961947D01*
X9574901Y-21161947D02*
X9584425Y-21152423D01*
X9603472Y-21123851D01*
X9612996Y-21104804D01*
X9622520Y-21076232D01*
X9632044Y-21028613D01*
X9632044Y-20990518D01*
X9622520Y-20942899D01*
X9612996Y-20914328D01*
X9603472Y-20895280D01*
X9584425Y-20866709D01*
X9574901Y-20857185D01*
D20*
X4522520Y-21175280D02*
X4522520Y-21355280D01*
X4432520Y-21265280D02*
X4612520Y-21265280D01*
X4612520Y-21265280D02*
G75*
G03*
X4612520Y-21265280I-90000J0D01*
G01*
D11*
X4974901Y-21355756D02*
X4860615Y-21355756D01*
X4917758Y-21355756D02*
X4917758Y-21155756D01*
X4898710Y-21184328D01*
X4879663Y-21203375D01*
X4860615Y-21212899D01*
X5060615Y-21336709D02*
X5070139Y-21346232D01*
X5060615Y-21355756D01*
X5051091Y-21346232D01*
X5060615Y-21336709D01*
X5060615Y-21355756D01*
X5184425Y-21241470D02*
X5165377Y-21231947D01*
X5155853Y-21222423D01*
X5146330Y-21203375D01*
X5146330Y-21193851D01*
X5155853Y-21174804D01*
X5165377Y-21165280D01*
X5184425Y-21155756D01*
X5222520Y-21155756D01*
X5241568Y-21165280D01*
X5251091Y-21174804D01*
X5260615Y-21193851D01*
X5260615Y-21203375D01*
X5251091Y-21222423D01*
X5241568Y-21231947D01*
X5222520Y-21241470D01*
X5184425Y-21241470D01*
X5165377Y-21250994D01*
X5155853Y-21260518D01*
X5146330Y-21279566D01*
X5146330Y-21317661D01*
X5155853Y-21336709D01*
X5165377Y-21346232D01*
X5184425Y-21355756D01*
X5222520Y-21355756D01*
X5241568Y-21346232D01*
X5251091Y-21336709D01*
X5260615Y-21317661D01*
X5260615Y-21279566D01*
X5251091Y-21260518D01*
X5241568Y-21250994D01*
X5222520Y-21241470D01*
X5384425Y-21155756D02*
X5403472Y-21155756D01*
X5422520Y-21165280D01*
X5432044Y-21174804D01*
X5441568Y-21193851D01*
X5451091Y-21231947D01*
X5451091Y-21279566D01*
X5441568Y-21317661D01*
X5432044Y-21336709D01*
X5422520Y-21346232D01*
X5403472Y-21355756D01*
X5384425Y-21355756D01*
X5365377Y-21346232D01*
X5355853Y-21336709D01*
X5346330Y-21317661D01*
X5336806Y-21279566D01*
X5336806Y-21231947D01*
X5346330Y-21193851D01*
X5355853Y-21174804D01*
X5365377Y-21165280D01*
X5384425Y-21155756D01*
X5574901Y-21155756D02*
X5593948Y-21155756D01*
X5612996Y-21165280D01*
X5622520Y-21174804D01*
X5632044Y-21193851D01*
X5641568Y-21231947D01*
X5641568Y-21279566D01*
X5632044Y-21317661D01*
X5622520Y-21336709D01*
X5612996Y-21346232D01*
X5593948Y-21355756D01*
X5574901Y-21355756D01*
X5555853Y-21346232D01*
X5546330Y-21336709D01*
X5536806Y-21317661D01*
X5527282Y-21279566D01*
X5527282Y-21231947D01*
X5536806Y-21193851D01*
X5546330Y-21174804D01*
X5555853Y-21165280D01*
X5574901Y-21155756D01*
X5727282Y-21355756D02*
X5727282Y-21222423D01*
X5727282Y-21241470D02*
X5736806Y-21231947D01*
X5755853Y-21222423D01*
X5784425Y-21222423D01*
X5803472Y-21231947D01*
X5812996Y-21250994D01*
X5812996Y-21355756D01*
X5812996Y-21250994D02*
X5822520Y-21231947D01*
X5841568Y-21222423D01*
X5870139Y-21222423D01*
X5889187Y-21231947D01*
X5898710Y-21250994D01*
X5898710Y-21355756D01*
X5993948Y-21355756D02*
X5993948Y-21222423D01*
X5993948Y-21241470D02*
X6003472Y-21231947D01*
X6022520Y-21222423D01*
X6051091Y-21222423D01*
X6070139Y-21231947D01*
X6079663Y-21250994D01*
X6079663Y-21355756D01*
X6079663Y-21250994D02*
X6089187Y-21231947D01*
X6108234Y-21222423D01*
X6136806Y-21222423D01*
X6155853Y-21231947D01*
X6165377Y-21250994D01*
X6165377Y-21355756D01*
X6555853Y-21146232D02*
X6384425Y-21403375D01*
X6812996Y-21155756D02*
X6832044Y-21155756D01*
X6851091Y-21165280D01*
X6860615Y-21174804D01*
X6870139Y-21193851D01*
X6879663Y-21231947D01*
X6879663Y-21279566D01*
X6870139Y-21317661D01*
X6860615Y-21336709D01*
X6851091Y-21346232D01*
X6832044Y-21355756D01*
X6812996Y-21355756D01*
X6793948Y-21346232D01*
X6784425Y-21336709D01*
X6774901Y-21317661D01*
X6765377Y-21279566D01*
X6765377Y-21231947D01*
X6774901Y-21193851D01*
X6784425Y-21174804D01*
X6793948Y-21165280D01*
X6812996Y-21155756D01*
X6965377Y-21336709D02*
X6974901Y-21346232D01*
X6965377Y-21355756D01*
X6955853Y-21346232D01*
X6965377Y-21336709D01*
X6965377Y-21355756D01*
X7098710Y-21155756D02*
X7117758Y-21155756D01*
X7136806Y-21165280D01*
X7146329Y-21174804D01*
X7155853Y-21193851D01*
X7165377Y-21231947D01*
X7165377Y-21279566D01*
X7155853Y-21317661D01*
X7146329Y-21336709D01*
X7136806Y-21346232D01*
X7117758Y-21355756D01*
X7098710Y-21355756D01*
X7079663Y-21346232D01*
X7070139Y-21336709D01*
X7060615Y-21317661D01*
X7051091Y-21279566D01*
X7051091Y-21231947D01*
X7060615Y-21193851D01*
X7070139Y-21174804D01*
X7079663Y-21165280D01*
X7098710Y-21155756D01*
X7232044Y-21155756D02*
X7365377Y-21155756D01*
X7279663Y-21355756D01*
X7479663Y-21155756D02*
X7498710Y-21155756D01*
X7517758Y-21165280D01*
X7527282Y-21174804D01*
X7536806Y-21193851D01*
X7546329Y-21231947D01*
X7546329Y-21279566D01*
X7536806Y-21317661D01*
X7527282Y-21336709D01*
X7517758Y-21346232D01*
X7498710Y-21355756D01*
X7479663Y-21355756D01*
X7460615Y-21346232D01*
X7451091Y-21336709D01*
X7441568Y-21317661D01*
X7432044Y-21279566D01*
X7432044Y-21231947D01*
X7441568Y-21193851D01*
X7451091Y-21174804D01*
X7460615Y-21165280D01*
X7479663Y-21155756D01*
X7641568Y-21355756D02*
X7679663Y-21355756D01*
X7698710Y-21346232D01*
X7708234Y-21336709D01*
X7727282Y-21308137D01*
X7736806Y-21270042D01*
X7736806Y-21193851D01*
X7727282Y-21174804D01*
X7717758Y-21165280D01*
X7698710Y-21155756D01*
X7660615Y-21155756D01*
X7641568Y-21165280D01*
X7632044Y-21174804D01*
X7622520Y-21193851D01*
X7622520Y-21241470D01*
X7632044Y-21260518D01*
X7641568Y-21270042D01*
X7660615Y-21279566D01*
X7698710Y-21279566D01*
X7717758Y-21270042D01*
X7727282Y-21260518D01*
X7736806Y-21241470D01*
X7812996Y-21155756D02*
X7812996Y-21193851D01*
X7889187Y-21155756D02*
X7889187Y-21193851D01*
X8184425Y-21431947D02*
X8174901Y-21422423D01*
X8155853Y-21393851D01*
X8146329Y-21374804D01*
X8136806Y-21346232D01*
X8127282Y-21298613D01*
X8127282Y-21260518D01*
X8136806Y-21212899D01*
X8146329Y-21184328D01*
X8155853Y-21165280D01*
X8174901Y-21136709D01*
X8184425Y-21127185D01*
X8298710Y-21155756D02*
X8317758Y-21155756D01*
X8336806Y-21165280D01*
X8346329Y-21174804D01*
X8355853Y-21193851D01*
X8365377Y-21231947D01*
X8365377Y-21279566D01*
X8355853Y-21317661D01*
X8346329Y-21336709D01*
X8336806Y-21346232D01*
X8317758Y-21355756D01*
X8298710Y-21355756D01*
X8279663Y-21346232D01*
X8270139Y-21336709D01*
X8260615Y-21317661D01*
X8251091Y-21279566D01*
X8251091Y-21231947D01*
X8260615Y-21193851D01*
X8270139Y-21174804D01*
X8279663Y-21165280D01*
X8298710Y-21155756D01*
X8603472Y-21355756D02*
X8603472Y-21155756D01*
X8689187Y-21355756D02*
X8689187Y-21250994D01*
X8679663Y-21231947D01*
X8660615Y-21222423D01*
X8632044Y-21222423D01*
X8612996Y-21231947D01*
X8603472Y-21241470D01*
X8812996Y-21355756D02*
X8793949Y-21346232D01*
X8784425Y-21336709D01*
X8774901Y-21317661D01*
X8774901Y-21260518D01*
X8784425Y-21241470D01*
X8793949Y-21231947D01*
X8812996Y-21222423D01*
X8841568Y-21222423D01*
X8860615Y-21231947D01*
X8870139Y-21241470D01*
X8879663Y-21260518D01*
X8879663Y-21317661D01*
X8870139Y-21336709D01*
X8860615Y-21346232D01*
X8841568Y-21355756D01*
X8812996Y-21355756D01*
X8993949Y-21355756D02*
X8974901Y-21346232D01*
X8965377Y-21327185D01*
X8965377Y-21155756D01*
X9146330Y-21346232D02*
X9127282Y-21355756D01*
X9089187Y-21355756D01*
X9070139Y-21346232D01*
X9060615Y-21327185D01*
X9060615Y-21250994D01*
X9070139Y-21231947D01*
X9089187Y-21222423D01*
X9127282Y-21222423D01*
X9146330Y-21231947D01*
X9155853Y-21250994D01*
X9155853Y-21270042D01*
X9060615Y-21289090D01*
X9232044Y-21346232D02*
X9251091Y-21355756D01*
X9289187Y-21355756D01*
X9308234Y-21346232D01*
X9317758Y-21327185D01*
X9317758Y-21317661D01*
X9308234Y-21298613D01*
X9289187Y-21289090D01*
X9260615Y-21289090D01*
X9241568Y-21279566D01*
X9232044Y-21260518D01*
X9232044Y-21250994D01*
X9241568Y-21231947D01*
X9260615Y-21222423D01*
X9289187Y-21222423D01*
X9308234Y-21231947D01*
X9555853Y-21279566D02*
X9708234Y-21279566D01*
X9632044Y-21355756D02*
X9632044Y-21203375D01*
X9946330Y-21174804D02*
X9955853Y-21165280D01*
X9974901Y-21155756D01*
X10022520Y-21155756D01*
X10041568Y-21165280D01*
X10051091Y-21174804D01*
X10060615Y-21193851D01*
X10060615Y-21212899D01*
X10051091Y-21241470D01*
X9936806Y-21355756D01*
X10060615Y-21355756D01*
X10232044Y-21222423D02*
X10232044Y-21355756D01*
X10184425Y-21146232D02*
X10136806Y-21289090D01*
X10260615Y-21289090D01*
X10479663Y-21346232D02*
X10498710Y-21355756D01*
X10536806Y-21355756D01*
X10555853Y-21346232D01*
X10565377Y-21327185D01*
X10565377Y-21317661D01*
X10555853Y-21298613D01*
X10536806Y-21289090D01*
X10508234Y-21289090D01*
X10489187Y-21279566D01*
X10479663Y-21260518D01*
X10479663Y-21250994D01*
X10489187Y-21231947D01*
X10508234Y-21222423D01*
X10536806Y-21222423D01*
X10555853Y-21231947D01*
X10679663Y-21355756D02*
X10660615Y-21346232D01*
X10651091Y-21327185D01*
X10651091Y-21155756D01*
X10784425Y-21355756D02*
X10765377Y-21346232D01*
X10755853Y-21336709D01*
X10746330Y-21317661D01*
X10746330Y-21260518D01*
X10755853Y-21241470D01*
X10765377Y-21231947D01*
X10784425Y-21222423D01*
X10812996Y-21222423D01*
X10832044Y-21231947D01*
X10841568Y-21241470D01*
X10851091Y-21260518D01*
X10851091Y-21317661D01*
X10841568Y-21336709D01*
X10832044Y-21346232D01*
X10812996Y-21355756D01*
X10784425Y-21355756D01*
X10908234Y-21222423D02*
X10984425Y-21222423D01*
X10936806Y-21155756D02*
X10936806Y-21327185D01*
X10946330Y-21346232D01*
X10965377Y-21355756D01*
X10984425Y-21355756D01*
X11041568Y-21346232D02*
X11060615Y-21355756D01*
X11098710Y-21355756D01*
X11117758Y-21346232D01*
X11127282Y-21327185D01*
X11127282Y-21317661D01*
X11117758Y-21298613D01*
X11098710Y-21289090D01*
X11070139Y-21289090D01*
X11051091Y-21279566D01*
X11041568Y-21260518D01*
X11041568Y-21250994D01*
X11051091Y-21231947D01*
X11070139Y-21222423D01*
X11098710Y-21222423D01*
X11117758Y-21231947D01*
X11193948Y-21431947D02*
X11203472Y-21422423D01*
X11222520Y-21393851D01*
X11232044Y-21374804D01*
X11241568Y-21346232D01*
X11251091Y-21298613D01*
X11251091Y-21260518D01*
X11241568Y-21212899D01*
X11232044Y-21184328D01*
X11222520Y-21165280D01*
X11203472Y-21136709D01*
X11193948Y-21127185D01*
M02*
