%TF.GenerationSoftware,KiCad,Pcbnew,(6.0.8)*%
%TF.CreationDate,2022-10-17T00:12:51-07:00*%
%TF.ProjectId,norns-deck-210330,6e6f726e-732d-4646-9563-6b2d32313033,rev?*%
%TF.SameCoordinates,Original*%
%TF.FileFunction,Soldermask,Bot*%
%TF.FilePolarity,Negative*%
%FSLAX46Y46*%
G04 Gerber Fmt 4.6, Leading zero omitted, Abs format (unit mm)*
G04 Created by KiCad (PCBNEW (6.0.8)) date 2022-10-17 00:12:51*
%MOMM*%
%LPD*%
G01*
G04 APERTURE LIST*
G04 Aperture macros list*
%AMRoundRect*
0 Rectangle with rounded corners*
0 $1 Rounding radius*
0 $2 $3 $4 $5 $6 $7 $8 $9 X,Y pos of 4 corners*
0 Add a 4 corners polygon primitive as box body*
4,1,4,$2,$3,$4,$5,$6,$7,$8,$9,$2,$3,0*
0 Add four circle primitives for the rounded corners*
1,1,$1+$1,$2,$3*
1,1,$1+$1,$4,$5*
1,1,$1+$1,$6,$7*
1,1,$1+$1,$8,$9*
0 Add four rect primitives between the rounded corners*
20,1,$1+$1,$2,$3,$4,$5,0*
20,1,$1+$1,$4,$5,$6,$7,0*
20,1,$1+$1,$6,$7,$8,$9,0*
20,1,$1+$1,$8,$9,$2,$3,0*%
%AMFreePoly0*
4,1,25,0.436719,0.836196,0.448842,0.825842,0.825842,0.448842,0.854349,0.392894,0.855600,0.377000,0.855600,-0.377000,0.836196,-0.436719,0.825842,-0.448842,0.448842,-0.825842,0.392894,-0.854349,0.377000,-0.855600,-0.377000,-0.855600,-0.436719,-0.836196,-0.448842,-0.825842,-0.825842,-0.448842,-0.854349,-0.392894,-0.855600,-0.377000,-0.855600,0.377000,-0.836196,0.436719,-0.825842,0.448842,
-0.448842,0.825842,-0.392894,0.854349,-0.377000,0.855600,0.377000,0.855600,0.436719,0.836196,0.436719,0.836196,$1*%
%AMFreePoly1*
4,1,25,0.370379,0.832196,0.382502,0.821842,0.821842,0.382502,0.850349,0.326554,0.851600,0.310660,0.851600,-0.310660,0.832196,-0.370379,0.821842,-0.382502,0.382502,-0.821842,0.326554,-0.850349,0.310660,-0.851600,-0.310660,-0.851600,-0.370379,-0.832196,-0.382502,-0.821842,-0.821842,-0.382502,-0.850349,-0.326554,-0.851600,-0.310660,-0.851600,0.310660,-0.832196,0.370379,-0.821842,0.382502,
-0.382502,0.821842,-0.326554,0.850349,-0.310660,0.851600,0.310660,0.851600,0.370379,0.832196,0.370379,0.832196,$1*%
G04 Aperture macros list end*
%ADD10C,2.800000*%
%ADD11C,2.750000*%
%ADD12RoundRect,0.101600X0.889000X0.889000X-0.889000X0.889000X-0.889000X-0.889000X0.889000X-0.889000X0*%
%ADD13C,1.981200*%
%ADD14FreePoly0,270.000000*%
%ADD15O,4.703200X2.453200*%
%ADD16R,1.800000X1.800000*%
%ADD17C,1.800000*%
%ADD18RoundRect,0.750000X0.750000X-1.250000X0.750000X1.250000X-0.750000X1.250000X-0.750000X-1.250000X0*%
%ADD19C,4.000000*%
%ADD20C,1.700000*%
%ADD21C,2.200000*%
%ADD22C,0.500000*%
%ADD23C,2.286000*%
%ADD24RoundRect,0.101600X-0.750000X-0.750000X0.750000X-0.750000X0.750000X0.750000X-0.750000X0.750000X0*%
%ADD25FreePoly1,0.000000*%
%ADD26C,3.000000*%
%ADD27C,1.524000*%
%ADD28R,1.700000X1.700000*%
%ADD29O,1.700000X1.700000*%
%ADD30C,1.600000*%
%ADD31O,2.003200X3.803200*%
%ADD32RoundRect,0.101600X0.500000X-0.550000X0.500000X0.550000X-0.500000X0.550000X-0.500000X-0.550000X0*%
%ADD33RoundRect,0.101600X0.550000X-0.500000X0.550000X0.500000X-0.550000X0.500000X-0.550000X-0.500000X0*%
%ADD34RoundRect,0.101600X0.500000X0.550000X-0.500000X0.550000X-0.500000X-0.550000X0.500000X-0.550000X0*%
%ADD35RoundRect,0.101600X-0.550000X0.500000X-0.550000X-0.500000X0.550000X-0.500000X0.550000X0.500000X0*%
%ADD36RoundRect,0.101600X0.900000X-0.800000X0.900000X0.800000X-0.900000X0.800000X-0.900000X-0.800000X0*%
%ADD37RoundRect,0.250000X-0.625000X0.350000X-0.625000X-0.350000X0.625000X-0.350000X0.625000X0.350000X0*%
%ADD38O,1.750000X1.200000*%
%ADD39RoundRect,0.101600X-0.500000X0.550000X-0.500000X-0.550000X0.500000X-0.550000X0.500000X0.550000X0*%
%ADD40RoundRect,0.101600X0.650000X0.750000X-0.650000X0.750000X-0.650000X-0.750000X0.650000X-0.750000X0*%
%ADD41RoundRect,0.101600X-0.650000X-0.750000X0.650000X-0.750000X0.650000X0.750000X-0.650000X0.750000X0*%
%ADD42RoundRect,0.101600X0.152400X0.495300X-0.152400X0.495300X-0.152400X-0.495300X0.152400X-0.495300X0*%
%ADD43RoundRect,0.101600X-0.900000X0.800000X-0.900000X-0.800000X0.900000X-0.800000X0.900000X0.800000X0*%
%ADD44RoundRect,0.101600X0.550000X0.500000X-0.550000X0.500000X-0.550000X-0.500000X0.550000X-0.500000X0*%
%ADD45RoundRect,0.101600X-0.495000X0.345000X-0.495000X-0.345000X0.495000X-0.345000X0.495000X0.345000X0*%
%ADD46RoundRect,0.101600X0.495000X-0.345000X0.495000X0.345000X-0.495000X0.345000X-0.495000X-0.345000X0*%
%ADD47RoundRect,0.101600X-0.500000X-0.550000X0.500000X-0.550000X0.500000X0.550000X-0.500000X0.550000X0*%
%ADD48RoundRect,0.101600X-0.750000X0.650000X-0.750000X-0.650000X0.750000X-0.650000X0.750000X0.650000X0*%
%ADD49RoundRect,0.101600X0.750000X-0.650000X0.750000X0.650000X-0.750000X0.650000X-0.750000X-0.650000X0*%
%ADD50RoundRect,0.101600X-0.550000X-0.500000X0.550000X-0.500000X0.550000X0.500000X-0.550000X0.500000X0*%
%ADD51RoundRect,0.101600X-0.600000X-0.650000X0.600000X-0.650000X0.600000X0.650000X-0.600000X0.650000X0*%
%ADD52RoundRect,0.101600X0.800000X0.750000X-0.800000X0.750000X-0.800000X-0.750000X0.800000X-0.750000X0*%
%ADD53RoundRect,0.101600X-0.800000X-0.750000X0.800000X-0.750000X0.800000X0.750000X-0.800000X0.750000X0*%
G04 APERTURE END LIST*
D10*
X49685200Y-178847800D03*
D11*
X201212200Y-164857800D03*
X259212200Y-115857800D03*
X201212200Y-115857800D03*
D12*
X254342200Y-163587800D03*
D13*
X254342200Y-166127800D03*
X251802200Y-163587800D03*
X251802200Y-166127800D03*
X249262200Y-163587800D03*
X249262200Y-166127800D03*
X246722200Y-163587800D03*
X246722200Y-166127800D03*
X244182200Y-163587800D03*
X244182200Y-166127800D03*
X241642200Y-163587800D03*
X241642200Y-166127800D03*
X239102200Y-163587800D03*
X239102200Y-166127800D03*
X236562200Y-163587800D03*
X236562200Y-166127800D03*
X234022200Y-163587800D03*
X234022200Y-166127800D03*
X231482200Y-163587800D03*
X231482200Y-166127800D03*
X228942200Y-163587800D03*
X228942200Y-166127800D03*
X226402200Y-163587800D03*
X226402200Y-166127800D03*
X223862200Y-163587800D03*
X223862200Y-166127800D03*
X221322200Y-163587800D03*
X221322200Y-166127800D03*
X218782200Y-163587800D03*
X218782200Y-166127800D03*
X216242200Y-163587800D03*
X216242200Y-166127800D03*
X213702200Y-163587800D03*
X213702200Y-166127800D03*
X211162200Y-163587800D03*
X211162200Y-166127800D03*
X208622200Y-163587800D03*
X208622200Y-166127800D03*
X206082200Y-163587800D03*
X206082200Y-166127800D03*
D14*
X290912200Y-167717800D03*
X290912200Y-172717800D03*
X290912200Y-170217800D03*
D15*
X298412200Y-164502800D03*
X298412200Y-175932800D03*
D16*
X107495200Y-154847800D03*
D17*
X109995200Y-154847800D03*
X112495200Y-154847800D03*
D18*
X105595200Y-147847800D03*
X114395200Y-147847800D03*
D16*
X148135200Y-177707800D03*
D17*
X150635200Y-177707800D03*
X153135200Y-177707800D03*
D18*
X155035200Y-170707800D03*
X146235200Y-170707800D03*
D10*
X49685200Y-115847800D03*
D16*
X107495200Y-131987800D03*
D17*
X109995200Y-131987800D03*
X112495200Y-131987800D03*
D18*
X105595200Y-124987800D03*
X114395200Y-124987800D03*
D19*
X304212200Y-124497800D03*
D20*
X299132200Y-124497800D03*
X309292200Y-124497800D03*
D21*
X306752200Y-119417800D03*
X300402200Y-121957800D03*
D10*
X259212200Y-178857800D03*
D16*
X148135200Y-154847800D03*
D17*
X150635200Y-154847800D03*
X153135200Y-154847800D03*
D18*
X155035200Y-147847800D03*
X146235200Y-147847800D03*
D22*
X93980200Y-117227800D03*
X96180200Y-116427800D03*
X93980200Y-118027800D03*
X96180200Y-118027800D03*
X96180200Y-117227800D03*
X93980200Y-116427800D03*
D16*
X107495200Y-177707800D03*
D17*
X109995200Y-177707800D03*
X112495200Y-177707800D03*
D18*
X105595200Y-170707800D03*
X114395200Y-170707800D03*
D14*
X264792200Y-121997800D03*
X264792200Y-126997800D03*
X264792200Y-124497800D03*
D15*
X272292200Y-118782800D03*
X272292200Y-130212800D03*
D16*
X168455200Y-177707800D03*
D17*
X170955200Y-177707800D03*
X173455200Y-177707800D03*
D18*
X175355200Y-170707800D03*
X166555200Y-170707800D03*
D10*
X181107200Y-178857800D03*
X99835200Y-115847800D03*
D16*
X127815200Y-131987800D03*
D17*
X130315200Y-131987800D03*
X132815200Y-131987800D03*
D18*
X134715200Y-124987800D03*
X125915200Y-124987800D03*
D10*
X90325200Y-178847800D03*
D16*
X127815200Y-177707800D03*
D17*
X130315200Y-177707800D03*
X132815200Y-177707800D03*
D18*
X134715200Y-170707800D03*
X125915200Y-170707800D03*
D10*
X140475200Y-178847800D03*
X90325200Y-115847800D03*
D22*
X93980200Y-177487800D03*
X96180200Y-177487800D03*
X93980200Y-176687800D03*
X93980200Y-178287800D03*
X96180200Y-178287800D03*
X96180200Y-176687800D03*
D23*
X181667200Y-131112800D03*
X258667200Y-131112800D03*
D24*
X196037200Y-173612800D03*
D25*
X198577200Y-173612800D03*
X201117200Y-173612800D03*
X203657200Y-173612800D03*
X206197200Y-173612800D03*
X208737200Y-173612800D03*
X211277200Y-173612800D03*
X213817200Y-173612800D03*
X216357200Y-173612800D03*
X218897200Y-173612800D03*
X221437200Y-173612800D03*
X223977200Y-173612800D03*
X226517200Y-173612800D03*
X229057200Y-173612800D03*
X231597200Y-173612800D03*
X234137200Y-173612800D03*
X236677200Y-173612800D03*
X239217200Y-173612800D03*
X241757200Y-173612800D03*
X244297200Y-173612800D03*
D16*
X168455200Y-154847800D03*
D17*
X170955200Y-154847800D03*
X173455200Y-154847800D03*
D18*
X175355200Y-147847800D03*
X166555200Y-147847800D03*
D14*
X306872200Y-144857800D03*
X306872200Y-149857800D03*
X306872200Y-147357800D03*
D15*
X314372200Y-141642800D03*
X314372200Y-153072800D03*
D10*
X99835200Y-178847800D03*
X340492200Y-115857800D03*
D19*
X272292200Y-170217800D03*
D20*
X277372200Y-170217800D03*
X267212200Y-170217800D03*
D21*
X274832200Y-165137800D03*
X268482200Y-167677800D03*
D26*
X234142800Y-147199800D03*
X243542800Y-126399800D03*
X252942800Y-147199800D03*
D27*
X237192800Y-147199800D03*
X239732800Y-147199800D03*
X242272800Y-147199800D03*
X244812800Y-147199800D03*
X247352800Y-147199800D03*
X249892800Y-147199800D03*
D28*
X50320200Y-125757800D03*
D29*
X50320200Y-128297800D03*
X50320200Y-130837800D03*
X50320200Y-133377800D03*
X50320200Y-135917800D03*
X50320200Y-138457800D03*
X50320200Y-140997800D03*
X50320200Y-143537800D03*
X50320200Y-146077800D03*
X50320200Y-148617800D03*
X50320200Y-151157800D03*
X50320200Y-153697800D03*
X50320200Y-156237800D03*
X50320200Y-158777800D03*
X50320200Y-161317800D03*
X50320200Y-163857800D03*
X50320200Y-166397800D03*
X50320200Y-168937800D03*
D20*
X283172200Y-147357800D03*
X293332200Y-147357800D03*
D19*
X288252200Y-147357800D03*
D21*
X290792200Y-142277800D03*
X284442200Y-144817800D03*
D16*
X127815200Y-154847800D03*
D17*
X130315200Y-154847800D03*
X132815200Y-154847800D03*
D18*
X125915200Y-147847800D03*
X134715200Y-147847800D03*
D10*
X340492200Y-178857800D03*
D16*
X148135200Y-131987800D03*
D17*
X150635200Y-131987800D03*
X153135200Y-131987800D03*
D18*
X155035200Y-124987800D03*
X146235200Y-124987800D03*
D14*
X322832200Y-121997800D03*
X322832200Y-126997800D03*
X322832200Y-124497800D03*
D15*
X330332200Y-118782800D03*
X330332200Y-130212800D03*
D10*
X140475200Y-115847800D03*
D16*
X168455200Y-131987800D03*
D17*
X170955200Y-131987800D03*
X173455200Y-131987800D03*
D18*
X166555200Y-124987800D03*
X175355200Y-124987800D03*
D30*
X209372200Y-115497800D03*
X209372200Y-121497800D03*
D31*
X206872200Y-117797800D03*
X211872200Y-114897800D03*
X207172200Y-123597800D03*
X211872200Y-121797800D03*
D32*
X301037200Y-154557800D03*
X301037200Y-152857800D03*
D33*
X210642200Y-130352800D03*
X210642200Y-128652800D03*
D34*
X221017200Y-130455300D03*
X219317200Y-130455300D03*
D35*
X288887200Y-152857800D03*
X288887200Y-154557800D03*
X293136200Y-175717800D03*
X293136200Y-177417800D03*
X219532200Y-147067800D03*
X219532200Y-148767800D03*
D32*
X316997200Y-131697800D03*
X316997200Y-129997800D03*
D35*
X318902200Y-129997800D03*
X318902200Y-131697800D03*
D28*
X100470200Y-125757800D03*
D29*
X100470200Y-128297800D03*
X100470200Y-130837800D03*
X100470200Y-133377800D03*
X100470200Y-135917800D03*
X100470200Y-138457800D03*
X100470200Y-140997800D03*
X100470200Y-143537800D03*
X100470200Y-146077800D03*
X100470200Y-148617800D03*
X100470200Y-151157800D03*
X100470200Y-153697800D03*
X100470200Y-156237800D03*
X100470200Y-158777800D03*
X100470200Y-161317800D03*
X100470200Y-163857800D03*
X100470200Y-166397800D03*
X100470200Y-168937800D03*
D32*
X216357200Y-139242800D03*
X216357200Y-137542800D03*
X270507200Y-136697800D03*
X270507200Y-134997800D03*
D35*
X289326200Y-175717800D03*
X289326200Y-177417800D03*
X272927200Y-175717800D03*
X272927200Y-177417800D03*
D36*
X218262200Y-139157800D03*
X218262200Y-136357800D03*
D35*
X287421200Y-175717800D03*
X287421200Y-177417800D03*
X302942200Y-152857800D03*
X302942200Y-154557800D03*
X320807200Y-129997800D03*
X320807200Y-131697800D03*
X266697200Y-134997800D03*
X266697200Y-136697800D03*
D37*
X84666200Y-157236200D03*
D38*
X84666200Y-159236200D03*
X84666200Y-161236200D03*
X84666200Y-163236200D03*
D39*
X206197200Y-141352800D03*
X206197200Y-143052800D03*
D35*
X291231200Y-175717800D03*
X291231200Y-177417800D03*
D40*
X212227200Y-132042800D03*
X210327200Y-132042800D03*
D41*
X219217200Y-132360300D03*
X221117200Y-132360300D03*
D35*
X264792200Y-134997800D03*
X264792200Y-136697800D03*
X308657200Y-152857800D03*
X308657200Y-154557800D03*
D39*
X216357200Y-141352800D03*
X216357200Y-143052800D03*
D42*
X214852200Y-143215600D03*
X214202200Y-143215600D03*
X213552200Y-143215600D03*
X212902200Y-143215600D03*
X212252200Y-143215600D03*
X211602200Y-143215600D03*
X210952200Y-143215600D03*
X210302200Y-143215600D03*
X209652200Y-143215600D03*
X209002200Y-143215600D03*
X208352200Y-143215600D03*
X207702200Y-143215600D03*
X207702200Y-137380000D03*
X208352200Y-137380000D03*
X209002200Y-137380000D03*
X209652200Y-137380000D03*
X210302200Y-137380000D03*
X210952200Y-137380000D03*
X211602200Y-137380000D03*
X212252200Y-137380000D03*
X212902200Y-137380000D03*
X213552200Y-137380000D03*
X214202200Y-137380000D03*
X214852200Y-137380000D03*
D43*
X204292200Y-141437800D03*
X204292200Y-144237800D03*
D35*
X268602200Y-134997800D03*
X268602200Y-136697800D03*
D33*
X306752200Y-131697800D03*
X306752200Y-129997800D03*
D35*
X306752200Y-152857800D03*
X306752200Y-154557800D03*
D44*
X212127200Y-133947800D03*
X210427200Y-133947800D03*
D35*
X262887200Y-134997800D03*
X262887200Y-136697800D03*
D39*
X226517200Y-128652800D03*
X226517200Y-130352800D03*
D32*
X295041200Y-177417800D03*
X295041200Y-175717800D03*
D40*
X224927200Y-132360300D03*
X223027200Y-132360300D03*
D45*
X227499700Y-139347800D03*
X227499700Y-140297800D03*
X227499700Y-141247800D03*
D46*
X224899700Y-141247800D03*
X224899700Y-140297800D03*
D45*
X224899700Y-139347800D03*
D32*
X221119700Y-139242800D03*
X221119700Y-137542800D03*
D39*
X217627200Y-128652800D03*
X217627200Y-130352800D03*
D32*
X302942200Y-131697800D03*
X302942200Y-129997800D03*
D47*
X223127200Y-128867800D03*
X224827200Y-128867800D03*
D34*
X221017200Y-128867800D03*
X219317200Y-128867800D03*
D32*
X310562200Y-154557800D03*
X310562200Y-152857800D03*
X286982200Y-154557800D03*
X286982200Y-152857800D03*
D35*
X322712200Y-129997800D03*
X322712200Y-131697800D03*
X304847200Y-129997800D03*
X304847200Y-131697800D03*
D33*
X290792200Y-154557800D03*
X290792200Y-152857800D03*
D47*
X223127200Y-130455300D03*
X224827200Y-130455300D03*
D39*
X229057200Y-139130300D03*
X229057200Y-140830300D03*
D33*
X208102200Y-130352800D03*
X208102200Y-128652800D03*
D32*
X271022200Y-177417800D03*
X271022200Y-175717800D03*
D48*
X218262200Y-141252800D03*
X218262200Y-143152800D03*
D30*
X222072200Y-121497800D03*
X222072200Y-115497800D03*
D31*
X219572200Y-117797800D03*
X224572200Y-114897800D03*
X219872200Y-123597800D03*
X224572200Y-121797800D03*
D49*
X204292200Y-139342800D03*
X204292200Y-137442800D03*
D35*
X324617200Y-129997800D03*
X324617200Y-131697800D03*
D50*
X225349700Y-142837800D03*
X227049700Y-142837800D03*
D32*
X260982200Y-136697800D03*
X260982200Y-134997800D03*
D35*
X304847200Y-152857800D03*
X304847200Y-154557800D03*
X201117200Y-138812800D03*
X201117200Y-140512800D03*
D26*
X56921000Y-146477800D03*
X56921000Y-176197800D03*
X78511000Y-176197800D03*
X78511000Y-146477800D03*
D27*
X72921000Y-145468200D03*
X70381000Y-145468200D03*
X67841000Y-145468200D03*
X65301000Y-145468200D03*
X62761000Y-145468200D03*
X56106200Y-151157800D03*
X56106200Y-153697800D03*
X56106200Y-156237800D03*
X56106200Y-158777800D03*
X56106200Y-161317800D03*
X56106200Y-163857800D03*
X56106200Y-166397800D03*
X79271000Y-171884200D03*
X79271000Y-169344200D03*
X79271000Y-153596200D03*
X79271000Y-151056200D03*
D37*
X84666200Y-169936200D03*
D38*
X84666200Y-171936200D03*
D51*
X225183700Y-137122800D03*
X227215700Y-137122800D03*
D33*
X206514700Y-130352800D03*
X206514700Y-128652800D03*
D44*
X216572200Y-151410300D03*
X214872200Y-151410300D03*
D37*
X84666200Y-144536200D03*
D38*
X84666200Y-146536200D03*
X84666200Y-148536200D03*
X84666200Y-150536200D03*
D48*
X223024700Y-139347800D03*
X223024700Y-141247800D03*
D33*
X274832200Y-177417800D03*
X274832200Y-175717800D03*
D32*
X326522200Y-131697800D03*
X326522200Y-129997800D03*
D41*
X206517200Y-132042800D03*
X208417200Y-132042800D03*
D52*
X216972200Y-149067800D03*
X214472200Y-149067800D03*
D53*
X214472200Y-146767800D03*
X216972200Y-146767800D03*
D50*
X206617200Y-133947800D03*
X208317200Y-133947800D03*
D30*
X89759962Y-135207800D03*
X87219962Y-135207800D03*
X84679962Y-135207800D03*
X82139962Y-135207800D03*
X79599962Y-135207800D03*
X77059962Y-135207800D03*
X74519962Y-135207800D03*
X71979962Y-135207800D03*
X69439962Y-135207800D03*
X66899962Y-135207800D03*
X64359962Y-135207800D03*
X61819962Y-135207800D03*
X59279962Y-135207800D03*
X56739962Y-135207800D03*
X56739962Y-132667800D03*
X56739962Y-130127800D03*
X56739962Y-127587800D03*
X56739962Y-125047800D03*
X56739962Y-122507800D03*
X56739962Y-119967800D03*
X59279962Y-119967800D03*
X61819962Y-119967800D03*
X64359962Y-119967800D03*
X66899962Y-119967800D03*
X69439962Y-119967800D03*
X71979962Y-119967800D03*
X74519962Y-119967800D03*
X77059962Y-119967800D03*
X79599962Y-119967800D03*
X82139962Y-119967800D03*
X84679962Y-119967800D03*
X87219962Y-119967800D03*
X89759962Y-119967800D03*
X87219962Y-122507800D03*
X61819962Y-122507800D03*
X64359962Y-122507800D03*
X61819962Y-125047800D03*
X64359962Y-125047800D03*
X61819962Y-127587800D03*
X64359962Y-127587800D03*
X61819962Y-130127800D03*
X64359962Y-130127800D03*
X61819962Y-132667800D03*
X64359962Y-132667800D03*
D33*
X212229700Y-130352800D03*
X212229700Y-128652800D03*
D32*
X285516200Y-177417800D03*
X285516200Y-175717800D03*
X206197200Y-139242800D03*
X206197200Y-137542800D03*
M02*
