M48
; DRILL file {KiCad (6.0.8)} date Mon 17 Oct 2022 12:13:44 AM PDT
; FORMAT={-:-/ absolute / metric / decimal}
; #@! TF.CreationDate,2022-10-17T00:13:44-07:00
; #@! TF.GenerationSoftware,Kicad,Pcbnew,(6.0.8)
; #@! TF.FileFunction,Plated,1,2,PTH
FMAT,2
METRIC
; #@! TA.AperFunction,Plated,PTH,ViaDrill
T1C0.254
; #@! TA.AperFunction,Plated,PTH,ViaDrill
T2C0.381
; #@! TA.AperFunction,Plated,PTH,ViaDrill
T3C0.500
; #@! TA.AperFunction,Plated,PTH,ComponentDrill
T4C0.750
; #@! TA.AperFunction,Plated,PTH,ComponentDrill
T5C0.762
; #@! TA.AperFunction,Plated,PTH,ComponentDrill
T6C1.000
; #@! TA.AperFunction,Plated,PTH,ComponentDrill
T7C1.100
; #@! TA.AperFunction,Plated,PTH,ComponentDrill
T8C1.200
; #@! TA.AperFunction,Plated,PTH,ComponentDrill
T9C1.500
; #@! TA.AperFunction,Plated,PTH,ComponentDrill
T10C1.800
%
G90
G05
T1
X201.76Y-168.085
X205.562Y-132.043
X207.467Y-151.093
X208.737Y-152.363
X209.372Y-153.633
X209.372Y-156.808
X211.277Y-171.286
X211.595Y-155.538
X213.182Y-132.043
X213.817Y-156.808
X215.722Y-168.238
X216.357Y-144.108
X216.992Y-154.268
X216.992Y-156.808
X218.262Y-132.36
X218.262Y-168.238
X219.532Y-155.538
X219.532Y-169.508
X223.342Y-158.078
X225.882Y-132.36
X242.4Y-168.822
X243.517Y-167.908
X254.236Y-172.022
X258.402Y-147.715
X258.783Y-169.508
X258.783Y-171.235
X259.164Y-148.426
X259.9Y-170.371
X260.096Y-160.02
X260.982Y-133.848
X261.112Y-161.036
X262.128Y-162.052
X270.507Y-133.848
X285.516Y-174.568
X295.041Y-174.568
X301.037Y-151.708
X310.562Y-151.708
X316.997Y-128.848
X326.522Y-128.848
T2
X201.117Y-140.933
X203.022Y-137.758
X206.197Y-144.108
X206.515Y-127.915
X208.102Y-144.743
X209.372Y-133.948
X210.642Y-127.915
X211.277Y-141.885
X212.547Y-135.853
X214.472Y-151.41
X216.357Y-130.138
X216.357Y-136.488
X218.262Y-144.425
X227.787Y-130.138
T3
X223.025Y-142.203
X224.295Y-137.123
X228.105Y-137.123
X229.057Y-141.885
T4
X84.666Y-144.536
X84.666Y-146.536
X84.666Y-148.536
X84.666Y-150.536
X84.666Y-157.236
X84.666Y-159.236
X84.666Y-161.236
X84.666Y-163.236
X84.666Y-169.936
X84.666Y-171.936
T5
X56.106Y-151.158
X56.106Y-153.698
X56.106Y-156.238
X56.106Y-158.778
X56.106Y-161.318
X56.106Y-163.858
X56.106Y-166.398
X62.761Y-145.468
X65.301Y-145.468
X67.841Y-145.468
X70.381Y-145.468
X72.921Y-145.468
X79.271Y-151.056
X79.271Y-153.596
X79.271Y-169.344
X79.271Y-171.884
X237.193Y-147.2
X239.733Y-147.2
X242.273Y-147.2
X244.813Y-147.2
X247.353Y-147.2
X249.893Y-147.2
T6
X50.32Y-125.758
X50.32Y-128.298
X50.32Y-130.838
X50.32Y-133.378
X50.32Y-135.918
X50.32Y-138.458
X50.32Y-140.998
X50.32Y-143.538
X50.32Y-146.078
X50.32Y-148.618
X50.32Y-151.158
X50.32Y-153.698
X50.32Y-156.238
X50.32Y-158.778
X50.32Y-161.318
X50.32Y-163.858
X50.32Y-166.398
X50.32Y-168.938
X100.47Y-125.758
X100.47Y-128.298
X100.47Y-130.838
X100.47Y-133.378
X100.47Y-135.918
X100.47Y-138.458
X100.47Y-140.998
X100.47Y-143.538
X100.47Y-146.078
X100.47Y-148.618
X100.47Y-151.158
X100.47Y-153.698
X100.47Y-156.238
X100.47Y-158.778
X100.47Y-161.318
X100.47Y-163.858
X100.47Y-166.398
X100.47Y-168.938
X107.495Y-131.988
X107.495Y-154.848
X107.495Y-177.708
X109.995Y-131.988
X109.995Y-154.848
X109.995Y-177.708
X112.495Y-131.988
X112.495Y-154.848
X112.495Y-177.708
X127.815Y-131.988
X127.815Y-154.848
X127.815Y-177.708
X130.315Y-131.988
X130.315Y-154.848
X130.315Y-177.708
X132.815Y-131.988
X132.815Y-154.848
X132.815Y-177.708
X148.135Y-131.988
X148.135Y-154.848
X148.135Y-177.708
X150.635Y-131.988
X150.635Y-154.848
X150.635Y-177.708
X153.135Y-131.988
X153.135Y-154.848
X153.135Y-177.708
X168.455Y-131.988
X168.455Y-154.848
X168.455Y-177.708
X170.955Y-131.988
X170.955Y-154.848
X170.955Y-177.708
X173.455Y-131.988
X173.455Y-154.848
X173.455Y-177.708
X196.037Y-173.613
X198.577Y-173.613
X201.117Y-173.613
X203.657Y-173.613
X206.082Y-163.588
X206.082Y-166.128
X206.197Y-173.613
X208.622Y-163.588
X208.622Y-166.128
X208.737Y-173.613
X211.162Y-163.588
X211.162Y-166.128
X211.277Y-173.613
X213.702Y-163.588
X213.702Y-166.128
X213.817Y-173.613
X216.242Y-163.588
X216.242Y-166.128
X216.357Y-173.613
X218.782Y-163.588
X218.782Y-166.128
X218.897Y-173.613
X221.322Y-163.588
X221.322Y-166.128
X221.437Y-173.613
X223.862Y-163.588
X223.862Y-166.128
X223.977Y-173.613
X226.402Y-163.588
X226.402Y-166.128
X226.517Y-173.613
X228.942Y-163.588
X228.942Y-166.128
X229.057Y-173.613
X231.482Y-163.588
X231.482Y-166.128
X231.597Y-173.613
X234.022Y-163.588
X234.022Y-166.128
X234.137Y-173.613
X236.562Y-163.588
X236.562Y-166.128
X236.677Y-173.613
X239.102Y-163.588
X239.102Y-166.128
X239.217Y-173.613
X241.642Y-163.588
X241.642Y-166.128
X241.757Y-173.613
X244.182Y-163.588
X244.182Y-166.128
X244.297Y-173.613
X246.722Y-163.588
X246.722Y-166.128
X249.262Y-163.588
X249.262Y-166.128
X251.802Y-163.588
X251.802Y-166.128
X254.342Y-163.588
X254.342Y-166.128
X264.792Y-121.998
X264.792Y-124.498
X264.792Y-126.998
X290.912Y-167.718
X290.912Y-170.218
X290.912Y-172.718
X306.872Y-144.858
X306.872Y-147.358
X306.872Y-149.858
X322.832Y-121.998
X322.832Y-124.498
X322.832Y-126.998
T7
X56.74Y-119.968
X56.74Y-122.508
X56.74Y-125.048
X56.74Y-127.588
X56.74Y-130.128
X56.74Y-132.668
X56.74Y-135.208
X59.28Y-119.968
X59.28Y-135.208
X61.82Y-119.968
X61.82Y-122.508
X61.82Y-125.048
X61.82Y-127.588
X61.82Y-130.128
X61.82Y-132.668
X61.82Y-135.208
X64.36Y-119.968
X64.36Y-122.508
X64.36Y-125.048
X64.36Y-127.588
X64.36Y-130.128
X64.36Y-132.668
X64.36Y-135.208
X66.9Y-119.968
X66.9Y-135.208
X69.44Y-119.968
X69.44Y-135.208
X71.98Y-119.968
X71.98Y-135.208
X74.52Y-119.968
X74.52Y-135.208
X77.06Y-119.968
X77.06Y-135.208
X79.6Y-119.968
X79.6Y-135.208
X82.14Y-119.968
X82.14Y-135.208
X84.68Y-119.968
X84.68Y-135.208
X87.22Y-119.968
X87.22Y-122.508
X87.22Y-135.208
X89.76Y-119.968
X89.76Y-135.208
T8
X206.872Y-117.798
X207.172Y-123.598
X211.872Y-114.898
X211.872Y-121.798
X219.572Y-117.798
X219.872Y-123.598
X224.572Y-114.898
X224.572Y-121.798
T9
X268.482Y-167.678
X272.292Y-118.783
X272.292Y-130.213
X274.832Y-165.138
X284.442Y-144.818
X290.792Y-142.278
X298.412Y-164.503
X298.412Y-175.933
X300.402Y-121.958
X306.752Y-119.418
X314.372Y-141.643
X314.372Y-153.073
X330.332Y-118.783
X330.332Y-130.213
T10
X105.595Y-125.138G85X105.595Y-124.838
G05
X105.595Y-147.998G85X105.595Y-147.698
G05
X105.595Y-170.858G85X105.595Y-170.558
G05
X114.395Y-125.138G85X114.395Y-124.838
G05
X114.395Y-147.998G85X114.395Y-147.698
G05
X114.395Y-170.858G85X114.395Y-170.558
G05
X125.915Y-125.138G85X125.915Y-124.838
G05
X125.915Y-147.998G85X125.915Y-147.698
G05
X125.915Y-170.858G85X125.915Y-170.558
G05
X134.715Y-125.138G85X134.715Y-124.838
G05
X134.715Y-147.998G85X134.715Y-147.698
G05
X134.715Y-170.858G85X134.715Y-170.558
G05
X146.235Y-125.138G85X146.235Y-124.838
G05
X146.235Y-147.998G85X146.235Y-147.698
G05
X146.235Y-170.858G85X146.235Y-170.558
G05
X155.035Y-125.138G85X155.035Y-124.838
G05
X155.035Y-147.998G85X155.035Y-147.698
G05
X155.035Y-170.858G85X155.035Y-170.558
G05
X166.555Y-125.138G85X166.555Y-124.838
G05
X166.555Y-147.998G85X166.555Y-147.698
G05
X166.555Y-170.858G85X166.555Y-170.558
G05
X175.355Y-125.138G85X175.355Y-124.838
G05
X175.355Y-147.998G85X175.355Y-147.698
G05
X175.355Y-170.858G85X175.355Y-170.558
G05
T0
M30
