%TF.GenerationSoftware,KiCad,Pcbnew,(6.0.8)*%
%TF.CreationDate,2022-10-17T00:12:51-07:00*%
%TF.ProjectId,norns-deck-210330,6e6f726e-732d-4646-9563-6b2d32313033,rev?*%
%TF.SameCoordinates,Original*%
%TF.FileFunction,Profile,NP*%
%FSLAX46Y46*%
G04 Gerber Fmt 4.6, Leading zero omitted, Abs format (unit mm)*
G04 Created by KiCad (PCBNEW (6.0.8)) date 2022-10-17 00:12:51*
%MOMM*%
%LPD*%
G01*
G04 APERTURE LIST*
%TA.AperFunction,Profile*%
%ADD10C,0.150000*%
%TD*%
%TA.AperFunction,Profile*%
%ADD11C,0.050000*%
%TD*%
G04 APERTURE END LIST*
D10*
X93810200Y-175157800D02*
G75*
G03*
X96350200Y-175157800I1270000J0D01*
G01*
X48740200Y-182357800D02*
X91270200Y-182357800D01*
X96350200Y-179817800D02*
G75*
G03*
X93810200Y-179817800I-1270000J0D01*
G01*
X93810200Y-114897800D02*
G75*
G03*
X91270200Y-112357800I-2540000J0D01*
G01*
X48740200Y-112357800D02*
X91270200Y-112357800D01*
X341444200Y-112357800D02*
X98890200Y-112357800D01*
X46200200Y-179817800D02*
G75*
G03*
X48740200Y-182357800I2540000J0D01*
G01*
X96350200Y-179817800D02*
G75*
G03*
X98890200Y-182357800I2540000J0D01*
G01*
X96350200Y-119557800D02*
X96350200Y-175157800D01*
X93810200Y-175157800D02*
X93810200Y-119557800D01*
X91270200Y-182357800D02*
G75*
G03*
X93810200Y-179817800I0J2540000D01*
G01*
X341444200Y-182357800D02*
G75*
G03*
X343984200Y-179817800I0J2540000D01*
G01*
X98890200Y-182357800D02*
X341444200Y-182357800D01*
X343984200Y-179817800D02*
X343984200Y-114897800D01*
X343984200Y-114897800D02*
G75*
G03*
X341444200Y-112357800I-2540000J0D01*
G01*
X48740200Y-112357800D02*
G75*
G03*
X46200200Y-114897800I0J-2540000D01*
G01*
X46200200Y-114897800D02*
X46200200Y-179817800D01*
X93810200Y-114897800D02*
G75*
G03*
X96350200Y-114897800I1270000J0D01*
G01*
X98890200Y-112357800D02*
G75*
G03*
X96350200Y-114897800I0J-2540000D01*
G01*
X96350200Y-119557800D02*
G75*
G03*
X93810200Y-119557800I-1270000J0D01*
G01*
D11*
X297112200Y-163617800D02*
X299712200Y-163617800D01*
X300012200Y-163917800D02*
X300012200Y-165117800D01*
X299712200Y-165417800D02*
X297112200Y-165417800D01*
X297112200Y-175047800D02*
X299712200Y-175047800D01*
X300012200Y-175347800D02*
X300012200Y-176547800D01*
X299712200Y-176847800D02*
X297112200Y-176847800D01*
X296812200Y-176547800D02*
X296812200Y-175347800D01*
X296812200Y-165117800D02*
X296812200Y-163917800D01*
X300012200Y-163917800D02*
G75*
G03*
X299712200Y-163617800I-300000J0D01*
G01*
X299712200Y-176847800D02*
G75*
G03*
X300012200Y-176547800I0J300000D01*
G01*
X297112200Y-175047800D02*
G75*
G03*
X296812200Y-175347800I0J-300000D01*
G01*
X299712200Y-165417800D02*
G75*
G03*
X300012200Y-165117800I0J300000D01*
G01*
X296812200Y-165117800D02*
G75*
G03*
X297112200Y-165417800I300000J0D01*
G01*
X300012200Y-175347800D02*
G75*
G03*
X299712200Y-175047800I-300000J0D01*
G01*
X297112200Y-163617800D02*
G75*
G03*
X296812200Y-163917800I0J-300000D01*
G01*
X296812200Y-176547800D02*
G75*
G03*
X297112200Y-176847800I300000J0D01*
G01*
X273592200Y-131127800D02*
X270992200Y-131127800D01*
X270692200Y-130827800D02*
X270692200Y-129627800D01*
X273892200Y-118197800D02*
X273892200Y-119397800D01*
X270992200Y-129327800D02*
X273592200Y-129327800D01*
X273892200Y-129627800D02*
X273892200Y-130827800D01*
X270692200Y-119397800D02*
X270692200Y-118197800D01*
X273592200Y-119697800D02*
X270992200Y-119697800D01*
X270992200Y-117897800D02*
X273592200Y-117897800D01*
X273592200Y-131127800D02*
G75*
G03*
X273892200Y-130827800I0J300000D01*
G01*
X273892200Y-118197800D02*
G75*
G03*
X273592200Y-117897800I-300000J0D01*
G01*
X270692200Y-130827800D02*
G75*
G03*
X270992200Y-131127800I300000J0D01*
G01*
X270992200Y-117897800D02*
G75*
G03*
X270692200Y-118197800I0J-300000D01*
G01*
X270692200Y-119397800D02*
G75*
G03*
X270992200Y-119697800I300000J0D01*
G01*
X270992200Y-129327800D02*
G75*
G03*
X270692200Y-129627800I0J-300000D01*
G01*
X273892200Y-129627800D02*
G75*
G03*
X273592200Y-129327800I-300000J0D01*
G01*
X273592200Y-119697800D02*
G75*
G03*
X273892200Y-119397800I0J300000D01*
G01*
X315672200Y-142557800D02*
X313072200Y-142557800D01*
X313072200Y-152187800D02*
X315672200Y-152187800D01*
X315972200Y-141057800D02*
X315972200Y-142257800D01*
X312772200Y-142257800D02*
X312772200Y-141057800D01*
X312772200Y-153687800D02*
X312772200Y-152487800D01*
X315672200Y-153987800D02*
X313072200Y-153987800D01*
X315972200Y-152487800D02*
X315972200Y-153687800D01*
X313072200Y-140757800D02*
X315672200Y-140757800D01*
X315672200Y-142557800D02*
G75*
G03*
X315972200Y-142257800I0J300000D01*
G01*
X315672200Y-153987800D02*
G75*
G03*
X315972200Y-153687800I0J300000D01*
G01*
X313072200Y-140757800D02*
G75*
G03*
X312772200Y-141057800I0J-300000D01*
G01*
X315972200Y-141057800D02*
G75*
G03*
X315672200Y-140757800I-300000J0D01*
G01*
X312772200Y-142257800D02*
G75*
G03*
X313072200Y-142557800I300000J0D01*
G01*
X315972200Y-152487800D02*
G75*
G03*
X315672200Y-152187800I-300000J0D01*
G01*
X312772200Y-153687800D02*
G75*
G03*
X313072200Y-153987800I300000J0D01*
G01*
X313072200Y-152187800D02*
G75*
G03*
X312772200Y-152487800I0J-300000D01*
G01*
X329032200Y-129327800D02*
X331632200Y-129327800D01*
X328732200Y-130827800D02*
X328732200Y-129627800D01*
X331632200Y-119697800D02*
X329032200Y-119697800D01*
X331932200Y-118197800D02*
X331932200Y-119397800D01*
X331932200Y-129627800D02*
X331932200Y-130827800D01*
X328732200Y-119397800D02*
X328732200Y-118197800D01*
X331632200Y-131127800D02*
X329032200Y-131127800D01*
X329032200Y-117897800D02*
X331632200Y-117897800D01*
X331632200Y-131127800D02*
G75*
G03*
X331932200Y-130827800I0J300000D01*
G01*
X331932200Y-129627800D02*
G75*
G03*
X331632200Y-129327800I-300000J0D01*
G01*
X329032200Y-129327800D02*
G75*
G03*
X328732200Y-129627800I0J-300000D01*
G01*
X328732200Y-130827800D02*
G75*
G03*
X329032200Y-131127800I300000J0D01*
G01*
X328732200Y-119397800D02*
G75*
G03*
X329032200Y-119697800I300000J0D01*
G01*
X329032200Y-117897800D02*
G75*
G03*
X328732200Y-118197800I0J-300000D01*
G01*
X331932200Y-118197800D02*
G75*
G03*
X331632200Y-117897800I-300000J0D01*
G01*
X331632200Y-119697800D02*
G75*
G03*
X331932200Y-119397800I0J300000D01*
G01*
M02*
