M48
; DRILL file {KiCad (6.0.8)} date Mon 17 Oct 2022 12:13:44 AM PDT
; FORMAT={-:-/ absolute / metric / decimal}
; #@! TF.CreationDate,2022-10-17T00:13:44-07:00
; #@! TF.GenerationSoftware,Kicad,Pcbnew,(6.0.8)
; #@! TF.FileFunction,NonPlated,1,2,NPTH
FMAT,2
METRIC
; #@! TA.AperFunction,NonPlated,NPTH,ComponentDrill
T1C0.500
; #@! TA.AperFunction,NonPlated,NPTH,ComponentDrill
T2C1.600
; #@! TA.AperFunction,NonPlated,NPTH,ComponentDrill
T3C1.700
; #@! TA.AperFunction,NonPlated,NPTH,ComponentDrill
T4C2.286
; #@! TA.AperFunction,NonPlated,NPTH,ComponentDrill
T5C2.750
; #@! TA.AperFunction,NonPlated,NPTH,ComponentDrill
T6C2.800
; #@! TA.AperFunction,NonPlated,NPTH,ComponentDrill
T7C3.000
; #@! TA.AperFunction,NonPlated,NPTH,ComponentDrill
T8C4.000
%
G90
G05
T1
X93.98Y-116.428
X93.98Y-117.228
X93.98Y-118.028
X93.98Y-176.688
X93.98Y-177.488
X93.98Y-178.288
X96.18Y-116.428
X96.18Y-117.228
X96.18Y-118.028
X96.18Y-176.688
X96.18Y-177.488
X96.18Y-178.288
T2
X209.372Y-115.498
X209.372Y-121.498
X222.072Y-115.498
X222.072Y-121.498
T3
X267.212Y-170.218
X277.372Y-170.218
X283.172Y-147.358
X293.332Y-147.358
X299.132Y-124.498
X309.292Y-124.498
T4
X181.667Y-131.113
X258.667Y-131.113
T5
X201.212Y-115.858
X201.212Y-164.858
X259.212Y-115.858
T6
X49.685Y-115.848
X49.685Y-178.848
X90.325Y-115.848
X90.325Y-178.848
X99.835Y-115.848
X99.835Y-178.848
X140.475Y-115.848
X140.475Y-178.848
X181.107Y-178.858
X259.212Y-178.858
X340.492Y-115.858
X340.492Y-178.858
T7
X56.921Y-146.478
X56.921Y-176.198
X78.511Y-146.478
X78.511Y-176.198
X234.143Y-147.2
X243.543Y-126.4
X252.943Y-147.2
T8
X272.292Y-170.218
X288.252Y-147.358
X304.212Y-124.498
T0
M30
