%TF.GenerationSoftware,KiCad,Pcbnew,(6.0.8)*%
%TF.CreationDate,2022-10-17T00:12:51-07:00*%
%TF.ProjectId,norns-deck-210330,6e6f726e-732d-4646-9563-6b2d32313033,rev?*%
%TF.SameCoordinates,Original*%
%TF.FileFunction,Legend,Bot*%
%TF.FilePolarity,Positive*%
%FSLAX46Y46*%
G04 Gerber Fmt 4.6, Leading zero omitted, Abs format (unit mm)*
G04 Created by KiCad (PCBNEW (6.0.8)) date 2022-10-17 00:12:51*
%MOMM*%
%LPD*%
G01*
G04 APERTURE LIST*
G04 Aperture macros list*
%AMRoundRect*
0 Rectangle with rounded corners*
0 $1 Rounding radius*
0 $2 $3 $4 $5 $6 $7 $8 $9 X,Y pos of 4 corners*
0 Add a 4 corners polygon primitive as box body*
4,1,4,$2,$3,$4,$5,$6,$7,$8,$9,$2,$3,0*
0 Add four circle primitives for the rounded corners*
1,1,$1+$1,$2,$3*
1,1,$1+$1,$4,$5*
1,1,$1+$1,$6,$7*
1,1,$1+$1,$8,$9*
0 Add four rect primitives between the rounded corners*
20,1,$1+$1,$2,$3,$4,$5,0*
20,1,$1+$1,$4,$5,$6,$7,0*
20,1,$1+$1,$6,$7,$8,$9,0*
20,1,$1+$1,$8,$9,$2,$3,0*%
%AMFreePoly0*
4,1,25,0.436719,0.836196,0.448842,0.825842,0.825842,0.448842,0.854349,0.392894,0.855600,0.377000,0.855600,-0.377000,0.836196,-0.436719,0.825842,-0.448842,0.448842,-0.825842,0.392894,-0.854349,0.377000,-0.855600,-0.377000,-0.855600,-0.436719,-0.836196,-0.448842,-0.825842,-0.825842,-0.448842,-0.854349,-0.392894,-0.855600,-0.377000,-0.855600,0.377000,-0.836196,0.436719,-0.825842,0.448842,
-0.448842,0.825842,-0.392894,0.854349,-0.377000,0.855600,0.377000,0.855600,0.436719,0.836196,0.436719,0.836196,$1*%
%AMFreePoly1*
4,1,25,0.370379,0.832196,0.382502,0.821842,0.821842,0.382502,0.850349,0.326554,0.851600,0.310660,0.851600,-0.310660,0.832196,-0.370379,0.821842,-0.382502,0.382502,-0.821842,0.326554,-0.850349,0.310660,-0.851600,-0.310660,-0.851600,-0.370379,-0.832196,-0.382502,-0.821842,-0.821842,-0.382502,-0.850349,-0.326554,-0.851600,-0.310660,-0.851600,0.310660,-0.832196,0.370379,-0.821842,0.382502,
-0.382502,0.821842,-0.326554,0.850349,-0.310660,0.851600,0.310660,0.851600,0.370379,0.832196,0.370379,0.832196,$1*%
G04 Aperture macros list end*
%ADD10C,0.406400*%
%ADD11C,0.254000*%
%ADD12C,0.121920*%
%ADD13C,0.159385*%
%ADD14C,0.150000*%
%ADD15C,0.137160*%
%ADD16C,0.103632*%
%ADD17C,0.124968*%
%ADD18C,0.120000*%
%ADD19C,0.127000*%
%ADD20C,0.050800*%
%ADD21C,0.152400*%
%ADD22C,0.203200*%
%ADD23C,0.179600*%
%ADD24C,0.100000*%
%ADD25C,2.800000*%
%ADD26C,2.750000*%
%ADD27RoundRect,0.101600X0.889000X0.889000X-0.889000X0.889000X-0.889000X-0.889000X0.889000X-0.889000X0*%
%ADD28C,1.981200*%
%ADD29FreePoly0,270.000000*%
%ADD30O,4.703200X2.453200*%
%ADD31R,1.800000X1.800000*%
%ADD32C,1.800000*%
%ADD33RoundRect,0.750000X0.750000X-1.250000X0.750000X1.250000X-0.750000X1.250000X-0.750000X-1.250000X0*%
%ADD34C,4.000000*%
%ADD35C,1.700000*%
%ADD36C,2.200000*%
%ADD37C,0.500000*%
%ADD38C,2.286000*%
%ADD39RoundRect,0.101600X-0.750000X-0.750000X0.750000X-0.750000X0.750000X0.750000X-0.750000X0.750000X0*%
%ADD40FreePoly1,0.000000*%
%ADD41C,3.000000*%
%ADD42C,1.524000*%
%ADD43R,1.700000X1.700000*%
%ADD44O,1.700000X1.700000*%
%ADD45C,1.600000*%
%ADD46O,2.003200X3.803200*%
%ADD47RoundRect,0.101600X0.500000X-0.550000X0.500000X0.550000X-0.500000X0.550000X-0.500000X-0.550000X0*%
%ADD48RoundRect,0.101600X0.550000X-0.500000X0.550000X0.500000X-0.550000X0.500000X-0.550000X-0.500000X0*%
%ADD49RoundRect,0.101600X0.500000X0.550000X-0.500000X0.550000X-0.500000X-0.550000X0.500000X-0.550000X0*%
%ADD50RoundRect,0.101600X-0.550000X0.500000X-0.550000X-0.500000X0.550000X-0.500000X0.550000X0.500000X0*%
%ADD51RoundRect,0.101600X0.900000X-0.800000X0.900000X0.800000X-0.900000X0.800000X-0.900000X-0.800000X0*%
%ADD52RoundRect,0.250000X-0.625000X0.350000X-0.625000X-0.350000X0.625000X-0.350000X0.625000X0.350000X0*%
%ADD53O,1.750000X1.200000*%
%ADD54RoundRect,0.101600X-0.500000X0.550000X-0.500000X-0.550000X0.500000X-0.550000X0.500000X0.550000X0*%
%ADD55RoundRect,0.101600X0.650000X0.750000X-0.650000X0.750000X-0.650000X-0.750000X0.650000X-0.750000X0*%
%ADD56RoundRect,0.101600X-0.650000X-0.750000X0.650000X-0.750000X0.650000X0.750000X-0.650000X0.750000X0*%
%ADD57RoundRect,0.101600X0.152400X0.495300X-0.152400X0.495300X-0.152400X-0.495300X0.152400X-0.495300X0*%
%ADD58RoundRect,0.101600X-0.900000X0.800000X-0.900000X-0.800000X0.900000X-0.800000X0.900000X0.800000X0*%
%ADD59RoundRect,0.101600X0.550000X0.500000X-0.550000X0.500000X-0.550000X-0.500000X0.550000X-0.500000X0*%
%ADD60RoundRect,0.101600X-0.495000X0.345000X-0.495000X-0.345000X0.495000X-0.345000X0.495000X0.345000X0*%
%ADD61RoundRect,0.101600X0.495000X-0.345000X0.495000X0.345000X-0.495000X0.345000X-0.495000X-0.345000X0*%
%ADD62RoundRect,0.101600X-0.500000X-0.550000X0.500000X-0.550000X0.500000X0.550000X-0.500000X0.550000X0*%
%ADD63RoundRect,0.101600X-0.750000X0.650000X-0.750000X-0.650000X0.750000X-0.650000X0.750000X0.650000X0*%
%ADD64RoundRect,0.101600X0.750000X-0.650000X0.750000X0.650000X-0.750000X0.650000X-0.750000X-0.650000X0*%
%ADD65RoundRect,0.101600X-0.550000X-0.500000X0.550000X-0.500000X0.550000X0.500000X-0.550000X0.500000X0*%
%ADD66RoundRect,0.101600X-0.600000X-0.650000X0.600000X-0.650000X0.600000X0.650000X-0.600000X0.650000X0*%
%ADD67RoundRect,0.101600X0.800000X0.750000X-0.800000X0.750000X-0.800000X-0.750000X0.800000X-0.750000X0*%
%ADD68RoundRect,0.101600X-0.800000X-0.750000X0.800000X-0.750000X0.800000X0.750000X-0.800000X0.750000X0*%
G04 APERTURE END LIST*
D10*
X177622200Y-166967800D02*
X195402200Y-166967800D01*
X195402200Y-133947800D02*
X177622200Y-133947800D01*
X195402200Y-166967800D02*
X195402200Y-133947800D01*
D11*
X218579700Y-149822800D02*
G75*
G03*
X218579700Y-149822800I-317500J0D01*
G01*
D12*
X212182068Y-124334020D02*
X212182068Y-124827506D01*
X212214968Y-124926203D01*
X212280766Y-124992001D01*
X212379463Y-125024900D01*
X212445261Y-125024900D01*
X211853078Y-124761708D02*
X211326693Y-124761708D01*
X210997703Y-125024900D02*
X210997703Y-124334020D01*
X210668712Y-125024900D02*
X210668712Y-124334020D01*
X210273924Y-125024900D01*
X210273924Y-124334020D01*
X209813337Y-124334020D02*
X209747539Y-124334020D01*
X209681741Y-124366920D01*
X209648842Y-124399819D01*
X209615943Y-124465617D01*
X209583044Y-124597213D01*
X209583044Y-124761708D01*
X209615943Y-124893304D01*
X209648842Y-124959102D01*
X209681741Y-124992001D01*
X209747539Y-125024900D01*
X209813337Y-125024900D01*
X209879135Y-124992001D01*
X209912034Y-124959102D01*
X209944933Y-124893304D01*
X209977832Y-124761708D01*
X209977832Y-124597213D01*
X209944933Y-124465617D01*
X209912034Y-124399819D01*
X209879135Y-124366920D01*
X209813337Y-124334020D01*
D13*
X302730892Y-156280401D02*
X302761251Y-156250042D01*
X302791610Y-156158965D01*
X302791610Y-156098247D01*
X302761251Y-156007170D01*
X302700533Y-155946452D01*
X302639815Y-155916093D01*
X302518379Y-155885734D01*
X302427302Y-155885734D01*
X302305866Y-155916093D01*
X302245148Y-155946452D01*
X302184430Y-156007170D01*
X302154070Y-156098247D01*
X302154070Y-156158965D01*
X302184430Y-156250042D01*
X302214789Y-156280401D01*
X302366584Y-156826864D02*
X302791610Y-156826864D01*
X302123711Y-156675069D02*
X302579097Y-156523274D01*
X302579097Y-156917941D01*
X302214789Y-157130454D02*
X302184430Y-157160814D01*
X302154070Y-157221532D01*
X302154070Y-157373327D01*
X302184430Y-157434045D01*
X302214789Y-157464404D01*
X302275507Y-157494763D01*
X302336225Y-157494763D01*
X302427302Y-157464404D01*
X302791610Y-157100095D01*
X302791610Y-157494763D01*
X213470610Y-130757504D02*
X213167020Y-130544990D01*
X213470610Y-130393195D02*
X212833070Y-130393195D01*
X212833070Y-130636067D01*
X212863430Y-130696785D01*
X212893789Y-130727145D01*
X212954507Y-130757504D01*
X213045584Y-130757504D01*
X213106302Y-130727145D01*
X213136661Y-130696785D01*
X213167020Y-130636067D01*
X213167020Y-130393195D01*
X213106302Y-131121812D02*
X213075943Y-131061094D01*
X213045584Y-131030735D01*
X212984866Y-131000376D01*
X212954507Y-131000376D01*
X212893789Y-131030735D01*
X212863430Y-131061094D01*
X212833070Y-131121812D01*
X212833070Y-131243248D01*
X212863430Y-131303966D01*
X212893789Y-131334325D01*
X212954507Y-131364685D01*
X212984866Y-131364685D01*
X213045584Y-131334325D01*
X213075943Y-131303966D01*
X213106302Y-131243248D01*
X213106302Y-131121812D01*
X213136661Y-131061094D01*
X213167020Y-131030735D01*
X213227738Y-131000376D01*
X213349174Y-131000376D01*
X213409892Y-131030735D01*
X213440251Y-131061094D01*
X213470610Y-131121812D01*
X213470610Y-131243248D01*
X213440251Y-131303966D01*
X213409892Y-131334325D01*
X213349174Y-131364685D01*
X213227738Y-131364685D01*
X213167020Y-131334325D01*
X213136661Y-131303966D01*
X213106302Y-131243248D01*
X217796598Y-126933710D02*
X218009111Y-126630120D01*
X218160906Y-126933710D02*
X218160906Y-126296170D01*
X217918034Y-126296170D01*
X217857316Y-126326530D01*
X217826957Y-126356889D01*
X217796598Y-126417607D01*
X217796598Y-126508684D01*
X217826957Y-126569402D01*
X217857316Y-126599761D01*
X217918034Y-126630120D01*
X218160906Y-126630120D01*
X217189417Y-126933710D02*
X217553725Y-126933710D01*
X217371571Y-126933710D02*
X217371571Y-126296170D01*
X217432289Y-126387248D01*
X217493007Y-126447966D01*
X217553725Y-126478325D01*
X216976904Y-126296170D02*
X216582236Y-126296170D01*
X216794749Y-126539043D01*
X216703672Y-126539043D01*
X216642954Y-126569402D01*
X216612595Y-126599761D01*
X216582236Y-126660479D01*
X216582236Y-126812274D01*
X216612595Y-126872992D01*
X216642954Y-126903351D01*
X216703672Y-126933710D01*
X216885826Y-126933710D01*
X216946545Y-126903351D01*
X216976904Y-126872992D01*
X288540610Y-156078401D02*
X288237020Y-155865888D01*
X288540610Y-155714093D02*
X287903070Y-155714093D01*
X287903070Y-155956965D01*
X287933430Y-156017683D01*
X287963789Y-156048042D01*
X288024507Y-156078401D01*
X288115584Y-156078401D01*
X288176302Y-156048042D01*
X288206661Y-156017683D01*
X288237020Y-155956965D01*
X288237020Y-155714093D01*
X288115584Y-156624864D02*
X288540610Y-156624864D01*
X287872711Y-156473069D02*
X288328097Y-156321274D01*
X288328097Y-156715941D01*
X287903070Y-156898095D02*
X287903070Y-157323122D01*
X288540610Y-157049891D01*
X292604610Y-179140401D02*
X292301020Y-178927888D01*
X292604610Y-178776093D02*
X291967070Y-178776093D01*
X291967070Y-179018965D01*
X291997430Y-179079683D01*
X292027789Y-179110042D01*
X292088507Y-179140401D01*
X292179584Y-179140401D01*
X292240302Y-179110042D01*
X292270661Y-179079683D01*
X292301020Y-179018965D01*
X292301020Y-178776093D01*
X291967070Y-179352914D02*
X291967070Y-179747582D01*
X292209943Y-179535069D01*
X292209943Y-179626146D01*
X292240302Y-179686864D01*
X292270661Y-179717223D01*
X292331379Y-179747582D01*
X292483174Y-179747582D01*
X292543892Y-179717223D01*
X292574251Y-179686864D01*
X292604610Y-179626146D01*
X292604610Y-179443992D01*
X292574251Y-179383274D01*
X292543892Y-179352914D01*
X292179584Y-180294045D02*
X292604610Y-180294045D01*
X291936711Y-180142250D02*
X292392097Y-179990454D01*
X292392097Y-180385122D01*
X220773110Y-149172504D02*
X220469520Y-148959990D01*
X220773110Y-148808195D02*
X220135570Y-148808195D01*
X220135570Y-149051067D01*
X220165930Y-149111785D01*
X220196289Y-149142145D01*
X220257007Y-149172504D01*
X220348084Y-149172504D01*
X220408802Y-149142145D01*
X220439161Y-149111785D01*
X220469520Y-149051067D01*
X220469520Y-148808195D01*
X220773110Y-149779685D02*
X220773110Y-149415376D01*
X220773110Y-149597530D02*
X220135570Y-149597530D01*
X220226648Y-149536812D01*
X220287366Y-149476094D01*
X220317725Y-149415376D01*
X317409892Y-133043504D02*
X317440251Y-133013145D01*
X317470610Y-132922067D01*
X317470610Y-132861349D01*
X317440251Y-132770272D01*
X317379533Y-132709554D01*
X317318815Y-132679195D01*
X317197379Y-132648836D01*
X317106302Y-132648836D01*
X316984866Y-132679195D01*
X316924148Y-132709554D01*
X316863430Y-132770272D01*
X316833070Y-132861349D01*
X316833070Y-132922067D01*
X316863430Y-133013145D01*
X316893789Y-133043504D01*
X316833070Y-133256017D02*
X316833070Y-133650685D01*
X317075943Y-133438171D01*
X317075943Y-133529248D01*
X317106302Y-133589966D01*
X317136661Y-133620325D01*
X317197379Y-133650685D01*
X317349174Y-133650685D01*
X317409892Y-133620325D01*
X317440251Y-133589966D01*
X317470610Y-133529248D01*
X317470610Y-133347094D01*
X317440251Y-133286376D01*
X317409892Y-133256017D01*
X316833070Y-134197147D02*
X316833070Y-134075711D01*
X316863430Y-134014993D01*
X316893789Y-133984634D01*
X316984866Y-133923916D01*
X317106302Y-133893557D01*
X317349174Y-133893557D01*
X317409892Y-133923916D01*
X317440251Y-133954275D01*
X317470610Y-134014993D01*
X317470610Y-134136429D01*
X317440251Y-134197147D01*
X317409892Y-134227506D01*
X317349174Y-134257865D01*
X317197379Y-134257865D01*
X317136661Y-134227506D01*
X317106302Y-134197147D01*
X317075943Y-134136429D01*
X317075943Y-134014993D01*
X317106302Y-133954275D01*
X317136661Y-133923916D01*
X317197379Y-133893557D01*
X319375610Y-133043504D02*
X319072020Y-132830990D01*
X319375610Y-132679195D02*
X318738070Y-132679195D01*
X318738070Y-132922067D01*
X318768430Y-132982785D01*
X318798789Y-133013145D01*
X318859507Y-133043504D01*
X318950584Y-133043504D01*
X319011302Y-133013145D01*
X319041661Y-132982785D01*
X319072020Y-132922067D01*
X319072020Y-132679195D01*
X318798789Y-133286376D02*
X318768430Y-133316735D01*
X318738070Y-133377453D01*
X318738070Y-133529248D01*
X318768430Y-133589966D01*
X318798789Y-133620325D01*
X318859507Y-133650685D01*
X318920225Y-133650685D01*
X319011302Y-133620325D01*
X319375610Y-133256017D01*
X319375610Y-133650685D01*
X318738070Y-134197147D02*
X318738070Y-134075711D01*
X318768430Y-134014993D01*
X318798789Y-133984634D01*
X318889866Y-133923916D01*
X319011302Y-133893557D01*
X319254174Y-133893557D01*
X319314892Y-133923916D01*
X319345251Y-133954275D01*
X319375610Y-134014993D01*
X319375610Y-134136429D01*
X319345251Y-134197147D01*
X319314892Y-134227506D01*
X319254174Y-134257865D01*
X319102379Y-134257865D01*
X319041661Y-134227506D01*
X319011302Y-134197147D01*
X318980943Y-134136429D01*
X318980943Y-134014993D01*
X319011302Y-133954275D01*
X319041661Y-133923916D01*
X319102379Y-133893557D01*
X214997392Y-137107504D02*
X215027751Y-137077145D01*
X215058110Y-136986067D01*
X215058110Y-136925349D01*
X215027751Y-136834272D01*
X214967033Y-136773554D01*
X214906315Y-136743195D01*
X214784879Y-136712836D01*
X214693802Y-136712836D01*
X214572366Y-136743195D01*
X214511648Y-136773554D01*
X214450930Y-136834272D01*
X214420570Y-136925349D01*
X214420570Y-136986067D01*
X214450930Y-137077145D01*
X214481289Y-137107504D01*
X214693802Y-137471812D02*
X214663443Y-137411094D01*
X214633084Y-137380735D01*
X214572366Y-137350376D01*
X214542007Y-137350376D01*
X214481289Y-137380735D01*
X214450930Y-137411094D01*
X214420570Y-137471812D01*
X214420570Y-137593248D01*
X214450930Y-137653966D01*
X214481289Y-137684325D01*
X214542007Y-137714685D01*
X214572366Y-137714685D01*
X214633084Y-137684325D01*
X214663443Y-137653966D01*
X214693802Y-137593248D01*
X214693802Y-137471812D01*
X214724161Y-137411094D01*
X214754520Y-137380735D01*
X214815238Y-137350376D01*
X214936674Y-137350376D01*
X214997392Y-137380735D01*
X215027751Y-137411094D01*
X215058110Y-137471812D01*
X215058110Y-137593248D01*
X215027751Y-137653966D01*
X214997392Y-137684325D01*
X214936674Y-137714685D01*
X214815238Y-137714685D01*
X214754520Y-137684325D01*
X214724161Y-137653966D01*
X214693802Y-137593248D01*
X270678892Y-138805504D02*
X270709251Y-138775145D01*
X270739610Y-138684067D01*
X270739610Y-138623349D01*
X270709251Y-138532272D01*
X270648533Y-138471554D01*
X270587815Y-138441195D01*
X270466379Y-138410836D01*
X270375302Y-138410836D01*
X270253866Y-138441195D01*
X270193148Y-138471554D01*
X270132430Y-138532272D01*
X270102070Y-138623349D01*
X270102070Y-138684067D01*
X270132430Y-138775145D01*
X270162789Y-138805504D01*
X270102070Y-139018017D02*
X270102070Y-139412685D01*
X270344943Y-139200171D01*
X270344943Y-139291248D01*
X270375302Y-139351966D01*
X270405661Y-139382325D01*
X270466379Y-139412685D01*
X270618174Y-139412685D01*
X270678892Y-139382325D01*
X270709251Y-139351966D01*
X270739610Y-139291248D01*
X270739610Y-139109094D01*
X270709251Y-139048376D01*
X270678892Y-139018017D01*
X270102070Y-139989506D02*
X270102070Y-139685916D01*
X270405661Y-139655557D01*
X270375302Y-139685916D01*
X270344943Y-139746634D01*
X270344943Y-139898429D01*
X270375302Y-139959147D01*
X270405661Y-139989506D01*
X270466379Y-140019865D01*
X270618174Y-140019865D01*
X270678892Y-139989506D01*
X270709251Y-139959147D01*
X270739610Y-139898429D01*
X270739610Y-139746634D01*
X270709251Y-139685916D01*
X270678892Y-139655557D01*
X290064610Y-179747582D02*
X289761020Y-179535069D01*
X290064610Y-179383274D02*
X289427070Y-179383274D01*
X289427070Y-179626146D01*
X289457430Y-179686864D01*
X289487789Y-179717223D01*
X289548507Y-179747582D01*
X289639584Y-179747582D01*
X289700302Y-179717223D01*
X289730661Y-179686864D01*
X289761020Y-179626146D01*
X289761020Y-179383274D01*
X289427070Y-179960095D02*
X289427070Y-180354763D01*
X289669943Y-180142250D01*
X289669943Y-180233327D01*
X289700302Y-180294045D01*
X289730661Y-180324404D01*
X289791379Y-180354763D01*
X289943174Y-180354763D01*
X290003892Y-180324404D01*
X290034251Y-180294045D01*
X290064610Y-180233327D01*
X290064610Y-180051173D01*
X290034251Y-179990454D01*
X290003892Y-179960095D01*
X272580610Y-178938401D02*
X272277020Y-178725888D01*
X272580610Y-178574093D02*
X271943070Y-178574093D01*
X271943070Y-178816965D01*
X271973430Y-178877683D01*
X272003789Y-178908042D01*
X272064507Y-178938401D01*
X272155584Y-178938401D01*
X272216302Y-178908042D01*
X272246661Y-178877683D01*
X272277020Y-178816965D01*
X272277020Y-178574093D01*
X272155584Y-179484864D02*
X272580610Y-179484864D01*
X271912711Y-179333069D02*
X272368097Y-179181274D01*
X272368097Y-179575941D01*
X272580610Y-179849173D02*
X272580610Y-179970609D01*
X272550251Y-180031327D01*
X272519892Y-180061686D01*
X272428815Y-180122404D01*
X272307379Y-180152763D01*
X272064507Y-180152763D01*
X272003789Y-180122404D01*
X271973430Y-180092045D01*
X271943070Y-180031327D01*
X271943070Y-179909891D01*
X271973430Y-179849173D01*
X272003789Y-179818814D01*
X272064507Y-179788454D01*
X272216302Y-179788454D01*
X272277020Y-179818814D01*
X272307379Y-179849173D01*
X272337738Y-179909891D01*
X272337738Y-180031327D01*
X272307379Y-180092045D01*
X272277020Y-180122404D01*
X272216302Y-180152763D01*
X219759892Y-138060004D02*
X219790251Y-138029645D01*
X219820610Y-137938567D01*
X219820610Y-137877849D01*
X219790251Y-137786772D01*
X219729533Y-137726054D01*
X219668815Y-137695695D01*
X219547379Y-137665336D01*
X219456302Y-137665336D01*
X219334866Y-137695695D01*
X219274148Y-137726054D01*
X219213430Y-137786772D01*
X219183070Y-137877849D01*
X219183070Y-137938567D01*
X219213430Y-138029645D01*
X219243789Y-138060004D01*
X219820610Y-138363594D02*
X219820610Y-138485030D01*
X219790251Y-138545748D01*
X219759892Y-138576107D01*
X219668815Y-138636825D01*
X219547379Y-138667185D01*
X219304507Y-138667185D01*
X219243789Y-138636825D01*
X219213430Y-138606466D01*
X219183070Y-138545748D01*
X219183070Y-138424312D01*
X219213430Y-138363594D01*
X219243789Y-138333235D01*
X219304507Y-138302876D01*
X219456302Y-138302876D01*
X219517020Y-138333235D01*
X219547379Y-138363594D01*
X219577738Y-138424312D01*
X219577738Y-138545748D01*
X219547379Y-138606466D01*
X219517020Y-138636825D01*
X219456302Y-138667185D01*
X288794610Y-179140401D02*
X288491020Y-178927888D01*
X288794610Y-178776093D02*
X288157070Y-178776093D01*
X288157070Y-179018965D01*
X288187430Y-179079683D01*
X288217789Y-179110042D01*
X288278507Y-179140401D01*
X288369584Y-179140401D01*
X288430302Y-179110042D01*
X288460661Y-179079683D01*
X288491020Y-179018965D01*
X288491020Y-178776093D01*
X288157070Y-179352914D02*
X288157070Y-179747582D01*
X288399943Y-179535069D01*
X288399943Y-179626146D01*
X288430302Y-179686864D01*
X288460661Y-179717223D01*
X288521379Y-179747582D01*
X288673174Y-179747582D01*
X288733892Y-179717223D01*
X288764251Y-179686864D01*
X288794610Y-179626146D01*
X288794610Y-179443992D01*
X288764251Y-179383274D01*
X288733892Y-179352914D01*
X288217789Y-179990454D02*
X288187430Y-180020814D01*
X288157070Y-180081532D01*
X288157070Y-180233327D01*
X288187430Y-180294045D01*
X288217789Y-180324404D01*
X288278507Y-180354763D01*
X288339225Y-180354763D01*
X288430302Y-180324404D01*
X288794610Y-179960095D01*
X288794610Y-180354763D01*
X304061610Y-156280401D02*
X303758020Y-156067888D01*
X304061610Y-155916093D02*
X303424070Y-155916093D01*
X303424070Y-156158965D01*
X303454430Y-156219683D01*
X303484789Y-156250042D01*
X303545507Y-156280401D01*
X303636584Y-156280401D01*
X303697302Y-156250042D01*
X303727661Y-156219683D01*
X303758020Y-156158965D01*
X303758020Y-155916093D01*
X303424070Y-156492914D02*
X303424070Y-156887582D01*
X303666943Y-156675069D01*
X303666943Y-156766146D01*
X303697302Y-156826864D01*
X303727661Y-156857223D01*
X303788379Y-156887582D01*
X303940174Y-156887582D01*
X304000892Y-156857223D01*
X304031251Y-156826864D01*
X304061610Y-156766146D01*
X304061610Y-156583992D01*
X304031251Y-156523274D01*
X304000892Y-156492914D01*
X303697302Y-157251891D02*
X303666943Y-157191173D01*
X303636584Y-157160814D01*
X303575866Y-157130454D01*
X303545507Y-157130454D01*
X303484789Y-157160814D01*
X303454430Y-157191173D01*
X303424070Y-157251891D01*
X303424070Y-157373327D01*
X303454430Y-157434045D01*
X303484789Y-157464404D01*
X303545507Y-157494763D01*
X303575866Y-157494763D01*
X303636584Y-157464404D01*
X303666943Y-157434045D01*
X303697302Y-157373327D01*
X303697302Y-157251891D01*
X303727661Y-157191173D01*
X303758020Y-157160814D01*
X303818738Y-157130454D01*
X303940174Y-157130454D01*
X304000892Y-157160814D01*
X304031251Y-157191173D01*
X304061610Y-157251891D01*
X304061610Y-157373327D01*
X304031251Y-157434045D01*
X304000892Y-157464404D01*
X303940174Y-157494763D01*
X303818738Y-157494763D01*
X303758020Y-157464404D01*
X303727661Y-157434045D01*
X303697302Y-157373327D01*
X321280610Y-133043504D02*
X320977020Y-132830990D01*
X321280610Y-132679195D02*
X320643070Y-132679195D01*
X320643070Y-132922067D01*
X320673430Y-132982785D01*
X320703789Y-133013145D01*
X320764507Y-133043504D01*
X320855584Y-133043504D01*
X320916302Y-133013145D01*
X320946661Y-132982785D01*
X320977020Y-132922067D01*
X320977020Y-132679195D01*
X320703789Y-133286376D02*
X320673430Y-133316735D01*
X320643070Y-133377453D01*
X320643070Y-133529248D01*
X320673430Y-133589966D01*
X320703789Y-133620325D01*
X320764507Y-133650685D01*
X320825225Y-133650685D01*
X320916302Y-133620325D01*
X321280610Y-133256017D01*
X321280610Y-133650685D01*
X266929610Y-138805504D02*
X266626020Y-138592990D01*
X266929610Y-138441195D02*
X266292070Y-138441195D01*
X266292070Y-138684067D01*
X266322430Y-138744785D01*
X266352789Y-138775145D01*
X266413507Y-138805504D01*
X266504584Y-138805504D01*
X266565302Y-138775145D01*
X266595661Y-138744785D01*
X266626020Y-138684067D01*
X266626020Y-138441195D01*
X266352789Y-139048376D02*
X266322430Y-139078735D01*
X266292070Y-139139453D01*
X266292070Y-139291248D01*
X266322430Y-139351966D01*
X266352789Y-139382325D01*
X266413507Y-139412685D01*
X266474225Y-139412685D01*
X266565302Y-139382325D01*
X266929610Y-139018017D01*
X266929610Y-139412685D01*
X266929610Y-139716275D02*
X266929610Y-139837711D01*
X266899251Y-139898429D01*
X266868892Y-139928788D01*
X266777815Y-139989506D01*
X266656379Y-140019865D01*
X266413507Y-140019865D01*
X266352789Y-139989506D01*
X266322430Y-139959147D01*
X266292070Y-139898429D01*
X266292070Y-139776993D01*
X266322430Y-139716275D01*
X266352789Y-139685916D01*
X266413507Y-139655557D01*
X266565302Y-139655557D01*
X266626020Y-139685916D01*
X266656379Y-139716275D01*
X266686738Y-139776993D01*
X266686738Y-139898429D01*
X266656379Y-139959147D01*
X266626020Y-139989506D01*
X266565302Y-140019865D01*
D14*
X92754961Y-156312561D02*
X92802580Y-156455419D01*
X92802580Y-156693514D01*
X92754961Y-156788752D01*
X92707342Y-156836371D01*
X92612104Y-156883990D01*
X92516866Y-156883990D01*
X92421628Y-156836371D01*
X92374009Y-156788752D01*
X92326390Y-156693514D01*
X92278771Y-156503038D01*
X92231152Y-156407800D01*
X92183533Y-156360180D01*
X92088295Y-156312561D01*
X91993057Y-156312561D01*
X91897819Y-156360180D01*
X91850200Y-156407800D01*
X91802580Y-156503038D01*
X91802580Y-156741133D01*
X91850200Y-156883990D01*
X91802580Y-157217323D02*
X92802580Y-157455419D01*
X92088295Y-157645895D01*
X92802580Y-157836371D01*
X91802580Y-158074466D01*
X92421628Y-159217323D02*
X92421628Y-159979228D01*
X92802580Y-159598276D02*
X92040676Y-159598276D01*
X92802580Y-161693514D02*
X92802580Y-161217323D01*
X91802580Y-161217323D01*
X92278771Y-162026847D02*
X92278771Y-162360180D01*
X92802580Y-162503038D02*
X92802580Y-162026847D01*
X91802580Y-162026847D01*
X91802580Y-162503038D01*
X92802580Y-162931609D02*
X91802580Y-162931609D01*
X91802580Y-163169704D01*
X91850200Y-163312561D01*
X91945438Y-163407800D01*
X92040676Y-163455419D01*
X92231152Y-163503038D01*
X92374009Y-163503038D01*
X92564485Y-163455419D01*
X92659723Y-163407800D01*
X92754961Y-163312561D01*
X92802580Y-163169704D01*
X92802580Y-162931609D01*
D13*
X207059892Y-143910582D02*
X207090251Y-143880223D01*
X207120610Y-143789146D01*
X207120610Y-143728428D01*
X207090251Y-143637351D01*
X207029533Y-143576633D01*
X206968815Y-143546274D01*
X206847379Y-143515914D01*
X206756302Y-143515914D01*
X206634866Y-143546274D01*
X206574148Y-143576633D01*
X206513430Y-143637351D01*
X206483070Y-143728428D01*
X206483070Y-143789146D01*
X206513430Y-143880223D01*
X206543789Y-143910582D01*
X206483070Y-144457045D02*
X206483070Y-144335609D01*
X206513430Y-144274891D01*
X206543789Y-144244532D01*
X206634866Y-144183814D01*
X206756302Y-144153454D01*
X206999174Y-144153454D01*
X207059892Y-144183814D01*
X207090251Y-144214173D01*
X207120610Y-144274891D01*
X207120610Y-144396327D01*
X207090251Y-144457045D01*
X207059892Y-144487404D01*
X206999174Y-144517763D01*
X206847379Y-144517763D01*
X206786661Y-144487404D01*
X206756302Y-144457045D01*
X206725943Y-144396327D01*
X206725943Y-144274891D01*
X206756302Y-144214173D01*
X206786661Y-144183814D01*
X206847379Y-144153454D01*
X291334610Y-179140401D02*
X291031020Y-178927888D01*
X291334610Y-178776093D02*
X290697070Y-178776093D01*
X290697070Y-179018965D01*
X290727430Y-179079683D01*
X290757789Y-179110042D01*
X290818507Y-179140401D01*
X290909584Y-179140401D01*
X290970302Y-179110042D01*
X291000661Y-179079683D01*
X291031020Y-179018965D01*
X291031020Y-178776093D01*
X290697070Y-179352914D02*
X290697070Y-179747582D01*
X290939943Y-179535069D01*
X290939943Y-179626146D01*
X290970302Y-179686864D01*
X291000661Y-179717223D01*
X291061379Y-179747582D01*
X291213174Y-179747582D01*
X291273892Y-179717223D01*
X291304251Y-179686864D01*
X291334610Y-179626146D01*
X291334610Y-179443992D01*
X291304251Y-179383274D01*
X291273892Y-179352914D01*
X290697070Y-180324404D02*
X290697070Y-180020814D01*
X291000661Y-179990454D01*
X290970302Y-180020814D01*
X290939943Y-180081532D01*
X290939943Y-180233327D01*
X290970302Y-180294045D01*
X291000661Y-180324404D01*
X291061379Y-180354763D01*
X291213174Y-180354763D01*
X291273892Y-180324404D01*
X291304251Y-180294045D01*
X291334610Y-180233327D01*
X291334610Y-180081532D01*
X291304251Y-180020814D01*
X291273892Y-179990454D01*
X215256598Y-132270492D02*
X215286957Y-132300851D01*
X215378034Y-132331210D01*
X215438752Y-132331210D01*
X215529829Y-132300851D01*
X215590547Y-132240133D01*
X215620906Y-132179415D01*
X215651265Y-132057979D01*
X215651265Y-131966902D01*
X215620906Y-131845466D01*
X215590547Y-131784748D01*
X215529829Y-131724030D01*
X215438752Y-131693670D01*
X215378034Y-131693670D01*
X215286957Y-131724030D01*
X215256598Y-131754389D01*
X214649417Y-132331210D02*
X215013725Y-132331210D01*
X214831571Y-132331210D02*
X214831571Y-131693670D01*
X214892289Y-131784748D01*
X214953007Y-131845466D01*
X215013725Y-131875825D01*
X214254749Y-131693670D02*
X214194031Y-131693670D01*
X214133313Y-131724030D01*
X214102954Y-131754389D01*
X214072595Y-131815107D01*
X214042236Y-131936543D01*
X214042236Y-132088338D01*
X214072595Y-132209774D01*
X214102954Y-132270492D01*
X214133313Y-132300851D01*
X214194031Y-132331210D01*
X214254749Y-132331210D01*
X214315467Y-132300851D01*
X214345826Y-132270492D01*
X214376185Y-132209774D01*
X214406545Y-132088338D01*
X214406545Y-131936543D01*
X214376185Y-131815107D01*
X214345826Y-131754389D01*
X214315467Y-131724030D01*
X214254749Y-131693670D01*
X220817495Y-134810492D02*
X220847854Y-134840851D01*
X220938932Y-134871210D01*
X220999650Y-134871210D01*
X221090727Y-134840851D01*
X221151445Y-134780133D01*
X221181804Y-134719415D01*
X221212163Y-134597979D01*
X221212163Y-134506902D01*
X221181804Y-134385466D01*
X221151445Y-134324748D01*
X221090727Y-134264030D01*
X220999650Y-134233670D01*
X220938932Y-134233670D01*
X220847854Y-134264030D01*
X220817495Y-134294389D01*
X220210314Y-134871210D02*
X220574623Y-134871210D01*
X220392469Y-134871210D02*
X220392469Y-134233670D01*
X220453187Y-134324748D01*
X220513905Y-134385466D01*
X220574623Y-134415825D01*
X219663852Y-134233670D02*
X219785288Y-134233670D01*
X219846006Y-134264030D01*
X219876365Y-134294389D01*
X219937083Y-134385466D01*
X219967442Y-134506902D01*
X219967442Y-134749774D01*
X219937083Y-134810492D01*
X219906724Y-134840851D01*
X219846006Y-134871210D01*
X219724570Y-134871210D01*
X219663852Y-134840851D01*
X219633493Y-134810492D01*
X219603134Y-134749774D01*
X219603134Y-134597979D01*
X219633493Y-134537261D01*
X219663852Y-134506902D01*
X219724570Y-134476543D01*
X219846006Y-134476543D01*
X219906724Y-134506902D01*
X219937083Y-134537261D01*
X219967442Y-134597979D01*
X265024610Y-138805504D02*
X264721020Y-138592990D01*
X265024610Y-138441195D02*
X264387070Y-138441195D01*
X264387070Y-138684067D01*
X264417430Y-138744785D01*
X264447789Y-138775145D01*
X264508507Y-138805504D01*
X264599584Y-138805504D01*
X264660302Y-138775145D01*
X264690661Y-138744785D01*
X264721020Y-138684067D01*
X264721020Y-138441195D01*
X264447789Y-139048376D02*
X264417430Y-139078735D01*
X264387070Y-139139453D01*
X264387070Y-139291248D01*
X264417430Y-139351966D01*
X264447789Y-139382325D01*
X264508507Y-139412685D01*
X264569225Y-139412685D01*
X264660302Y-139382325D01*
X265024610Y-139018017D01*
X265024610Y-139412685D01*
X307871610Y-156280401D02*
X307568020Y-156067888D01*
X307871610Y-155916093D02*
X307234070Y-155916093D01*
X307234070Y-156158965D01*
X307264430Y-156219683D01*
X307294789Y-156250042D01*
X307355507Y-156280401D01*
X307446584Y-156280401D01*
X307507302Y-156250042D01*
X307537661Y-156219683D01*
X307568020Y-156158965D01*
X307568020Y-155916093D01*
X307446584Y-156826864D02*
X307871610Y-156826864D01*
X307203711Y-156675069D02*
X307659097Y-156523274D01*
X307659097Y-156917941D01*
X307234070Y-157282250D02*
X307234070Y-157342968D01*
X307264430Y-157403686D01*
X307294789Y-157434045D01*
X307355507Y-157464404D01*
X307476943Y-157494763D01*
X307628738Y-157494763D01*
X307750174Y-157464404D01*
X307810892Y-157434045D01*
X307841251Y-157403686D01*
X307871610Y-157342968D01*
X307871610Y-157282250D01*
X307841251Y-157221532D01*
X307810892Y-157191173D01*
X307750174Y-157160814D01*
X307628738Y-157130454D01*
X307476943Y-157130454D01*
X307355507Y-157160814D01*
X307294789Y-157191173D01*
X307264430Y-157221532D01*
X307234070Y-157282250D01*
X215314892Y-145997504D02*
X215345251Y-145967145D01*
X215375610Y-145876067D01*
X215375610Y-145815349D01*
X215345251Y-145724272D01*
X215284533Y-145663554D01*
X215223815Y-145633195D01*
X215102379Y-145602836D01*
X215011302Y-145602836D01*
X214889866Y-145633195D01*
X214829148Y-145663554D01*
X214768430Y-145724272D01*
X214738070Y-145815349D01*
X214738070Y-145876067D01*
X214768430Y-145967145D01*
X214798789Y-145997504D01*
X215375610Y-146604685D02*
X215375610Y-146240376D01*
X215375610Y-146422530D02*
X214738070Y-146422530D01*
X214829148Y-146361812D01*
X214889866Y-146301094D01*
X214920225Y-146240376D01*
D15*
X211204979Y-144622206D02*
X211204979Y-145169153D01*
X211172806Y-145233500D01*
X211140632Y-145265673D01*
X211076286Y-145297846D01*
X210947592Y-145297846D01*
X210883246Y-145265673D01*
X210851072Y-145233500D01*
X210818899Y-145169153D01*
X210818899Y-144622206D01*
X210143259Y-145297846D02*
X210529339Y-145297846D01*
X210336299Y-145297846D02*
X210336299Y-144622206D01*
X210400646Y-144718726D01*
X210464992Y-144783073D01*
X210529339Y-144815246D01*
D13*
X203198642Y-140040582D02*
X203229001Y-140010223D01*
X203259360Y-139919146D01*
X203259360Y-139858428D01*
X203229001Y-139767351D01*
X203168283Y-139706633D01*
X203107565Y-139676274D01*
X202986129Y-139645914D01*
X202895052Y-139645914D01*
X202773616Y-139676274D01*
X202712898Y-139706633D01*
X202652180Y-139767351D01*
X202621820Y-139858428D01*
X202621820Y-139919146D01*
X202652180Y-140010223D01*
X202682539Y-140040582D01*
X202621820Y-140253095D02*
X202621820Y-140678122D01*
X203259360Y-140404891D01*
X268834610Y-138805504D02*
X268531020Y-138592990D01*
X268834610Y-138441195D02*
X268197070Y-138441195D01*
X268197070Y-138684067D01*
X268227430Y-138744785D01*
X268257789Y-138775145D01*
X268318507Y-138805504D01*
X268409584Y-138805504D01*
X268470302Y-138775145D01*
X268500661Y-138744785D01*
X268531020Y-138684067D01*
X268531020Y-138441195D01*
X268257789Y-139048376D02*
X268227430Y-139078735D01*
X268197070Y-139139453D01*
X268197070Y-139291248D01*
X268227430Y-139351966D01*
X268257789Y-139382325D01*
X268318507Y-139412685D01*
X268379225Y-139412685D01*
X268470302Y-139382325D01*
X268834610Y-139018017D01*
X268834610Y-139412685D01*
X268470302Y-139776993D02*
X268439943Y-139716275D01*
X268409584Y-139685916D01*
X268348866Y-139655557D01*
X268318507Y-139655557D01*
X268257789Y-139685916D01*
X268227430Y-139716275D01*
X268197070Y-139776993D01*
X268197070Y-139898429D01*
X268227430Y-139959147D01*
X268257789Y-139989506D01*
X268318507Y-140019865D01*
X268348866Y-140019865D01*
X268409584Y-139989506D01*
X268439943Y-139959147D01*
X268470302Y-139898429D01*
X268470302Y-139776993D01*
X268500661Y-139716275D01*
X268531020Y-139685916D01*
X268591738Y-139655557D01*
X268713174Y-139655557D01*
X268773892Y-139685916D01*
X268804251Y-139716275D01*
X268834610Y-139776993D01*
X268834610Y-139898429D01*
X268804251Y-139959147D01*
X268773892Y-139989506D01*
X268713174Y-140019865D01*
X268591738Y-140019865D01*
X268531020Y-139989506D01*
X268500661Y-139959147D01*
X268470302Y-139898429D01*
X307098610Y-133043504D02*
X306795020Y-132830990D01*
X307098610Y-132679195D02*
X306461070Y-132679195D01*
X306461070Y-132922067D01*
X306491430Y-132982785D01*
X306521789Y-133013145D01*
X306582507Y-133043504D01*
X306673584Y-133043504D01*
X306734302Y-133013145D01*
X306764661Y-132982785D01*
X306795020Y-132922067D01*
X306795020Y-132679195D01*
X306673584Y-133589966D02*
X307098610Y-133589966D01*
X306430711Y-133438171D02*
X306886097Y-133286376D01*
X306886097Y-133681044D01*
X306673584Y-134197147D02*
X307098610Y-134197147D01*
X306430711Y-134045352D02*
X306886097Y-133893557D01*
X306886097Y-134288225D01*
X306601610Y-156280401D02*
X306298020Y-156067888D01*
X306601610Y-155916093D02*
X305964070Y-155916093D01*
X305964070Y-156158965D01*
X305994430Y-156219683D01*
X306024789Y-156250042D01*
X306085507Y-156280401D01*
X306176584Y-156280401D01*
X306237302Y-156250042D01*
X306267661Y-156219683D01*
X306298020Y-156158965D01*
X306298020Y-155916093D01*
X306176584Y-156826864D02*
X306601610Y-156826864D01*
X305933711Y-156675069D02*
X306389097Y-156523274D01*
X306389097Y-156917941D01*
X306601610Y-157494763D02*
X306601610Y-157130454D01*
X306601610Y-157312609D02*
X305964070Y-157312609D01*
X306055148Y-157251891D01*
X306115866Y-157191173D01*
X306146225Y-157130454D01*
X214621598Y-133857992D02*
X214651957Y-133888351D01*
X214743034Y-133918710D01*
X214803752Y-133918710D01*
X214894829Y-133888351D01*
X214955547Y-133827633D01*
X214985906Y-133766915D01*
X215016265Y-133645479D01*
X215016265Y-133554402D01*
X214985906Y-133432966D01*
X214955547Y-133372248D01*
X214894829Y-133311530D01*
X214803752Y-133281170D01*
X214743034Y-133281170D01*
X214651957Y-133311530D01*
X214621598Y-133341889D01*
X214014417Y-133918710D02*
X214378725Y-133918710D01*
X214196571Y-133918710D02*
X214196571Y-133281170D01*
X214257289Y-133372248D01*
X214318007Y-133432966D01*
X214378725Y-133463325D01*
X213407236Y-133918710D02*
X213771545Y-133918710D01*
X213589390Y-133918710D02*
X213589390Y-133281170D01*
X213650108Y-133372248D01*
X213710826Y-133432966D01*
X213771545Y-133463325D01*
X263119610Y-138805504D02*
X262816020Y-138592990D01*
X263119610Y-138441195D02*
X262482070Y-138441195D01*
X262482070Y-138684067D01*
X262512430Y-138744785D01*
X262542789Y-138775145D01*
X262603507Y-138805504D01*
X262694584Y-138805504D01*
X262755302Y-138775145D01*
X262785661Y-138744785D01*
X262816020Y-138684067D01*
X262816020Y-138441195D01*
X262542789Y-139048376D02*
X262512430Y-139078735D01*
X262482070Y-139139453D01*
X262482070Y-139291248D01*
X262512430Y-139351966D01*
X262542789Y-139382325D01*
X262603507Y-139412685D01*
X262664225Y-139412685D01*
X262755302Y-139382325D01*
X263119610Y-139018017D01*
X263119610Y-139412685D01*
X262482070Y-139959147D02*
X262482070Y-139837711D01*
X262512430Y-139776993D01*
X262542789Y-139746634D01*
X262633866Y-139685916D01*
X262755302Y-139655557D01*
X262998174Y-139655557D01*
X263058892Y-139685916D01*
X263089251Y-139716275D01*
X263119610Y-139776993D01*
X263119610Y-139898429D01*
X263089251Y-139959147D01*
X263058892Y-139989506D01*
X262998174Y-140019865D01*
X262846379Y-140019865D01*
X262785661Y-139989506D01*
X262755302Y-139959147D01*
X262724943Y-139898429D01*
X262724943Y-139776993D01*
X262755302Y-139716275D01*
X262785661Y-139685916D01*
X262846379Y-139655557D01*
X228649892Y-131392504D02*
X228680251Y-131362145D01*
X228710610Y-131271067D01*
X228710610Y-131210349D01*
X228680251Y-131119272D01*
X228619533Y-131058554D01*
X228558815Y-131028195D01*
X228437379Y-130997836D01*
X228346302Y-130997836D01*
X228224866Y-131028195D01*
X228164148Y-131058554D01*
X228103430Y-131119272D01*
X228073070Y-131210349D01*
X228073070Y-131271067D01*
X228103430Y-131362145D01*
X228133789Y-131392504D01*
X228710610Y-131999685D02*
X228710610Y-131635376D01*
X228710610Y-131817530D02*
X228073070Y-131817530D01*
X228164148Y-131756812D01*
X228224866Y-131696094D01*
X228255225Y-131635376D01*
X228073070Y-132576506D02*
X228073070Y-132272916D01*
X228376661Y-132242557D01*
X228346302Y-132272916D01*
X228315943Y-132333634D01*
X228315943Y-132485429D01*
X228346302Y-132546147D01*
X228376661Y-132576506D01*
X228437379Y-132606865D01*
X228589174Y-132606865D01*
X228649892Y-132576506D01*
X228680251Y-132546147D01*
X228710610Y-132485429D01*
X228710610Y-132333634D01*
X228680251Y-132272916D01*
X228649892Y-132242557D01*
X293813892Y-179140401D02*
X293844251Y-179110042D01*
X293874610Y-179018965D01*
X293874610Y-178958247D01*
X293844251Y-178867170D01*
X293783533Y-178806452D01*
X293722815Y-178776093D01*
X293601379Y-178745734D01*
X293510302Y-178745734D01*
X293388866Y-178776093D01*
X293328148Y-178806452D01*
X293267430Y-178867170D01*
X293237070Y-178958247D01*
X293237070Y-179018965D01*
X293267430Y-179110042D01*
X293297789Y-179140401D01*
X293237070Y-179352914D02*
X293237070Y-179747582D01*
X293479943Y-179535069D01*
X293479943Y-179626146D01*
X293510302Y-179686864D01*
X293540661Y-179717223D01*
X293601379Y-179747582D01*
X293753174Y-179747582D01*
X293813892Y-179717223D01*
X293844251Y-179686864D01*
X293874610Y-179626146D01*
X293874610Y-179443992D01*
X293844251Y-179383274D01*
X293813892Y-179352914D01*
X293510302Y-180111891D02*
X293479943Y-180051173D01*
X293449584Y-180020814D01*
X293388866Y-179990454D01*
X293358507Y-179990454D01*
X293297789Y-180020814D01*
X293267430Y-180051173D01*
X293237070Y-180111891D01*
X293237070Y-180233327D01*
X293267430Y-180294045D01*
X293297789Y-180324404D01*
X293358507Y-180354763D01*
X293388866Y-180354763D01*
X293449584Y-180324404D01*
X293479943Y-180294045D01*
X293510302Y-180233327D01*
X293510302Y-180111891D01*
X293540661Y-180051173D01*
X293571020Y-180020814D01*
X293631738Y-179990454D01*
X293753174Y-179990454D01*
X293813892Y-180020814D01*
X293844251Y-180051173D01*
X293874610Y-180111891D01*
X293874610Y-180233327D01*
X293844251Y-180294045D01*
X293813892Y-180324404D01*
X293753174Y-180354763D01*
X293631738Y-180354763D01*
X293571020Y-180324404D01*
X293540661Y-180294045D01*
X293510302Y-180233327D01*
X224627495Y-134810492D02*
X224657854Y-134840851D01*
X224748932Y-134871210D01*
X224809650Y-134871210D01*
X224900727Y-134840851D01*
X224961445Y-134780133D01*
X224991804Y-134719415D01*
X225022163Y-134597979D01*
X225022163Y-134506902D01*
X224991804Y-134385466D01*
X224961445Y-134324748D01*
X224900727Y-134264030D01*
X224809650Y-134233670D01*
X224748932Y-134233670D01*
X224657854Y-134264030D01*
X224627495Y-134294389D01*
X224020314Y-134871210D02*
X224384623Y-134871210D01*
X224202469Y-134871210D02*
X224202469Y-134233670D01*
X224263187Y-134324748D01*
X224323905Y-134385466D01*
X224384623Y-134415825D01*
X223473852Y-134446184D02*
X223473852Y-134871210D01*
X223625647Y-134203311D02*
X223777442Y-134658697D01*
X223382774Y-134658697D01*
D16*
X228351346Y-140210554D02*
X228925434Y-140210554D01*
X228992974Y-140244324D01*
X229026744Y-140278094D01*
X229060514Y-140345634D01*
X229060514Y-140480713D01*
X229026744Y-140548253D01*
X228992974Y-140582023D01*
X228925434Y-140615793D01*
X228351346Y-140615793D01*
X229060514Y-141324961D02*
X229060514Y-140919722D01*
X229060514Y-141122342D02*
X228351346Y-141122342D01*
X228452655Y-141054802D01*
X228520195Y-140987262D01*
X228553965Y-140919722D01*
X229060514Y-142000359D02*
X229060514Y-141595120D01*
X229060514Y-141797740D02*
X228351346Y-141797740D01*
X228452655Y-141730200D01*
X228520195Y-141662660D01*
X228553965Y-141595120D01*
D13*
X222299892Y-138695004D02*
X222330251Y-138664645D01*
X222360610Y-138573567D01*
X222360610Y-138512849D01*
X222330251Y-138421772D01*
X222269533Y-138361054D01*
X222208815Y-138330695D01*
X222087379Y-138300336D01*
X221996302Y-138300336D01*
X221874866Y-138330695D01*
X221814148Y-138361054D01*
X221753430Y-138421772D01*
X221723070Y-138512849D01*
X221723070Y-138573567D01*
X221753430Y-138664645D01*
X221783789Y-138695004D01*
X221935584Y-139241466D02*
X222360610Y-139241466D01*
X221692711Y-139089671D02*
X222148097Y-138937876D01*
X222148097Y-139332544D01*
X221723070Y-139514698D02*
X221723070Y-139939725D01*
X222360610Y-139666493D01*
X215949892Y-130122504D02*
X215980251Y-130092145D01*
X216010610Y-130001067D01*
X216010610Y-129940349D01*
X215980251Y-129849272D01*
X215919533Y-129788554D01*
X215858815Y-129758195D01*
X215737379Y-129727836D01*
X215646302Y-129727836D01*
X215524866Y-129758195D01*
X215464148Y-129788554D01*
X215403430Y-129849272D01*
X215373070Y-129940349D01*
X215373070Y-130001067D01*
X215403430Y-130092145D01*
X215433789Y-130122504D01*
X216010610Y-130729685D02*
X216010610Y-130365376D01*
X216010610Y-130547530D02*
X215373070Y-130547530D01*
X215464148Y-130486812D01*
X215524866Y-130426094D01*
X215555225Y-130365376D01*
X215373070Y-130942198D02*
X215373070Y-131367225D01*
X216010610Y-131093993D01*
X303227892Y-133043504D02*
X303258251Y-133013145D01*
X303288610Y-132922067D01*
X303288610Y-132861349D01*
X303258251Y-132770272D01*
X303197533Y-132709554D01*
X303136815Y-132679195D01*
X303015379Y-132648836D01*
X302924302Y-132648836D01*
X302802866Y-132679195D01*
X302742148Y-132709554D01*
X302681430Y-132770272D01*
X302651070Y-132861349D01*
X302651070Y-132922067D01*
X302681430Y-133013145D01*
X302711789Y-133043504D01*
X302863584Y-133589966D02*
X303288610Y-133589966D01*
X302620711Y-133438171D02*
X303076097Y-133286376D01*
X303076097Y-133681044D01*
X302863584Y-134197147D02*
X303288610Y-134197147D01*
X302620711Y-134045352D02*
X303076097Y-133893557D01*
X303076097Y-134288225D01*
X227004098Y-126298710D02*
X227216611Y-125995120D01*
X227368406Y-126298710D02*
X227368406Y-125661170D01*
X227125534Y-125661170D01*
X227064816Y-125691530D01*
X227034457Y-125721889D01*
X227004098Y-125782607D01*
X227004098Y-125873684D01*
X227034457Y-125934402D01*
X227064816Y-125964761D01*
X227125534Y-125995120D01*
X227368406Y-125995120D01*
X226396917Y-126298710D02*
X226761225Y-126298710D01*
X226579071Y-126298710D02*
X226579071Y-125661170D01*
X226639789Y-125752248D01*
X226700507Y-125812966D01*
X226761225Y-125843325D01*
X226154045Y-125721889D02*
X226123685Y-125691530D01*
X226062967Y-125661170D01*
X225911172Y-125661170D01*
X225850454Y-125691530D01*
X225820095Y-125721889D01*
X225789736Y-125782607D01*
X225789736Y-125843325D01*
X225820095Y-125934402D01*
X226184404Y-126298710D01*
X225789736Y-126298710D01*
X217796598Y-125981210D02*
X218009111Y-125677620D01*
X218160906Y-125981210D02*
X218160906Y-125343670D01*
X217918034Y-125343670D01*
X217857316Y-125374030D01*
X217826957Y-125404389D01*
X217796598Y-125465107D01*
X217796598Y-125556184D01*
X217826957Y-125616902D01*
X217857316Y-125647261D01*
X217918034Y-125677620D01*
X218160906Y-125677620D01*
X217189417Y-125981210D02*
X217553725Y-125981210D01*
X217371571Y-125981210D02*
X217371571Y-125343670D01*
X217432289Y-125434748D01*
X217493007Y-125495466D01*
X217553725Y-125525825D01*
X216642954Y-125556184D02*
X216642954Y-125981210D01*
X216794749Y-125313311D02*
X216946545Y-125768697D01*
X216551877Y-125768697D01*
X309080892Y-156280401D02*
X309111251Y-156250042D01*
X309141610Y-156158965D01*
X309141610Y-156098247D01*
X309111251Y-156007170D01*
X309050533Y-155946452D01*
X308989815Y-155916093D01*
X308868379Y-155885734D01*
X308777302Y-155885734D01*
X308655866Y-155916093D01*
X308595148Y-155946452D01*
X308534430Y-156007170D01*
X308504070Y-156098247D01*
X308504070Y-156158965D01*
X308534430Y-156250042D01*
X308564789Y-156280401D01*
X308716584Y-156826864D02*
X309141610Y-156826864D01*
X308473711Y-156675069D02*
X308929097Y-156523274D01*
X308929097Y-156917941D01*
X309141610Y-157494763D02*
X309141610Y-157130454D01*
X309141610Y-157312609D02*
X308504070Y-157312609D01*
X308595148Y-157251891D01*
X308655866Y-157191173D01*
X308686225Y-157130454D01*
X286574892Y-156078401D02*
X286605251Y-156048042D01*
X286635610Y-155956965D01*
X286635610Y-155896247D01*
X286605251Y-155805170D01*
X286544533Y-155744452D01*
X286483815Y-155714093D01*
X286362379Y-155683734D01*
X286271302Y-155683734D01*
X286149866Y-155714093D01*
X286089148Y-155744452D01*
X286028430Y-155805170D01*
X285998070Y-155896247D01*
X285998070Y-155956965D01*
X286028430Y-156048042D01*
X286058789Y-156078401D01*
X286210584Y-156624864D02*
X286635610Y-156624864D01*
X285967711Y-156473069D02*
X286423097Y-156321274D01*
X286423097Y-156715941D01*
X285998070Y-157262404D02*
X285998070Y-156958814D01*
X286301661Y-156928454D01*
X286271302Y-156958814D01*
X286240943Y-157019532D01*
X286240943Y-157171327D01*
X286271302Y-157232045D01*
X286301661Y-157262404D01*
X286362379Y-157292763D01*
X286514174Y-157292763D01*
X286574892Y-157262404D01*
X286605251Y-157232045D01*
X286635610Y-157171327D01*
X286635610Y-157019532D01*
X286605251Y-156958814D01*
X286574892Y-156928454D01*
X323185610Y-133043504D02*
X322882020Y-132830990D01*
X323185610Y-132679195D02*
X322548070Y-132679195D01*
X322548070Y-132922067D01*
X322578430Y-132982785D01*
X322608789Y-133013145D01*
X322669507Y-133043504D01*
X322760584Y-133043504D01*
X322821302Y-133013145D01*
X322851661Y-132982785D01*
X322882020Y-132922067D01*
X322882020Y-132679195D01*
X322608789Y-133286376D02*
X322578430Y-133316735D01*
X322548070Y-133377453D01*
X322548070Y-133529248D01*
X322578430Y-133589966D01*
X322608789Y-133620325D01*
X322669507Y-133650685D01*
X322730225Y-133650685D01*
X322821302Y-133620325D01*
X323185610Y-133256017D01*
X323185610Y-133650685D01*
X323185610Y-133954275D02*
X323185610Y-134075711D01*
X323155251Y-134136429D01*
X323124892Y-134166788D01*
X323033815Y-134227506D01*
X322912379Y-134257865D01*
X322669507Y-134257865D01*
X322608789Y-134227506D01*
X322578430Y-134197147D01*
X322548070Y-134136429D01*
X322548070Y-134014993D01*
X322578430Y-133954275D01*
X322608789Y-133923916D01*
X322669507Y-133893557D01*
X322821302Y-133893557D01*
X322882020Y-133923916D01*
X322912379Y-133954275D01*
X322942738Y-134014993D01*
X322942738Y-134136429D01*
X322912379Y-134197147D01*
X322882020Y-134227506D01*
X322821302Y-134257865D01*
X305193610Y-133043504D02*
X304890020Y-132830990D01*
X305193610Y-132679195D02*
X304556070Y-132679195D01*
X304556070Y-132922067D01*
X304586430Y-132982785D01*
X304616789Y-133013145D01*
X304677507Y-133043504D01*
X304768584Y-133043504D01*
X304829302Y-133013145D01*
X304859661Y-132982785D01*
X304890020Y-132922067D01*
X304890020Y-132679195D01*
X304768584Y-133589966D02*
X305193610Y-133589966D01*
X304525711Y-133438171D02*
X304981097Y-133286376D01*
X304981097Y-133681044D01*
X304556070Y-134227506D02*
X304556070Y-133923916D01*
X304859661Y-133893557D01*
X304829302Y-133923916D01*
X304798943Y-133984634D01*
X304798943Y-134136429D01*
X304829302Y-134197147D01*
X304859661Y-134227506D01*
X304920379Y-134257865D01*
X305072174Y-134257865D01*
X305132892Y-134227506D01*
X305163251Y-134197147D01*
X305193610Y-134136429D01*
X305193610Y-133984634D01*
X305163251Y-133923916D01*
X305132892Y-133893557D01*
X290445610Y-156078401D02*
X290142020Y-155865888D01*
X290445610Y-155714093D02*
X289808070Y-155714093D01*
X289808070Y-155956965D01*
X289838430Y-156017683D01*
X289868789Y-156048042D01*
X289929507Y-156078401D01*
X290020584Y-156078401D01*
X290081302Y-156048042D01*
X290111661Y-156017683D01*
X290142020Y-155956965D01*
X290142020Y-155714093D01*
X290020584Y-156624864D02*
X290445610Y-156624864D01*
X289777711Y-156473069D02*
X290233097Y-156321274D01*
X290233097Y-156715941D01*
X289808070Y-157232045D02*
X289808070Y-157110609D01*
X289838430Y-157049891D01*
X289868789Y-157019532D01*
X289959866Y-156958814D01*
X290081302Y-156928454D01*
X290324174Y-156928454D01*
X290384892Y-156958814D01*
X290415251Y-156989173D01*
X290445610Y-157049891D01*
X290445610Y-157171327D01*
X290415251Y-157232045D01*
X290384892Y-157262404D01*
X290324174Y-157292763D01*
X290172379Y-157292763D01*
X290111661Y-157262404D01*
X290081302Y-157232045D01*
X290050943Y-157171327D01*
X290050943Y-157049891D01*
X290081302Y-156989173D01*
X290111661Y-156958814D01*
X290172379Y-156928454D01*
X227004098Y-127251210D02*
X227216611Y-126947620D01*
X227368406Y-127251210D02*
X227368406Y-126613670D01*
X227125534Y-126613670D01*
X227064816Y-126644030D01*
X227034457Y-126674389D01*
X227004098Y-126735107D01*
X227004098Y-126826184D01*
X227034457Y-126886902D01*
X227064816Y-126917261D01*
X227125534Y-126947620D01*
X227368406Y-126947620D01*
X226396917Y-127251210D02*
X226761225Y-127251210D01*
X226579071Y-127251210D02*
X226579071Y-126613670D01*
X226639789Y-126704748D01*
X226700507Y-126765466D01*
X226761225Y-126795825D01*
X225789736Y-127251210D02*
X226154045Y-127251210D01*
X225971890Y-127251210D02*
X225971890Y-126613670D01*
X226032608Y-126704748D01*
X226093326Y-126765466D01*
X226154045Y-126795825D01*
X230872392Y-136953401D02*
X230902751Y-136923042D01*
X230933110Y-136831965D01*
X230933110Y-136771247D01*
X230902751Y-136680170D01*
X230842033Y-136619452D01*
X230781315Y-136589093D01*
X230659879Y-136558734D01*
X230568802Y-136558734D01*
X230447366Y-136589093D01*
X230386648Y-136619452D01*
X230325930Y-136680170D01*
X230295570Y-136771247D01*
X230295570Y-136831965D01*
X230325930Y-136923042D01*
X230356289Y-136953401D01*
X230295570Y-137499864D02*
X230295570Y-137378428D01*
X230325930Y-137317710D01*
X230356289Y-137287351D01*
X230447366Y-137226633D01*
X230568802Y-137196274D01*
X230811674Y-137196274D01*
X230872392Y-137226633D01*
X230902751Y-137256992D01*
X230933110Y-137317710D01*
X230933110Y-137439146D01*
X230902751Y-137499864D01*
X230872392Y-137530223D01*
X230811674Y-137560582D01*
X230659879Y-137560582D01*
X230599161Y-137530223D01*
X230568802Y-137499864D01*
X230538443Y-137439146D01*
X230538443Y-137317710D01*
X230568802Y-137256992D01*
X230599161Y-137226633D01*
X230659879Y-137196274D01*
X230295570Y-137773095D02*
X230295570Y-138167763D01*
X230538443Y-137955250D01*
X230538443Y-138046327D01*
X230568802Y-138107045D01*
X230599161Y-138137404D01*
X230659879Y-138167763D01*
X230811674Y-138167763D01*
X230872392Y-138137404D01*
X230902751Y-138107045D01*
X230933110Y-138046327D01*
X230933110Y-137864173D01*
X230902751Y-137803454D01*
X230872392Y-137773095D01*
X205850610Y-127400582D02*
X205547020Y-127188069D01*
X205850610Y-127036274D02*
X205213070Y-127036274D01*
X205213070Y-127279146D01*
X205243430Y-127339864D01*
X205273789Y-127370223D01*
X205334507Y-127400582D01*
X205425584Y-127400582D01*
X205486302Y-127370223D01*
X205516661Y-127339864D01*
X205547020Y-127279146D01*
X205547020Y-127036274D01*
X205850610Y-127704173D02*
X205850610Y-127825609D01*
X205820251Y-127886327D01*
X205789892Y-127916686D01*
X205698815Y-127977404D01*
X205577379Y-128007763D01*
X205334507Y-128007763D01*
X205273789Y-127977404D01*
X205243430Y-127947045D01*
X205213070Y-127886327D01*
X205213070Y-127764891D01*
X205243430Y-127704173D01*
X205273789Y-127673814D01*
X205334507Y-127643454D01*
X205486302Y-127643454D01*
X205547020Y-127673814D01*
X205577379Y-127704173D01*
X205607738Y-127764891D01*
X205607738Y-127886327D01*
X205577379Y-127947045D01*
X205547020Y-127977404D01*
X205486302Y-128007763D01*
X270614892Y-178938401D02*
X270645251Y-178908042D01*
X270675610Y-178816965D01*
X270675610Y-178756247D01*
X270645251Y-178665170D01*
X270584533Y-178604452D01*
X270523815Y-178574093D01*
X270402379Y-178543734D01*
X270311302Y-178543734D01*
X270189866Y-178574093D01*
X270129148Y-178604452D01*
X270068430Y-178665170D01*
X270038070Y-178756247D01*
X270038070Y-178816965D01*
X270068430Y-178908042D01*
X270098789Y-178938401D01*
X270250584Y-179484864D02*
X270675610Y-179484864D01*
X270007711Y-179333069D02*
X270463097Y-179181274D01*
X270463097Y-179575941D01*
X270038070Y-180092045D02*
X270038070Y-179970609D01*
X270068430Y-179909891D01*
X270098789Y-179879532D01*
X270189866Y-179818814D01*
X270311302Y-179788454D01*
X270554174Y-179788454D01*
X270614892Y-179818814D01*
X270645251Y-179849173D01*
X270675610Y-179909891D01*
X270675610Y-180031327D01*
X270645251Y-180092045D01*
X270614892Y-180122404D01*
X270554174Y-180152763D01*
X270402379Y-180152763D01*
X270341661Y-180122404D01*
X270311302Y-180092045D01*
X270280943Y-180031327D01*
X270280943Y-179909891D01*
X270311302Y-179849173D01*
X270341661Y-179818814D01*
X270402379Y-179788454D01*
X219759892Y-142822504D02*
X219790251Y-142792145D01*
X219820610Y-142701067D01*
X219820610Y-142640349D01*
X219790251Y-142549272D01*
X219729533Y-142488554D01*
X219668815Y-142458195D01*
X219547379Y-142427836D01*
X219456302Y-142427836D01*
X219334866Y-142458195D01*
X219274148Y-142488554D01*
X219213430Y-142549272D01*
X219183070Y-142640349D01*
X219183070Y-142701067D01*
X219213430Y-142792145D01*
X219243789Y-142822504D01*
X219243789Y-143065376D02*
X219213430Y-143095735D01*
X219183070Y-143156453D01*
X219183070Y-143308248D01*
X219213430Y-143368966D01*
X219243789Y-143399325D01*
X219304507Y-143429685D01*
X219365225Y-143429685D01*
X219456302Y-143399325D01*
X219820610Y-143035017D01*
X219820610Y-143429685D01*
D12*
X225803242Y-124334020D02*
X225803242Y-124827506D01*
X225836141Y-124926203D01*
X225901939Y-124992001D01*
X226000636Y-125024900D01*
X226066434Y-125024900D01*
X225474251Y-124761708D02*
X224947867Y-124761708D01*
X224487280Y-124334020D02*
X224355684Y-124334020D01*
X224289886Y-124366920D01*
X224224088Y-124432718D01*
X224191188Y-124564314D01*
X224191188Y-124794607D01*
X224224088Y-124926203D01*
X224289886Y-124992001D01*
X224355684Y-125024900D01*
X224487280Y-125024900D01*
X224553078Y-124992001D01*
X224618876Y-124926203D01*
X224651775Y-124794607D01*
X224651775Y-124564314D01*
X224618876Y-124432718D01*
X224553078Y-124366920D01*
X224487280Y-124334020D01*
X223895097Y-124334020D02*
X223895097Y-124893304D01*
X223862198Y-124959102D01*
X223829299Y-124992001D01*
X223763501Y-125024900D01*
X223631905Y-125024900D01*
X223566107Y-124992001D01*
X223533208Y-124959102D01*
X223500308Y-124893304D01*
X223500308Y-124334020D01*
X223270015Y-124334020D02*
X222875227Y-124334020D01*
X223072621Y-125024900D02*
X223072621Y-124334020D01*
X222513337Y-124334020D02*
X222447539Y-124334020D01*
X222381741Y-124366920D01*
X222348842Y-124399819D01*
X222315943Y-124465617D01*
X222283044Y-124597213D01*
X222283044Y-124761708D01*
X222315943Y-124893304D01*
X222348842Y-124959102D01*
X222381741Y-124992001D01*
X222447539Y-125024900D01*
X222513337Y-125024900D01*
X222579135Y-124992001D01*
X222612034Y-124959102D01*
X222644933Y-124893304D01*
X222677832Y-124761708D01*
X222677832Y-124597213D01*
X222644933Y-124465617D01*
X222612034Y-124399819D01*
X222579135Y-124366920D01*
X222513337Y-124334020D01*
D13*
X202614892Y-137742504D02*
X202645251Y-137712145D01*
X202675610Y-137621067D01*
X202675610Y-137560349D01*
X202645251Y-137469272D01*
X202584533Y-137408554D01*
X202523815Y-137378195D01*
X202402379Y-137347836D01*
X202311302Y-137347836D01*
X202189866Y-137378195D01*
X202129148Y-137408554D01*
X202068430Y-137469272D01*
X202038070Y-137560349D01*
X202038070Y-137621067D01*
X202068430Y-137712145D01*
X202098789Y-137742504D01*
X202038070Y-138319325D02*
X202038070Y-138015735D01*
X202341661Y-137985376D01*
X202311302Y-138015735D01*
X202280943Y-138076453D01*
X202280943Y-138228248D01*
X202311302Y-138288966D01*
X202341661Y-138319325D01*
X202402379Y-138349685D01*
X202554174Y-138349685D01*
X202614892Y-138319325D01*
X202645251Y-138288966D01*
X202675610Y-138228248D01*
X202675610Y-138076453D01*
X202645251Y-138015735D01*
X202614892Y-137985376D01*
X325090610Y-133043504D02*
X324787020Y-132830990D01*
X325090610Y-132679195D02*
X324453070Y-132679195D01*
X324453070Y-132922067D01*
X324483430Y-132982785D01*
X324513789Y-133013145D01*
X324574507Y-133043504D01*
X324665584Y-133043504D01*
X324726302Y-133013145D01*
X324756661Y-132982785D01*
X324787020Y-132922067D01*
X324787020Y-132679195D01*
X324513789Y-133286376D02*
X324483430Y-133316735D01*
X324453070Y-133377453D01*
X324453070Y-133529248D01*
X324483430Y-133589966D01*
X324513789Y-133620325D01*
X324574507Y-133650685D01*
X324635225Y-133650685D01*
X324726302Y-133620325D01*
X325090610Y-133256017D01*
X325090610Y-133650685D01*
X324726302Y-134014993D02*
X324695943Y-133954275D01*
X324665584Y-133923916D01*
X324604866Y-133893557D01*
X324574507Y-133893557D01*
X324513789Y-133923916D01*
X324483430Y-133954275D01*
X324453070Y-134014993D01*
X324453070Y-134136429D01*
X324483430Y-134197147D01*
X324513789Y-134227506D01*
X324574507Y-134257865D01*
X324604866Y-134257865D01*
X324665584Y-134227506D01*
X324695943Y-134197147D01*
X324726302Y-134136429D01*
X324726302Y-134014993D01*
X324756661Y-133954275D01*
X324787020Y-133923916D01*
X324847738Y-133893557D01*
X324969174Y-133893557D01*
X325029892Y-133923916D01*
X325060251Y-133954275D01*
X325090610Y-134014993D01*
X325090610Y-134136429D01*
X325060251Y-134197147D01*
X325029892Y-134227506D01*
X324969174Y-134257865D01*
X324847738Y-134257865D01*
X324787020Y-134227506D01*
X324756661Y-134197147D01*
X324726302Y-134136429D01*
X226051598Y-144017992D02*
X226081957Y-144048351D01*
X226173034Y-144078710D01*
X226233752Y-144078710D01*
X226324829Y-144048351D01*
X226385547Y-143987633D01*
X226415906Y-143926915D01*
X226446265Y-143805479D01*
X226446265Y-143714402D01*
X226415906Y-143592966D01*
X226385547Y-143532248D01*
X226324829Y-143471530D01*
X226233752Y-143441170D01*
X226173034Y-143441170D01*
X226081957Y-143471530D01*
X226051598Y-143501889D01*
X225687289Y-143714402D02*
X225748007Y-143684043D01*
X225778366Y-143653684D01*
X225808725Y-143592966D01*
X225808725Y-143562607D01*
X225778366Y-143501889D01*
X225748007Y-143471530D01*
X225687289Y-143441170D01*
X225565853Y-143441170D01*
X225505135Y-143471530D01*
X225474776Y-143501889D01*
X225444417Y-143562607D01*
X225444417Y-143592966D01*
X225474776Y-143653684D01*
X225505135Y-143684043D01*
X225565853Y-143714402D01*
X225687289Y-143714402D01*
X225748007Y-143744761D01*
X225778366Y-143775120D01*
X225808725Y-143835838D01*
X225808725Y-143957274D01*
X225778366Y-144017992D01*
X225748007Y-144048351D01*
X225687289Y-144078710D01*
X225565853Y-144078710D01*
X225505135Y-144048351D01*
X225474776Y-144017992D01*
X225444417Y-143957274D01*
X225444417Y-143835838D01*
X225474776Y-143775120D01*
X225505135Y-143744761D01*
X225565853Y-143714402D01*
X225080108Y-143714402D02*
X225140826Y-143684043D01*
X225171185Y-143653684D01*
X225201545Y-143592966D01*
X225201545Y-143562607D01*
X225171185Y-143501889D01*
X225140826Y-143471530D01*
X225080108Y-143441170D01*
X224958672Y-143441170D01*
X224897954Y-143471530D01*
X224867595Y-143501889D01*
X224837236Y-143562607D01*
X224837236Y-143592966D01*
X224867595Y-143653684D01*
X224897954Y-143684043D01*
X224958672Y-143714402D01*
X225080108Y-143714402D01*
X225140826Y-143744761D01*
X225171185Y-143775120D01*
X225201545Y-143835838D01*
X225201545Y-143957274D01*
X225171185Y-144017992D01*
X225140826Y-144048351D01*
X225080108Y-144078710D01*
X224958672Y-144078710D01*
X224897954Y-144048351D01*
X224867595Y-144017992D01*
X224837236Y-143957274D01*
X224837236Y-143835838D01*
X224867595Y-143775120D01*
X224897954Y-143744761D01*
X224958672Y-143714402D01*
X261153892Y-138805504D02*
X261184251Y-138775145D01*
X261214610Y-138684067D01*
X261214610Y-138623349D01*
X261184251Y-138532272D01*
X261123533Y-138471554D01*
X261062815Y-138441195D01*
X260941379Y-138410836D01*
X260850302Y-138410836D01*
X260728866Y-138441195D01*
X260668148Y-138471554D01*
X260607430Y-138532272D01*
X260577070Y-138623349D01*
X260577070Y-138684067D01*
X260607430Y-138775145D01*
X260637789Y-138805504D01*
X260577070Y-139018017D02*
X260577070Y-139412685D01*
X260819943Y-139200171D01*
X260819943Y-139291248D01*
X260850302Y-139351966D01*
X260880661Y-139382325D01*
X260941379Y-139412685D01*
X261093174Y-139412685D01*
X261153892Y-139382325D01*
X261184251Y-139351966D01*
X261214610Y-139291248D01*
X261214610Y-139109094D01*
X261184251Y-139048376D01*
X261153892Y-139018017D01*
X260577070Y-139959147D02*
X260577070Y-139837711D01*
X260607430Y-139776993D01*
X260637789Y-139746634D01*
X260728866Y-139685916D01*
X260850302Y-139655557D01*
X261093174Y-139655557D01*
X261153892Y-139685916D01*
X261184251Y-139716275D01*
X261214610Y-139776993D01*
X261214610Y-139898429D01*
X261184251Y-139959147D01*
X261153892Y-139989506D01*
X261093174Y-140019865D01*
X260941379Y-140019865D01*
X260880661Y-139989506D01*
X260850302Y-139959147D01*
X260819943Y-139898429D01*
X260819943Y-139776993D01*
X260850302Y-139716275D01*
X260880661Y-139685916D01*
X260941379Y-139655557D01*
X305331610Y-156887582D02*
X305028020Y-156675069D01*
X305331610Y-156523274D02*
X304694070Y-156523274D01*
X304694070Y-156766146D01*
X304724430Y-156826864D01*
X304754789Y-156857223D01*
X304815507Y-156887582D01*
X304906584Y-156887582D01*
X304967302Y-156857223D01*
X304997661Y-156826864D01*
X305028020Y-156766146D01*
X305028020Y-156523274D01*
X304906584Y-157434045D02*
X305331610Y-157434045D01*
X304663711Y-157282250D02*
X305119097Y-157130454D01*
X305119097Y-157525122D01*
X200611860Y-137270901D02*
X200308270Y-137058388D01*
X200611860Y-136906593D02*
X199974320Y-136906593D01*
X199974320Y-137149465D01*
X200004680Y-137210183D01*
X200035039Y-137240542D01*
X200095757Y-137270901D01*
X200186834Y-137270901D01*
X200247552Y-137240542D01*
X200277911Y-137210183D01*
X200308270Y-137149465D01*
X200308270Y-136906593D01*
X200611860Y-137878082D02*
X200611860Y-137513774D01*
X200611860Y-137695928D02*
X199974320Y-137695928D01*
X200065398Y-137635210D01*
X200126116Y-137574492D01*
X200156475Y-137513774D01*
X199974320Y-138454904D02*
X199974320Y-138151314D01*
X200277911Y-138120954D01*
X200247552Y-138151314D01*
X200217193Y-138212032D01*
X200217193Y-138363827D01*
X200247552Y-138424545D01*
X200277911Y-138454904D01*
X200338629Y-138485263D01*
X200490424Y-138485263D01*
X200551142Y-138454904D01*
X200581501Y-138424545D01*
X200611860Y-138363827D01*
X200611860Y-138212032D01*
X200581501Y-138151314D01*
X200551142Y-138120954D01*
D14*
X69159539Y-161273935D02*
X69492872Y-160797745D01*
X69730967Y-161273935D02*
X69730967Y-160273935D01*
X69350015Y-160273935D01*
X69254777Y-160321555D01*
X69207158Y-160369174D01*
X69159539Y-160464412D01*
X69159539Y-160607269D01*
X69207158Y-160702507D01*
X69254777Y-160750126D01*
X69350015Y-160797745D01*
X69730967Y-160797745D01*
X68730967Y-160750126D02*
X68397634Y-160750126D01*
X68254777Y-161273935D02*
X68730967Y-161273935D01*
X68730967Y-160273935D01*
X68254777Y-160273935D01*
X67492872Y-160750126D02*
X67826206Y-160750126D01*
X67826206Y-161273935D02*
X67826206Y-160273935D01*
X67350015Y-160273935D01*
X66826206Y-160273935D02*
X66826206Y-160512031D01*
X67064301Y-160416793D02*
X66826206Y-160512031D01*
X66588110Y-160416793D01*
X66969063Y-160702507D02*
X66826206Y-160512031D01*
X66683348Y-160702507D01*
X66064301Y-160273935D02*
X66064301Y-160512031D01*
X66302396Y-160416793D02*
X66064301Y-160512031D01*
X65826206Y-160416793D01*
X66207158Y-160702507D02*
X66064301Y-160512031D01*
X65921444Y-160702507D01*
X92318771Y-169308752D02*
X92366390Y-169451609D01*
X92414009Y-169499228D01*
X92509247Y-169546847D01*
X92652104Y-169546847D01*
X92747342Y-169499228D01*
X92794961Y-169451609D01*
X92842580Y-169356371D01*
X92842580Y-168975419D01*
X91842580Y-168975419D01*
X91842580Y-169308752D01*
X91890200Y-169403990D01*
X91937819Y-169451609D01*
X92033057Y-169499228D01*
X92128295Y-169499228D01*
X92223533Y-169451609D01*
X92271152Y-169403990D01*
X92318771Y-169308752D01*
X92318771Y-168975419D01*
X92556866Y-169927800D02*
X92556866Y-170403990D01*
X92842580Y-169832561D02*
X91842580Y-170165895D01*
X92842580Y-170499228D01*
X91842580Y-170689704D02*
X91842580Y-171261133D01*
X92842580Y-170975419D02*
X91842580Y-170975419D01*
X91842580Y-171451609D02*
X91842580Y-172023038D01*
X92842580Y-171737323D02*
X91842580Y-171737323D01*
D17*
X227319015Y-135528962D02*
X227646554Y-135528962D01*
X227646554Y-134841130D01*
X227155245Y-134841130D02*
X226729444Y-134841130D01*
X226958722Y-135103161D01*
X226860460Y-135103161D01*
X226794952Y-135135915D01*
X226762198Y-135168669D01*
X226729444Y-135234176D01*
X226729444Y-135397946D01*
X226762198Y-135463454D01*
X226794952Y-135496208D01*
X226860460Y-135528962D01*
X227056983Y-135528962D01*
X227122491Y-135496208D01*
X227155245Y-135463454D01*
D13*
X204898110Y-126793401D02*
X204594520Y-126580888D01*
X204898110Y-126429093D02*
X204260570Y-126429093D01*
X204260570Y-126671965D01*
X204290930Y-126732683D01*
X204321289Y-126763042D01*
X204382007Y-126793401D01*
X204473084Y-126793401D01*
X204533802Y-126763042D01*
X204564161Y-126732683D01*
X204594520Y-126671965D01*
X204594520Y-126429093D01*
X204898110Y-127400582D02*
X204898110Y-127036274D01*
X204898110Y-127218428D02*
X204260570Y-127218428D01*
X204351648Y-127157710D01*
X204412366Y-127096992D01*
X204442725Y-127036274D01*
X204260570Y-127795250D02*
X204260570Y-127855968D01*
X204290930Y-127916686D01*
X204321289Y-127947045D01*
X204382007Y-127977404D01*
X204503443Y-128007763D01*
X204655238Y-128007763D01*
X204776674Y-127977404D01*
X204837392Y-127947045D01*
X204867751Y-127916686D01*
X204898110Y-127855968D01*
X204898110Y-127795250D01*
X204867751Y-127734532D01*
X204837392Y-127704173D01*
X204776674Y-127673814D01*
X204655238Y-127643454D01*
X204503443Y-127643454D01*
X204382007Y-127673814D01*
X204321289Y-127704173D01*
X204290930Y-127734532D01*
X204260570Y-127795250D01*
X215601917Y-152590492D02*
X215632276Y-152620851D01*
X215723353Y-152651210D01*
X215784071Y-152651210D01*
X215875148Y-152620851D01*
X215935866Y-152560133D01*
X215966225Y-152499415D01*
X215996585Y-152377979D01*
X215996585Y-152286902D01*
X215966225Y-152165466D01*
X215935866Y-152104748D01*
X215875148Y-152044030D01*
X215784071Y-152013670D01*
X215723353Y-152013670D01*
X215632276Y-152044030D01*
X215601917Y-152074389D01*
X215389404Y-152013670D02*
X214994736Y-152013670D01*
X215207249Y-152256543D01*
X215116172Y-152256543D01*
X215055454Y-152286902D01*
X215025095Y-152317261D01*
X214994736Y-152377979D01*
X214994736Y-152529774D01*
X215025095Y-152590492D01*
X215055454Y-152620851D01*
X215116172Y-152651210D01*
X215298326Y-152651210D01*
X215359045Y-152620851D01*
X215389404Y-152590492D01*
D14*
X91870200Y-146411609D02*
X91822580Y-146316371D01*
X91822580Y-146173514D01*
X91870200Y-146030657D01*
X91965438Y-145935419D01*
X92060676Y-145887800D01*
X92251152Y-145840180D01*
X92394009Y-145840180D01*
X92584485Y-145887800D01*
X92679723Y-145935419D01*
X92774961Y-146030657D01*
X92822580Y-146173514D01*
X92822580Y-146268752D01*
X92774961Y-146411609D01*
X92727342Y-146459228D01*
X92394009Y-146459228D01*
X92394009Y-146268752D01*
X92822580Y-147459228D02*
X92346390Y-147125895D01*
X92822580Y-146887800D02*
X91822580Y-146887800D01*
X91822580Y-147268752D01*
X91870200Y-147363990D01*
X91917819Y-147411609D01*
X92013057Y-147459228D01*
X92155914Y-147459228D01*
X92251152Y-147411609D01*
X92298771Y-147363990D01*
X92346390Y-147268752D01*
X92346390Y-146887800D01*
X92822580Y-147887800D02*
X91822580Y-147887800D01*
X92822580Y-148363990D02*
X91822580Y-148363990D01*
X91822580Y-148602085D01*
X91870200Y-148744942D01*
X91965438Y-148840180D01*
X92060676Y-148887800D01*
X92251152Y-148935419D01*
X92394009Y-148935419D01*
X92584485Y-148887800D01*
X92679723Y-148840180D01*
X92774961Y-148744942D01*
X92822580Y-148602085D01*
X92822580Y-148363990D01*
D13*
X223569892Y-141398401D02*
X223600251Y-141368042D01*
X223630610Y-141276965D01*
X223630610Y-141216247D01*
X223600251Y-141125170D01*
X223539533Y-141064452D01*
X223478815Y-141034093D01*
X223357379Y-141003734D01*
X223266302Y-141003734D01*
X223144866Y-141034093D01*
X223084148Y-141064452D01*
X223023430Y-141125170D01*
X222993070Y-141216247D01*
X222993070Y-141276965D01*
X223023430Y-141368042D01*
X223053789Y-141398401D01*
X223205584Y-141944864D02*
X223630610Y-141944864D01*
X222962711Y-141793069D02*
X223418097Y-141641274D01*
X223418097Y-142035941D01*
X222993070Y-142218095D02*
X222993070Y-142612763D01*
X223235943Y-142400250D01*
X223235943Y-142491327D01*
X223266302Y-142552045D01*
X223296661Y-142582404D01*
X223357379Y-142612763D01*
X223509174Y-142612763D01*
X223569892Y-142582404D01*
X223600251Y-142552045D01*
X223630610Y-142491327D01*
X223630610Y-142309173D01*
X223600251Y-142248454D01*
X223569892Y-142218095D01*
X274485610Y-178938401D02*
X274182020Y-178725888D01*
X274485610Y-178574093D02*
X273848070Y-178574093D01*
X273848070Y-178816965D01*
X273878430Y-178877683D01*
X273908789Y-178908042D01*
X273969507Y-178938401D01*
X274060584Y-178938401D01*
X274121302Y-178908042D01*
X274151661Y-178877683D01*
X274182020Y-178816965D01*
X274182020Y-178574093D01*
X274060584Y-179484864D02*
X274485610Y-179484864D01*
X273817711Y-179333069D02*
X274273097Y-179181274D01*
X274273097Y-179575941D01*
X274121302Y-179909891D02*
X274090943Y-179849173D01*
X274060584Y-179818814D01*
X273999866Y-179788454D01*
X273969507Y-179788454D01*
X273908789Y-179818814D01*
X273878430Y-179849173D01*
X273848070Y-179909891D01*
X273848070Y-180031327D01*
X273878430Y-180092045D01*
X273908789Y-180122404D01*
X273969507Y-180152763D01*
X273999866Y-180152763D01*
X274060584Y-180122404D01*
X274090943Y-180092045D01*
X274121302Y-180031327D01*
X274121302Y-179909891D01*
X274151661Y-179849173D01*
X274182020Y-179818814D01*
X274242738Y-179788454D01*
X274364174Y-179788454D01*
X274424892Y-179818814D01*
X274455251Y-179849173D01*
X274485610Y-179909891D01*
X274485610Y-180031327D01*
X274455251Y-180092045D01*
X274424892Y-180122404D01*
X274364174Y-180152763D01*
X274242738Y-180152763D01*
X274182020Y-180122404D01*
X274151661Y-180092045D01*
X274121302Y-180031327D01*
X326934892Y-133043504D02*
X326965251Y-133013145D01*
X326995610Y-132922067D01*
X326995610Y-132861349D01*
X326965251Y-132770272D01*
X326904533Y-132709554D01*
X326843815Y-132679195D01*
X326722379Y-132648836D01*
X326631302Y-132648836D01*
X326509866Y-132679195D01*
X326449148Y-132709554D01*
X326388430Y-132770272D01*
X326358070Y-132861349D01*
X326358070Y-132922067D01*
X326388430Y-133013145D01*
X326418789Y-133043504D01*
X326358070Y-133256017D02*
X326358070Y-133650685D01*
X326600943Y-133438171D01*
X326600943Y-133529248D01*
X326631302Y-133589966D01*
X326661661Y-133620325D01*
X326722379Y-133650685D01*
X326874174Y-133650685D01*
X326934892Y-133620325D01*
X326965251Y-133589966D01*
X326995610Y-133529248D01*
X326995610Y-133347094D01*
X326965251Y-133286376D01*
X326934892Y-133256017D01*
X326358070Y-134227506D02*
X326358070Y-133923916D01*
X326661661Y-133893557D01*
X326631302Y-133923916D01*
X326600943Y-133984634D01*
X326600943Y-134136429D01*
X326631302Y-134197147D01*
X326661661Y-134227506D01*
X326722379Y-134257865D01*
X326874174Y-134257865D01*
X326934892Y-134227506D01*
X326965251Y-134197147D01*
X326995610Y-134136429D01*
X326995610Y-133984634D01*
X326965251Y-133923916D01*
X326934892Y-133893557D01*
X204307495Y-132905492D02*
X204337854Y-132935851D01*
X204428932Y-132966210D01*
X204489650Y-132966210D01*
X204580727Y-132935851D01*
X204641445Y-132875133D01*
X204671804Y-132814415D01*
X204702163Y-132692979D01*
X204702163Y-132601902D01*
X204671804Y-132480466D01*
X204641445Y-132419748D01*
X204580727Y-132359030D01*
X204489650Y-132328670D01*
X204428932Y-132328670D01*
X204337854Y-132359030D01*
X204307495Y-132389389D01*
X203700314Y-132966210D02*
X204064623Y-132966210D01*
X203882469Y-132966210D02*
X203882469Y-132328670D01*
X203943187Y-132419748D01*
X204003905Y-132480466D01*
X204064623Y-132510825D01*
X203457442Y-132389389D02*
X203427083Y-132359030D01*
X203366365Y-132328670D01*
X203214570Y-132328670D01*
X203153852Y-132359030D01*
X203123493Y-132389389D01*
X203093134Y-132450107D01*
X203093134Y-132510825D01*
X203123493Y-132601902D01*
X203487801Y-132966210D01*
X203093134Y-132966210D01*
X212343027Y-147631929D02*
X212403745Y-147601570D01*
X212464464Y-147540851D01*
X212555541Y-147449774D01*
X212616259Y-147419415D01*
X212676977Y-147419415D01*
X212646618Y-147571210D02*
X212707336Y-147540851D01*
X212768054Y-147480133D01*
X212798413Y-147358697D01*
X212798413Y-147146184D01*
X212768054Y-147024748D01*
X212707336Y-146964030D01*
X212646618Y-146933670D01*
X212525182Y-146933670D01*
X212464464Y-146964030D01*
X212403745Y-147024748D01*
X212373386Y-147146184D01*
X212373386Y-147358697D01*
X212403745Y-147480133D01*
X212464464Y-147540851D01*
X212525182Y-147571210D01*
X212646618Y-147571210D01*
X211766205Y-147571210D02*
X212130514Y-147571210D01*
X211948360Y-147571210D02*
X211948360Y-146933670D01*
X212009078Y-147024748D01*
X212069796Y-147085466D01*
X212130514Y-147115825D01*
X204779098Y-133857992D02*
X204809457Y-133888351D01*
X204900534Y-133918710D01*
X204961252Y-133918710D01*
X205052329Y-133888351D01*
X205113047Y-133827633D01*
X205143406Y-133766915D01*
X205173765Y-133645479D01*
X205173765Y-133554402D01*
X205143406Y-133432966D01*
X205113047Y-133372248D01*
X205052329Y-133311530D01*
X204961252Y-133281170D01*
X204900534Y-133281170D01*
X204809457Y-133311530D01*
X204779098Y-133341889D01*
X204171917Y-133918710D02*
X204536225Y-133918710D01*
X204354071Y-133918710D02*
X204354071Y-133281170D01*
X204414789Y-133372248D01*
X204475507Y-133432966D01*
X204536225Y-133463325D01*
X203959404Y-133281170D02*
X203564736Y-133281170D01*
X203777249Y-133524043D01*
X203686172Y-133524043D01*
X203625454Y-133554402D01*
X203595095Y-133584761D01*
X203564736Y-133645479D01*
X203564736Y-133797274D01*
X203595095Y-133857992D01*
X203625454Y-133888351D01*
X203686172Y-133918710D01*
X203868326Y-133918710D01*
X203929045Y-133888351D01*
X203959404Y-133857992D01*
D14*
X74583295Y-117880180D02*
X74916628Y-117403990D01*
X75154723Y-117880180D02*
X75154723Y-116880180D01*
X74773771Y-116880180D01*
X74678533Y-116927800D01*
X74630914Y-116975419D01*
X74583295Y-117070657D01*
X74583295Y-117213514D01*
X74630914Y-117308752D01*
X74678533Y-117356371D01*
X74773771Y-117403990D01*
X75154723Y-117403990D01*
X74154723Y-117356371D02*
X73821390Y-117356371D01*
X73678533Y-117880180D02*
X74154723Y-117880180D01*
X74154723Y-116880180D01*
X73678533Y-116880180D01*
X72916628Y-117356371D02*
X73249962Y-117356371D01*
X73249962Y-117880180D02*
X73249962Y-116880180D01*
X72773771Y-116880180D01*
X72249962Y-116880180D02*
X72249962Y-117118276D01*
X72488057Y-117023038D02*
X72249962Y-117118276D01*
X72011866Y-117023038D01*
X72392819Y-117308752D02*
X72249962Y-117118276D01*
X72107104Y-117308752D01*
X71488057Y-116880180D02*
X71488057Y-117118276D01*
X71726152Y-117023038D02*
X71488057Y-117118276D01*
X71249962Y-117023038D01*
X71630914Y-117308752D02*
X71488057Y-117118276D01*
X71345200Y-117308752D01*
X71788628Y-126187800D02*
X71088628Y-126187800D01*
X71088628Y-126354466D01*
X71121962Y-126454466D01*
X71188628Y-126521133D01*
X71255295Y-126554466D01*
X71388628Y-126587800D01*
X71488628Y-126587800D01*
X71621962Y-126554466D01*
X71688628Y-126521133D01*
X71755295Y-126454466D01*
X71788628Y-126354466D01*
X71788628Y-126187800D01*
X71088628Y-126787800D02*
X71788628Y-127021133D01*
X71088628Y-127254466D01*
X71788628Y-127821133D02*
X71788628Y-127487800D01*
X71088628Y-127487800D01*
X71088628Y-128354466D02*
X71088628Y-128221133D01*
X71121962Y-128154466D01*
X71155295Y-128121133D01*
X71255295Y-128054466D01*
X71388628Y-128021133D01*
X71655295Y-128021133D01*
X71721962Y-128054466D01*
X71755295Y-128087800D01*
X71788628Y-128154466D01*
X71788628Y-128287800D01*
X71755295Y-128354466D01*
X71721962Y-128387800D01*
X71655295Y-128421133D01*
X71488628Y-128421133D01*
X71421962Y-128387800D01*
X71388628Y-128354466D01*
X71355295Y-128287800D01*
X71355295Y-128154466D01*
X71388628Y-128087800D01*
X71421962Y-128054466D01*
X71488628Y-128021133D01*
X71588628Y-128687800D02*
X71588628Y-129021133D01*
X71788628Y-128621133D02*
X71088628Y-128854466D01*
X71788628Y-129087800D01*
X73312628Y-124504466D02*
X72612628Y-124504466D01*
X73112628Y-124737800D01*
X72612628Y-124971133D01*
X73312628Y-124971133D01*
X73312628Y-125304466D02*
X72612628Y-125304466D01*
X73312628Y-125637800D02*
X72612628Y-125637800D01*
X73112628Y-125871133D01*
X72612628Y-126104466D01*
X73312628Y-126104466D01*
X72612628Y-126371133D02*
X73312628Y-126837800D01*
X72612628Y-126837800D02*
X73312628Y-126371133D01*
X73312628Y-127504466D02*
X72979295Y-127271133D01*
X73312628Y-127104466D02*
X72612628Y-127104466D01*
X72612628Y-127371133D01*
X72645962Y-127437800D01*
X72679295Y-127471133D01*
X72745962Y-127504466D01*
X72845962Y-127504466D01*
X72912628Y-127471133D01*
X72945962Y-127437800D01*
X72979295Y-127371133D01*
X72979295Y-127104466D01*
X72612628Y-127704466D02*
X72612628Y-128104466D01*
X73312628Y-127904466D02*
X72612628Y-127904466D01*
X73312628Y-128704466D02*
X73312628Y-128304466D01*
X73312628Y-128504466D02*
X72612628Y-128504466D01*
X72712628Y-128437800D01*
X72779295Y-128371133D01*
X72812628Y-128304466D01*
X72612628Y-129137800D02*
X72612628Y-129204466D01*
X72645962Y-129271133D01*
X72679295Y-129304466D01*
X72745962Y-129337800D01*
X72879295Y-129371133D01*
X73045962Y-129371133D01*
X73179295Y-129337800D01*
X73245962Y-129304466D01*
X73279295Y-129271133D01*
X73312628Y-129204466D01*
X73312628Y-129137800D01*
X73279295Y-129071133D01*
X73245962Y-129037800D01*
X73179295Y-129004466D01*
X73045962Y-128971133D01*
X72879295Y-128971133D01*
X72745962Y-129004466D01*
X72679295Y-129037800D01*
X72645962Y-129071133D01*
X72612628Y-129137800D01*
X72612628Y-129971133D02*
X72612628Y-129837800D01*
X72645962Y-129771133D01*
X72679295Y-129737800D01*
X72779295Y-129671133D01*
X72912628Y-129637800D01*
X73179295Y-129637800D01*
X73245962Y-129671133D01*
X73279295Y-129704466D01*
X73312628Y-129771133D01*
X73312628Y-129904466D01*
X73279295Y-129971133D01*
X73245962Y-130004466D01*
X73179295Y-130037800D01*
X73012628Y-130037800D01*
X72945962Y-130004466D01*
X72912628Y-129971133D01*
X72879295Y-129904466D01*
X72879295Y-129771133D01*
X72912628Y-129704466D01*
X72945962Y-129671133D01*
X73012628Y-129637800D01*
X72679295Y-130304466D02*
X72645962Y-130337800D01*
X72612628Y-130404466D01*
X72612628Y-130571133D01*
X72645962Y-130637800D01*
X72679295Y-130671133D01*
X72745962Y-130704466D01*
X72812628Y-130704466D01*
X72912628Y-130671133D01*
X73312628Y-130271133D01*
X73312628Y-130704466D01*
D13*
X214423110Y-130757504D02*
X214119520Y-130544990D01*
X214423110Y-130393195D02*
X213785570Y-130393195D01*
X213785570Y-130636067D01*
X213815930Y-130696785D01*
X213846289Y-130727145D01*
X213907007Y-130757504D01*
X213998084Y-130757504D01*
X214058802Y-130727145D01*
X214089161Y-130696785D01*
X214119520Y-130636067D01*
X214119520Y-130393195D01*
X213785570Y-130970017D02*
X213785570Y-131395044D01*
X214423110Y-131121812D01*
X287463892Y-179140401D02*
X287494251Y-179110042D01*
X287524610Y-179018965D01*
X287524610Y-178958247D01*
X287494251Y-178867170D01*
X287433533Y-178806452D01*
X287372815Y-178776093D01*
X287251379Y-178745734D01*
X287160302Y-178745734D01*
X287038866Y-178776093D01*
X286978148Y-178806452D01*
X286917430Y-178867170D01*
X286887070Y-178958247D01*
X286887070Y-179018965D01*
X286917430Y-179110042D01*
X286947789Y-179140401D01*
X286887070Y-179352914D02*
X286887070Y-179747582D01*
X287129943Y-179535069D01*
X287129943Y-179626146D01*
X287160302Y-179686864D01*
X287190661Y-179717223D01*
X287251379Y-179747582D01*
X287403174Y-179747582D01*
X287463892Y-179717223D01*
X287494251Y-179686864D01*
X287524610Y-179626146D01*
X287524610Y-179443992D01*
X287494251Y-179383274D01*
X287463892Y-179352914D01*
X287524610Y-180051173D02*
X287524610Y-180172609D01*
X287494251Y-180233327D01*
X287463892Y-180263686D01*
X287372815Y-180324404D01*
X287251379Y-180354763D01*
X287008507Y-180354763D01*
X286947789Y-180324404D01*
X286917430Y-180294045D01*
X286887070Y-180233327D01*
X286887070Y-180111891D01*
X286917430Y-180051173D01*
X286947789Y-180020814D01*
X287008507Y-179990454D01*
X287160302Y-179990454D01*
X287221020Y-180020814D01*
X287251379Y-180051173D01*
X287281738Y-180111891D01*
X287281738Y-180233327D01*
X287251379Y-180294045D01*
X287221020Y-180324404D01*
X287160302Y-180354763D01*
X205789892Y-136948754D02*
X205820251Y-136918395D01*
X205850610Y-136827317D01*
X205850610Y-136766599D01*
X205820251Y-136675522D01*
X205759533Y-136614804D01*
X205698815Y-136584445D01*
X205577379Y-136554086D01*
X205486302Y-136554086D01*
X205364866Y-136584445D01*
X205304148Y-136614804D01*
X205243430Y-136675522D01*
X205213070Y-136766599D01*
X205213070Y-136827317D01*
X205243430Y-136918395D01*
X205273789Y-136948754D01*
X205425584Y-137495216D02*
X205850610Y-137495216D01*
X205182711Y-137343421D02*
X205638097Y-137191626D01*
X205638097Y-137586294D01*
D18*
X231942800Y-147399800D02*
X231942800Y-114399800D01*
X233942800Y-149399800D02*
X253142800Y-149399800D01*
X255142800Y-147399800D02*
X255142800Y-114399800D01*
X233942800Y-112399800D02*
X253142800Y-112399800D01*
X231942800Y-147399800D02*
G75*
G03*
X233942800Y-149399800I1999999J-1D01*
G01*
X255142800Y-114399800D02*
G75*
G03*
X253142800Y-112399800I-2000000J0D01*
G01*
X233942800Y-112399800D02*
G75*
G03*
X231942800Y-114399800I0J-2000000D01*
G01*
X253142800Y-149399800D02*
G75*
G03*
X255142800Y-147399800I1J1999999D01*
G01*
D19*
X206372200Y-124497800D02*
X212372200Y-124497800D01*
X212372200Y-124497800D02*
X212372200Y-113997800D01*
X212372200Y-113997800D02*
X211872200Y-113997800D01*
X206872200Y-110497800D02*
X206872200Y-113997800D01*
X211872200Y-113997800D02*
X211872200Y-110497800D01*
X206372200Y-113997800D02*
X206372200Y-124497800D01*
X211872200Y-110497800D02*
X206872200Y-110497800D01*
X211872200Y-113997800D02*
X206872200Y-113997800D01*
X206872200Y-113997800D02*
X206372200Y-113997800D01*
D18*
X101800200Y-127027800D02*
X99140200Y-127027800D01*
X101800200Y-127027800D02*
X101800200Y-170267800D01*
X100470200Y-124427800D02*
X99140200Y-124427800D01*
X99140200Y-127027800D02*
X99140200Y-170267800D01*
X101800200Y-170267800D02*
X99140200Y-170267800D01*
X99140200Y-124427800D02*
X99140200Y-125757800D01*
X83206200Y-156096200D02*
X83206200Y-155176200D01*
X87166200Y-156936200D02*
X87166200Y-155936200D01*
X84806200Y-164376200D02*
X84806200Y-164096200D01*
X87166200Y-164536200D02*
X88766200Y-164536200D01*
X87166200Y-163536200D02*
X87166200Y-164536200D01*
X83206200Y-164376200D02*
X84806200Y-164376200D01*
X91026200Y-165296200D02*
X83206200Y-165296200D01*
X86666200Y-162736200D02*
X91026200Y-162736200D01*
X88766200Y-156436200D02*
X91026200Y-156436200D01*
X91026200Y-155176200D02*
X91026200Y-165296200D01*
X83206200Y-165296200D02*
X83206200Y-164376200D01*
X84806200Y-165296200D02*
X84806200Y-164376200D01*
X88766200Y-156936200D02*
X87166200Y-156936200D01*
X88766200Y-164536200D02*
X88766200Y-163536200D01*
X91026200Y-157736200D02*
X86666200Y-157736200D01*
X87166200Y-155936200D02*
X88766200Y-155936200D01*
X83206200Y-155176200D02*
X91026200Y-155176200D01*
X86666200Y-157736200D02*
X86666200Y-162736200D01*
X88766200Y-155936200D02*
X88766200Y-156936200D01*
X84806200Y-155176200D02*
X84806200Y-156096200D01*
X84806200Y-156376200D02*
X84806200Y-156096200D01*
X88766200Y-156936200D02*
X91026200Y-156936200D01*
X88766200Y-163536200D02*
X87166200Y-163536200D01*
X84806200Y-156096200D02*
X83206200Y-156096200D01*
X84806200Y-156376200D02*
X83591200Y-156376200D01*
D20*
X207691200Y-138243600D02*
X214863200Y-138243600D01*
X207691200Y-138243600D02*
X207691200Y-142352000D01*
D21*
X215091800Y-142580600D02*
X215091800Y-138015000D01*
D20*
X214863200Y-142352000D02*
X207691200Y-142352000D01*
D21*
X207462600Y-138015000D02*
X207462600Y-142580600D01*
X207462600Y-138015000D02*
X215091800Y-138015000D01*
D20*
X214863200Y-142352000D02*
X214863200Y-138243600D01*
D21*
X215091800Y-142580600D02*
X207462600Y-142580600D01*
X214660000Y-141517000D02*
G75*
G03*
X214660000Y-141517000I-457200J0D01*
G01*
D22*
X225449700Y-141697800D02*
X226949700Y-141697800D01*
X226949700Y-138897800D02*
X225449700Y-138897800D01*
D23*
X226670500Y-139281800D02*
G75*
G03*
X226670500Y-139281800I-89800J0D01*
G01*
D19*
X219572200Y-110497800D02*
X219572200Y-113997800D01*
X219072200Y-124497800D02*
X225072200Y-124497800D01*
X219572200Y-113997800D02*
X219072200Y-113997800D01*
X219072200Y-113997800D02*
X219072200Y-124497800D01*
X224572200Y-113997800D02*
X219572200Y-113997800D01*
X224572200Y-113997800D02*
X224572200Y-110497800D01*
X225072200Y-124497800D02*
X225072200Y-113997800D01*
X224572200Y-110497800D02*
X219572200Y-110497800D01*
X225072200Y-113997800D02*
X224572200Y-113997800D01*
D24*
X56741200Y-167667800D02*
X57376200Y-167032800D01*
X55471200Y-162587800D02*
X54836200Y-163222800D01*
X62126000Y-146738200D02*
X63396000Y-146738200D01*
X80541000Y-152961200D02*
X79906000Y-152326200D01*
X76790500Y-158823400D02*
X77431700Y-158823400D01*
X54836200Y-155602800D02*
X54836200Y-156872800D01*
X72916200Y-173924400D02*
X71147800Y-173924400D01*
X79831100Y-157162200D02*
X79078700Y-157162200D01*
X78966700Y-161086700D02*
X78771800Y-160891800D01*
X57376200Y-167032800D02*
X57376200Y-165762800D01*
X68476000Y-144198200D02*
X67206000Y-144198200D01*
X78636000Y-168074200D02*
X79906000Y-168074200D01*
X80853100Y-157262200D02*
X80853100Y-164662200D01*
X78636000Y-149786200D02*
X78001000Y-150421200D01*
X77450500Y-157812200D02*
X77939700Y-157812200D01*
X54836200Y-156872800D02*
X55471200Y-157507800D01*
X54760000Y-176583200D02*
X54760000Y-146103200D01*
X56741200Y-157507800D02*
X57376200Y-158142800D01*
X81553100Y-157962200D02*
X81953100Y-157962200D01*
X65936000Y-144198200D02*
X64666000Y-144198200D01*
X82743000Y-174425200D02*
X82743000Y-165425200D01*
X57376200Y-155602800D02*
X56741200Y-154967800D01*
X77439900Y-158145600D02*
X76787900Y-158145600D01*
X54836200Y-161952800D02*
X55471200Y-162587800D01*
X80541000Y-171249200D02*
X79906000Y-170614200D01*
X56741200Y-165127800D02*
X57376200Y-165762800D01*
X78001000Y-151691200D02*
X78636000Y-152326200D01*
X54836200Y-150522800D02*
X55471200Y-149887800D01*
X72286000Y-146738200D02*
X73556000Y-146738200D01*
X54836200Y-160682800D02*
X54836200Y-161952800D01*
X55471200Y-154967800D02*
X54836200Y-155602800D01*
X56741200Y-152427800D02*
X57376200Y-151792800D01*
X79078700Y-157762200D02*
X79831100Y-157762200D01*
X79906000Y-152326200D02*
X80541000Y-151691200D01*
X82203100Y-158162200D02*
X82203100Y-163712200D01*
X54836200Y-164492800D02*
X55471200Y-165127800D01*
X63396000Y-146738200D02*
X64031000Y-146103200D01*
X54836200Y-163222800D02*
X54836200Y-164492800D01*
X78576900Y-162840800D02*
X78382000Y-162645900D01*
X57376200Y-161952800D02*
X57376200Y-160682800D01*
X74191000Y-146103200D02*
X73556000Y-146738200D01*
X55471200Y-160047800D02*
X54836200Y-160682800D01*
X78001000Y-169979200D02*
X78636000Y-170614200D01*
X57376200Y-164492800D02*
X57376200Y-163222800D01*
X78382000Y-161086700D02*
X78382000Y-161476500D01*
X81553100Y-157262200D02*
X81553100Y-157962200D01*
X80541000Y-169979200D02*
X80541000Y-168709200D01*
X57376200Y-163222800D02*
X56741200Y-162587800D01*
X73556000Y-144198200D02*
X74191000Y-144833200D01*
X71651000Y-146103200D02*
X72286000Y-146738200D01*
X55471200Y-152427800D02*
X54836200Y-153062800D01*
X80541000Y-172519200D02*
X80541000Y-171249200D01*
X64666000Y-144198200D02*
X64031000Y-144833200D01*
X78001000Y-152961200D02*
X78001000Y-154231200D01*
X78771800Y-160891800D02*
X78576900Y-160891800D01*
X61491000Y-144833200D02*
X62126000Y-144198200D01*
X81553100Y-157262200D02*
X82153100Y-156962200D01*
X78576900Y-159722400D02*
X78382000Y-159917300D01*
X78382000Y-160502000D02*
X79551400Y-160502000D01*
X54836200Y-165762800D02*
X54836200Y-167032800D01*
X82003100Y-163962200D02*
X81553100Y-163962200D01*
X69448400Y-170594000D02*
X69448400Y-168825600D01*
X66571000Y-144833200D02*
X65936000Y-144198200D01*
X62126000Y-146738200D02*
X61491000Y-146103200D01*
X79906000Y-173154200D02*
X78636000Y-173154200D01*
X79940442Y-164237784D02*
X78924442Y-164237784D01*
X79906000Y-170614200D02*
X80541000Y-169979200D01*
X66571000Y-144833200D02*
X67206000Y-144198200D01*
X75442800Y-170619400D02*
X75442800Y-168851000D01*
X54836200Y-151792800D02*
X55471200Y-152427800D01*
X68476000Y-146738200D02*
X69111000Y-146103200D01*
X78001000Y-150421200D02*
X78001000Y-151691200D01*
X77438300Y-163131000D02*
X76797100Y-163131000D01*
X80541000Y-172519200D02*
X79906000Y-173154200D01*
X78966700Y-160502000D02*
X78966700Y-159917300D01*
X79356500Y-161671400D02*
X79161600Y-161671400D01*
X78636000Y-154866200D02*
X78001000Y-154231200D01*
X57376200Y-159412800D02*
X57376200Y-158142800D01*
X80541000Y-150421200D02*
X79906000Y-149786200D01*
X77955700Y-157262200D02*
X77955700Y-157812400D01*
X54836200Y-167032800D02*
X55471200Y-167667800D01*
X56741200Y-167667800D02*
X55471200Y-167667800D01*
X74441200Y-168831000D02*
X74441200Y-170639400D01*
X79906000Y-154866200D02*
X78636000Y-154866200D01*
X78771800Y-159722400D02*
X78576900Y-159722400D01*
X79551400Y-162840800D02*
X78576900Y-162840800D01*
X56741200Y-149887800D02*
X57376200Y-150522800D01*
X65936000Y-146738200D02*
X66571000Y-146103200D01*
X72286000Y-144198200D02*
X71651000Y-144833200D01*
X69111000Y-144833200D02*
X68476000Y-144198200D01*
X78966700Y-161476500D02*
X78966700Y-161086700D01*
X71127800Y-174926000D02*
X72936200Y-174926000D01*
X78001000Y-168709200D02*
X78001000Y-169979200D01*
X79551400Y-161086700D02*
X79551400Y-161476500D01*
X54836200Y-158142800D02*
X55471200Y-157507800D01*
X78966700Y-159917300D02*
X78771800Y-159722400D01*
X55471200Y-149887800D02*
X56741200Y-149887800D01*
X78636000Y-152326200D02*
X78001000Y-152961200D01*
X54836200Y-153062800D02*
X54836200Y-154332800D01*
X64031000Y-144833200D02*
X63396000Y-144198200D01*
X64031000Y-146103200D02*
X64666000Y-146738200D01*
X68446800Y-168805600D02*
X68446800Y-170614000D01*
X79356500Y-159722400D02*
X79161600Y-159722400D01*
X77428300Y-163801000D02*
X76797100Y-163801000D01*
X71016000Y-144198200D02*
X69746000Y-144198200D01*
X79161600Y-161671400D02*
X78966700Y-161476500D01*
X79551400Y-161476500D02*
X79356500Y-161671400D01*
X74191000Y-144833200D02*
X74191000Y-146103200D01*
X63396000Y-144198200D02*
X62126000Y-144198200D01*
X78890000Y-178488200D02*
X56665000Y-178488200D01*
X78636000Y-173154200D02*
X78001000Y-172519200D01*
X69746000Y-146738200D02*
X71016000Y-146738200D01*
X79551400Y-159917300D02*
X79356500Y-159722400D01*
X79831100Y-164162200D02*
X79078700Y-164162200D01*
X76456300Y-158318000D02*
X76456300Y-158616400D01*
X61491000Y-146103200D02*
X61491000Y-144833200D01*
X78576900Y-160891800D02*
X78382000Y-161086700D01*
X54836200Y-154332800D02*
X55471200Y-154967800D01*
X78576900Y-162061200D02*
X79551400Y-162061200D01*
X69746000Y-144198200D02*
X69111000Y-144833200D01*
X67206000Y-146738200D02*
X66571000Y-146103200D01*
X78382000Y-162256100D02*
X78576900Y-162061200D01*
X80541000Y-154231200D02*
X79906000Y-154866200D01*
X77056300Y-163616400D02*
X77056300Y-163318000D01*
X78382000Y-159917300D02*
X78382000Y-160502000D01*
X80795000Y-146103200D02*
X80795000Y-176583200D01*
X77056300Y-158616400D02*
X77056300Y-158318000D01*
X80541000Y-151691200D02*
X80541000Y-150421200D01*
X73556000Y-144198200D02*
X72286000Y-144198200D01*
X76456300Y-163318000D02*
X76456300Y-163616400D01*
X79551400Y-160502000D02*
X79551400Y-159917300D01*
X80541000Y-154231200D02*
X80541000Y-152961200D01*
X56741200Y-160047800D02*
X57376200Y-159412800D01*
X78382000Y-161476500D02*
X78576900Y-161671400D01*
X71016000Y-146738200D02*
X71651000Y-146103200D01*
X56741200Y-157507800D02*
X57376200Y-156872800D01*
X78636000Y-149786200D02*
X79906000Y-149786200D01*
X54836200Y-150522800D02*
X54836200Y-151792800D01*
X81553100Y-164662200D02*
X82153100Y-164962200D01*
X80541000Y-168709200D02*
X79906000Y-168074200D01*
X77955700Y-164662200D02*
X80853100Y-164662200D01*
X81553100Y-163962200D02*
X81553100Y-164662200D01*
X77955700Y-164662200D02*
X77955700Y-164092000D01*
X79356500Y-160891800D02*
X79551400Y-161086700D01*
X57376200Y-153062800D02*
X56741200Y-152427800D01*
X71651000Y-144833200D02*
X71016000Y-144198200D01*
X54836200Y-158142800D02*
X54836200Y-159412800D01*
X54836200Y-165762800D02*
X55471200Y-165127800D01*
X76791900Y-163134200D02*
X76791900Y-163796200D01*
X78001000Y-171249200D02*
X78001000Y-172519200D01*
X82743000Y-165425200D02*
X68932000Y-165425200D01*
X80853100Y-164662200D02*
X81553100Y-164662200D01*
X57376200Y-156872800D02*
X57376200Y-155602800D01*
X57376200Y-154332800D02*
X57376200Y-153062800D01*
X76787300Y-158146200D02*
X76787300Y-158808200D01*
X57376200Y-151792800D02*
X57376200Y-150522800D01*
X78890000Y-144198200D02*
X56665000Y-144198200D01*
X77445100Y-157813600D02*
X77445100Y-164080800D01*
X68932000Y-174425200D02*
X82743000Y-174425200D01*
X57376200Y-160682800D02*
X56741200Y-160047800D01*
X80853100Y-157262200D02*
X77955700Y-157262200D01*
X77445100Y-164086000D02*
X77955100Y-164086000D01*
X69111000Y-146103200D02*
X69746000Y-146738200D01*
X56741200Y-165127800D02*
X57376200Y-164492800D01*
X78636000Y-170614200D02*
X78001000Y-171249200D01*
X56741200Y-154967800D02*
X57376200Y-154332800D01*
X79161600Y-159722400D02*
X78966700Y-159917300D01*
X81553100Y-157262200D02*
X80853100Y-157262200D01*
X68932000Y-165425200D02*
X68932000Y-174425200D01*
X78382000Y-162645900D02*
X78382000Y-162256100D01*
X78636000Y-168074200D02*
X78001000Y-168709200D01*
X67206000Y-146738200D02*
X68476000Y-146738200D01*
X56741200Y-162587800D02*
X57376200Y-161952800D01*
X79078700Y-164762200D02*
X79831100Y-164762200D01*
X54836200Y-159412800D02*
X55471200Y-160047800D01*
X64666000Y-146738200D02*
X65936000Y-146738200D01*
X78636000Y-173103400D02*
G75*
G03*
X78636000Y-173205000I0J-50800D01*
G01*
X67206000Y-144147400D02*
G75*
G03*
X67206000Y-144249000I0J-50800D01*
G01*
X57325400Y-167032800D02*
G75*
G03*
X57427000Y-167032800I50800J0D01*
G01*
X54800300Y-150486900D02*
G75*
G03*
X54872100Y-150558700I35900J-35900D01*
G01*
X78051800Y-150421200D02*
G75*
G03*
X77950200Y-150421200I-50800J0D01*
G01*
X72321900Y-144234100D02*
G75*
G03*
X72250100Y-144162300I-35900J35900D01*
G01*
X54800300Y-160646900D02*
G75*
G03*
X54872100Y-160718700I35900J-35900D01*
G01*
X77987400Y-157262200D02*
G75*
G03*
X77923900Y-157262200I-31750J0D01*
G01*
X78051800Y-171249200D02*
G75*
G03*
X77950200Y-171249200I-50800J0D01*
G01*
X57325400Y-154332800D02*
G75*
G03*
X57427000Y-154332800I50800J0D01*
G01*
X74155100Y-144869100D02*
G75*
G03*
X74226900Y-144797300I35900J35900D01*
G01*
X71686900Y-146139100D02*
G75*
G03*
X71615100Y-146067300I-35900J35900D01*
G01*
X79906000Y-168125000D02*
G75*
G03*
X79906000Y-168023400I0J50800D01*
G01*
X80795000Y-146103200D02*
G75*
G03*
X78890000Y-144198200I-1905001J-1D01*
G01*
X56777100Y-154931900D02*
G75*
G03*
X56705300Y-155003700I-35900J-35900D01*
G01*
X80884800Y-157262200D02*
G75*
G03*
X80821300Y-157262200I-31750J0D01*
G01*
X80576900Y-170015100D02*
G75*
G03*
X80505100Y-169943300I-35900J35900D01*
G01*
X78636000Y-168023400D02*
G75*
G03*
X78636000Y-168125000I0J-50800D01*
G01*
X78364000Y-161068700D02*
G75*
G03*
X78400000Y-161104700I18000J-18000D01*
G01*
X78576900Y-162035800D02*
G75*
G03*
X78576900Y-162086600I0J-25400D01*
G01*
X69146900Y-146139100D02*
G75*
G03*
X69075100Y-146067300I-35900J35900D01*
G01*
X81584800Y-163962200D02*
G75*
G03*
X81521300Y-163962200I-31750J0D01*
G01*
X80490200Y-169979200D02*
G75*
G03*
X80591800Y-169979200I50800J0D01*
G01*
X57427000Y-158142800D02*
G75*
G03*
X57325400Y-158142800I-50800J0D01*
G01*
X57340300Y-153098700D02*
G75*
G03*
X57412100Y-153026900I35900J35900D01*
G01*
X77965100Y-168673300D02*
G75*
G03*
X78036900Y-168745100I35900J-35900D01*
G01*
X57412100Y-159448700D02*
G75*
G03*
X57340300Y-159376900I-35900J35900D01*
G01*
X69075100Y-144797300D02*
G75*
G03*
X69146900Y-144869100I35900J-35900D01*
G01*
X79941900Y-170578300D02*
G75*
G03*
X79870100Y-170650100I-35900J-35900D01*
G01*
X78992100Y-161086700D02*
G75*
G03*
X78941300Y-161086700I-25400J0D01*
G01*
X76797100Y-163769300D02*
G75*
G03*
X76797100Y-163832800I-50J-31750D01*
G01*
X80490200Y-172519200D02*
G75*
G03*
X80591800Y-172519200I50800J0D01*
G01*
X69075100Y-144869100D02*
G75*
G03*
X69146900Y-144797300I35900J35900D01*
G01*
X79526000Y-161476500D02*
G75*
G03*
X79576800Y-161476500I25400J0D01*
G01*
X69746000Y-144147400D02*
G75*
G03*
X69746000Y-144249000I0J-50800D01*
G01*
X77923900Y-164662200D02*
G75*
G03*
X77987400Y-164662200I31750J0D01*
G01*
X80853100Y-164694000D02*
G75*
G03*
X80853100Y-164630500I0J31750D01*
G01*
X57427000Y-163222800D02*
G75*
G03*
X57325400Y-163222800I-50800J0D01*
G01*
X63396000Y-144249000D02*
G75*
G03*
X63396000Y-144147400I0J50800D01*
G01*
X78671900Y-168110100D02*
G75*
G03*
X78600100Y-168038300I-35900J35900D01*
G01*
X81575800Y-164616800D02*
G75*
G03*
X81530400Y-164707600I-22700J-45400D01*
G01*
X78789800Y-160873800D02*
G75*
G03*
X78753800Y-160909800I-18000J-18000D01*
G01*
X67170100Y-146774100D02*
G75*
G03*
X67241900Y-146702300I35900J35900D01*
G01*
X78671900Y-152362100D02*
G75*
G03*
X78600100Y-152290300I-35900J35900D01*
G01*
X78789800Y-159704500D02*
G75*
G03*
X78753800Y-159740400I-18000J-17950D01*
G01*
X69146900Y-146067300D02*
G75*
G03*
X69075100Y-146139100I-35900J-35900D01*
G01*
X61541800Y-144833200D02*
G75*
G03*
X61440200Y-144833200I-50800J0D01*
G01*
X74241800Y-144833200D02*
G75*
G03*
X74140200Y-144833200I-50800J0D01*
G01*
X82130400Y-165007600D02*
G75*
G03*
X82175800Y-164916800I22700J45400D01*
G01*
X76756300Y-163018000D02*
G75*
G03*
X76456300Y-163318000I0J-300000D01*
G01*
X78594900Y-160909800D02*
G75*
G03*
X78558900Y-160873800I-18000J18000D01*
G01*
X73556000Y-146789000D02*
G75*
G03*
X73556000Y-146687400I0J50800D01*
G01*
X57427000Y-160682800D02*
G75*
G03*
X57325400Y-160682800I-50800J0D01*
G01*
X78984700Y-161458500D02*
G75*
G03*
X78948700Y-161494500I-18000J-18000D01*
G01*
X79533400Y-159935300D02*
G75*
G03*
X79569400Y-159899400I18000J17950D01*
G01*
X78036900Y-154195300D02*
G75*
G03*
X77965100Y-154267100I-35900J-35900D01*
G01*
X79551400Y-162866200D02*
G75*
G03*
X79551400Y-162815400I0J25400D01*
G01*
X55507100Y-165163700D02*
G75*
G03*
X55435300Y-165091900I-35900J35900D01*
G01*
X82234800Y-158162200D02*
G75*
G03*
X82171300Y-158162200I-31750J0D01*
G01*
X63431900Y-144162300D02*
G75*
G03*
X63360100Y-144234100I-35900J-35900D01*
G01*
X68446767Y-170614003D02*
G75*
G03*
X68937603Y-171014834I445834J45004D01*
G01*
X56705300Y-157471900D02*
G75*
G03*
X56777100Y-157543700I35900J-35900D01*
G01*
X72936203Y-174926033D02*
G75*
G03*
X73337034Y-174435197I-45004J445834D01*
G01*
X81951100Y-157930500D02*
G75*
G03*
X81955100Y-157993900I2000J-31700D01*
G01*
X80081066Y-164462197D02*
G75*
G03*
X79831097Y-164162234I-274965J24998D01*
G01*
X82171700Y-158167200D02*
G75*
G03*
X82234400Y-158157200I31350J5000D01*
G01*
X54785400Y-161952800D02*
G75*
G03*
X54887000Y-161952800I50800J0D01*
G01*
X78558900Y-162858800D02*
G75*
G03*
X78594900Y-162822800I18000J18000D01*
G01*
X78364000Y-159899400D02*
G75*
G03*
X78400000Y-159935300I17950J-18000D01*
G01*
X78771800Y-159747800D02*
G75*
G03*
X78771800Y-159697000I0J25400D01*
G01*
X57427000Y-165762800D02*
G75*
G03*
X57325400Y-165762800I-50800J0D01*
G01*
X80853100Y-157294000D02*
G75*
G03*
X80853100Y-157230500I0J31750D01*
G01*
X80576900Y-151727100D02*
G75*
G03*
X80505100Y-151655300I-35900J35900D01*
G01*
X82203099Y-158162200D02*
G75*
G03*
X81953100Y-157962200I-235002J-37503D01*
G01*
X55507100Y-149923700D02*
G75*
G03*
X55435300Y-149851900I-35900J35900D01*
G01*
X57325400Y-151792800D02*
G75*
G03*
X57427000Y-151792800I50800J0D01*
G01*
X81553100Y-164694000D02*
G75*
G03*
X81553100Y-164630500I0J31750D01*
G01*
X80490200Y-154231200D02*
G75*
G03*
X80591800Y-154231200I50800J0D01*
G01*
X68900200Y-174425200D02*
G75*
G03*
X68963700Y-174425200I31750J0D01*
G01*
X54872100Y-156836900D02*
G75*
G03*
X54800300Y-156908700I-35900J-35900D01*
G01*
X79569400Y-161494500D02*
G75*
G03*
X79533400Y-161458500I-18000J18000D01*
G01*
X69448394Y-168825601D02*
G75*
G03*
X68937601Y-168424806I-455794J-54999D01*
G01*
X81553100Y-157294000D02*
G75*
G03*
X81553100Y-157230500I0J31750D01*
G01*
X78364000Y-162238100D02*
G75*
G03*
X78400000Y-162274100I18000J-18000D01*
G01*
X72286000Y-144147400D02*
G75*
G03*
X72286000Y-144249000I0J-50800D01*
G01*
X55507100Y-157543700D02*
G75*
G03*
X55435300Y-157471900I-35900J35900D01*
G01*
X68476000Y-146789000D02*
G75*
G03*
X68476000Y-146687400I0J50800D01*
G01*
X78594900Y-162079200D02*
G75*
G03*
X78558900Y-162043200I-18000J18000D01*
G01*
X56705300Y-162551900D02*
G75*
G03*
X56777100Y-162623700I35900J-35900D01*
G01*
X61440200Y-146103200D02*
G75*
G03*
X61541800Y-146103200I50800J0D01*
G01*
X71016000Y-144249000D02*
G75*
G03*
X71016000Y-144147400I0J50800D01*
G01*
X57340300Y-163258700D02*
G75*
G03*
X57412100Y-163186900I35900J35900D01*
G01*
X80853100Y-157230500D02*
G75*
G03*
X80853100Y-157294000I0J-31750D01*
G01*
X79356500Y-159747800D02*
G75*
G03*
X79356500Y-159697000I0J25400D01*
G01*
X63995100Y-144797300D02*
G75*
G03*
X64066900Y-144869100I35900J-35900D01*
G01*
X79161600Y-159697000D02*
G75*
G03*
X79161600Y-159747800I0J-25400D01*
G01*
X57340300Y-160718700D02*
G75*
G03*
X57412100Y-160646900I35900J35900D01*
G01*
X54800300Y-158106900D02*
G75*
G03*
X54872100Y-158178700I35900J-35900D01*
G01*
X56741200Y-149938600D02*
G75*
G03*
X56741200Y-149837000I0J50800D01*
G01*
X79870100Y-170578300D02*
G75*
G03*
X79941900Y-170650100I35900J-35900D01*
G01*
X65936000Y-146789000D02*
G75*
G03*
X65936000Y-146687400I0J50800D01*
G01*
X78051800Y-168709200D02*
G75*
G03*
X77950200Y-168709200I-50800J0D01*
G01*
X80591800Y-171249200D02*
G75*
G03*
X80490200Y-171249200I-50800J0D01*
G01*
X54872100Y-151756900D02*
G75*
G03*
X54800300Y-151828700I-35900J-35900D01*
G01*
X78636000Y-154815400D02*
G75*
G03*
X78636000Y-154917000I0J-50800D01*
G01*
X74441167Y-170639403D02*
G75*
G03*
X74932003Y-171040234I445834J45004D01*
G01*
X79906000Y-154917000D02*
G75*
G03*
X79906000Y-154815400I0J50800D01*
G01*
X78636000Y-149735400D02*
G75*
G03*
X78636000Y-149837000I0J-50800D01*
G01*
X54785400Y-159412800D02*
G75*
G03*
X54887000Y-159412800I50800J0D01*
G01*
X77445100Y-164054300D02*
G75*
G03*
X77445100Y-164117800I-50J-31750D01*
G01*
X56705300Y-167631900D02*
G75*
G03*
X56777100Y-167703700I35900J-35900D01*
G01*
X56777100Y-162551900D02*
G75*
G03*
X56705300Y-162623700I-35900J-35900D01*
G01*
X78671900Y-149822100D02*
G75*
G03*
X78600100Y-149750300I-35900J35900D01*
G01*
X55435300Y-160083700D02*
G75*
G03*
X55507100Y-160011900I35900J35900D01*
G01*
X79374500Y-159704500D02*
G75*
G03*
X79338500Y-159740400I-18000J-17950D01*
G01*
X72286000Y-146687400D02*
G75*
G03*
X72286000Y-146789000I0J-50800D01*
G01*
X57427000Y-150522800D02*
G75*
G03*
X57325400Y-150522800I-50800J0D01*
G01*
X79941900Y-168038300D02*
G75*
G03*
X79870100Y-168110100I-35900J-35900D01*
G01*
X82234800Y-163710200D02*
G75*
G03*
X82171400Y-163714200I-31700J-2000D01*
G01*
X54800300Y-153026900D02*
G75*
G03*
X54872100Y-153098700I35900J-35900D01*
G01*
X64666000Y-146687400D02*
G75*
G03*
X64666000Y-146789000I0J-50800D01*
G01*
X79179600Y-159740400D02*
G75*
G03*
X79143600Y-159704500I-17950J18000D01*
G01*
X66606900Y-146139100D02*
G75*
G03*
X66535100Y-146067300I-35900J35900D01*
G01*
X54887000Y-150522800D02*
G75*
G03*
X54785400Y-150522800I-50800J0D01*
G01*
X69710100Y-146774100D02*
G75*
G03*
X69781900Y-146702300I35900J35900D01*
G01*
X56705300Y-165091900D02*
G75*
G03*
X56777100Y-165163700I35900J-35900D01*
G01*
X57427000Y-155602800D02*
G75*
G03*
X57325400Y-155602800I-50800J0D01*
G01*
X64701900Y-144234100D02*
G75*
G03*
X64630100Y-144162300I-35900J35900D01*
G01*
X71147801Y-173924406D02*
G75*
G03*
X70747006Y-174435199I54999J-455794D01*
G01*
X68932000Y-174393400D02*
G75*
G03*
X68932000Y-174456900I-50J-31750D01*
G01*
X67206000Y-146687400D02*
G75*
G03*
X67206000Y-146789000I0J-50800D01*
G01*
X56665000Y-144198200D02*
G75*
G03*
X54760000Y-146103200I0J-1905000D01*
G01*
X77955100Y-164117800D02*
G75*
G03*
X77955100Y-164054300I-50J31750D01*
G01*
X78356600Y-162645900D02*
G75*
G03*
X78407400Y-162645900I25400J0D01*
G01*
X54785400Y-167032800D02*
G75*
G03*
X54887000Y-167032800I50800J0D01*
G01*
X54785400Y-151792800D02*
G75*
G03*
X54887000Y-151792800I50800J0D01*
G01*
X64066900Y-146067300D02*
G75*
G03*
X63995100Y-146139100I-35900J-35900D01*
G01*
X78771800Y-160917200D02*
G75*
G03*
X78771800Y-160866400I0J25400D01*
G01*
X78576900Y-162815400D02*
G75*
G03*
X78576900Y-162866200I0J-25400D01*
G01*
X80505100Y-171285100D02*
G75*
G03*
X80576900Y-171213300I35900J35900D01*
G01*
X55471200Y-149837000D02*
G75*
G03*
X55471200Y-149938600I0J-50800D01*
G01*
X57325400Y-159412800D02*
G75*
G03*
X57427000Y-159412800I50800J0D01*
G01*
X79551400Y-160527400D02*
G75*
G03*
X79551400Y-160476600I0J25400D01*
G01*
X79941900Y-152290300D02*
G75*
G03*
X79870100Y-152362100I-35900J-35900D01*
G01*
X82003100Y-163994000D02*
G75*
G03*
X82003100Y-163930500I0J31750D01*
G01*
X76456300Y-158616400D02*
G75*
G03*
X76756300Y-158916400I300000J0D01*
G01*
X82175800Y-157007600D02*
G75*
G03*
X82130400Y-156916800I-22700J45400D01*
G01*
X68932000Y-165393400D02*
G75*
G03*
X68932000Y-165457000I0J-31800D01*
G01*
X79870100Y-173118300D02*
G75*
G03*
X79941900Y-173190100I35900J-35900D01*
G01*
X68963700Y-165425200D02*
G75*
G03*
X68900200Y-165425200I-31750J0D01*
G01*
X78356600Y-160502000D02*
G75*
G03*
X78407400Y-160502000I25400J0D01*
G01*
X77950200Y-154231200D02*
G75*
G03*
X78051800Y-154231200I50800J0D01*
G01*
X82743000Y-165457000D02*
G75*
G03*
X82743000Y-165393400I0J31800D01*
G01*
X66535100Y-144869100D02*
G75*
G03*
X66606900Y-144797300I35900J35900D01*
G01*
X78600100Y-173190100D02*
G75*
G03*
X78671900Y-173118300I35900J35900D01*
G01*
X54887000Y-158142800D02*
G75*
G03*
X54785400Y-158142800I-50800J0D01*
G01*
X57325400Y-164492800D02*
G75*
G03*
X57427000Y-164492800I50800J0D01*
G01*
X66535100Y-144797300D02*
G75*
G03*
X66606900Y-144869100I35900J-35900D01*
G01*
X55435300Y-167703700D02*
G75*
G03*
X55507100Y-167631900I35900J35900D01*
G01*
X80505100Y-152997100D02*
G75*
G03*
X80576900Y-152925300I35900J35900D01*
G01*
X76756300Y-163916400D02*
G75*
G03*
X77056300Y-163616400I0J300000D01*
G01*
X57340300Y-155638700D02*
G75*
G03*
X57412100Y-155566900I35900J35900D01*
G01*
X57340300Y-150558700D02*
G75*
G03*
X57412100Y-150486900I35900J35900D01*
G01*
X64630100Y-146774100D02*
G75*
G03*
X64701900Y-146702300I35900J35900D01*
G01*
X79906000Y-173205000D02*
G75*
G03*
X79906000Y-173103400I0J50800D01*
G01*
X68937597Y-171014831D02*
G75*
G03*
X69448431Y-170594003I45002J465832D01*
G01*
X57412100Y-151828700D02*
G75*
G03*
X57340300Y-151756900I-35900J35900D01*
G01*
X65936000Y-144249000D02*
G75*
G03*
X65936000Y-144147400I0J50800D01*
G01*
X76797100Y-163099300D02*
G75*
G03*
X76797100Y-163162800I-50J-31750D01*
G01*
X78948700Y-159899400D02*
G75*
G03*
X78984700Y-159935300I11607J-24361D01*
G01*
X77955700Y-164630500D02*
G75*
G03*
X77955700Y-164694000I-50J-31750D01*
G01*
X65900100Y-146702300D02*
G75*
G03*
X65971900Y-146774100I35900J-35900D01*
G01*
X74931997Y-171040231D02*
G75*
G03*
X75442831Y-170619403I45002J465832D01*
G01*
X71615100Y-144797300D02*
G75*
G03*
X71686900Y-144869100I35900J-35900D01*
G01*
X80853100Y-164630500D02*
G75*
G03*
X80853100Y-164694000I0J-31750D01*
G01*
X57412100Y-167068700D02*
G75*
G03*
X57340300Y-166996900I-35900J35900D01*
G01*
X77965100Y-150385300D02*
G75*
G03*
X78036900Y-150457100I35900J-35900D01*
G01*
X54800300Y-165726900D02*
G75*
G03*
X54872100Y-165798700I35900J-35900D01*
G01*
X82743000Y-174456900D02*
G75*
G03*
X82743000Y-174393400I0J31750D01*
G01*
X54872100Y-166996900D02*
G75*
G03*
X54800300Y-167068700I-35900J-35900D01*
G01*
X78948700Y-161104700D02*
G75*
G03*
X78984700Y-161068700I18000J18000D01*
G01*
X56741200Y-167718600D02*
G75*
G03*
X56741200Y-167617000I0J50800D01*
G01*
X54887000Y-160682800D02*
G75*
G03*
X54785400Y-160682800I-50800J0D01*
G01*
X77950200Y-151691200D02*
G75*
G03*
X78051800Y-151691200I50800J0D01*
G01*
X62126000Y-144147400D02*
G75*
G03*
X62126000Y-144249000I0J-50800D01*
G01*
X79533400Y-161104700D02*
G75*
G03*
X79569400Y-161068700I18000J18000D01*
G01*
X77431700Y-158855200D02*
G75*
G03*
X77431700Y-158791700I-50J31750D01*
G01*
X54785400Y-164492800D02*
G75*
G03*
X54887000Y-164492800I50800J0D01*
G01*
X78941300Y-160502000D02*
G75*
G03*
X78992100Y-160502000I25400J0D01*
G01*
X77965100Y-171213300D02*
G75*
G03*
X78036900Y-171285100I35900J-35900D01*
G01*
X77965100Y-152925300D02*
G75*
G03*
X78036900Y-152997100I35900J-35900D01*
G01*
X79831097Y-157762166D02*
G75*
G03*
X80081066Y-157462203I-24996J274965D01*
G01*
X79576800Y-161086700D02*
G75*
G03*
X79526000Y-161086700I-25400J0D01*
G01*
X78828734Y-164462203D02*
G75*
G03*
X79078703Y-164762166I274965J-24998D01*
G01*
X76456300Y-163616400D02*
G75*
G03*
X76756300Y-163916400I300000J0D01*
G01*
X76756300Y-158018000D02*
G75*
G03*
X76456300Y-158318000I0J-300000D01*
G01*
X73337031Y-174435203D02*
G75*
G03*
X72916203Y-173924369I-465832J45002D01*
G01*
X78890000Y-178488200D02*
G75*
G03*
X80795000Y-176583200I-1J1905001D01*
G01*
X56777100Y-157471900D02*
G75*
G03*
X56705300Y-157543700I-35900J-35900D01*
G01*
X76755500Y-158808200D02*
G75*
G03*
X76819000Y-158808200I31750J0D01*
G01*
X63995100Y-144869100D02*
G75*
G03*
X64066900Y-144797300I35900J35900D01*
G01*
X73556000Y-144249000D02*
G75*
G03*
X73556000Y-144147400I0J50800D01*
G01*
X82003100Y-163962199D02*
G75*
G03*
X82203100Y-163712200I-37503J235002D01*
G01*
X57340300Y-165798700D02*
G75*
G03*
X57412100Y-165726900I35900J35900D01*
G01*
X57412100Y-154368700D02*
G75*
G03*
X57340300Y-154296900I-35900J35900D01*
G01*
X74226900Y-146139100D02*
G75*
G03*
X74155100Y-146067300I-35900J35900D01*
G01*
X78051800Y-152961200D02*
G75*
G03*
X77950200Y-152961200I-50800J0D01*
G01*
X79161600Y-161646000D02*
G75*
G03*
X79161600Y-161696800I0J-25400D01*
G01*
X80490200Y-151691200D02*
G75*
G03*
X80591800Y-151691200I50800J0D01*
G01*
X55435300Y-162623700D02*
G75*
G03*
X55507100Y-162551900I35900J35900D01*
G01*
X55507100Y-162623700D02*
G75*
G03*
X55435300Y-162551900I-35900J35900D01*
G01*
X78356600Y-161476500D02*
G75*
G03*
X78407400Y-161476500I25400J0D01*
G01*
X78036900Y-169943300D02*
G75*
G03*
X77965100Y-170015100I-35900J-35900D01*
G01*
X81553100Y-163930500D02*
G75*
G03*
X81553100Y-163994000I0J-31750D01*
G01*
X54785400Y-156872800D02*
G75*
G03*
X54887000Y-156872800I50800J0D01*
G01*
X77955700Y-157230500D02*
G75*
G03*
X77955700Y-157294000I-50J-31750D01*
G01*
X78036900Y-151655300D02*
G75*
G03*
X77965100Y-151727100I-35900J-35900D01*
G01*
X55507100Y-160083700D02*
G75*
G03*
X55435300Y-160011900I-35900J35900D01*
G01*
X80821300Y-164662200D02*
G75*
G03*
X80884800Y-164662200I31750J0D01*
G01*
X64066900Y-146139100D02*
G75*
G03*
X63995100Y-146067300I-35900J35900D01*
G01*
X54800300Y-155566900D02*
G75*
G03*
X54872100Y-155638700I35900J-35900D01*
G01*
X79831097Y-164762166D02*
G75*
G03*
X80081066Y-164462203I-24996J274965D01*
G01*
X54887000Y-155602800D02*
G75*
G03*
X54785400Y-155602800I-50800J0D01*
G01*
X54887000Y-153062800D02*
G75*
G03*
X54785400Y-153062800I-50800J0D01*
G01*
X81521300Y-157962200D02*
G75*
G03*
X81584800Y-157962200I31750J0D01*
G01*
X62090100Y-146774100D02*
G75*
G03*
X62161900Y-146702300I35900J35900D01*
G01*
X77950200Y-172519200D02*
G75*
G03*
X78051800Y-172519200I50800J0D01*
G01*
X55435300Y-165163700D02*
G75*
G03*
X55507100Y-165091900I35900J35900D01*
G01*
X77056300Y-158318000D02*
G75*
G03*
X76756300Y-158018000I-300000J0D01*
G01*
X54872100Y-154296900D02*
G75*
G03*
X54800300Y-154368700I-35900J-35900D01*
G01*
X79941900Y-149750300D02*
G75*
G03*
X79870100Y-149822100I-35900J-35900D01*
G01*
X78407400Y-159917300D02*
G75*
G03*
X78356600Y-159917300I-25400J0D01*
G01*
X81953100Y-157994000D02*
G75*
G03*
X81953100Y-157930500I0J31750D01*
G01*
X78382000Y-160476600D02*
G75*
G03*
X78382000Y-160527400I0J-25400D01*
G01*
X55507100Y-155003700D02*
G75*
G03*
X55435300Y-154931900I-35900J35900D01*
G01*
X79078703Y-164162234D02*
G75*
G03*
X78828734Y-164462197I24996J-274965D01*
G01*
X78600100Y-154902100D02*
G75*
G03*
X78671900Y-154830300I35900J35900D01*
G01*
X78600100Y-170650100D02*
G75*
G03*
X78671900Y-170578300I35900J35900D01*
G01*
X64666000Y-144147400D02*
G75*
G03*
X64666000Y-144249000I0J-50800D01*
G01*
X78941300Y-161476500D02*
G75*
G03*
X78992100Y-161476500I25400J0D01*
G01*
X63360100Y-146702300D02*
G75*
G03*
X63431900Y-146774100I35900J-35900D01*
G01*
X77923900Y-157812400D02*
G75*
G03*
X77987400Y-157812400I31750J0D01*
G01*
X78576900Y-159697000D02*
G75*
G03*
X78576900Y-159747800I0J-25400D01*
G01*
X54872100Y-159376900D02*
G75*
G03*
X54800300Y-159448700I-35900J-35900D01*
G01*
X78558900Y-161689400D02*
G75*
G03*
X78594900Y-161653400I18000J18000D01*
G01*
X67241900Y-144234100D02*
G75*
G03*
X67170100Y-144162300I-35900J35900D01*
G01*
X78400000Y-161458500D02*
G75*
G03*
X78364000Y-161494500I-18000J-18000D01*
G01*
X80591800Y-152961200D02*
G75*
G03*
X80490200Y-152961200I-50800J0D01*
G01*
X77438300Y-163162800D02*
G75*
G03*
X77438300Y-163099300I-50J31750D01*
G01*
X82711300Y-174425200D02*
G75*
G03*
X82774800Y-174425200I31750J0D01*
G01*
X74932006Y-168450157D02*
G75*
G03*
X74441157Y-168830994I-55006J-435843D01*
G01*
X79576800Y-159917300D02*
G75*
G03*
X79526000Y-159917300I-25400J0D01*
G01*
X78400000Y-162627900D02*
G75*
G03*
X78364000Y-162663900I-18000J-18000D01*
G01*
X54800300Y-163186900D02*
G75*
G03*
X54872100Y-163258700I35900J-35900D01*
G01*
X57427000Y-153062800D02*
G75*
G03*
X57325400Y-153062800I-50800J0D01*
G01*
X55435300Y-152463700D02*
G75*
G03*
X55507100Y-152391900I35900J35900D01*
G01*
X56705300Y-152391900D02*
G75*
G03*
X56777100Y-152463700I35900J-35900D01*
G01*
X57325400Y-156872800D02*
G75*
G03*
X57427000Y-156872800I50800J0D01*
G01*
X78992100Y-159917300D02*
G75*
G03*
X78941300Y-159917300I-25400J0D01*
G01*
X79356500Y-161696800D02*
G75*
G03*
X79356500Y-161646000I0J25400D01*
G01*
X73520100Y-146702300D02*
G75*
G03*
X73591900Y-146774100I35900J-35900D01*
G01*
X55435300Y-155003700D02*
G75*
G03*
X55507100Y-154931900I35900J35900D01*
G01*
X78594900Y-159740400D02*
G75*
G03*
X78558900Y-159704500I-11607J24361D01*
G01*
X82171300Y-163712200D02*
G75*
G03*
X82234800Y-163712200I31750J0D01*
G01*
X54887000Y-163222800D02*
G75*
G03*
X54785400Y-163222800I-50800J0D01*
G01*
X56705300Y-154931900D02*
G75*
G03*
X56777100Y-155003700I35900J-35900D01*
G01*
X78828734Y-157462203D02*
G75*
G03*
X79078703Y-157762166I274965J-24998D01*
G01*
X71016000Y-146789000D02*
G75*
G03*
X71016000Y-146687400I0J50800D01*
G01*
X74201465Y-172783665D02*
G75*
G03*
X74201465Y-171005665I-10J889000D01*
G01*
X78036900Y-172483300D02*
G75*
G03*
X77965100Y-172555100I-35900J-35900D01*
G01*
X54785400Y-154332800D02*
G75*
G03*
X54887000Y-154332800I50800J0D01*
G01*
X68937606Y-168424757D02*
G75*
G03*
X68446757Y-168805594I-55006J-435843D01*
G01*
X78407400Y-162256100D02*
G75*
G03*
X78356600Y-162256100I-25400J0D01*
G01*
X55435300Y-157543700D02*
G75*
G03*
X55507100Y-157471900I35900J35900D01*
G01*
X79906000Y-149837000D02*
G75*
G03*
X79906000Y-149735400I0J50800D01*
G01*
X76823600Y-163134200D02*
G75*
G03*
X76760100Y-163134200I-31750J0D01*
G01*
X56705300Y-160011900D02*
G75*
G03*
X56777100Y-160083700I35900J-35900D01*
G01*
X77939700Y-157844000D02*
G75*
G03*
X77939700Y-157780500I-50J31750D01*
G01*
X78407400Y-161086700D02*
G75*
G03*
X78356600Y-161086700I-25400J0D01*
G01*
X63396000Y-146789000D02*
G75*
G03*
X63396000Y-146687400I0J50800D01*
G01*
X54760000Y-176583200D02*
G75*
G03*
X56665000Y-178488200I1905000J0D01*
G01*
X57340300Y-158178700D02*
G75*
G03*
X57412100Y-158106900I35900J35900D01*
G01*
X77413300Y-164080800D02*
G75*
G03*
X77476800Y-164080800I31750J0D01*
G01*
X76787900Y-158113900D02*
G75*
G03*
X76787900Y-158177400I-50J-31750D01*
G01*
X69746000Y-146687400D02*
G75*
G03*
X69746000Y-146789000I0J-50800D01*
G01*
X57412100Y-161988700D02*
G75*
G03*
X57340300Y-161916900I-35900J35900D01*
G01*
X55507100Y-152463700D02*
G75*
G03*
X55435300Y-152391900I-35900J35900D01*
G01*
X68511900Y-144162300D02*
G75*
G03*
X68440100Y-144234100I-35900J-35900D01*
G01*
X80505100Y-150457100D02*
G75*
G03*
X80576900Y-150385300I35900J35900D01*
G01*
X72250100Y-146774100D02*
G75*
G03*
X72321900Y-146702300I35900J35900D01*
G01*
X77056300Y-163318000D02*
G75*
G03*
X76756300Y-163018000I-300000J0D01*
G01*
X77428300Y-163832800D02*
G75*
G03*
X77428300Y-163769300I-50J31750D01*
G01*
X57325400Y-161952800D02*
G75*
G03*
X57427000Y-161952800I50800J0D01*
G01*
X71615100Y-144869100D02*
G75*
G03*
X71686900Y-144797300I35900J35900D01*
G01*
X57412100Y-156908700D02*
G75*
G03*
X57340300Y-156836900I-35900J35900D01*
G01*
X81521300Y-164662200D02*
G75*
G03*
X81584800Y-164662200I31750J0D01*
G01*
X80591800Y-150421200D02*
G75*
G03*
X80490200Y-150421200I-50800J0D01*
G01*
X82774800Y-165425200D02*
G75*
G03*
X82711300Y-165425200I-31750J0D01*
G01*
X76756300Y-158916400D02*
G75*
G03*
X77056300Y-158616400I0J300000D01*
G01*
X80081066Y-157462197D02*
G75*
G03*
X79831097Y-157162234I-274965J24998D01*
G01*
X77476800Y-157813600D02*
G75*
G03*
X77413300Y-157813600I-31750J0D01*
G01*
X79870100Y-152290300D02*
G75*
G03*
X79941900Y-152362100I35900J-35900D01*
G01*
X75442794Y-168851001D02*
G75*
G03*
X74932001Y-168450206I-455794J-54999D01*
G01*
X71051900Y-144162300D02*
G75*
G03*
X70980100Y-144234100I-35900J-35900D01*
G01*
X62161900Y-144234100D02*
G75*
G03*
X62090100Y-144162300I-35900J35900D01*
G01*
X77987400Y-164092000D02*
G75*
G03*
X77923900Y-164092000I-31750J0D01*
G01*
X77450500Y-157780500D02*
G75*
G03*
X77450500Y-157844000I-50J-31750D01*
G01*
X79338500Y-161653400D02*
G75*
G03*
X79374500Y-161689400I18000J-18000D01*
G01*
X74140200Y-146103200D02*
G75*
G03*
X74241800Y-146103200I50800J0D01*
G01*
X77439900Y-158177400D02*
G75*
G03*
X77439900Y-158113900I-50J31750D01*
G01*
X78671900Y-170650100D02*
G75*
G03*
X78600100Y-170578300I-35900J35900D01*
G01*
X73591900Y-144162300D02*
G75*
G03*
X73520100Y-144234100I-35900J-35900D01*
G01*
X71686900Y-146067300D02*
G75*
G03*
X71615100Y-146139100I-35900J-35900D01*
G01*
X80576900Y-172555100D02*
G75*
G03*
X80505100Y-172483300I-35900J35900D01*
G01*
X69781900Y-144234100D02*
G75*
G03*
X69710100Y-144162300I-35900J35900D01*
G01*
X79374500Y-160873800D02*
G75*
G03*
X79338500Y-160909800I-18000J-18000D01*
G01*
X57412100Y-164528700D02*
G75*
G03*
X57340300Y-164456900I-35900J35900D01*
G01*
X78576900Y-160866400D02*
G75*
G03*
X78576900Y-160917200I0J-25400D01*
G01*
X68476000Y-144249000D02*
G75*
G03*
X68476000Y-144147400I0J50800D01*
G01*
X81998100Y-163930800D02*
G75*
G03*
X82008100Y-163993600I5000J-31400D01*
G01*
X56777100Y-149851900D02*
G75*
G03*
X56705300Y-149923700I-35900J-35900D01*
G01*
X81553100Y-157930500D02*
G75*
G03*
X81553100Y-157994000I0J-31750D01*
G01*
X54887000Y-165762800D02*
G75*
G03*
X54785400Y-165762800I-50800J0D01*
G01*
X79870100Y-154830300D02*
G75*
G03*
X79941900Y-154902100I35900J-35900D01*
G01*
X54872100Y-164456900D02*
G75*
G03*
X54800300Y-164528700I-35900J-35900D01*
G01*
X56777100Y-160011900D02*
G75*
G03*
X56705300Y-160083700I-35900J-35900D01*
G01*
X74201465Y-171005665D02*
G75*
G03*
X74201465Y-172783665I-10J-889000D01*
G01*
X79143600Y-161689400D02*
G75*
G03*
X79179600Y-161653400I18000J18000D01*
G01*
X56777100Y-165091900D02*
G75*
G03*
X56705300Y-165163700I-35900J-35900D01*
G01*
X79078703Y-157162234D02*
G75*
G03*
X78828734Y-157462197I24996J-274965D01*
G01*
X76790500Y-158791700D02*
G75*
G03*
X76790500Y-158855200I-50J-31750D01*
G01*
X80576900Y-154267100D02*
G75*
G03*
X80505100Y-154195300I-35900J35900D01*
G01*
X78600100Y-152362100D02*
G75*
G03*
X78671900Y-152290300I35900J35900D01*
G01*
X54872100Y-161916900D02*
G75*
G03*
X54800300Y-161988700I-35900J-35900D01*
G01*
X66606900Y-146067300D02*
G75*
G03*
X66535100Y-146139100I-35900J-35900D01*
G01*
X76819000Y-158146200D02*
G75*
G03*
X76755500Y-158146200I-31750J0D01*
G01*
X81584800Y-157262200D02*
G75*
G03*
X81521300Y-157262200I-31750J0D01*
G01*
X79551400Y-162086600D02*
G75*
G03*
X79551400Y-162035800I0J25400D01*
G01*
X70980100Y-146702300D02*
G75*
G03*
X71051900Y-146774100I35900J-35900D01*
G01*
X79526000Y-160502000D02*
G75*
G03*
X79576800Y-160502000I25400J0D01*
G01*
X65971900Y-144162300D02*
G75*
G03*
X65900100Y-144234100I-35900J-35900D01*
G01*
X55471200Y-167617000D02*
G75*
G03*
X55471200Y-167718600I0J-50800D01*
G01*
X62126000Y-146687400D02*
G75*
G03*
X62126000Y-146789000I0J-50800D01*
G01*
X70746957Y-174435194D02*
G75*
G03*
X71127794Y-174926043I435843J-55006D01*
G01*
X56777100Y-152391900D02*
G75*
G03*
X56705300Y-152463700I-35900J-35900D01*
G01*
X78948700Y-159935300D02*
G75*
G03*
X78984700Y-159899400I18000J17950D01*
G01*
X61526900Y-146067300D02*
G75*
G03*
X61455100Y-146139100I-35900J-35900D01*
G01*
X61455100Y-144797300D02*
G75*
G03*
X61526900Y-144869100I35900J-35900D01*
G01*
X80505100Y-168745100D02*
G75*
G03*
X80576900Y-168673300I35900J35900D01*
G01*
X76760100Y-163796200D02*
G75*
G03*
X76823600Y-163796200I31750J0D01*
G01*
X68440100Y-146702300D02*
G75*
G03*
X68511900Y-146774100I35900J-35900D01*
G01*
X80591800Y-168709200D02*
G75*
G03*
X80490200Y-168709200I-50800J0D01*
G01*
X81530400Y-157216800D02*
G75*
G03*
X81575800Y-157307600I22700J-45400D01*
G01*
X77950200Y-169979200D02*
G75*
G03*
X78051800Y-169979200I50800J0D01*
G01*
D18*
X84806200Y-173996200D02*
X84806200Y-173076200D01*
X83206200Y-168796200D02*
X83206200Y-167876200D01*
X88766200Y-169636200D02*
X91026200Y-169636200D01*
X88766200Y-168636200D02*
X88766200Y-169636200D01*
X88766200Y-169636200D02*
X87166200Y-169636200D01*
X83206200Y-173076200D02*
X84806200Y-173076200D01*
X87166200Y-172236200D02*
X87166200Y-173236200D01*
X84806200Y-168796200D02*
X83206200Y-168796200D01*
X84806200Y-167876200D02*
X84806200Y-168796200D01*
X83206200Y-173996200D02*
X83206200Y-173076200D01*
X88766200Y-172236200D02*
X87166200Y-172236200D01*
X87166200Y-173236200D02*
X88766200Y-173236200D01*
X91026200Y-170436200D02*
X86666200Y-170436200D01*
X86666200Y-171436200D02*
X91026200Y-171436200D01*
X91026200Y-167876200D02*
X91026200Y-173996200D01*
X84806200Y-173076200D02*
X84806200Y-172796200D01*
X87166200Y-168636200D02*
X88766200Y-168636200D01*
X84806200Y-169076200D02*
X84806200Y-168796200D01*
X83206200Y-167876200D02*
X91026200Y-167876200D01*
X86666200Y-170436200D02*
X86666200Y-171436200D01*
X91026200Y-173996200D02*
X83206200Y-173996200D01*
X87166200Y-169636200D02*
X87166200Y-168636200D01*
X88766200Y-169136200D02*
X91026200Y-169136200D01*
X88766200Y-173236200D02*
X88766200Y-172236200D01*
X84806200Y-169076200D02*
X83591200Y-169076200D01*
D22*
X224294700Y-138011800D02*
X228104700Y-138011800D01*
X228104700Y-136233800D02*
X224294700Y-136233800D01*
X228104700Y-138011800D02*
X228104700Y-136233800D01*
X224294700Y-136233800D02*
X224294700Y-138011800D01*
D18*
X83206200Y-152596200D02*
X83206200Y-151676200D01*
X84806200Y-143396200D02*
X83206200Y-143396200D01*
X84806200Y-143676200D02*
X83591200Y-143676200D01*
X91026200Y-145036200D02*
X86666200Y-145036200D01*
X88766200Y-143236200D02*
X88766200Y-144236200D01*
X88766200Y-143736200D02*
X91026200Y-143736200D01*
X84806200Y-152596200D02*
X84806200Y-151676200D01*
X83206200Y-151676200D02*
X84806200Y-151676200D01*
X84806200Y-151676200D02*
X84806200Y-151396200D01*
X86666200Y-150036200D02*
X91026200Y-150036200D01*
X91026200Y-142476200D02*
X91026200Y-152596200D01*
X88766200Y-151836200D02*
X88766200Y-150836200D01*
X84806200Y-142476200D02*
X84806200Y-143396200D01*
X83206200Y-143396200D02*
X83206200Y-142476200D01*
X83206200Y-142476200D02*
X91026200Y-142476200D01*
X84806200Y-143676200D02*
X84806200Y-143396200D01*
X88766200Y-144236200D02*
X91026200Y-144236200D01*
X86666200Y-145036200D02*
X86666200Y-150036200D01*
X91026200Y-152596200D02*
X83206200Y-152596200D01*
X87166200Y-151836200D02*
X88766200Y-151836200D01*
X87166200Y-150836200D02*
X87166200Y-151836200D01*
X87166200Y-143236200D02*
X88766200Y-143236200D01*
X88766200Y-150836200D02*
X87166200Y-150836200D01*
X88766200Y-144236200D02*
X87166200Y-144236200D01*
X87166200Y-144236200D02*
X87166200Y-143236200D01*
D22*
X213322200Y-146617800D02*
X213322200Y-149217800D01*
X218122200Y-149217800D02*
X218122200Y-146617800D01*
X213522200Y-149417800D02*
G75*
G03*
X213322200Y-149217800I-200000J0D01*
G01*
X217922200Y-146417800D02*
G75*
G03*
X218122200Y-146617800I200001J1D01*
G01*
X213322200Y-146617800D02*
G75*
G03*
X213522200Y-146417800I0J200000D01*
G01*
X218122200Y-149217800D02*
G75*
G03*
X217922200Y-149417800I1J-200001D01*
G01*
D14*
X92299962Y-131397800D02*
X92299962Y-123777800D01*
X92299962Y-123777800D02*
X91029962Y-123777800D01*
X68804962Y-132667800D02*
X78964962Y-132667800D01*
X68169962Y-122507800D02*
X65629962Y-122507800D01*
X55469962Y-136477800D02*
X91029962Y-136477800D01*
X85949962Y-131397800D02*
X85949962Y-123777800D01*
X55469962Y-118697800D02*
X55469962Y-136477800D01*
X58517962Y-126317800D02*
X58517962Y-128857800D01*
X68804962Y-122507800D02*
X78964962Y-122507800D01*
X85949962Y-123777800D02*
X91029962Y-123777800D01*
X65629962Y-122507800D02*
X65629962Y-125682800D01*
X91029962Y-136477800D02*
X91029962Y-118697800D01*
X85949962Y-131397800D02*
X91029962Y-131397800D01*
X63089962Y-128857800D02*
X63089962Y-126317800D01*
X68169962Y-125682800D02*
X68169962Y-122507800D01*
X65629962Y-125682800D02*
X68169962Y-125682800D01*
X63089962Y-126317800D02*
X58517962Y-126317800D01*
X68804962Y-132667800D02*
X68804962Y-122507800D01*
X91029962Y-118697800D02*
X55469962Y-118697800D01*
X78964962Y-122507800D02*
X78964962Y-132667800D01*
X58517962Y-128857800D02*
X63089962Y-128857800D01*
X91029962Y-131397800D02*
X92299962Y-131397800D01*
G36*
X75662962Y-127968800D02*
G01*
X75408962Y-128349800D01*
X75154962Y-128095800D01*
X75408962Y-127714800D01*
X75662962Y-127968800D01*
G37*
D24*
X75662962Y-127968800D02*
X75408962Y-128349800D01*
X75154962Y-128095800D01*
X75408962Y-127714800D01*
X75662962Y-127968800D01*
G36*
X77186962Y-127714800D02*
G01*
X76932962Y-128095800D01*
X76678962Y-127841800D01*
X76932962Y-127460800D01*
X77186962Y-127714800D01*
G37*
X77186962Y-127714800D02*
X76932962Y-128095800D01*
X76678962Y-127841800D01*
X76932962Y-127460800D01*
X77186962Y-127714800D01*
G36*
X76043962Y-127460800D02*
G01*
X75789962Y-127841800D01*
X75535962Y-127587800D01*
X75789962Y-127206800D01*
X76043962Y-127460800D01*
G37*
X76043962Y-127460800D02*
X75789962Y-127841800D01*
X75535962Y-127587800D01*
X75789962Y-127206800D01*
X76043962Y-127460800D01*
G36*
X76424962Y-126952800D02*
G01*
X76170962Y-127333800D01*
X75916962Y-127079800D01*
X76170962Y-126698800D01*
X76424962Y-126952800D01*
G37*
X76424962Y-126952800D02*
X76170962Y-127333800D01*
X75916962Y-127079800D01*
X76170962Y-126698800D01*
X76424962Y-126952800D01*
G36*
X75281962Y-127587800D02*
G01*
X75027962Y-127968800D01*
X74773962Y-127714800D01*
X75027962Y-127333800D01*
X75281962Y-127587800D01*
G37*
X75281962Y-127587800D02*
X75027962Y-127968800D01*
X74773962Y-127714800D01*
X75027962Y-127333800D01*
X75281962Y-127587800D01*
G36*
X74900962Y-128095800D02*
G01*
X74646962Y-128476800D01*
X74392962Y-128222800D01*
X74646962Y-127841800D01*
X74900962Y-128095800D01*
G37*
X74900962Y-128095800D02*
X74646962Y-128476800D01*
X74392962Y-128222800D01*
X74646962Y-127841800D01*
X74900962Y-128095800D01*
G36*
X76805962Y-127333800D02*
G01*
X76551962Y-127714800D01*
X76297962Y-127460800D01*
X76551962Y-127079800D01*
X76805962Y-127333800D01*
G37*
X76805962Y-127333800D02*
X76551962Y-127714800D01*
X76297962Y-127460800D01*
X76551962Y-127079800D01*
X76805962Y-127333800D01*
G36*
X75662962Y-127079800D02*
G01*
X75408962Y-127460800D01*
X75154962Y-127206800D01*
X75408962Y-126825800D01*
X75662962Y-127079800D01*
G37*
X75662962Y-127079800D02*
X75408962Y-127460800D01*
X75154962Y-127206800D01*
X75408962Y-126825800D01*
X75662962Y-127079800D01*
%LPC*%
D25*
X49685200Y-178847800D03*
D26*
X201212200Y-164857800D03*
X259212200Y-115857800D03*
X201212200Y-115857800D03*
D27*
X254342200Y-163587800D03*
D28*
X254342200Y-166127800D03*
X251802200Y-163587800D03*
X251802200Y-166127800D03*
X249262200Y-163587800D03*
X249262200Y-166127800D03*
X246722200Y-163587800D03*
X246722200Y-166127800D03*
X244182200Y-163587800D03*
X244182200Y-166127800D03*
X241642200Y-163587800D03*
X241642200Y-166127800D03*
X239102200Y-163587800D03*
X239102200Y-166127800D03*
X236562200Y-163587800D03*
X236562200Y-166127800D03*
X234022200Y-163587800D03*
X234022200Y-166127800D03*
X231482200Y-163587800D03*
X231482200Y-166127800D03*
X228942200Y-163587800D03*
X228942200Y-166127800D03*
X226402200Y-163587800D03*
X226402200Y-166127800D03*
X223862200Y-163587800D03*
X223862200Y-166127800D03*
X221322200Y-163587800D03*
X221322200Y-166127800D03*
X218782200Y-163587800D03*
X218782200Y-166127800D03*
X216242200Y-163587800D03*
X216242200Y-166127800D03*
X213702200Y-163587800D03*
X213702200Y-166127800D03*
X211162200Y-163587800D03*
X211162200Y-166127800D03*
X208622200Y-163587800D03*
X208622200Y-166127800D03*
X206082200Y-163587800D03*
X206082200Y-166127800D03*
D29*
X290912200Y-167717800D03*
X290912200Y-172717800D03*
X290912200Y-170217800D03*
D30*
X298412200Y-164502800D03*
X298412200Y-175932800D03*
D31*
X107495200Y-154847800D03*
D32*
X109995200Y-154847800D03*
X112495200Y-154847800D03*
D33*
X105595200Y-147847800D03*
X114395200Y-147847800D03*
D31*
X148135200Y-177707800D03*
D32*
X150635200Y-177707800D03*
X153135200Y-177707800D03*
D33*
X155035200Y-170707800D03*
X146235200Y-170707800D03*
D25*
X49685200Y-115847800D03*
D31*
X107495200Y-131987800D03*
D32*
X109995200Y-131987800D03*
X112495200Y-131987800D03*
D33*
X105595200Y-124987800D03*
X114395200Y-124987800D03*
D34*
X304212200Y-124497800D03*
D35*
X299132200Y-124497800D03*
X309292200Y-124497800D03*
D36*
X306752200Y-119417800D03*
X300402200Y-121957800D03*
D25*
X259212200Y-178857800D03*
D31*
X148135200Y-154847800D03*
D32*
X150635200Y-154847800D03*
X153135200Y-154847800D03*
D33*
X155035200Y-147847800D03*
X146235200Y-147847800D03*
D37*
X93980200Y-117227800D03*
X96180200Y-116427800D03*
X93980200Y-118027800D03*
X96180200Y-118027800D03*
X96180200Y-117227800D03*
X93980200Y-116427800D03*
D31*
X107495200Y-177707800D03*
D32*
X109995200Y-177707800D03*
X112495200Y-177707800D03*
D33*
X105595200Y-170707800D03*
X114395200Y-170707800D03*
D29*
X264792200Y-121997800D03*
X264792200Y-126997800D03*
X264792200Y-124497800D03*
D30*
X272292200Y-118782800D03*
X272292200Y-130212800D03*
D31*
X168455200Y-177707800D03*
D32*
X170955200Y-177707800D03*
X173455200Y-177707800D03*
D33*
X175355200Y-170707800D03*
X166555200Y-170707800D03*
D25*
X181107200Y-178857800D03*
X99835200Y-115847800D03*
D31*
X127815200Y-131987800D03*
D32*
X130315200Y-131987800D03*
X132815200Y-131987800D03*
D33*
X134715200Y-124987800D03*
X125915200Y-124987800D03*
D25*
X90325200Y-178847800D03*
D31*
X127815200Y-177707800D03*
D32*
X130315200Y-177707800D03*
X132815200Y-177707800D03*
D33*
X134715200Y-170707800D03*
X125915200Y-170707800D03*
D25*
X140475200Y-178847800D03*
X90325200Y-115847800D03*
D37*
X93980200Y-177487800D03*
X96180200Y-177487800D03*
X93980200Y-176687800D03*
X93980200Y-178287800D03*
X96180200Y-178287800D03*
X96180200Y-176687800D03*
D38*
X181667200Y-131112800D03*
X258667200Y-131112800D03*
D39*
X196037200Y-173612800D03*
D40*
X198577200Y-173612800D03*
X201117200Y-173612800D03*
X203657200Y-173612800D03*
X206197200Y-173612800D03*
X208737200Y-173612800D03*
X211277200Y-173612800D03*
X213817200Y-173612800D03*
X216357200Y-173612800D03*
X218897200Y-173612800D03*
X221437200Y-173612800D03*
X223977200Y-173612800D03*
X226517200Y-173612800D03*
X229057200Y-173612800D03*
X231597200Y-173612800D03*
X234137200Y-173612800D03*
X236677200Y-173612800D03*
X239217200Y-173612800D03*
X241757200Y-173612800D03*
X244297200Y-173612800D03*
D31*
X168455200Y-154847800D03*
D32*
X170955200Y-154847800D03*
X173455200Y-154847800D03*
D33*
X175355200Y-147847800D03*
X166555200Y-147847800D03*
D29*
X306872200Y-144857800D03*
X306872200Y-149857800D03*
X306872200Y-147357800D03*
D30*
X314372200Y-141642800D03*
X314372200Y-153072800D03*
D25*
X99835200Y-178847800D03*
X340492200Y-115857800D03*
D34*
X272292200Y-170217800D03*
D35*
X277372200Y-170217800D03*
X267212200Y-170217800D03*
D36*
X274832200Y-165137800D03*
X268482200Y-167677800D03*
D41*
X234142800Y-147199800D03*
X243542800Y-126399800D03*
X252942800Y-147199800D03*
D42*
X237192800Y-147199800D03*
X239732800Y-147199800D03*
X242272800Y-147199800D03*
X244812800Y-147199800D03*
X247352800Y-147199800D03*
X249892800Y-147199800D03*
D43*
X50320200Y-125757800D03*
D44*
X50320200Y-128297800D03*
X50320200Y-130837800D03*
X50320200Y-133377800D03*
X50320200Y-135917800D03*
X50320200Y-138457800D03*
X50320200Y-140997800D03*
X50320200Y-143537800D03*
X50320200Y-146077800D03*
X50320200Y-148617800D03*
X50320200Y-151157800D03*
X50320200Y-153697800D03*
X50320200Y-156237800D03*
X50320200Y-158777800D03*
X50320200Y-161317800D03*
X50320200Y-163857800D03*
X50320200Y-166397800D03*
X50320200Y-168937800D03*
D35*
X283172200Y-147357800D03*
X293332200Y-147357800D03*
D34*
X288252200Y-147357800D03*
D36*
X290792200Y-142277800D03*
X284442200Y-144817800D03*
D31*
X127815200Y-154847800D03*
D32*
X130315200Y-154847800D03*
X132815200Y-154847800D03*
D33*
X125915200Y-147847800D03*
X134715200Y-147847800D03*
D25*
X340492200Y-178857800D03*
D31*
X148135200Y-131987800D03*
D32*
X150635200Y-131987800D03*
X153135200Y-131987800D03*
D33*
X155035200Y-124987800D03*
X146235200Y-124987800D03*
D29*
X322832200Y-121997800D03*
X322832200Y-126997800D03*
X322832200Y-124497800D03*
D30*
X330332200Y-118782800D03*
X330332200Y-130212800D03*
D25*
X140475200Y-115847800D03*
D31*
X168455200Y-131987800D03*
D32*
X170955200Y-131987800D03*
X173455200Y-131987800D03*
D33*
X166555200Y-124987800D03*
X175355200Y-124987800D03*
D45*
X209372200Y-115497800D03*
X209372200Y-121497800D03*
D46*
X206872200Y-117797800D03*
X211872200Y-114897800D03*
X207172200Y-123597800D03*
X211872200Y-121797800D03*
D47*
X301037200Y-154557800D03*
X301037200Y-152857800D03*
D48*
X210642200Y-130352800D03*
X210642200Y-128652800D03*
D49*
X221017200Y-130455300D03*
X219317200Y-130455300D03*
D50*
X288887200Y-152857800D03*
X288887200Y-154557800D03*
X293136200Y-175717800D03*
X293136200Y-177417800D03*
X219532200Y-147067800D03*
X219532200Y-148767800D03*
D47*
X316997200Y-131697800D03*
X316997200Y-129997800D03*
D50*
X318902200Y-129997800D03*
X318902200Y-131697800D03*
D43*
X100470200Y-125757800D03*
D44*
X100470200Y-128297800D03*
X100470200Y-130837800D03*
X100470200Y-133377800D03*
X100470200Y-135917800D03*
X100470200Y-138457800D03*
X100470200Y-140997800D03*
X100470200Y-143537800D03*
X100470200Y-146077800D03*
X100470200Y-148617800D03*
X100470200Y-151157800D03*
X100470200Y-153697800D03*
X100470200Y-156237800D03*
X100470200Y-158777800D03*
X100470200Y-161317800D03*
X100470200Y-163857800D03*
X100470200Y-166397800D03*
X100470200Y-168937800D03*
D47*
X216357200Y-139242800D03*
X216357200Y-137542800D03*
X270507200Y-136697800D03*
X270507200Y-134997800D03*
D50*
X289326200Y-175717800D03*
X289326200Y-177417800D03*
X272927200Y-175717800D03*
X272927200Y-177417800D03*
D51*
X218262200Y-139157800D03*
X218262200Y-136357800D03*
D50*
X287421200Y-175717800D03*
X287421200Y-177417800D03*
X302942200Y-152857800D03*
X302942200Y-154557800D03*
X320807200Y-129997800D03*
X320807200Y-131697800D03*
X266697200Y-134997800D03*
X266697200Y-136697800D03*
D52*
X84666200Y-157236200D03*
D53*
X84666200Y-159236200D03*
X84666200Y-161236200D03*
X84666200Y-163236200D03*
D54*
X206197200Y-141352800D03*
X206197200Y-143052800D03*
D50*
X291231200Y-175717800D03*
X291231200Y-177417800D03*
D55*
X212227200Y-132042800D03*
X210327200Y-132042800D03*
D56*
X219217200Y-132360300D03*
X221117200Y-132360300D03*
D50*
X264792200Y-134997800D03*
X264792200Y-136697800D03*
X308657200Y-152857800D03*
X308657200Y-154557800D03*
D54*
X216357200Y-141352800D03*
X216357200Y-143052800D03*
D57*
X214852200Y-143215600D03*
X214202200Y-143215600D03*
X213552200Y-143215600D03*
X212902200Y-143215600D03*
X212252200Y-143215600D03*
X211602200Y-143215600D03*
X210952200Y-143215600D03*
X210302200Y-143215600D03*
X209652200Y-143215600D03*
X209002200Y-143215600D03*
X208352200Y-143215600D03*
X207702200Y-143215600D03*
X207702200Y-137380000D03*
X208352200Y-137380000D03*
X209002200Y-137380000D03*
X209652200Y-137380000D03*
X210302200Y-137380000D03*
X210952200Y-137380000D03*
X211602200Y-137380000D03*
X212252200Y-137380000D03*
X212902200Y-137380000D03*
X213552200Y-137380000D03*
X214202200Y-137380000D03*
X214852200Y-137380000D03*
D58*
X204292200Y-141437800D03*
X204292200Y-144237800D03*
D50*
X268602200Y-134997800D03*
X268602200Y-136697800D03*
D48*
X306752200Y-131697800D03*
X306752200Y-129997800D03*
D50*
X306752200Y-152857800D03*
X306752200Y-154557800D03*
D59*
X212127200Y-133947800D03*
X210427200Y-133947800D03*
D50*
X262887200Y-134997800D03*
X262887200Y-136697800D03*
D54*
X226517200Y-128652800D03*
X226517200Y-130352800D03*
D47*
X295041200Y-177417800D03*
X295041200Y-175717800D03*
D55*
X224927200Y-132360300D03*
X223027200Y-132360300D03*
D60*
X227499700Y-139347800D03*
X227499700Y-140297800D03*
X227499700Y-141247800D03*
D61*
X224899700Y-141247800D03*
X224899700Y-140297800D03*
D60*
X224899700Y-139347800D03*
D47*
X221119700Y-139242800D03*
X221119700Y-137542800D03*
D54*
X217627200Y-128652800D03*
X217627200Y-130352800D03*
D47*
X302942200Y-131697800D03*
X302942200Y-129997800D03*
D62*
X223127200Y-128867800D03*
X224827200Y-128867800D03*
D49*
X221017200Y-128867800D03*
X219317200Y-128867800D03*
D47*
X310562200Y-154557800D03*
X310562200Y-152857800D03*
X286982200Y-154557800D03*
X286982200Y-152857800D03*
D50*
X322712200Y-129997800D03*
X322712200Y-131697800D03*
X304847200Y-129997800D03*
X304847200Y-131697800D03*
D48*
X290792200Y-154557800D03*
X290792200Y-152857800D03*
D62*
X223127200Y-130455300D03*
X224827200Y-130455300D03*
D54*
X229057200Y-139130300D03*
X229057200Y-140830300D03*
D48*
X208102200Y-130352800D03*
X208102200Y-128652800D03*
D47*
X271022200Y-177417800D03*
X271022200Y-175717800D03*
D63*
X218262200Y-141252800D03*
X218262200Y-143152800D03*
D45*
X222072200Y-121497800D03*
X222072200Y-115497800D03*
D46*
X219572200Y-117797800D03*
X224572200Y-114897800D03*
X219872200Y-123597800D03*
X224572200Y-121797800D03*
D64*
X204292200Y-139342800D03*
X204292200Y-137442800D03*
D50*
X324617200Y-129997800D03*
X324617200Y-131697800D03*
D65*
X225349700Y-142837800D03*
X227049700Y-142837800D03*
D47*
X260982200Y-136697800D03*
X260982200Y-134997800D03*
D50*
X304847200Y-152857800D03*
X304847200Y-154557800D03*
X201117200Y-138812800D03*
X201117200Y-140512800D03*
D41*
X56921000Y-146477800D03*
X56921000Y-176197800D03*
X78511000Y-176197800D03*
X78511000Y-146477800D03*
D42*
X72921000Y-145468200D03*
X70381000Y-145468200D03*
X67841000Y-145468200D03*
X65301000Y-145468200D03*
X62761000Y-145468200D03*
X56106200Y-151157800D03*
X56106200Y-153697800D03*
X56106200Y-156237800D03*
X56106200Y-158777800D03*
X56106200Y-161317800D03*
X56106200Y-163857800D03*
X56106200Y-166397800D03*
X79271000Y-171884200D03*
X79271000Y-169344200D03*
X79271000Y-153596200D03*
X79271000Y-151056200D03*
D52*
X84666200Y-169936200D03*
D53*
X84666200Y-171936200D03*
D66*
X225183700Y-137122800D03*
X227215700Y-137122800D03*
D48*
X206514700Y-130352800D03*
X206514700Y-128652800D03*
D59*
X216572200Y-151410300D03*
X214872200Y-151410300D03*
D52*
X84666200Y-144536200D03*
D53*
X84666200Y-146536200D03*
X84666200Y-148536200D03*
X84666200Y-150536200D03*
D63*
X223024700Y-139347800D03*
X223024700Y-141247800D03*
D48*
X274832200Y-177417800D03*
X274832200Y-175717800D03*
D47*
X326522200Y-131697800D03*
X326522200Y-129997800D03*
D56*
X206517200Y-132042800D03*
X208417200Y-132042800D03*
D67*
X216972200Y-149067800D03*
X214472200Y-149067800D03*
D68*
X214472200Y-146767800D03*
X216972200Y-146767800D03*
D65*
X206617200Y-133947800D03*
X208317200Y-133947800D03*
D45*
X89759962Y-135207800D03*
X87219962Y-135207800D03*
X84679962Y-135207800D03*
X82139962Y-135207800D03*
X79599962Y-135207800D03*
X77059962Y-135207800D03*
X74519962Y-135207800D03*
X71979962Y-135207800D03*
X69439962Y-135207800D03*
X66899962Y-135207800D03*
X64359962Y-135207800D03*
X61819962Y-135207800D03*
X59279962Y-135207800D03*
X56739962Y-135207800D03*
X56739962Y-132667800D03*
X56739962Y-130127800D03*
X56739962Y-127587800D03*
X56739962Y-125047800D03*
X56739962Y-122507800D03*
X56739962Y-119967800D03*
X59279962Y-119967800D03*
X61819962Y-119967800D03*
X64359962Y-119967800D03*
X66899962Y-119967800D03*
X69439962Y-119967800D03*
X71979962Y-119967800D03*
X74519962Y-119967800D03*
X77059962Y-119967800D03*
X79599962Y-119967800D03*
X82139962Y-119967800D03*
X84679962Y-119967800D03*
X87219962Y-119967800D03*
X89759962Y-119967800D03*
X87219962Y-122507800D03*
X61819962Y-122507800D03*
X64359962Y-122507800D03*
X61819962Y-125047800D03*
X64359962Y-125047800D03*
X61819962Y-127587800D03*
X64359962Y-127587800D03*
X61819962Y-130127800D03*
X64359962Y-130127800D03*
X61819962Y-132667800D03*
X64359962Y-132667800D03*
D48*
X212229700Y-130352800D03*
X212229700Y-128652800D03*
D47*
X285516200Y-177417800D03*
X285516200Y-175717800D03*
X206197200Y-139242800D03*
X206197200Y-137542800D03*
M02*
