<?xml version="1.0" encoding="UTF-8" standalone="no"?>
<!-- Created with Inkscape (http://www.inkscape.org/) -->

<svg
   version="1.1"
   id="svg747"
   width="454"
   height="213"
   viewBox="0 0 454 213"
   xmlns="http://www.w3.org/2000/svg"
   xmlns:svg="http://www.w3.org/2000/svg">
  <defs
     id="defs751" />
  <g
     id="g753">
    <path
       style="fill:#a8aaac;stroke:none"
       d="M 66,1 20,145 7.66667,183 1,206 24,213 31,192 46,145 90,8 66,1 M 118,1 72,145 59.6667,183 53,206 76,213 83,192 98,145 142,8 118,1 m 52,0 -46,144 -12.333,38 -6.667,23 23,7 7,-21 15,-47 L 194,8 170,1 m 52,0 -46,144 -12.333,38 -6.667,23 23,7 7,-21 15,-47 L 246,8 222,1 m 52,0 -46,144 -12.333,38 -6.667,23 23,7 7,-21 15,-47 L 298,8 274,1 m 52,0 -46,144 -12.333,38 -6.667,23 23,7 7,-21 15,-47 L 350,8 326,1 m 52,0 -46,144 -12.333,38 -6.667,23 23,7 7,-21 15,-47 L 402,8 378,1 m 52,0 -46,144 -12.333,38 -6.667,23 23,7 7,-21 15,-47 44,-137 z"
       id="path1082" />
  </g>
</svg>
